<?xml version="1.0" encoding="utf-8"?>
<!-- Generator: Adobe Illustrator 24.0.1, SVG Export Plug-In . SVG Version: 6.00 Build 0)  -->
<svg version="1.1" id="Layer_1" xmlns="http://www.w3.org/2000/svg" xmlns:xlink="http://www.w3.org/1999/xlink" x="0px" y="0px"
	 viewBox="0 0 60 60" style="enable-background:new 0 0 60 60;" xml:space="preserve">
<style type="text/css">
	.st0{fill:#707070;}
	.st1{fill:#FFFFFF;stroke:#707070;stroke-miterlimit:10;}
	.st2{fill:#FFFFFF;stroke:#707070;stroke-width:2.9473;stroke-miterlimit:10;}
	.st3{fill:#FFFFFF;stroke:#707070;stroke-width:2.9903;stroke-miterlimit:10;}
	.st4{fill:#FFFFFF;stroke:#707070;stroke-width:2;stroke-miterlimit:10;}
	.st5{fill:none;stroke:#707070;stroke-width:2.5;stroke-miterlimit:10;}
	.st6{fill:none;stroke:#707070;stroke-width:2;stroke-miterlimit:10;}
</style>
<path class="st5" d="M33.1,38.1h-10c-1.4,0-2.5-1.1-2.5-2.5v-10c0-1.4,1.1-2.5,2.5-2.5h10c1.4,0,2.5,1.1,2.5,2.5v10
	C35.6,36.9,34.5,38.1,33.1,38.1z"/>
<path class="st5" d="M52.1,38.1h-10c-1.4,0-2.5-1.1-2.5-2.5v-10c0-1.4,1.1-2.5,2.5-2.5h10c1.4,0,2.5,1.1,2.5,2.5v10
	C54.6,36.9,53.5,38.1,52.1,38.1z"/>
<polygon class="st0" points="10.5,17.3 16.3,7.3 4.7,7.3 "/>
<line class="st3" x1="20" y1="12.7" x2="55" y2="12.7"/>
<polygon class="st0" points="10.5,54 16.3,44 4.7,44 "/>
<line class="st3" x1="20" y1="48.3" x2="55" y2="48.3"/>
</svg>
