<svg xmlns="http://www.w3.org/2000/svg" viewBox="0 0 43.76 68.45"><defs><style>.cls-1{fill:#014cb1;}.cls-10,.cls-11,.cls-12,.cls-14,.cls-15,.cls-16,.cls-2{fill:none;}.cls-10,.cls-11,.cls-12,.cls-2{stroke:#fff;}.cls-2{stroke-width:1.15px;}.cls-24,.cls-26,.cls-3,.cls-4{isolation:isolate;}.cls-3{font-size:4.18px;}.cls-26,.cls-28,.cls-3,.cls-4{fill:#fff;}.cls-3,.cls-4{font-family:ArialMT, Arial;}.cls-4{font-size:3.34px;}.cls-5{letter-spacing:-0.02em;}.cls-6{letter-spacing:-0.07em;}.cls-7{letter-spacing:-0.06em;}.cls-8{letter-spacing:-0.06em;}.cls-9{letter-spacing:-0.06em;}.cls-10,.cls-11{stroke-linecap:round;}.cls-10{stroke-width:0.86px;}.cls-11,.cls-12{stroke-width:0.58px;}.cls-13{fill:#9a916c;}.cls-14,.cls-15,.cls-16{stroke:#9a916c;}.cls-14{stroke-width:1.1px;}.cls-15{stroke-width:1.44px;}.cls-16{stroke-width:1.68px;}.cls-17{fill:#dcdcdc;}.cls-18{fill:#6e554b;}.cls-19{fill:#333;}.cls-20{fill:#8c8c8c;}.cls-21{fill:#6b6b6b;}.cls-22{fill:#cecece;}.cls-23{fill:#4d4d4d;}.cls-24{opacity:0.3;}.cls-25{fill:#1a1a1a;}.cls-26,.cls-27{opacity:0.4;}.cls-29{fill:#0c3878;}.cls-30{fill:#015dd9;}.cls-31{fill:#b4b4b4;}.cls-32{fill:#646464;}</style></defs><title>DEV_1</title><g id="Layer_2" data-name="Layer 2"><g id="svg4664"><path id="path4670" class="cls-1" d="M36,68.45H7.2A7.2,7.2,0,0,1,0,61.25H0v-54A7.2,7.2,0,0,1,7.2.05H36a7.2,7.2,0,0,1,7.2,7.2h0v54a7.2,7.2,0,0,1-7.2,7.2h0m-1.42-8.64a1.42,1.42,0,1,0,2.83,0h0a1.42,1.42,0,1,0-2.83,0Zm-7.2,0A1.42,1.42,0,1,0,28.8,58.4a1.42,1.42,0,0,0-1.42,1.42Zm-7.2,0A1.42,1.42,0,1,0,21.6,58.4a1.42,1.42,0,0,0-1.42,1.42Zm-7.2,0A1.42,1.42,0,1,0,14.4,58.4,1.42,1.42,0,0,0,13,59.81Zm-7.2,0A1.42,1.42,0,1,0,7.2,58.4a1.42,1.42,0,0,0-1.42,1.42ZM3.36,7.25A3.12,3.12,0,1,0,6.48,4.13,3.12,3.12,0,0,0,3.36,7.25Zm30.24,0a3.12,3.12,0,1,0,3.12-3.12A3.12,3.12,0,0,0,33.6,7.25ZM15.44,10.49a1.42,1.42,0,1,0,1.42-1.42,1.42,1.42,0,0,0-1.42,1.42Zm9.92,0a1.42,1.42,0,1,0,1.42-1.42,1.42,1.42,0,0,0-1.42,1.42Z"/><circle id="circle4676" class="cls-2" cx="26.64" cy="35.69" r="0.51"/><g id="g4678"><text class="cls-3" transform="translate(4.59 66.94)">A+</text></g><g id="g4684"><text class="cls-3" transform="translate(12.31 57.22)">A-</text></g><g id="g4690"><text class="cls-3" transform="translate(18.34 66.94)">SD</text></g><g id="g4696"><text class="cls-4" transform="translate(26.42 56.44)"><tspan class="cls-5">V</tspan><tspan x="2.17" y="0">in</tspan></text></g><g id="g4702"><text class="cls-3" transform="translate(32.05 66.94)">Gnd</text></g><g id="g4708"><g id="g27"><g id="g4712"><g id="g30"><g id="g4714"><text class="cls-3" transform="translate(4.61 37.82) rotate(-90)"><tspan class="cls-6">P</tspan><tspan x="2.48" y="0">AM8302</tspan><tspan class="cls-7" x="18.03" y="0">A</tspan></text></g></g></g></g></g><g id="g4718"><g id="g36"><g id="g4722"><g id="g39"><g id="g4724"><text class="cls-3" transform="translate(42.41 51.19) rotate(-90)">2.5W ClassD<tspan class="cls-8" x="24.36" y="0"> </tspan><tspan x="25.29" y="0">Amp</tspan></text></g></g></g></g></g><g id="g4728"><text class="cls-4" transform="translate(18.31 3.96)">4-8©</text></g><g id="g46"><g id="g4734"><text class="cls-4" transform="translate(14.44 42.7)"><tspan class="cls-9">V</tspan><tspan x="2.04" y="0">ol</tspan></text></g></g><g id="g4740"><g id="g4744"><line id="line4748" class="cls-10" x1="8.64" y1="34.61" x2="5.76" y2="34.61"/></g></g><g id="g4750"><g id="g4754"><line id="line4758" class="cls-10" x1="17.28" y1="49.01" x2="14.4" y2="49.01"/></g></g><g id="g4760"><g id="g4764"><line id="line4768" class="cls-10" x1="32.4" y1="46.85" x2="32.4" y2="43.97"/></g></g><g id="g4770"><g id="g4774"><line id="line4778" class="cls-10" x1="37.44" y1="27.41" x2="34.56" y2="27.41"/></g></g><g id="g4780"><g id="g4784"><line id="line4788" class="cls-10" x1="20.52" y1="27.05" x2="17.64" y2="27.05"/></g></g><g id="g4790"><g id="g4794"><line id="line4798" class="cls-11" x1="22.32" y1="32.45" x2="22.32" y2="21.65"/><line id="line4800" class="cls-11" x1="22.32" y1="21.65" x2="27.36" y2="21.65"/><line id="line4802" class="cls-11" x1="27.36" y1="21.65" x2="27.36" y2="32.45"/><line id="line4804" class="cls-11" x1="27.36" y1="32.45" x2="22.32" y2="32.45"/></g></g><g id="g4806"><g id="g4810"><line id="line4814" class="cls-11" x1="28.44" y1="32.45" x2="28.44" y2="21.65"/><line id="line4816" class="cls-11" x1="28.44" y1="21.65" x2="33.48" y2="21.65"/><line id="line4818" class="cls-11" x1="33.48" y1="21.65" x2="33.48" y2="32.45"/><line id="line4820" class="cls-11" x1="33.48" y1="32.45" x2="28.44" y2="32.45"/></g></g><g id="g4846"><g id="g4850"><line id="line4854" class="cls-10" x1="14.76" y1="35.33" x2="14.76" y2="38.21"/></g></g><g id="g4856"><g id="g4860"><line id="line4864" class="cls-10" x1="20.16" y1="46.49" x2="23.04" y2="46.49"/></g></g><g id="g4866"><g id="g4870"><line id="line4874" class="cls-10" x1="30.24" y1="51.89" x2="30.24" y2="49.01"/></g></g><g id="g4876"><g id="g4880"><line id="line4884" class="cls-10" x1="8.64" y1="16.3" x2="8.64" y2="14.05"/><line id="line4886" class="cls-10" x1="9.76" y1="15.17" x2="7.52" y2="15.17"/><circle id="circle4888" class="cls-12" cx="8.64" cy="15.17" r="2.22"/></g></g><g id="g4890"><g id="g4894"><line id="line4898" class="cls-10" x1="34.92" y1="14.41" x2="34.92" y2="16.66"/><circle id="circle4900" class="cls-12" cx="34.92" cy="15.53" r="2.22"/></g></g><g id="g4910"><g id="g4914"><circle id="circle4918" class="cls-12" cx="6.48" cy="7.25" r="5.1"/></g></g><g id="g4920"><g id="g4924"><circle id="circle4928" class="cls-12" cx="36.72" cy="7.25" r="5.1"/></g></g><line id="line4938" class="cls-11" x1="33.05" y1="33.6" x2="24.55" y2="33.6"/><line id="line4940" class="cls-11" x1="24.55" y1="42.1" x2="33.05" y2="42.1"/><g id="g4944"><g id="g4948"><line id="line4952" class="cls-11" x1="2.81" y1="49.26" x2="2.81" y2="42.46"/><line id="line4954" class="cls-11" x1="2.81" y1="42.46" x2="4.51" y2="42.46"/><line id="line4956" class="cls-11" x1="9.75" y1="42.46" x2="11.59" y2="42.46"/><line id="line4958" class="cls-11" x1="11.59" y1="42.46" x2="11.59" y2="49.26"/><line id="line4960" class="cls-11" x1="6.35" y1="51.25" x2="7.91" y2="51.25"/></g></g><g id="g4962"><g id="g4966"><line id="line4970" class="cls-11" x1="31.6" y1="20.13" x2="31.6" y2="4.26"/><line id="line4972" class="cls-11" x1="31.6" y1="4.26" x2="31.6" y2="0.29"/><line id="line4974" class="cls-11" x1="31.6" y1="0.29" x2="11.76" y2="0.29"/><line id="line4976" class="cls-11" x1="11.76" y1="0.29" x2="11.76" y2="4.26"/><line id="line4978" class="cls-11" x1="11.76" y1="4.26" x2="11.76" y2="20.13"/><line id="line4980" class="cls-11" x1="11.76" y1="20.13" x2="31.6" y2="20.13"/><line id="line4982" class="cls-11" x1="31.6" y1="4.26" x2="11.76" y2="4.26"/></g></g><g id="g173"><g id="g4984"><rect id="connector0pin" class="cls-13" x="5.07" y="30.08" width="4.25" height="3.69"/></g></g><g id="g177"><g id="g4987"><rect id="connector1pin" class="cls-13" x="5.07" y="35.46" width="4.25" height="3.69"/></g></g><g id="g181"><g id="g4990"><rect id="connector2pin" class="cls-13" x="13.71" y="44.48" width="4.25" height="3.69"/></g></g><g id="g185"><g id="g4993"><rect id="connector3pin" class="cls-13" x="13.71" y="49.86" width="4.25" height="3.69"/></g></g><g id="g189"><g id="g4996"><rect id="connector4pin" class="cls-13" x="33.25" y="43.29" width="3.69" height="4.25"/></g></g><g id="g193"><g id="g4999"><rect id="connector5pin" class="cls-13" x="27.86" y="43.29" width="3.69" height="4.25"/></g></g><g id="g197"><g id="g5002"><rect id="connector6pin" class="cls-13" x="33.87" y="22.88" width="4.25" height="3.69"/></g></g><g id="g201"><g id="g5005"><rect id="connector7pin" class="cls-13" x="33.87" y="28.26" width="4.25" height="3.69"/></g></g><g id="g205"><g id="g5008"><rect id="connector8pin" class="cls-13" x="16.95" y="22.52" width="4.25" height="3.69"/></g></g><g id="g209"><g id="g5011"><rect id="connector9pin" class="cls-13" x="16.95" y="27.9" width="4.25" height="3.69"/></g></g><g id="g213"><g id="g5014"><rect id="connector10pin" class="cls-13" x="23" y="28.23" width="3.69" height="3.4"/></g></g><g id="g217"><g id="g5017"><rect id="connector11pin" class="cls-13" x="23" y="22.47" width="3.69" height="3.4"/></g></g><g id="g221"><g id="g5020"><rect id="connector12pin" class="cls-13" x="29.12" y="28.23" width="3.69" height="3.4"/></g></g><g id="g225"><g id="g5023"><rect id="connector13pin" class="cls-13" x="29.12" y="22.47" width="3.69" height="3.4"/></g></g><g id="g229"><g id="g5026"><rect id="connector14pin" class="cls-13" x="21.26" y="15.2" width="2.83" height="2.83" rx="1.42" ry="1.42"/></g></g><g id="g233"><g id="g5029"><rect id="connector15pin" class="cls-13" x="25.94" y="63.8" width="2.83" height="2.83" rx="1.42" ry="1.42"/></g></g><circle id="connector16pin" class="cls-14" cx="36" cy="59.81" r="1.97"/><rect id="rect5033" class="cls-14" x="34.03" y="57.84" width="3.94" height="3.94"/><circle id="connector17pin" class="cls-14" cx="28.8" cy="59.81" r="1.97"/><circle id="connector18pin" class="cls-14" cx="21.6" cy="59.81" r="1.97"/><circle id="connector19pin" class="cls-14" cx="14.4" cy="59.81" r="1.97"/><circle id="connector20pin" class="cls-14" cx="7.2" cy="59.81" r="1.97"/><rect id="connector21pin" class="cls-13" x="10.22" y="34.65" width="3.69" height="4.25"/><rect id="connector22pin" class="cls-13" x="15.61" y="34.65" width="3.69" height="4.25"/><g id="g245"><g id="g5041"><rect id="connector23pin" class="cls-13" x="19.47" y="47.34" width="4.25" height="3.69"/></g></g><g id="g249"><g id="g5044"><rect id="connector24pin" class="cls-13" x="19.47" y="41.96" width="4.25" height="3.69"/></g></g><g id="g253"><g id="g5047"><rect id="connector25pin" class="cls-13" x="31.09" y="48.33" width="3.69" height="4.25"/></g></g><g id="g257"><g id="g5050"><rect id="connector26pin" class="cls-13" x="25.7" y="48.33" width="3.69" height="4.25"/></g></g><circle id="connector27pin" class="cls-15" cx="6.48" cy="7.25" r="3.84"/><circle id="connector28pin" class="cls-15" cx="36.72" cy="7.25" r="3.84"/><rect id="connector29pin" class="cls-13" x="20.58" y="34.52" width="3.97" height="1.13"/><rect id="connector30pin" class="cls-13" x="20.58" y="36.36" width="3.97" height="1.13"/><rect id="connector31pin" class="cls-13" x="20.58" y="38.21" width="3.97" height="1.13"/><rect id="connector32pin" class="cls-13" x="20.58" y="40.05" width="3.97" height="1.13"/><rect id="connector33pin" class="cls-13" x="33.05" y="40.05" width="3.97" height="1.13"/><rect id="connector34pin" class="cls-13" x="33.05" y="38.21" width="3.97" height="1.13"/><rect id="connector35pin" class="cls-13" x="33.05" y="36.36" width="3.97" height="1.13"/><rect id="connector36pin" class="cls-13" x="33.05" y="34.52" width="3.97" height="1.13"/><g id="g271"><g id="g5063"><rect id="connector37pin" class="cls-13" x="2.66" y="49.69" width="3.4" height="3.4"/></g></g><rect id="connector38pin" class="cls-13" x="4.93" y="40.05" width="4.54" height="4.25"/><g id="g276"><g id="g5067"><rect id="connector39pin" class="cls-13" x="8.33" y="49.69" width="3.4" height="3.4"/></g></g><circle id="circle280" class="cls-16" cx="16.86" cy="10.49" r="2.26"/><circle id="circle282" class="cls-16" cx="26.78" cy="10.49" r="2.26"/><g id="g284"><g id="_0805-cap" data-name="0805-cap"><g id="g287"><g id="g5073"><path id="path5075" class="cls-17" d="M5.43,37.16v-5.1a.28.28,0,0,1,.28-.28h3a.28.28,0,0,1,.28.28v5.1a.28.28,0,0,1-.28.28h-3A.28.28,0,0,1,5.43,37.16Z"/><rect id="rect5077" class="cls-18" x="5.43" y="32.84" width="3.54" height="3.54"/></g></g></g></g><g id="g292"><g id="g5079"><g id="g295"><g id="g5081"><path id="path5083" class="cls-17" d="M14.07,51.56v-5.1a.28.28,0,0,1,.28-.28h3a.28.28,0,0,1,.28.28v5.1a.28.28,0,0,1-.28.28h-3A.28.28,0,0,1,14.07,51.56Z"/><rect id="rect5085" class="cls-18" x="14.07" y="47.24" width="3.54" height="3.54"/></g></g></g></g><g id="g300"><g id="g5087"><g id="g303"><g id="g5089"><path id="path5091" class="cls-17" d="M29.85,43.64H35a.28.28,0,0,1,.28.28v3a.28.28,0,0,1-.28.28h-5.1a.28.28,0,0,1-.28-.28v-3A.28.28,0,0,1,29.85,43.64Z"/><rect id="rect5093" class="cls-18" x="30.63" y="43.64" width="3.54" height="3.54"/></g></g></g></g><g id="g308"><g id="g5095"><g id="g311"><g id="g5097"><path id="path5099" class="cls-17" d="M34.23,30v-5.1a.28.28,0,0,1,.28-.28h3a.28.28,0,0,1,.28.28V30a.28.28,0,0,1-.28.28h-3A.28.28,0,0,1,34.23,30Z"/><rect id="rect5101" class="cls-18" x="34.23" y="25.64" width="3.54" height="3.54"/></g></g></g></g><g id="g316"><g id="g5103"><g id="g319"><g id="g5105"><path id="path5107" class="cls-17" d="M17.31,29.6V24.5a.28.28,0,0,1,.28-.28h3a.28.28,0,0,1,.28.28v5.1a.28.28,0,0,1-.28.28h-3A.28.28,0,0,1,17.31,29.6Z"/><rect id="rect5109" class="cls-18" x="17.31" y="25.28" width="3.54" height="3.54"/></g></g></g></g><g id="g324"><g id="_0805" data-name=" 0805"><g id="g327"><g id="g5112"><path id="path5114" class="cls-17" d="M26.61,24.5v5.1a.28.28,0,0,1-.28.28h-3a.28.28,0,0,1-.28-.28V24.5a.28.28,0,0,1,.28-.28h3A.28.28,0,0,1,26.61,24.5Z"/><rect id="rect5116" class="cls-18" x="23.07" y="25.28" width="3.54" height="3.54"/></g></g></g></g><g id="g332"><g id="g5118"><g id="g335"><g id="g5120"><path id="path5122" class="cls-17" d="M32.73,24.5v5.1a.28.28,0,0,1-.28.28h-3a.28.28,0,0,1-.28-.28V24.5a.28.28,0,0,1,.28-.28h3A.28.28,0,0,1,32.73,24.5Z"/><rect id="rect5124" class="cls-18" x="29.19" y="25.28" width="3.54" height="3.54"/></g></g></g></g><g id="g340"><g id="_0805-res" data-name="0805-res"><path id="path5127" class="cls-17" d="M17.31,38.54h-5.1a.28.28,0,0,1-.28-.28v-3a.28.28,0,0,1,.28-.28h5.1a.28.28,0,0,1,.28.28v3A.28.28,0,0,1,17.31,38.54Z"/><rect id="rect5129" class="cls-19" x="12.99" y="35" width="3.54" height="3.54"/></g></g><g id="g345"><g id="g5131"><g id="g348"><g id="g5133"><path id="path5135" class="cls-17" d="M23.37,43.94V49a.28.28,0,0,1-.28.28h-3a.28.28,0,0,1-.28-.28v-5.1a.28.28,0,0,1,.28-.28h3A.28.28,0,0,1,23.37,43.94Z"/><rect id="rect5137" class="cls-19" x="19.83" y="44.72" width="3.54" height="3.54"/></g></g></g></g><g id="g353"><g id="g5139"><g id="g356"><g id="g5141"><path id="path5143" class="cls-17" d="M27.69,48.68h5.1a.28.28,0,0,1,.28.28v3a.28.28,0,0,1-.28.28h-5.1a.28.28,0,0,1-.28-.28V49A.28.28,0,0,1,27.69,48.68Z"/><rect id="rect5145" class="cls-19" x="28.47" y="48.68" width="3.54" height="3.54"/></g></g></g></g><g id="g361"><g id="adafruit_3.5mm" data-name="adafruit 3.5mm"><g id="g364"><g id="g5148"><path id="path5150" class="cls-17" d="M6.28,26.2c0,.2.14.26.4.34L8.21,27a1.9,1.9,0,0,0,1.62-.15l.29-.22-.22.29a1.91,1.91,0,0,0-.14,1.62l.49,1.53c.09.26.14.37.34.4s.29-.05.45-.28L12,28.91a1.91,1.91,0,0,0,.36-1.59c0-.11-.08-.22-.12-.34l.2.3a1.91,1.91,0,0,0,1.5.64h1.61c.27,0,.4,0,.49-.2s0-.29-.13-.51l-1-1.3a1.91,1.91,0,0,0-1.39-.83h-.36l.35-.1a1.9,1.9,0,0,0,1.07-1.23l.5-1.53c.09-.26.1-.38,0-.53s-.26-.13-.53,0L13,22.18a1.91,1.91,0,0,0-1.22,1.07c0,.11-.07.22-.1.35,0-.13,0-.25,0-.36a1.91,1.91,0,0,0-.84-1.39l-1.3-1c-.22-.16-.33-.22-.51-.12s-.2.21-.2.49,0,1.61,0,1.61a1.9,1.9,0,0,0,.64,1.49l.3.2-.34-.12a1.9,1.9,0,0,0-1.58.36l-1.31.94C6.33,25.91,6.24,26,6.28,26.2Zm4.82,1c-.15,0-.23-.35-.17-.73s.23-.66.38-.64.23.35.17.72S11.25,27.25,11.1,27.23Zm2-1c-.07.14-.4.11-.74-.06s-.56-.43-.49-.56.4-.11.74.06S13.12,26.09,13.05,26.23Zm-1-1.88c.27-.27.58-.4.69-.29s0,.42-.29.69-.58.4-.69.29S11.75,24.62,12,24.35Zm-1.48-.63c.14-.07.39.15.56.49s.2.67.07.74-.39-.15-.56-.49S10.4,23.79,10.54,23.72Zm-.36,1.57c.38-.06.7,0,.73.17s-.26.33-.64.39-.7,0-.73-.17S9.81,25.35,10.18,25.29Z"/></g></g></g></g><g id="g368"><g id="msop8_0.65mm" data-name="msop8 0.65mm"><g id="g371"><g id="g5153"><rect id="rect5155" class="cls-17" x="21.85" y="34.63" width="13.89" height="0.85"/><rect id="rect5157" class="cls-17" x="21.85" y="36.47" width="13.89" height="0.85"/><rect id="rect5159" class="cls-17" x="21.85" y="38.32" width="13.89" height="0.85"/><rect id="rect5161" class="cls-17" x="21.85" y="40.16" width="13.89" height="0.85"/><path id="path5163" class="cls-19" d="M32.52,42.06H25.15a.57.57,0,0,1-.57-.57V34.12a.57.57,0,0,1,.57-.57h7.37a.57.57,0,0,1,.57.57v7.37A.57.57,0,0,1,32.52,42.06Z"/><circle id="circle5165" cx="26" cy="34.97" r="0.71"/></g></g></g></g><g id="g380"><g id="g5542"><g id="g383"><g id="legs"><g id="pin0"><rect id="rect10" class="cls-20" x="2.74" y="50.69" width="2.65" height="0.78"/><rect id="rect14" class="cls-20" x="2.74" y="50.8" width="1.17" height="2"/></g><g id="pin2"><rect id="rect8" class="cls-20" x="9.06" y="50.68" width="2.67" height="0.78"/><rect id="rect16" class="cls-20" x="10.55" y="50.78" width="1.17" height="2.01"/></g><g id="pin1"><rect id="rect12" class="cls-20" x="6.02" y="41.26" width="2.42" height="0.78"/><rect id="rect18" class="cls-20" x="6.65" y="39.9" width="1.17" height="2.34"/></g></g></g><path id="path20" class="cls-21" d="M7.23,41.46A4.83,4.83,0,0,0,2.4,46.29v4.83h9.66V46.29A4.83,4.83,0,0,0,7.23,41.46Zm-2.7,6.66V44.45H9.94v3.67Z"/><path id="path27" class="cls-22" d="M6.4,43.2a3.2,3.2,0,1,0,3.92,2.25A3.2,3.2,0,0,0,6.4,43.2Zm-.29,3.93L6.25,46l1.69-.46.69.9Z"/><g id="g397"><g id="g5179"><polygon id="rect31" points="6.86 46.93 7.88 46.65 8.32 48.29 7.3 48.56 6.86 46.93"/><polygon id="polygon33" points="6.14 44.28 6.36 45.09 6.11 47.13 6.25 46 7.94 45.55 8.63 46.45 7.38 44.81 7.16 44 6.14 44.28"/></g></g><g id="g402"><g id="g35"><polygon id="polygon37" class="cls-23" points="4.95 46.35 5.22 47.37 6.11 47.13 6.25 46 4.95 46.35"/><polygon id="polygon39" class="cls-23" points="7.94 45.55 8.63 46.45 9.51 46.21 9.24 45.2 7.94 45.55"/></g></g><path id="path41" class="cls-24" d="M11.68,46.41a4.64,4.64,0,0,0-.14-.89,4.51,4.51,0,0,0-.29-.76l-.21.07-.31-.41a3.93,3.93,0,0,0-.29-.39l-.33-.43.18-.13a4.34,4.34,0,0,0-7.1,1.92l.22,0-.06.54a4.22,4.22,0,0,0-.06.48l-.06.52L3,47a4.34,4.34,0,0,0,.14.8,4.53,4.53,0,0,0,.33.84l.23-.18a4,4,0,0,0,1.09,1.36L4.56,50a4.34,4.34,0,0,0,6.86-1.85l-.29,0a4,4,0,0,0,.26-1.73Zm-3.6,3a2.83,2.83,0,1,1,2-3.47A2.83,2.83,0,0,1,8.08,49.38Z"/><path id="path43" d="M6.17,42.36a4.06,4.06,0,1,0,5,2.86A4.06,4.06,0,0,0,6.17,42.36Zm1.89,7a3.2,3.2,0,1,1,2.25-3.92A3.2,3.2,0,0,1,8.07,49.37Z"/><path id="path45" class="cls-25" d="M11.57,46a4.26,4.26,0,0,0-.43-1.66l-.21.07L10,43.22l.18-.13A4.34,4.34,0,0,0,3.08,45l.22,0-.18,1.54-.22,0a4.39,4.39,0,0,0,.13.8,4.47,4.47,0,0,0,.33.84l.62-.5,1.09,1.36-.62.5a4.34,4.34,0,0,0,6.86-1.85l-.78-.12.26-1.72ZM8,49a2.83,2.83,0,1,1,2-3.47A2.83,2.83,0,0,1,8,49Z"/><circle id="circle47" class="cls-26" cx="3.97" cy="44.45" r="0.32"/><circle id="circle49" class="cls-26" cx="9.12" cy="43.06" r="0.33"/><g id="g412"><g id="g51" class="cls-27"><path id="path53" class="cls-28" d="M6.32,49.5l-.14,0,0-.14.13,0,0-.14.28.06-.26,1.1-.28-.06Z"/><path id="path55" class="cls-28" d="M8.57,50.26,8,50.4l0-.14-.14,0-.21-.82.14,0,0-.14.55-.14,0,.14.14,0,.21.82-.14,0Zm-.17-.11-.21-.82-.27.07.21.82Z"/><path id="path57" class="cls-28" d="M10.08,48.75l.1-.1.1.1-.1.1.2.2-.2.2-.2-.2-.3.3-.2-.2.1-.1-.2-.2.1-.1.2.2-.1.1.1.1.2-.2-.5-.5.2-.2Z"/></g></g></g></g><g id="g418"><g id="termblock_1x2-3.5mm" data-name="termblock 1x2-3.5mm"><g id="g421"><g id="g5196"><rect id="rect5198" class="cls-29" x="11.75" y="2.84" width="2.27" height="5.1"/><rect id="rect5200" class="cls-29" x="10.62" y="16.73" width="2.27" height="2.27"/><polygon id="polygon5202" class="cls-30" points="31.6 20.13 31.6 6.53 32.73 6.53 32.73 4.26 31.6 4.26 31.6 1.71 11.76 1.71 11.76 4.26 12.89 4.26 12.89 6.53 11.76 6.53 11.76 20.13 31.6 20.13"/><circle id="circle5204" class="cls-31" cx="26.64" cy="10.21" r="3.69"/><circle id="circle5206" class="cls-31" cx="16.72" cy="10.21" r="3.68"/><rect id="rect5208" class="cls-29" x="22.81" y="15.88" width="7.37" height="2.83"/><rect id="rect5210" class="cls-29" x="14.02" y="15.88" width="7.37" height="2.83"/><polygon id="polygon5212" class="cls-29" points="28.05 0.29 28.05 2.04 25.22 2.04 25.22 0.29 18.13 0.29 18.13 2.04 15.3 2.04 15.3 0.29 11.76 0.29 11.76 3.12 31.6 3.12 31.6 0.29 28.05 0.29"/><rect id="connector41pin" class="cls-20" x="22.38" y="0.62" width="8.5" height="1.7"/><rect id="connector40pin" class="cls-20" x="12.46" y="0.62" width="8.5" height="1.7"/><path id="path5218" class="cls-32" d="M26.55,13.17l1.64-.44-.51-1.92,2.63-.71a3.38,3.38,0,0,0-.44-1.64l-2.63.71-.51-1.92-1.64.44.51,1.92L23,10.31A3.39,3.39,0,0,0,23.4,12L26,11.25Z"/><path id="path5220" class="cls-32" d="M19.23,11.76l.44-1.64-1.92-.51L18.46,7a3.38,3.38,0,0,0-1.64-.44l-.71,2.63L14.2,8.65l-.44,1.64,1.92.51L15,13.44a3.38,3.38,0,0,0,1.64.44l.71-2.63Z"/></g></g></g></g></g></g></svg>