<?xml version="1.0" encoding="utf-8"?>
<!-- Generator: Adobe Illustrator 16.0.0, SVG Export Plug-In . SVG Version: 6.00 Build 0)  -->
<!DOCTYPE svg PUBLIC "-//W3C//DTD SVG 1.1//EN" "http://www.w3.org/Graphics/SVG/1.1/DTD/svg11.dtd">
<svg version="1.1" id="Layer_1" xmlns:svg="http://www.w3.org/2000/svg"
	 xmlns="http://www.w3.org/2000/svg" xmlns:xlink="http://www.w3.org/1999/xlink" x="0px" y="0px" width="118.105px"
	 height="80.957px" viewBox="-53.567 -11.873 118.105 80.957" enable-background="new -53.567 -11.873 118.105 80.957"
	 xml:space="preserve">
<rect id="connector0pin" x="14.836" y="0.002" fill="none" width="2.16" height="3.061"/>
<rect id="connector1pin" x="14.836" y="20.702" fill="none" width="2.16" height="3.061"/>
<rect id="connector2pin" x="0.437" y="0.002" fill="none" width="2.159" height="3.061"/>
<rect id="connector3pin" x="0.437" y="20.702" fill="none" width="2.159" height="3.061"/>
<rect id="connector0terminal" x="14.836" y="0.002" fill="none" width="2.16" height="2.16"/>
<rect id="connector1terminal" x="14.836" y="21.601" fill="none" width="2.16" height="2.16"/>
<rect id="connector2terminal" x="0.437" y="0.002" fill="none" width="2.159" height="2.16"/>
<rect id="connector3terminal" x="0.437" y="21.601" fill="none" width="2.159" height="2.16"/>
<g id="breadboard">
	<g>
		<polygon fill="#8C8C8C" points="-23.941,35.616 -23.941,19.067 -19.622,19.067 -19.622,35.616 		"/>
		<polygon fill="#8C8C8C" points="-52.741,4.677 -52.741,-11.871 -48.425,-11.871 -48.425,4.677 		"/>
		<polygon fill="#8C8C8C" points="-23.941,4.679 -23.941,-11.873 -19.622,-11.873 -19.622,4.679 		"/>
		<polygon fill="#8C8C8C" points="-52.739,35.62 -52.739,19.067 -48.421,19.067 -48.421,35.62 		"/>
		<rect x="-53.567" y="-5.78" width="35.304" height="35.31"/>
		<path fill="#999999" d="M-18.265,26.649c0,1.586-1.29,2.877-2.878,2.877h-29.546c-1.584,0-2.876-1.291-2.876-2.877v-29.55
			c0-1.584,1.292-2.879,2.876-2.879h29.55c1.588,0,2.876,1.295,2.876,2.879v29.55H-18.265z"/>
		<circle cx="-48.427" cy="-0.637" r="3.058"/>
		<circle cx="-23.32" cy="-0.583" r="3.057"/>
		<circle cx="-23.372" cy="24.522" r="3.059"/>
		<circle cx="-48.478" cy="24.467" r="3.058"/>
		<circle fill="#3F3F3F" cx="-35.917" cy="11.873" r="10.296"/>
		
			<linearGradient id="SVGID_1_" gradientUnits="userSpaceOnUse" x1="-344.3901" y1="-1520.5574" x2="-315.7905" y2="-1520.5574" gradientTransform="matrix(0.72 0 0 -0.72 201.748 -1082.9287)">
			<stop  offset="0" style="stop-color:#333333"/>
			<stop  offset="1" style="stop-color:#3C3C3C"/>
		</linearGradient>
		<circle fill="url(#SVGID_1_)" cx="-35.917" cy="11.873" r="10.296"/>
		<circle opacity="0.6" enable-background="new    " cx="-35.737" cy="13.097" r="9.06"/>
		<circle fill="#735348" cx="-35.903" cy="11.935" r="8.83"/>
		<path opacity="0.5" fill="#FFFFFF" enable-background="new    " d="M-48.821-0.797c0.061-0.143,0.17-0.254,0.328-0.281
			l-0.302-1.928c-0.116,0.02-0.238,0.004-0.352,0.039l-0.003-0.01c-0.712,0.221-1.245,0.752-1.52,1.43L-48.821-0.797z"/>
		<path opacity="0.5" fill="#FFFFFF" enable-background="new    " d="M-23.717-0.744c0.058-0.146,0.17-0.258,0.33-0.285
			l-0.297-1.928c-0.12,0.023-0.24,0.004-0.354,0.039l-0.004-0.01c-0.708,0.217-1.244,0.75-1.516,1.43L-23.717-0.744z"/>
		<path opacity="0.5" fill="#FFFFFF" enable-background="new    " d="M-23.767,24.36c0.058-0.146,0.166-0.258,0.325-0.283
			l-0.298-1.926c-0.118,0.023-0.237,0.004-0.354,0.039l-0.004-0.016c-0.71,0.217-1.244,0.75-1.517,1.432L-23.767,24.36z"/>
		<path opacity="0.5" fill="#FFFFFF" enable-background="new    " d="M-48.875,24.307c0.06-0.145,0.17-0.254,0.33-0.281
			l-0.302-1.928c-0.118,0.025-0.238,0.004-0.353,0.039l-0.004-0.01c-0.712,0.217-1.244,0.75-1.52,1.428L-48.875,24.307z"/>
		<path opacity="0.6" fill="#FFFFFF" enable-background="new    " d="M-32.745,3.704c-0.684-0.266-1.401-0.457-2.164-0.545
			c-1.896-0.211-3.71,0.209-5.262,1.072l-0.194,0.5c1.732-0.928,3.75-1.357,5.851-1.121c0.646,0.074,1.273,0.219,1.874,0.408
			L-32.745,3.704z"/>
	</g>
</g>
<g id="breadboard_1_">
	
		<rect id="connector0pin_1_" x="59.095" y="46.417" transform="matrix(0.9872 -0.1593 0.1593 0.9872 -7.0726 10.4442)" fill="#868584" width="5.001" height="5.822"/>
	
		<rect id="connector1pin_1_" x="-20.709" y="59.291" transform="matrix(0.9871 -0.1601 0.1601 0.9871 -10.1928 -2.1126)" fill="#868584" width="5.002" height="5.821"/>
	
		<rect x="-22.561" y="52.906" transform="matrix(0.9872 -0.1593 0.1593 0.9872 -8.6316 4.0644)" fill="#868584" width="87.186" height="5.913"/>
	<path id="Body_1_" fill="#D9B578" d="M32.097,44.796c-0.914,0.607-2.553,1.25-3.637,1.428l-16.105,2.596
		c-1.082,0.174-2.844,0.082-3.9-0.209L8.236,48.55c-1.061-0.291-2.815-0.385-3.905-0.209l-5.923,0.957
		c-1.976,0.32-3.632,2.613-3.313,4.59l1.912,11.848c0.317,1.971,2.611,3.627,4.586,3.309l5.923-0.957
		c1.09-0.174,2.725-0.813,3.641-1.426l0.191-0.127c0.918-0.611,2.555-1.252,3.639-1.426l16.104-2.598
		c1.086-0.176,2.836-0.084,3.9,0.209l0.219,0.059c1.061,0.289,2.818,0.383,3.904,0.209l5.922-0.957
		c1.977-0.318,3.633-2.613,3.313-4.586l-1.914-11.848c-0.316-1.977-2.611-3.627-4.586-3.313l-5.922,0.959
		c-1.086,0.172-2.723,0.813-3.639,1.422L32.097,44.796z"/>
	<path fill="#893E19" d="M39.88,42.604l3.188,19.744c0,0-4.094,0.631-4.529,0.699c-0.438,0.07-1.438,0.006-1.438,0.006L34,43.813
		c0,0,0.895-0.393,1.57-0.5C36.244,43.206,39.876,42.608,39.88,42.604z"/>
	<path d="M30.25,45.698l2.699,16.732c0,0-1.221-0.023-1.84,0.074c-0.621,0.104-4.121,0.664-4.121,0.664l-2.629-16.291
		c0,0,3.254-0.525,4.078-0.658C29.257,46.089,30.246,45.702,30.25,45.698z"/>
	
		<rect x="15.757" y="47.895" transform="matrix(0.9873 -0.1591 0.1591 0.9873 -8.6955 3.7002)" fill="#C3111D" width="6.002" height="16.509"/>
	
		<rect x="2.308" y="48.615" transform="matrix(0.9872 -0.1593 0.1593 0.9872 -9.2939 1.2999)" opacity="0.5" fill="#F5E731" enable-background="new    " width="2.305" height="19.999"/>
	<path id="Reflex_1_" opacity="0.4" fill="#FFFFFF" enable-background="new    " d="M44.462,45.917
		c-0.16-0.984-1.303-1.813-2.291-1.652c-1.973,0.316-3.951,0.637-5.922,0.955c-1.977,0.314-4.621,2.771-6.594,3.09
		c-1.977,0.314-15.801,2.547-17.773,2.867c-1.975,0.32-5.25-1.18-7.223-0.859c-1.978,0.314-1.978,0.314-4.941,0.795
		c-4.141,0.668-3.313,4.586-3.79,1.627c-0.16-0.988,1.656-2.293,2.644-2.455c0.656-0.105,3.046-0.49,4.591-0.74
		c0.712-0.115,1.25-0.201,1.334-0.213c1.972-0.318,5.253,1.178,7.224,0.861c1.975-0.32,16.787-2.707,17.775-2.869
		c0.986-0.16,4.617-2.773,6.59-3.09c1.975-0.32,3.949-0.639,5.926-0.957c1.975-0.318,3.277,1.498,3.438,2.48
		c0.16,0.988,0.795,4.939,0.795,4.939C45.101,49.866,44.623,46.905,44.462,45.917z"/>
	<path id="Shaddow_1_" opacity="0.4" enable-background="new    " d="M-1.171,64.419c0.479,2.963,3.441,2.484,4.428,2.324
		c1.978-0.318,1.978-0.318,3.948-0.635c1.975-0.318,4.619-2.771,6.59-3.088c1.975-0.318,15.799-2.549,17.775-2.869
		c1.973-0.318,5.254,1.18,7.225,0.857c1.979-0.314,1.979-0.314,4.939-0.793c4.135-0.668,3.979-6.719,4.457-3.76
		c0.033,0.197,0.131,0.814,0.16,0.988c0.387,2.408-1.98,4.371-3.314,4.586c-0.959,0.156-6.383,1.033-6.646,1.074
		c-1.973,0.316-4.656-1.023-7.449-0.572c-1.977,0.32-15.355,2.443-16.344,2.604c-1.82,0.291-4.59,2.549-7.074,2.949
		C5.55,68.403,3.572,68.723,1.6,69.042c-1.976,0.318-4.27-1.336-4.586-3.311c-0.16-0.988-0.796-4.938-0.796-4.938
		C-2.797,60.637-1.33,63.436-1.171,64.419z"/>
</g>
</svg>
