<?xml version="1.0" encoding="utf-8"?>
<!-- Generator: Adobe Illustrator 16.0.0, SVG Export Plug-In . SVG Version: 6.00 Build 0)  -->
<!DOCTYPE svg PUBLIC "-//W3C//DTD SVG 1.1//EN" "http://www.w3.org/Graphics/SVG/1.1/DTD/svg11.dtd">
<svg version="1.1" id="Layer_1" xmlns:xml="http://www.w3.org/XML/1998/namespace"
	 xmlns="http://www.w3.org/2000/svg" xmlns:xlink="http://www.w3.org/1999/xlink" x="0px" y="0px" width="115.2px" height="115.2px"
	 viewBox="-57.6 -28.8 115.2 115.2" enable-background="new -57.6 -28.8 115.2 115.2" xml:space="preserve">
<desc>
	<referenceFile>Adafruit TCS34725 RGB Color Sensor_breadboard.svg</referenceFile>
</desc>
<desc>Fritzing breadboard generated by brd2svg</desc>
<g id="breadboard">
	<g id="icon">
		<path fill="#014CB1" d="M-43.199,86.4c-7.954,0-14.401-6.447-14.401-14.4V-14.4c0-7.953,6.447-14.4,14.401-14.4l0,0h86.399
			c7.953,0,14.4,6.447,14.4,14.4v86.399c0,7.953-6.447,14.4-14.4,14.4H-43.199 M40.365,77.759c0,1.566,1.271,2.834,2.834,2.834
			c1.566,0,2.834-1.27,2.834-2.834l0,0c0-1.564-1.27-2.834-2.834-2.834C41.637,74.925,40.365,76.195,40.365,77.759z M25.967,77.759
			c0,1.566,1.27,2.834,2.834,2.834c1.563,0,2.834-1.27,2.834-2.834c0-1.563-1.271-2.834-2.834-2.834
			C27.237,74.925,25.967,76.195,25.967,77.759z M11.566,77.759c0,1.566,1.27,2.834,2.834,2.834c1.566,0,2.834-1.27,2.834-2.834l0,0
			c0-1.564-1.27-2.834-2.834-2.834S11.566,76.195,11.566,77.759z M-2.834,77.759c0,1.566,1.27,2.834,2.834,2.834
			c1.566,0,2.834-1.27,2.834-2.834c0-1.563-1.27-2.834-2.834-2.834C-1.567,74.925-2.834,76.195-2.834,77.759z M-17.235,77.759
			c0,1.566,1.27,2.834,2.834,2.834c1.566,0,2.834-1.27,2.834-2.834c0-1.563-1.27-2.834-2.834-2.834
			C-15.967,74.925-17.235,76.195-17.235,77.759z M-31.635,77.759c0,1.566,1.271,2.834,2.834,2.834c1.564,0,2.834-1.27,2.834-2.834
			c0-1.563-1.27-2.834-2.834-2.834C-30.364,74.925-31.635,76.195-31.635,77.759z M-46.033,77.759c0,1.566,1.27,2.834,2.834,2.834
			c1.563,0,2.834-1.27,2.834-2.834c0-1.563-1.27-2.834-2.834-2.834C-44.766,74.925-46.033,76.195-46.033,77.759z M-50.286-14.4
			c-0.008,3.912,3.159,7.092,7.073,7.098s7.094-3.16,7.1-7.074c0-0.008,0-0.016,0-0.023c0.006-3.914-3.16-7.094-7.074-7.1
			c-3.914-0.008-7.092,3.16-7.098,7.074C-50.286-14.417-50.286-14.409-50.286-14.4z M36.114-14.4c-0.006,3.912,3.16,7.092,7.074,7.1
			s7.092-3.16,7.1-7.074c0-0.008,0-0.016,0-0.023c0.006-3.914-3.16-7.094-7.072-7.102c-3.914-0.006-7.094,3.16-7.102,7.074
			C36.114-14.417,36.114-14.409,36.114-14.4z"/>
		<g>
			<title>layer 21</title>
			<g>
				<title>text:VIN</title>
				<g transform="matrix(1 0 0 1 48.2826 50.1761)">
					<g>
						<text transform="matrix(1 0 0 1 -9.3185 21.3759)" fill="#FFFFFF" font-family="'OCRA'" font-size="4.2762">VIN</text>
					</g>
				</g>
			</g>
			<g>
				<title>text:3V3</title>
				<g transform="matrix(1 0 0 1 33.789 50.1761)">
					<g>
						<text transform="matrix(1 0 0 1 -23.8122 21.3759)" fill="#FFFFFF" font-family="'OCRA'" font-size="4.2762">3V3</text>
					</g>
				</g>
			</g>
			<g>
				<title>text:GND</title>
				<g transform="matrix(1 0 0 1 40.7424 50.1761)">
					<g>
						<text transform="matrix(1 0 0 1 -16.8593 21.3759)" fill="#FFFFFF" font-family="'OCRA'" font-size="4.2762">GND</text>
					</g>
				</g>
			</g>
			<g>
				<title>text:SDA</title>
				<g transform="matrix(1 0 0 1 18.8958 50.1761)">
					<g>
						<text transform="matrix(1 0 0 1 -38.7056 21.3759)" fill="#FFFFFF" font-family="'OCRA'" font-size="4.2762">SDA</text>
					</g>
				</g>
			</g>
			<g>
				<title>text:SCL</title>
				<g transform="matrix(1 0 0 1 26.5692 50.1761)">
					<g>
						<text transform="matrix(1 0 0 1 -31.0319 21.3759)" fill="#FFFFFF" font-family="'OCRA'" font-size="4.2762">SCL</text>
					</g>
				</g>
			</g>
			<g>
				<title>text:INT</title>
				<g transform="matrix(1 0 0 1 12.206 50.1761)">
					<g>
						<text transform="matrix(1 0 0 1 -45.3957 21.3759)" fill="#FFFFFF" font-family="'OCRA'" font-size="4.2762">INT</text>
					</g>
				</g>
			</g>
			<g>
				<title>text:LED</title>
				<g transform="matrix(1 0 0 1 4.5524 50.1761)">
					<g>
						<text transform="matrix(1 0 0 1 -53.0497 21.3759)" fill="#FFFFFF" font-family="'OCRA'" font-size="4.2762">LED</text>
					</g>
				</g>
			</g>
			<g>
				<title>text:TCS34725</title>
				<g transform="matrix(1 0 0 1 16.6448 7.2964)">
					<g>
						<text transform="matrix(1 0 0 1 -40.9566 -21.5051)" fill="#FFFFFF" font-family="'OCRA'" font-size="6.6816">TCS34725</text>
					</g>
				</g>
			</g>
			<g>
				<title>text:RGB Sensor</title>
				<g transform="matrix(1 0 0 1 13.6884 12.5518)">
					<g>
						<text transform="matrix(1 0 0 1 -43.9133 -16.2479)" fill="#FFFFFF" font-family="'OCRA'" font-size="6.6816">RGB Sensor</text>
					</g>
				</g>
			</g>
			<g>
				<title>element:C1</title>
				<g>
					<title>package:_0805</title>
					
						<line fill="none" stroke="#FFFFFF" stroke-width="0.576" stroke-linecap="round" x1="6.672" y1="41.392" x2="28.272" y2="41.392"/>
					
						<line fill="none" stroke="#FFFFFF" stroke-width="0.576" stroke-linecap="round" x1="28.272" y1="41.392" x2="28.272" y2="51.472"/>
					
						<line fill="none" stroke="#FFFFFF" stroke-width="0.576" stroke-linecap="round" x1="28.272" y1="51.472" x2="6.672" y2="51.472"/>
					
						<line fill="none" stroke="#FFFFFF" stroke-width="0.576" stroke-linecap="round" x1="6.672" y1="51.472" x2="6.672" y2="41.392"/>
				</g>
			</g>
			<g>
				<title>element:C2</title>
				<g>
					<title>package:_0805</title>
					
						<line fill="none" stroke="#FFFFFF" stroke-width="0.576" stroke-linecap="round" x1="30.432" y1="17.993" x2="52.031" y2="17.993"/>
					
						<line fill="none" stroke="#FFFFFF" stroke-width="0.576" stroke-linecap="round" x1="52.031" y1="17.993" x2="52.031" y2="28.073"/>
					
						<line fill="none" stroke="#FFFFFF" stroke-width="0.576" stroke-linecap="round" x1="52.031" y1="28.073" x2="30.432" y2="28.073"/>
					
						<line fill="none" stroke="#FFFFFF" stroke-width="0.576" stroke-linecap="round" x1="30.432" y1="28.073" x2="30.432" y2="17.993"/>
				</g>
			</g>
			<g>
				<title>element:C3</title>
				<g>
					<title>package:_0805</title>
					
						<line fill="none" stroke="#FFFFFF" stroke-width="0.576" stroke-linecap="round" x1="54.119" y1="63.144" x2="32.52" y2="63.144"/>
					
						<line fill="none" stroke="#FFFFFF" stroke-width="0.576" stroke-linecap="round" x1="32.52" y1="63.144" x2="32.52" y2="53.064"/>
					
						<line fill="none" stroke="#FFFFFF" stroke-width="0.576" stroke-linecap="round" x1="32.52" y1="53.064" x2="54.119" y2="53.064"/>
					
						<line fill="none" stroke="#FFFFFF" stroke-width="0.576" stroke-linecap="round" x1="54.119" y1="53.064" x2="54.119" y2="63.144"/>
				</g>
			</g>
			<g>
				<title>element:FID1</title>
				<g>
					<title>package:FIDUCIAL_1MM</title>
				</g>
			</g>
			<g>
				<title>element:FID2</title>
				<g>
					<title>package:FIDUCIAL_1MM</title>
				</g>
			</g>
			<g>
				<title>element:JP1</title>
				<g>
					<title>package:1X07_ROUND_70</title>
				</g>
			</g>
			<g>
				<title>element:LED1</title>
				<g>
					<title>package:EVERLIGHT_45-21</title>
					
						<line fill="none" stroke="#FFFFFF" stroke-width="0.36" stroke-linecap="round" x1="-11.731" y1="20.001" x2="-10.313" y2="20.001"/>
					
						<line fill="none" stroke="#FFFFFF" stroke-width="0.36" stroke-linecap="round" x1="-10.313" y1="20.001" x2="-10.313" y2="36.443"/>
					
						<line fill="none" stroke="#FFFFFF" stroke-width="0.36" stroke-linecap="round" x1="-10.313" y1="36.443" x2="-11.446" y2="36.443"/>
					
						<line fill="none" stroke="#FFFFFF" stroke-width="0.36" stroke-linecap="round" x1="-11.446" y1="36.443" x2="-11.731" y2="36.443"/>
					
						<line fill="none" stroke="#FFFFFF" stroke-width="0.36" stroke-linecap="round" x1="-21.367" y1="20.001" x2="-22.783" y2="20.001"/>
					
						<line fill="none" stroke="#FFFFFF" stroke-width="0.36" stroke-linecap="round" x1="-22.783" y1="20.001" x2="-22.783" y2="36.443"/>
					
						<line fill="none" stroke="#FFFFFF" stroke-width="0.36" stroke-linecap="round" x1="-22.783" y1="36.443" x2="-21.367" y2="36.443"/>
					<g>
						<title>polygon</title>
						<path fill="none" stroke="#FFFFFF" stroke-width="0.432" stroke-linecap="round" d="M-16.549,29.661v-3.445V29.661
							l-2.725-3.445h5.453L-16.549,29.661 M-19.141,26.214v0.17V26.214 M-18.276,26.214v1.262V26.214 M-17.412,26.214v2.354V26.214
							 M-15.684,26.214v2.354V26.214 M-14.821,26.214v1.262V26.214"/>
					</g>
				</g>
			</g>
			<g>
				<title>element:Q1</title>
				<g>
					<title>package:SOT23-WIDE</title>
					
						<line fill="none" stroke="#FFFFFF" stroke-width="0.576" stroke-linecap="round" x1="-6.399" y1="51.702" x2="-6.399" y2="59.144"/>
					
						<line fill="none" stroke="#FFFFFF" stroke-width="0.576" stroke-linecap="round" x1="-6.399" y1="59.144" x2="-11.834" y2="59.144"/>
					
						<line fill="none" stroke="#FFFFFF" stroke-width="0.576" stroke-linecap="round" x1="-25.362" y1="59.144" x2="-25.362" y2="51.702"/>
					
						<line fill="none" stroke="#FFFFFF" stroke-width="0.576" stroke-linecap="round" x1="-19.926" y1="59.144" x2="-25.362" y2="59.144"/>
					
						<line fill="none" stroke="#FFFFFF" stroke-width="0.576" stroke-linecap="round" x1="-17.141" y1="51.656" x2="-14.541" y2="51.656"/>
				</g>
			</g>
			<g>
				<title>element:Q2</title>
				<g>
					<title>package:SOT23-WIDE</title>
					
						<line fill="none" stroke="#FFFFFF" stroke-width="0.576" stroke-linecap="round" x1="-0.274" y1="11.296" x2="-0.274" y2="3.853"/>
					
						<line fill="none" stroke="#FFFFFF" stroke-width="0.576" stroke-linecap="round" x1="-0.274" y1="3.853" x2="5.162" y2="3.853"/>
					
						<line fill="none" stroke="#FFFFFF" stroke-width="0.576" stroke-linecap="round" x1="18.687" y1="3.853" x2="18.687" y2="11.296"/>
					
						<line fill="none" stroke="#FFFFFF" stroke-width="0.576" stroke-linecap="round" x1="13.252" y1="3.853" x2="18.687" y2="3.853"/>
					
						<line fill="none" stroke="#FFFFFF" stroke-width="0.576" stroke-linecap="round" x1="10.469" y1="11.339" x2="7.865" y2="11.339"/>
				</g>
			</g>
			<g>
				<title>element:Q3</title>
				<g>
					<title>package:SOT23-WIDE</title>
					
						<line fill="none" stroke="#FFFFFF" stroke-width="0.576" stroke-linecap="round" x1="-36.662" y1="57.091" x2="-44.104" y2="57.091"/>
					
						<line fill="none" stroke="#FFFFFF" stroke-width="0.576" stroke-linecap="round" x1="-44.104" y1="57.091" x2="-44.104" y2="51.656"/>
					
						<line fill="none" stroke="#FFFFFF" stroke-width="0.576" stroke-linecap="round" x1="-44.104" y1="38.13" x2="-36.662" y2="38.13"/>
					
						<line fill="none" stroke="#FFFFFF" stroke-width="0.576" stroke-linecap="round" x1="-44.104" y1="43.564" x2="-44.104" y2="38.13"/>
					
						<line fill="none" stroke="#FFFFFF" stroke-width="0.576" stroke-linecap="round" x1="-36.615" y1="46.351" x2="-36.615" y2="48.95"/>
				</g>
			</g>
			<g>
				<title>element:R1</title>
				<g>
					<title>package:_0805</title>
					
						<line fill="none" stroke="#FFFFFF" stroke-width="0.576" stroke-linecap="round" x1="17.469" y1="39.072" x2="17.469" y2="17.472"/>
					
						<line fill="none" stroke="#FFFFFF" stroke-width="0.576" stroke-linecap="round" x1="17.469" y1="17.472" x2="27.549" y2="17.472"/>
					
						<line fill="none" stroke="#FFFFFF" stroke-width="0.576" stroke-linecap="round" x1="27.549" y1="17.472" x2="27.549" y2="39.072"/>
					
						<line fill="none" stroke="#FFFFFF" stroke-width="0.576" stroke-linecap="round" x1="27.549" y1="39.072" x2="17.469" y2="39.072"/>
				</g>
			</g>
			<g>
				<title>element:R2</title>
				<g>
					<title>package:_0805</title>
					
						<line fill="none" stroke="#FFFFFF" stroke-width="0.576" stroke-linecap="round" x1="-25.961" y1="3.368" x2="-4.36" y2="3.368"/>
					
						<line fill="none" stroke="#FFFFFF" stroke-width="0.576" stroke-linecap="round" x1="-4.36" y1="3.368" x2="-4.36" y2="13.448"/>
					
						<line fill="none" stroke="#FFFFFF" stroke-width="0.576" stroke-linecap="round" x1="-4.36" y1="13.448" x2="-25.961" y2="13.448"/>
					
						<line fill="none" stroke="#FFFFFF" stroke-width="0.576" stroke-linecap="round" x1="-25.961" y1="13.448" x2="-25.961" y2="3.368"/>
				</g>
			</g>
			<g>
				<title>element:R3</title>
				<g>
					<title>package:_0805</title>
					
						<line fill="none" stroke="#FFFFFF" stroke-width="0.576" stroke-linecap="round" x1="5.845" y1="41.976" x2="5.845" y2="63.575"/>
					
						<line fill="none" stroke="#FFFFFF" stroke-width="0.576" stroke-linecap="round" x1="5.845" y1="63.575" x2="-4.235" y2="63.575"/>
					
						<line fill="none" stroke="#FFFFFF" stroke-width="0.576" stroke-linecap="round" x1="-4.235" y1="63.575" x2="-4.235" y2="41.976"/>
					
						<line fill="none" stroke="#FFFFFF" stroke-width="0.576" stroke-linecap="round" x1="-4.235" y1="41.976" x2="5.845" y2="41.976"/>
				</g>
			</g>
			<g>
				<title>element:R4</title>
				<g>
					<title>package:_0805</title>
					
						<line fill="none" stroke="#FFFFFF" stroke-width="0.576" stroke-linecap="round" x1="8.855" y1="53.734" x2="30.455" y2="53.734"/>
					
						<line fill="none" stroke="#FFFFFF" stroke-width="0.576" stroke-linecap="round" x1="30.455" y1="53.734" x2="30.455" y2="63.814"/>
					
						<line fill="none" stroke="#FFFFFF" stroke-width="0.576" stroke-linecap="round" x1="30.455" y1="63.814" x2="8.855" y2="63.814"/>
					
						<line fill="none" stroke="#FFFFFF" stroke-width="0.576" stroke-linecap="round" x1="8.855" y1="63.814" x2="8.855" y2="53.734"/>
				</g>
			</g>
			<g>
				<title>element:R5</title>
				<g>
					<title>package:_0805</title>
					
						<line fill="none" stroke="#FFFFFF" stroke-width="0.576" stroke-linecap="round" x1="-27.53" y1="13.152" x2="-27.53" y2="34.751"/>
					
						<line fill="none" stroke="#FFFFFF" stroke-width="0.576" stroke-linecap="round" x1="-27.53" y1="34.751" x2="-37.61" y2="34.751"/>
					
						<line fill="none" stroke="#FFFFFF" stroke-width="0.576" stroke-linecap="round" x1="-37.61" y1="34.751" x2="-37.61" y2="13.152"/>
					
						<line fill="none" stroke="#FFFFFF" stroke-width="0.576" stroke-linecap="round" x1="-37.61" y1="13.152" x2="-27.53" y2="13.152"/>
				</g>
			</g>
			<g>
				<title>element:R6</title>
				<g>
					<title>package:_0805</title>
					
						<line fill="none" stroke="#FFFFFF" stroke-width="0.576" stroke-linecap="round" x1="-51.841" y1="34.56" x2="-51.841" y2="12.96"/>
					
						<line fill="none" stroke="#FFFFFF" stroke-width="0.576" stroke-linecap="round" x1="-51.841" y1="12.96" x2="-41.76" y2="12.96"/>
					
						<line fill="none" stroke="#FFFFFF" stroke-width="0.576" stroke-linecap="round" x1="-41.76" y1="12.96" x2="-41.76" y2="34.56"/>
					
						<line fill="none" stroke="#FFFFFF" stroke-width="0.576" stroke-linecap="round" x1="-41.76" y1="34.56" x2="-51.841" y2="34.56"/>
				</g>
			</g>
			<g>
				<title>element:U$2</title>
				<g>
					<title>package:ADAFRUIT_2.5MM</title>
				</g>
			</g>
			<g>
				<title>element:U$8</title>
				<g>
					<title>package:MOUNTINGHOLE_2.5_PLATED</title>
					<circle fill="none" stroke="#FFFFFF" stroke-width="0.576" cx="-43.199" cy="-14.4" r="11.339"/>
				</g>
			</g>
			<g>
				<title>element:U$14</title>
				<g>
					<title>package:MOUNTINGHOLE_2.5_PLATED</title>
					<circle fill="none" stroke="#FFFFFF" stroke-width="0.576" cx="43.199" cy="-14.4" r="11.339"/>
				</g>
			</g>
			<g>
				<title>element:U$18</title>
				<g>
					<title>package:ADAFRUIT_5MM</title>
				</g>
			</g>
			<g>
				<title>element:U1</title>
				<g>
					<title>package:TCS3472_FN6</title>
					
						<line fill="none" stroke="#FFFFFF" stroke-width="0.36" stroke-linecap="round" x1="7.937" y1="35.376" x2="7.937" y2="37.077"/>
					
						<line fill="none" stroke="#FFFFFF" stroke-width="0.36" stroke-linecap="round" x1="7.937" y1="37.077" x2="-4.535" y2="37.077"/>
					
						<line fill="none" stroke="#FFFFFF" stroke-width="0.36" stroke-linecap="round" x1="-4.535" y1="37.077" x2="-4.535" y2="35.376"/>
					
						<line fill="none" stroke="#FFFFFF" stroke-width="0.36" stroke-linecap="round" x1="7.937" y1="24.038" x2="7.937" y2="22.335"/>
					
						<line fill="none" stroke="#FFFFFF" stroke-width="0.36" stroke-linecap="round" x1="7.937" y1="22.335" x2="-4.535" y2="22.335"/>
					
						<line fill="none" stroke="#FFFFFF" stroke-width="0.36" stroke-linecap="round" x1="-4.535" y1="22.335" x2="-4.535" y2="24.038"/>
					<circle fill="none" stroke="#FFFFFF" stroke-width="0.8504" cx="12.472" cy="33.392" r="0.566"/>
				</g>
			</g>
			<g>
				<title>element:U2</title>
				<g>
					<title>package:SOT23-5</title>
					
						<line fill="none" stroke="#FFFFFF" stroke-width="0.576" stroke-linecap="round" x1="35.905" y1="48.466" x2="44.975" y2="48.466"/>
					
						<line fill="none" stroke="#FFFFFF" stroke-width="0.576" stroke-linecap="round" x1="35.905" y1="29.757" x2="44.975" y2="29.757"/>
					
						<line fill="none" stroke="#FFFFFF" stroke-width="0.576" stroke-linecap="round" x1="34.487" y1="41.38" x2="34.487" y2="36.843"/>
				</g>
			</g>
		</g>
		<rect id="connector0pin" x="8.312" y="42.745" fill="#9A916C" width="6.803" height="7.371"/>
		<rect id="connector1pin" x="19.832" y="42.745" fill="#9A916C" width="6.805" height="7.371"/>
		<rect id="connector2pin" x="32.073" y="19.351" fill="#9A916C" width="6.803" height="7.369"/>
		<rect id="connector3pin" x="43.592" y="19.351" fill="#9A916C" width="6.805" height="7.369"/>
		<g transform="matrix(-1, 0, 0, -1, 106.679, 86.9047)">
			<g>
				<g>
					<rect id="connector4pin" x="54.198" y="25.114" fill="#9A916C" width="6.805" height="7.371"/>
				</g>
			</g>
		</g>
		<g transform="matrix(-1, 0, 0, -1, 95.1588, 86.9047)">
			<g>
				<g>
					<rect id="connector5pin" x="54.2" y="25.114" fill="#9A916C" width="6.803" height="7.371"/>
				</g>
			</g>
		</g>
		<g transform="matrix(-1, 0, 0, -1, 99.5076, 33.6756)">
			<g>
				<g>
					<path id="connector6pin" fill="#9A916C" d="M57.601,25.967L57.601,25.967c1.564,0,2.834,1.27,2.834,2.834l0,0
						c0,1.564-1.271,2.834-2.834,2.834l0,0c-1.566,0-2.834-1.271-2.834-2.834l0,0C54.765,27.235,56.035,25.967,57.601,25.967z"/>
				</g>
			</g>
		</g>
		<g transform="matrix(-1, 0, 0, -1, 6.97323, 89.4614)">
			<g>
				<g>
					<path id="connector7pin" fill="#9A916C" d="M57.601,25.964L57.601,25.964c1.566,0,2.834,1.271,2.834,2.834l0,0
						c0,1.566-1.27,2.834-2.834,2.834l0,0c-1.565,0-2.834-1.27-2.834-2.834l0,0C54.764,27.236,56.036,25.964,57.601,25.964z"/>
				</g>
			</g>
		</g>
		<circle id="connector8pin" fill="none" stroke="#9A916C" stroke-width="1.1027" cx="43.199" cy="77.76" r="3.938"/>
		<circle id="connector9pin" fill="none" stroke="#9A916C" stroke-width="1.1027" cx="28.801" cy="77.76" r="3.938"/>
		<circle id="connector10pin" fill="none" stroke="#9A916C" stroke-width="1.1027" cx="14.4" cy="77.76" r="3.938"/>
		<circle id="connector11pin" fill="none" stroke="#9A916C" stroke-width="1.1027" cx="0" cy="77.76" r="3.938"/>
		<circle id="connector12pin" fill="none" stroke="#9A916C" stroke-width="1.1027" cx="-14.401" cy="77.76" r="3.938"/>
		<circle id="connector13pin" fill="none" stroke="#9A916C" stroke-width="1.1027" cx="-28.801" cy="77.76" r="3.938"/>
		<circle id="connector14pin" fill="none" stroke="#9A916C" stroke-width="1.1027" cx="-43.199" cy="77.76" r="3.938"/>
		<g transform="matrix(0, 1, -1, 0, 44.9263, 3.87496)">
			<g>
				<g>
					<g transform="matrix(2.535182e-06 1 -1 2.535182e-06 44.9262 3.8749)">
						<g>
							<rect id="connector15pin" x="53.633" y="24.832" fill="#9A916C" width="7.938" height="7.938"/>
						</g>
					</g>
				</g>
			</g>
		</g>
		<g transform="matrix(0, 1, -1, 0, 53.1468, 12.0954)">
			<g>
				<g>
					<g transform="matrix(2.535182e-06 1 -1 2.535182e-06 53.1467 12.0954)">
						<g>
							<rect id="connector16pin" x="53.633" y="24.834" fill="#9A916C" width="7.938" height="7.938"/>
						</g>
					</g>
				</g>
			</g>
		</g>
		<g transform="matrix(-1, 0, 0, -1, 47.1061, 78.5311)">
			<g>
				<g>
					<rect id="connector17pin" x="54.767" y="25.399" fill="#9A916C" width="5.67" height="6.805"/>
				</g>
			</g>
		</g>
		<g transform="matrix(-1, 0, 0, -1, 36.3345, 78.5311)">
			<g>
				<g>
					<rect id="connector18pin" x="54.766" y="25.399" fill="#9A916C" width="5.67" height="6.805"/>
				</g>
			</g>
		</g>
		<g transform="matrix(-1, 0, 0, -1, 41.7203, 89.8697)">
			<g>
				<g>
					<rect id="connector19pin" x="54.765" y="25.398" fill="#9A916C" width="5.67" height="6.805"/>
				</g>
			</g>
		</g>
		<rect id="connector20pin" x="0.986" y="9.865" fill="#9A916C" width="5.67" height="6.803"/>
		<rect id="connector21pin" x="11.758" y="9.865" fill="#9A916C" width="5.67" height="6.803"/>
		<rect id="connector22pin" x="6.371" y="-1.473" fill="#9A916C" width="5.67" height="6.803"/>
		<g transform="matrix(0, -1, 1, 0, -29.4435, 52.3531)">
			<g>
				<g>
					<g transform="matrix(-2.535182e-06 -1 1 -2.535182e-06 -29.4434 52.353)">
						<g>
							<rect id="connector23pin" x="54.2" y="25.966" fill="#9A916C" width="6.805" height="5.67"/>
						</g>
					</g>
				</g>
			</g>
		</g>
		<g transform="matrix(0, -1, 1, 0, -24.0576, 46.9673)">
			<g>
				<g>
					<g transform="matrix(-2.535182e-06 -1 1 -2.535182e-06 -24.0576 46.9672)">
						<g>
							<rect id="connector24pin" x="54.201" y="25.966" fill="#9A916C" width="6.805" height="5.67"/>
						</g>
					</g>
				</g>
			</g>
		</g>
		<g transform="matrix(0, -1, 1, 0, -32.4199, 43.9908)">
			<g>
				<g>
					<g transform="matrix(-2.535182e-06 -1 1 -2.535182e-06 -32.4199 43.991)">
						<g>
							<rect id="connector25pin" x="54.2" y="25.967" fill="#9A916C" width="6.805" height="5.67"/>
						</g>
					</g>
				</g>
			</g>
		</g>
		<g transform="matrix(0, -1, 1, 0, 8.63719, 71.4699)">
			<g>
				<g>
					<g transform="matrix(-2.535182e-06 -1 1 -2.535182e-06 8.6372 71.47)">
						<g>
							<rect id="connector26pin" x="53.917" y="25.401" fill="#9A916C" width="7.37" height="6.803"/>
						</g>
					</g>
				</g>
			</g>
		</g>
		<g transform="matrix(0, -1, 1, 0, 14.3972, 65.7099)">
			<g>
				<g>
					<g transform="matrix(-2.535182e-06 -1 1 -2.535182e-06 14.3972 65.71)">
						<g>
							<rect id="connector27pin" x="53.917" y="25.401" fill="#9A916C" width="7.37" height="6.805"/>
						</g>
					</g>
				</g>
			</g>
		</g>
		<rect id="connector28pin" x="-24.323" y="4.722" fill="#9A916C" width="6.805" height="7.369"/>
		<rect id="connector29pin" x="-12.803" y="4.722" fill="#9A916C" width="6.805" height="7.369"/>
		<g transform="matrix(0, 1, -1, 0, 67.1103, 8.70523)">
			<g>
				<g>
					<g transform="matrix(2.535182e-06 1 -1 2.535182e-06 67.1102 8.705)">
						<g>
							<rect id="connector30pin" x="53.917" y="25.4" fill="#9A916C" width="7.369" height="6.805"/>
						</g>
					</g>
				</g>
			</g>
		</g>
		<g transform="matrix(0, 1, -1, 0, 72.8705, 14.4652)">
			<g>
				<g>
					<g transform="matrix(2.535182e-06 1 -1 2.535182e-06 72.8702 14.465)">
						<g>
							<rect id="connector31pin" x="53.917" y="25.4" fill="#9A916C" width="7.369" height="6.805"/>
						</g>
					</g>
				</g>
			</g>
		</g>
		<rect id="connector32pin" x="10.494" y="55.087" fill="#9A916C" width="6.805" height="7.371"/>
		<rect id="connector33pin" x="22.014" y="55.087" fill="#9A916C" width="6.805" height="7.371"/>
		<g transform="matrix(0, 1, -1, 0, 36.0113, 10.9814)">
			<g>
				<g>
					<g transform="matrix(2.535182e-06 1 -1 2.535182e-06 36.0114 10.9814)">
						<g>
							<rect id="connector34pin" x="53.917" y="25.401" fill="#9A916C" width="7.369" height="6.803"/>
						</g>
					</g>
				</g>
			</g>
		</g>
		<g transform="matrix(0, 1, -1, 0, 41.7713, 16.7414)">
			<g>
				<g>
					<g transform="matrix(2.535182e-06 1 -1 2.535182e-06 41.7714 16.7414)">
						<g>
							<rect id="connector35pin" x="53.917" y="25.402" fill="#9A916C" width="7.369" height="6.803"/>
						</g>
					</g>
				</g>
			</g>
		</g>
		<g transform="matrix(0, -1, 1, 0, -23.76, 34.56)">
			<g>
				<g>
					<g transform="matrix(-2.535182e-06 -1 1 -2.535182e-06 -23.7599 34.56)">
						<g>
							<rect id="connector36pin" x="53.915" y="25.4" fill="#9A916C" width="7.372" height="6.803"/>
						</g>
					</g>
				</g>
			</g>
		</g>
		<g transform="matrix(0, -1, 1, 0, -18, 28.8)">
			<g>
				<g>
					<g transform="matrix(-2.535182e-06 -1 1 -2.535182e-06 -17.9999 28.8)">
						<g>
							<rect id="connector37pin" x="53.915" y="25.4" fill="#9A916C" width="7.372" height="6.805"/>
						</g>
					</g>
				</g>
			</g>
		</g>
		<circle id="connector38pin" fill="none" stroke="#9A916C" stroke-width="1.44" cx="-43.2" cy="-14.401" r="8.527"/>
		<circle id="connector39pin" fill="none" stroke="#9A916C" stroke-width="1.44" cx="43.199" cy="-14.401" r="8.527"/>
		<g transform="matrix(-1, 0, 0, -1, 64.1197, 62.1922)">
			<g>
				<g>
					<rect id="connector40pin" x="54.198" y="27.666" fill="#9A916C" width="6.805" height="2.268"/>
				</g>
			</g>
		</g>
		<g transform="matrix(-1, 0, 0, -1, 64.6866, 58.5071)">
			<g>
				<g>
					<rect id="connector41pin" x="54.765" y="27.668" fill="#9A916C" width="5.67" height="2.268"/>
				</g>
			</g>
		</g>
		<g transform="matrix(-1, 0, 0, -1, 64.6866, 54.822)">
			<g>
				<g>
					<rect id="connector42pin" x="54.765" y="27.667" fill="#9A916C" width="5.67" height="2.268"/>
				</g>
			</g>
		</g>
		<g transform="matrix(-1, 0, 0, -1, 53.915, 54.822)">
			<g>
				<g>
					<rect id="connector43pin" x="54.765" y="27.667" fill="#9A916C" width="5.67" height="2.268"/>
				</g>
			</g>
		</g>
		<g transform="matrix(-1, 0, 0, -1, 53.915, 58.5071)">
			<g>
				<g>
					<rect id="connector44pin" x="54.765" y="27.668" fill="#9A916C" width="5.67" height="2.268"/>
				</g>
			</g>
		</g>
		<g transform="matrix(-1, 0, 0, -1, 53.915, 62.1922)">
			<g>
				<g>
					<rect id="connector45pin" x="54.765" y="27.666" fill="#9A916C" width="5.67" height="2.268"/>
				</g>
			</g>
		</g>
		<g transform="matrix(0, -1, 1, 0, 16.0557, 89.3542)">
			<g>
				<g>
					<g transform="matrix(-2.535182e-06 -1 1 -2.535182e-06 16.0558 89.3541)">
						<g>
							<rect id="connector46pin" x="54.2" y="27.244" fill="#9A916C" width="6.803" height="3.117"/>
						</g>
					</g>
				</g>
			</g>
		</g>
		<g transform="matrix(0, -1, 1, 0, 18.7487, 86.6614)">
			<g>
				<g>
					<g transform="matrix(-2.535182e-06 -1 1 -2.535182e-06 18.7488 86.6611)">
						<g>
							<rect id="connector47pin" x="54.2" y="27.243" fill="#9A916C" width="6.803" height="3.117"/>
						</g>
					</g>
				</g>
			</g>
		</g>
		<g transform="matrix(0, -1, 1, 0, 21.4415, 83.9678)">
			<g>
				<g>
					<g transform="matrix(-2.535182e-06 -1 1 -2.535182e-06 21.4416 83.9683)">
						<g>
							<rect id="connector48pin" x="54.2" y="27.243" fill="#9A916C" width="6.803" height="3.119"/>
						</g>
					</g>
				</g>
			</g>
		</g>
		<g transform="matrix(0, -1, 1, 0, 14.0709, 76.5972)">
			<g>
				<g>
					<g transform="matrix(-2.535182e-06 -1 1 -2.535182e-06 14.071 76.5977)">
						<g>
							<rect id="connector49pin" x="54.199" y="27.243" fill="#9A916C" width="6.803" height="3.119"/>
						</g>
					</g>
				</g>
			</g>
		</g>
		<g transform="matrix(0, -1, 1, 0, 8.68507, 81.9835)">
			<g>
				<g>
					<g transform="matrix(-2.535182e-06 -1 1 -2.535182e-06 8.6852 81.9835)">
						<g>
							<rect id="connector50pin" x="54.199" y="27.244" fill="#9A916C" width="6.803" height="3.117"/>
						</g>
					</g>
				</g>
			</g>
		</g>
	</g>
	<g transform="matrix(1, 0, 0, 1, 34.7019, 35.8443)">
		<g>
			<g id="_0805">
				<path fill="#DCDCDC" d="M-12.126,14.129h-10.208c-0.311,0-0.566-0.254-0.566-0.564V7.61c0-0.313,0.256-0.566,0.566-0.566h10.206
					c0.314,0,0.566,0.254,0.566,0.566v5.955C-11.559,13.876-11.815,14.129-12.126,14.129z"/>
				<rect x="-20.773" y="7.044" fill="#6E554B" width="7.086" height="7.086"/>
			</g>
		</g>
	</g>
	<g transform="matrix(1, 0, 0, 1, 46.5819, 24.1456)">
		<g>
			<g id="_0805_1_">
				<path fill="#DCDCDC" d="M-0.246,2.432h-10.207c-0.311,0-0.564-0.254-0.564-0.566v-5.953c0-0.313,0.254-0.566,0.564-0.566h10.205
					c0.314,0,0.566,0.254,0.566,0.566v5.953C0.321,2.178,0.067,2.432-0.246,2.432z"/>
				<rect x="-8.892" y="-4.654" fill="#6E554B" width="7.086" height="7.086"/>
			</g>
		</g>
	</g>
	<g transform="matrix(1, 0, 0, 1, 47.625, 41.6808)">
		<g>
			<g id="_0805_2_">
				<g transform="matrix(-1, 0, 0, -1, 5.669, 3.543)">
					<g>
						<g>
							<path fill="#DCDCDC" d="M15.077-9.338H4.872c-0.313,0-0.566-0.254-0.566-0.566v-5.953c0-0.313,0.254-0.566,0.566-0.566
								h10.203c0.314,0,0.566,0.254,0.566,0.566v5.953C15.644-9.592,15.39-9.338,15.077-9.338z"/>
							<rect x="6.433" y="-16.424" fill="#6E554B" width="7.086" height="7.086"/>
						</g>
					</g>
				</g>
			</g>
		</g>
	</g>
	<g transform="matrix(1, 0, 0, 1, 16.2737, 25.6764)">
		<g>
			<g id="everlight_45-21">
				<g transform="matrix(0, 1, -1, 0, 7.0865, -1.41749)">
					<g>
						<g>
							<g>
								<g transform="matrix(2.535182e-06 1 -1 2.535182e-06 7.0865 -1.4175)">
									<g>
										<rect x="37.358" y="-5.377" fill="#DCDCDC" width="7.939" height="17.008"/>
									</g>
								</g>
								<g transform="matrix(2.535182e-06 1 -1 2.535182e-06 7.0865 -1.4175)">
									<g>
										<rect x="35.661" y="-4.529" fill="#F5F5F5" width="11.338" height="15.307"/>
									</g>
								</g>
								<path fill="#FFFF96" d="M-2.556,42.179l0-4.535c0-1.252,1.016-2.268,2.268-2.268l8.502,0c1.252,0,2.268,1.016,2.268,2.268
									l0,4.537c0,1.252-1.016,2.268-2.268,2.268l-8.504,0C-1.542,44.446-2.556,43.433-2.556,42.179z"/>
								<path fill="#F0F050" d="M-0.29,43.312c-0.625,0-1.133-0.508-1.133-1.133l0-4.537c0-0.623,0.508-1.133,1.133-1.133l8.502,0
									c0.623,0,1.131,0.508,1.131,1.133l0,4.537c0,0.625-0.508,1.133-1.131,1.133L-0.29,43.312z"/>
							</g>
						</g>
					</g>
				</g>
			</g>
		</g>
	</g>
	<g transform="matrix(1, 0, 0, 1, 16.6082, 38.2731)">
		<g>
			<g id="sot23-wide">
				<g transform="matrix(-1, 0, 0, -1, 8.50399, 7.65403)">
					<g>
						<g>
							<g>
								<rect x="34.189" y="-7.773" fill="#DCDCDC" width="2.834" height="5.953"/>
								<rect x="44.96" y="-7.773" fill="#DCDCDC" width="2.834" height="5.953"/>
								<rect x="39.574" y="-17.127" fill="#DCDCDC" width="2.834" height="6.236"/>
								<rect x="32.488" y="-13.158" fill="#303030" width="17.008" height="7.369"/>
							</g>
						</g>
					</g>
				</g>
			</g>
		</g>
	</g>
	<g transform="matrix(1, 0, 0, 1, 29.1515, 14.3714)">
		<g>
			<g id="sot23-wide_1_">
				<g>
					<rect x="-26.75" y="-5.075" fill="#DCDCDC" width="2.834" height="5.953"/>
					<rect x="-15.976" y="-5.075" fill="#DCDCDC" width="2.834" height="5.953"/>
					<rect x="-21.363" y="-14.429" fill="#DCDCDC" width="2.834" height="6.236"/>
					<rect x="-28.449" y="-10.46" fill="#303030" width="17.008" height="7.369"/>
				</g>
			</g>
		</g>
	</g>
	<g transform="matrix(1, 0, 0, 1, 4.36816, 34.3783)">
		<g>
			<g id="sot23-wide_2_">
				<g transform="matrix(0, -1, 1, 0, 0.42498, 8.07898)">
					<g>
						<g>
							<g>
								<g transform="matrix(-2.535182e-06 -1 1 -2.535182e-06 -4.6065 7.7235)">
									<g>
										<rect x="45.228" y="-7.35" fill="#DCDCDC" width="5.951" height="2.834"/>
									</g>
								</g>
								<g transform="matrix(-2.535182e-06 -1 1 -2.535182e-06 0.7795 13.1095)">
									<g>
										<rect x="50.614" y="-1.963" fill="#DCDCDC" width="5.951" height="2.834"/>
									</g>
								</g>
								<g transform="matrix(-2.535182e-06 -1 1 -2.535182e-06 2.6925 5.8105)">
									<g>
										<rect x="52.385" y="-9.263" fill="#DCDCDC" width="6.236" height="2.834"/>
									</g>
								</g>
								<g transform="matrix(-2.535182e-06 -1 1 -2.535182e-06 0.4255 8.0785)">
									<g>
										<rect x="49.55" y="-14.08" fill="#303030" width="7.369" height="17.008"/>
									</g>
								</g>
							</g>
						</g>
					</g>
				</g>
			</g>
		</g>
	</g>
	<g transform="matrix(1, 0, 0, 1, 37.219, 26.7648)">
		<g>
			<g id="_0805_3_">
				<g transform="matrix(0, -1, 1, 0, 1.063, 4.606)">
					<g>
						<g>
							<path fill="#DCDCDC" d="M8.201-12.231H-2.006c-0.311,0-0.564-0.256-0.564-0.566v-5.956c0-0.311,0.254-0.564,0.564-0.564H8.2
								c0.314,0,0.566,0.254,0.566,0.564v5.956C8.768-12.487,8.514-12.231,8.201-12.231z"/>
							<g transform="matrix(-2.535182e-06 -1 1 -2.535182e-06 1.063 4.606)">
								<g>
									<rect x="16.839" y="-1.507" fill="#6E554B" width="7.086" height="7.086"/>
								</g>
							</g>
						</g>
					</g>
				</g>
			</g>
		</g>
	</g>
	<g transform="matrix(1, 0, 0, 1, 18.3856, 16.8323)">
		<g>
			<g id="_0805_4_">
				<path fill="#DCDCDC" d="M-28.443-4.882H-38.65c-0.311,0-0.564-0.254-0.564-0.566v-5.953c0-0.313,0.254-0.566,0.564-0.566h10.205
					c0.314,0,0.566,0.254,0.566,0.566v5.953C-27.876-5.136-28.13-4.882-28.443-4.882z"/>
				<rect x="-37.089" y="-11.968" fill="#6E554B" width="7.086" height="7.086"/>
			</g>
		</g>
	</g>
	<g transform="matrix(1, 0, 0, 1, 26.3681, 39.0162)">
		<g>
			<g id="_0805_5_">
				<g transform="matrix(0, 1, -1, 0, 4.606, -1.063)">
					<g>
						<g>
							<path fill="#DCDCDC" d="M19.925,33.713H9.72c-0.313,0-0.566-0.254-0.566-0.566v-5.953c0-0.313,0.254-0.566,0.566-0.566
								h10.203c0.314,0,0.566,0.254,0.566,0.566v5.953C20.492,33.459,20.238,33.713,19.925,33.713z"/>
							<g transform="matrix(2.535182e-06 1 -1 2.535182e-06 4.606 -1.063)">
								<g>
									<rect x="27.692" y="-13.757" fill="#6E554B" width="7.086" height="7.086"/>
								</g>
							</g>
						</g>
					</g>
				</g>
			</g>
		</g>
	</g>
	<g transform="matrix(1, 0, 0, 1, 35.7932, 42.0152)">
		<g>
			<g id="_0805_6_">
				<path fill="#DCDCDC" d="M-11.035,20.301h-10.206c-0.313,0-0.566-0.254-0.566-0.564v-5.955c0-0.313,0.254-0.566,0.566-0.566
					h10.204c0.314,0,0.566,0.254,0.566,0.566v5.955C-10.469,20.047-10.723,20.301-11.035,20.301z"/>
				<rect x="-19.682" y="13.215" fill="#6E554B" width="7.088" height="7.086"/>
			</g>
		</g>
	</g>
	<g transform="matrix(1, 0, 0, 1, 9.68047, 24.6048)">
		<g>
			<g id="_0805_7_">
				<g transform="matrix(0, 1, -1, 0, 4.606, -1.063)">
					<g>
						<g>
							<path fill="#DCDCDC" d="M5.514,50.4H-4.693c-0.311,0-0.564-0.254-0.564-0.566v-5.953c0-0.313,0.254-0.566,0.564-0.566H5.512
								c0.314,0,0.566,0.254,0.566,0.566v5.953C6.081,50.146,5.827,50.4,5.514,50.4z"/>
							<g transform="matrix(2.535182e-06 1 -1 2.535182e-06 4.606 -1.063)">
								<g>
									<rect x="44.379" y="0.654" fill="#6E554B" width="7.086" height="7.086"/>
								</g>
							</g>
						</g>
					</g>
				</g>
			</g>
		</g>
	</g>
	<g transform="matrix(1, 0, 0, 1, 2.5655, 24.5085)">
		<g>
			<g id="_0805_8_">
				<g transform="matrix(0, -1, 1, 0, 1.063, 4.606)">
					<g>
						<g>
							<path fill="#DCDCDC" d="M10.457-46.887H0.252c-0.313,0-0.566-0.254-0.566-0.564v-5.956c0-0.313,0.254-0.566,0.566-0.566
								h10.203c0.314,0,0.566,0.254,0.566,0.566v5.956C11.023-47.141,10.769-46.887,10.457-46.887z"/>
							<g transform="matrix(-2.535182e-06 -1 1 -2.535182e-06 1.063 4.606)">
								<g>
									<rect x="51.495" y="0.751" fill="#6E554B" width="7.086" height="7.086"/>
								</g>
							</g>
						</g>
					</g>
				</g>
			</g>
		</g>
	</g>
	<g transform="matrix(1, 0, 0, 1, 1.4448, 13.6236)">
		<g>
			<g id="adafruit_2.5mm">
				<path fill="#DCDCDC" d="M-36.662-9.013c-0.045-0.283-0.199-0.365-0.572-0.486c-0.283-0.09-2.178-0.693-2.178-0.693
					s-1.32-0.498-2.299,0.207c-0.133,0.096-0.27,0.203-0.406,0.318c0.115-0.137,0.223-0.273,0.316-0.404
					c0.705-0.98,0.203-2.301,0.203-2.301s-0.605-1.895-0.697-2.178c-0.121-0.373-0.201-0.527-0.486-0.57
					c-0.285-0.047-0.408,0.076-0.637,0.395c-0.174,0.24-1.334,1.855-1.334,1.855s-0.883,1.102-0.514,2.252
					c0.051,0.154,0.109,0.318,0.178,0.484c-0.096-0.152-0.191-0.299-0.287-0.428c-0.717-0.973-2.125-0.904-2.125-0.904
					s-1.99-0.008-2.285-0.008c-0.391,0-0.563,0.027-0.695,0.285c-0.129,0.256-0.053,0.412,0.178,0.729
					c0.178,0.24,1.355,1.842,1.355,1.842s0.775,1.18,1.982,1.184c0.16,0,0.336-0.006,0.514-0.02
					c-0.174,0.043-0.342,0.092-0.496,0.143c-1.146,0.379-1.516,1.742-1.516,1.742s-0.621,1.887-0.715,2.17
					c-0.123,0.371-0.146,0.543,0.059,0.748c0.203,0.203,0.375,0.18,0.748,0.055c0.281-0.092,2.17-0.717,2.17-0.717
					s1.361-0.375,1.738-1.521c0.049-0.152,0.098-0.318,0.139-0.494c-0.012,0.182-0.018,0.354-0.018,0.516
					c0.008,1.205,1.188,1.979,1.188,1.979s1.604,1.176,1.844,1.352c0.316,0.23,0.473,0.307,0.73,0.178
					c0.256-0.133,0.287-0.305,0.285-0.695c-0.002-0.297-0.014-2.285-0.014-2.285s0.066-1.41-0.906-2.125
					c-0.131-0.096-0.277-0.191-0.43-0.285c0.166,0.068,0.33,0.129,0.484,0.176c1.15,0.367,2.25-0.518,2.25-0.518
					s1.615-1.162,1.854-1.336C-36.738-8.605-36.617-8.728-36.662-9.013z M-43.512-10.476c0.217,0.033,0.324,0.496,0.24,1.029
					S-43.6-8.507-43.818-8.54c-0.215-0.033-0.324-0.496-0.24-1.029C-43.975-10.107-43.73-10.513-43.512-10.476z M-46.289-9.058
					c0.1-0.197,0.57-0.156,1.053,0.09s0.795,0.604,0.695,0.797c-0.102,0.197-0.572,0.156-1.055-0.09
					C-46.08-8.507-46.391-8.862-46.289-9.058z M-44.826-6.39c-0.381,0.381-0.818,0.568-0.975,0.412
					c-0.152-0.156,0.031-0.592,0.412-0.975c0.383-0.385,0.818-0.57,0.975-0.414S-44.441-6.775-44.826-6.39z M-42.719-5.493
					c-0.195,0.102-0.553-0.209-0.799-0.691c-0.246-0.484-0.289-0.955-0.092-1.055c0.195-0.102,0.553,0.209,0.799,0.691
					C-42.564-6.064-42.521-5.593-42.719-5.493z M-42.209-7.726c-0.535,0.084-0.996-0.023-1.033-0.238
					c-0.033-0.219,0.373-0.463,0.906-0.549s0.996,0.023,1.029,0.238C-41.269-8.056-41.676-7.812-42.209-7.726z"/>
			</g>
		</g>
	</g>
	<g transform="matrix(1, 0, 0, 1, 27.6641, 25.852)">
		<g>
			<g id="tcs3472_fn6">
				<g transform="matrix(-1, 0, 0, -1, 5.669, 6.803)">
					<g>
						<g>
							<g>
								<rect x="25.968" y="-3.854" fill="#D2D2B4" width="11.338" height="13.605"/>
								<path fill="#DCDCDC" d="M26.533,7.767V7.484h-0.564V5.782h0.564V5.499h2.977V4.083h-2.977V3.798h-0.564V2.099h0.564V1.816
									h2.977V0.398h-2.977V0.113h-0.564v-1.699h0.564v-0.285h0.994c0.314,0,0.566-0.254,0.566-0.564v-0.709h0.992l0.707,0.709
									h2.553v-0.709h2.834v0.709c0,0.313,0.254,0.564,0.566,0.564h0.992v0.285h0.568v1.699H36.74v0.285h-2.979v1.418h2.979v0.283
									h0.568v1.699H36.74v0.285h-2.979v1.418h2.979v0.283h0.568v1.701H36.74v0.283h-0.994c-0.314,0-0.566,0.254-0.566,0.566v0.707
									h-2.834V8.333h-1.418V9.04h-2.834V8.335c0-0.314-0.254-0.566-0.566-0.566L26.533,7.767L26.533,7.767z"/>
								<rect x="28.519" y="-2.721" fill="#AA8246" width="6.236" height="11.338"/>
								<rect x="30.939" y="1.083" fill="#554123" width="2.098" height="2.268"/>
							</g>
						</g>
					</g>
				</g>
			</g>
		</g>
	</g>
	<g transform="matrix(1, 0, 0, 1, 44.9095, 30.1292)">
		<g>
			<g id="sot23-5">
				<g transform="matrix(0, -1, 1, 0, 0.282996, 7.93706)">
					<g>
						<g>
							<g>
								<g transform="matrix(-2.535182e-06 -1 1 -2.535182e-06 -2.41 5.244)">
									<g>
										<rect x="2.344" y="-5.155" fill="#DCDCDC" width="15.309" height="2.268"/>
									</g>
								</g>
								<g transform="matrix(-2.535182e-06 -1 1 -2.535182e-06 2.976 10.63)">
									<g>
										<rect x="7.731" y="0.231" fill="#DCDCDC" width="15.309" height="2.268"/>
									</g>
								</g>
								<g transform="matrix(-2.535182e-06 -1 1 -2.535182e-06 -1.984 10.204)">
									<g>
										<rect x="7.306" y="-0.196" fill="#DCDCDC" width="6.236" height="2.27"/>
									</g>
								</g>
								<g transform="matrix(-2.535182e-06 -1 1 -2.535182e-06 0.2835 7.9365)">
									<g>
										<rect x="8.158" y="-9.549" fill="#303030" width="9.07" height="16.439"/>
									</g>
								</g>
							</g>
						</g>
					</g>
				</g>
			</g>
		</g>
	</g>
</g>
</svg>
