<svg xmlns="http://www.w3.org/2000/svg" viewBox="0 0 57.6 57.6"><defs><style>.cls-1{fill:#014cb1;}.cls-2,.cls-3,.cls-5{isolation:isolate;fill:#fff;font-family:ArialMT, Arial;}.cls-2{font-size:3.34px;}.cls-3{font-size:2.67px;}.cls-4{letter-spacing:-0.11em;}.cls-5{font-size:2.14px;}.cls-6{letter-spacing:-0.02em;}.cls-7{letter-spacing:-0.06em;}.cls-8{letter-spacing:-0.04em;}.cls-10,.cls-11,.cls-12,.cls-14,.cls-15,.cls-9{fill:none;}.cls-10,.cls-11,.cls-12,.cls-9{stroke:#fff;}.cls-11,.cls-9{stroke-linecap:round;}.cls-10,.cls-9{stroke-width:0.58px;}.cls-11{stroke-width:0.36px;}.cls-12{stroke-width:0.86px;}.cls-13{fill:#9a916c;}.cls-14,.cls-15{stroke:#9a916c;}.cls-14{stroke-width:1.32px;}.cls-15{stroke-width:1.44px;}.cls-16{fill:#dcdcdc;}.cls-17{fill:#6e554b;}.cls-18{fill:#333;}</style></defs><title>DEV_8</title><g id="Layer_2" data-name="Layer 2"><g id="Layer_1-2" data-name="Layer 1"><g id="breadboard"><g id="icon"><path class="cls-1" d="M0,7.2A7.2,7.2,0,0,1,7.2,0H50.4a7.2,7.2,0,0,1,7.2,7.2V50.4a7.2,7.2,0,0,1-7.2,7.2H7.2A7.2,7.2,0,0,1,0,50.4V7.2M5.78,50.4A1.42,1.42,0,1,0,7.2,49,1.42,1.42,0,0,0,5.78,50.4Zm7.2,0A1.42,1.42,0,1,0,14.4,49,1.42,1.42,0,0,0,13,50.4Zm7.2,0A1.42,1.42,0,1,0,21.6,49a1.42,1.42,0,0,0-1.42,1.42Zm7.2,0A1.42,1.42,0,1,0,28.8,49a1.42,1.42,0,0,0-1.42,1.42Zm7.2,0A1.42,1.42,0,1,0,36,49,1.42,1.42,0,0,0,34.58,50.4Zm7.2,0a1.42,1.42,0,0,0,2.83,0h0a1.42,1.42,0,1,0-2.83,0Zm7.2,0A1.42,1.42,0,1,0,50.4,49,1.42,1.42,0,0,0,49,50.4ZM46.86,7.2a3.54,3.54,0,1,0,7.09,0h0a3.54,3.54,0,1,0-7.09,0Zm-43.2,0a3.54,3.54,0,0,0,7.09,0h0a3.54,3.54,0,1,0-7.09,0Z"/><text class="cls-2" transform="translate(18.72 5.76)">TMP007</text><text class="cls-3" transform="translate(15.12 10.08)"><tspan class="cls-4">T</tspan><tspan x="1.34" y="0">emp Sensor</tspan></text><text class="cls-5" transform="translate(4.32 56.16)">VCC</text><text class="cls-5" transform="translate(11.52 46.8)">GND</text><text class="cls-5" transform="translate(30.96 56.16)">ALE<tspan class="cls-6" x="4.04" y="0">RT</tspan></text><text class="cls-5" transform="translate(40.32 46.8)">AD1</text><text class="cls-5" transform="translate(47.52 56.16)">AD0</text><text class="cls-5" transform="translate(18.72 56.16)">SD<tspan class="cls-7" x="2.97" y="0">A</tspan></text><text class="cls-5" transform="translate(25.92 46.8)">SC<tspan class="cls-8" x="2.97" y="0">L</tspan></text><line class="cls-9" x1="14.04" y1="38.52" x2="3.24" y2="38.52"/><line class="cls-9" x1="3.24" y1="38.52" x2="3.24" y2="33.48"/><line class="cls-9" x1="3.24" y1="33.48" x2="14.04" y2="33.48"/><line class="cls-9" x1="14.04" y1="33.48" x2="14.04" y2="38.52"/><line class="cls-9" x1="14.04" y1="31.32" x2="3.24" y2="31.32"/><line class="cls-9" x1="3.24" y1="31.32" x2="3.24" y2="26.28"/><line class="cls-9" x1="3.24" y1="26.28" x2="14.04" y2="26.28"/><line class="cls-9" x1="14.04" y1="26.28" x2="14.04" y2="31.32"/><line class="cls-9" x1="14.04" y1="25.56" x2="3.24" y2="25.56"/><line class="cls-9" x1="3.24" y1="25.56" x2="3.24" y2="20.52"/><line class="cls-9" x1="3.24" y1="20.52" x2="14.04" y2="20.52"/><line class="cls-9" x1="14.04" y1="20.52" x2="14.04" y2="25.56"/><line class="cls-9" x1="14.04" y1="19.8" x2="3.24" y2="19.8"/><line class="cls-9" x1="3.24" y1="19.8" x2="3.24" y2="14.76"/><line class="cls-9" x1="3.24" y1="14.76" x2="14.04" y2="14.76"/><line class="cls-9" x1="14.04" y1="14.76" x2="14.04" y2="19.8"/><line class="cls-9" x1="42.84" y1="27.72" x2="53.64" y2="27.72"/><line class="cls-9" x1="53.64" y1="27.72" x2="53.64" y2="32.76"/><line class="cls-9" x1="53.64" y1="32.76" x2="42.84" y2="32.76"/><line class="cls-9" x1="42.84" y1="32.76" x2="42.84" y2="27.72"/><line class="cls-9" x1="42.84" y1="21.96" x2="53.64" y2="21.96"/><line class="cls-9" x1="53.64" y1="21.96" x2="53.64" y2="27"/><line class="cls-9" x1="53.64" y1="27" x2="42.84" y2="27"/><line class="cls-9" x1="42.84" y1="27" x2="42.84" y2="21.96"/><circle class="cls-10" cx="50.4" cy="7.2" r="5.67"/><circle class="cls-10" cx="7.2" cy="7.2" r="5.67"/><line class="cls-11" x1="26.11" y1="26.11" x2="31.49" y2="26.11"/><line class="cls-11" x1="31.49" y1="26.11" x2="31.49" y2="31.49"/><line class="cls-11" x1="31.49" y1="31.49" x2="26.11" y2="31.49"/><line class="cls-11" x1="26.11" y1="31.49" x2="26.11" y2="26.11"/><circle class="cls-12" cx="32.77" cy="30.78" r="0.4"/><rect id="connector0pin" class="cls-13" x="9.82" y="34.16" width="3.4" height="3.69"/><rect id="connector1pin" class="cls-13" x="4.06" y="34.16" width="3.4" height="3.69"/><path id="connector2pin" class="cls-13" d="M7.2,42.5h0a1.42,1.42,0,0,1,1.42,1.42h0A1.42,1.42,0,0,1,7.2,45.34h0a1.42,1.42,0,0,1-1.42-1.42h0A1.42,1.42,0,0,1,7.2,42.5Z"/><path id="connector3pin" class="cls-13" d="M43.92,13h0a1.42,1.42,0,0,1,1.42,1.42h0a1.42,1.42,0,0,1-1.42,1.42h0A1.42,1.42,0,0,1,42.5,14.4h0A1.42,1.42,0,0,1,43.92,13Z"/><circle id="connector4pin" class="cls-14" cx="7.2" cy="50.4" r="2.08"/><rect class="cls-14" x="5.12" y="48.32" width="4.15" height="4.15"/><circle id="connector5pin" class="cls-14" cx="14.4" cy="50.4" r="2.08"/><circle id="connector6pin" class="cls-14" cx="21.6" cy="50.4" r="2.08"/><circle id="connector7pin" class="cls-14" cx="28.8" cy="50.4" r="2.08"/><circle id="connector8pin" class="cls-14" cx="36" cy="50.4" r="2.08"/><circle id="connector9pin" class="cls-14" cx="43.2" cy="50.4" r="2.08"/><circle id="connector10pin" class="cls-14" cx="50.4" cy="50.4" r="2.08"/><rect id="connector11pin" class="cls-13" x="9.82" y="26.96" width="3.4" height="3.68"/><rect id="connector12pin" class="cls-13" x="4.06" y="26.96" width="3.4" height="3.68"/><rect id="connector13pin" class="cls-13" x="9.82" y="21.2" width="3.4" height="3.68"/><rect id="connector14pin" class="cls-13" x="4.06" y="21.2" width="3.4" height="3.68"/><rect id="connector15pin" class="cls-13" x="9.82" y="15.44" width="3.4" height="3.68"/><rect id="connector16pin" class="cls-13" x="4.06" y="15.44" width="3.4" height="3.68"/><rect id="connector17pin" class="cls-13" x="43.66" y="28.4" width="3.4" height="3.69"/><rect id="connector18pin" class="cls-13" x="49.42" y="28.4" width="3.4" height="3.69"/><rect id="connector19pin" class="cls-13" x="43.66" y="22.64" width="3.4" height="3.68"/><rect id="connector20pin" class="cls-13" x="49.42" y="22.64" width="3.4" height="3.68"/><circle id="connector21pin" class="cls-15" cx="50.4" cy="7.2" r="4.26"/><circle id="connector22pin" class="cls-15" cx="7.2" cy="7.2" r="4.26"/><path id="connector23pin" class="cls-13" d="M30.22,29.86h0a.35.35,0,0,1,.35.35h0a.35.35,0,0,1-.35.35h0a.35.35,0,0,1-.35-.35h0A.35.35,0,0,1,30.22,29.86Z"/><path id="connector24pin" class="cls-13" d="M28.8,29.86h0a.35.35,0,0,1,.35.35h0a.35.35,0,0,1-.35.35h0a.35.35,0,0,1-.35-.35h0A.35.35,0,0,1,28.8,29.86Z"/><path id="connector25pin" class="cls-13" d="M27.38,29.86h0a.35.35,0,0,1,.35.35h0a.35.35,0,0,1-.35.35h0a.35.35,0,0,1-.35-.35h0A.35.35,0,0,1,27.38,29.86Z"/><path id="connector26pin" class="cls-13" d="M30.22,28.45h0a.35.35,0,0,1,.35.35h0a.35.35,0,0,1-.35.35h0a.35.35,0,0,1-.35-.35h0A.35.35,0,0,1,30.22,28.45Z"/><path id="connector27pin" class="cls-13" d="M27.38,28.45h0a.35.35,0,0,1,.35.35h0a.35.35,0,0,1-.35.35h0A.35.35,0,0,1,27,28.8h0A.35.35,0,0,1,27.38,28.45Z"/><path id="connector28pin" class="cls-13" d="M30.22,27h0a.35.35,0,0,1,.35.35h0a.35.35,0,0,1-.35.35h0a.35.35,0,0,1-.35-.35h0A.35.35,0,0,1,30.22,27Z"/><path id="connector29pin" class="cls-13" d="M28.8,27h0a.35.35,0,0,1,.35.35h0a.35.35,0,0,1-.35.35h0a.35.35,0,0,1-.35-.35h0A.35.35,0,0,1,28.8,27Z"/><path id="connector30pin" class="cls-13" d="M27.38,27h0a.35.35,0,0,1,.35.35h0a.35.35,0,0,1-.35.35h0a.35.35,0,0,1-.35-.35h0A.35.35,0,0,1,27.38,27Z"/></g><g id="_0805" data-name=" 0805"><path class="cls-16" d="M6.09,34.23h5.1a.28.28,0,0,1,.28.28v3a.28.28,0,0,1-.28.28H6.09a.28.28,0,0,1-.28-.28v-3A.28.28,0,0,1,6.09,34.23Z"/><rect class="cls-17" x="6.87" y="34.23" width="3.54" height="3.54"/></g><g id="_0805-2" data-name=" 0805"><path class="cls-16" d="M6.09,27h5.1a.28.28,0,0,1,.28.28v3a.28.28,0,0,1-.28.28H6.09a.28.28,0,0,1-.28-.28v-3A.28.28,0,0,1,6.09,27Z"/><rect class="cls-18" x="6.87" y="27.03" width="3.54" height="3.54"/></g><g id="_0805-3" data-name=" 0805"><path class="cls-16" d="M6.09,21.27h5.1a.28.28,0,0,1,.28.28v3a.28.28,0,0,1-.28.28H6.09a.28.28,0,0,1-.28-.28v-3A.28.28,0,0,1,6.09,21.27Z"/><rect class="cls-18" x="6.87" y="21.27" width="3.54" height="3.54"/></g><g id="_0805-4" data-name=" 0805"><path class="cls-16" d="M6.09,15.51h5.1a.28.28,0,0,1,.28.28v3a.28.28,0,0,1-.28.28H6.09a.28.28,0,0,1-.28-.28v-3A.28.28,0,0,1,6.09,15.51Z"/><rect class="cls-18" x="6.87" y="15.51" width="3.54" height="3.54"/></g><g id="_0805-5" data-name=" 0805"><path class="cls-16" d="M50.79,32h-5.1a.28.28,0,0,1-.28-.28v-3a.28.28,0,0,1,.28-.28h5.1a.28.28,0,0,1,.28.28v3A.28.28,0,0,1,50.79,32Z"/><rect class="cls-18" x="46.47" y="28.47" width="3.54" height="3.54"/></g><g id="_0805-6" data-name=" 0805"><path class="cls-16" d="M50.79,26.25h-5.1a.28.28,0,0,1-.28-.28V23a.28.28,0,0,1,.28-.28h5.1a.28.28,0,0,1,.28.28v3A.28.28,0,0,1,50.79,26.25Z"/><rect class="cls-18" x="46.47" y="22.71" width="3.54" height="3.54"/></g><g id="adafruit_3.5mm" data-name="adafruit 3.5mm"><path class="cls-16" d="M28.22,12.78c-.2,0-.26.14-.34.4l-.49,1.53a1.9,1.9,0,0,0,.15,1.62l.22.29-.29-.22a1.91,1.91,0,0,0-1.62-.14l-1.53.49c-.26.09-.37.14-.4.34s.05.29.28.45l1.31.94a1.91,1.91,0,0,0,1.59.36l.34-.12-.3.2a1.91,1.91,0,0,0-.64,1.5s0,1.4,0,1.61,0,.4.2.49.29,0,.51-.13l1.3-1a1.91,1.91,0,0,0,.83-1.4c0-.11,0-.24,0-.36,0,.12.06.24.1.35a1.9,1.9,0,0,0,1.23,1.07l1.53.5c.26.09.38.1.53,0s.13-.26,0-.53l-.51-1.53a1.91,1.91,0,0,0-1.07-1.22l-.35-.1h.36a1.91,1.91,0,0,0,1.39-.84l1-1.3c.16-.22.22-.33.12-.51s-.21-.2-.49-.2H31.55a1.9,1.9,0,0,0-1.49.64l-.2.3c0-.12.09-.23.12-.34a1.9,1.9,0,0,0-.36-1.58l-.94-1.31C28.51,12.83,28.42,12.75,28.22,12.78Zm-1,4.82c0-.15.35-.23.73-.17s.66.23.64.38-.35.23-.72.17S27.16,17.75,27.19,17.6Zm1,2c-.14-.07-.11-.4.06-.74s.42-.56.56-.49.11.4-.06.74S28.32,19.63,28.19,19.56Zm1.88-1c.27.27.4.58.29.69s-.42,0-.69-.29-.4-.58-.29-.69S29.79,18.26,30.06,18.53ZM30.7,17c.07.14-.15.39-.49.56s-.67.2-.74.07.15-.39.49-.56S30.63,16.91,30.7,17Zm-1.57-.36c.06.38,0,.7-.17.73s-.32-.26-.38-.64,0-.7.17-.73S29.06,16.31,29.12,16.69Z"/></g><g id="wcsp-8"><rect class="cls-18" x="26.11" y="26.11" width="5.39" height="5.39"/></g></g></g></g></svg>