<svg xmlns="http://www.w3.org/2000/svg" viewBox="0 0 50.43 54.47"><defs><style>.cls-1{fill:#014cb1;}.cls-2,.cls-3,.cls-5{isolation:isolate;fill:#fff;font-family:ArialMT, Arial;}.cls-2{font-size:4.18px;}.cls-3{font-size:3.34px;}.cls-4{letter-spacing:-0.06em;}.cls-5{font-size:3.17px;}.cls-6{letter-spacing:-0.11em;}.cls-10,.cls-11,.cls-13,.cls-14,.cls-7,.cls-8,.cls-9{fill:none;}.cls-10,.cls-11,.cls-7,.cls-8,.cls-9{stroke:#fff;}.cls-10,.cls-7,.cls-8{stroke-linecap:round;}.cls-7{stroke-width:0.86px;}.cls-8,.cls-9{stroke-width:0.58px;}.cls-10{stroke-width:0.36px;}.cls-11{stroke-width:0.99px;}.cls-12{fill:#9a916c;}.cls-13,.cls-14{stroke:#9a916c;}.cls-13{stroke-width:1.1px;}.cls-14{stroke-width:1.44px;}.cls-15{fill:#dcdcdc;}.cls-16{fill:#6e554b;}.cls-17{fill:#303030;}.cls-18{fill:#333;}.cls-19{fill:#9fbbe0;}.cls-20{fill:#b4b4b4;}</style></defs><title>DEV_3</title><g id="Layer_2" data-name="Layer 2"><g id="svg2"><g id="icon"><path id="path8" class="cls-1" d="M43.2,54H7.2A7.2,7.2,0,0,1,0,46.8H0V7.2A7.2,7.2,0,0,1,7.2,0h36a7.2,7.2,0,0,1,7.2,7.2h0V46.8A7.2,7.2,0,0,1,43.2,54h0m-41-7.2A1.42,1.42,0,1,0,3.6,45.38,1.42,1.42,0,0,0,2.18,46.8Zm7.2,0a1.42,1.42,0,1,0,2.83,0h0a1.42,1.42,0,1,0-2.83,0Zm7.2,0a1.42,1.42,0,1,0,2.83,0h0a1.42,1.42,0,1,0-2.83,0Zm7.2,0a1.42,1.42,0,1,0,2.83,0h0a1.42,1.42,0,1,0-2.83,0Zm7.2,0a1.42,1.42,0,1,0,1.42-1.42A1.42,1.42,0,0,0,31,46.8Zm7.2,0a1.42,1.42,0,1,0,2.83,0h0a1.42,1.42,0,1,0-2.83,0Zm7.2,0a1.42,1.42,0,1,0,1.42-1.42,1.42,1.42,0,0,0-1.42,1.42ZM4.08,7.2a3.12,3.12,0,1,0,6.24,0h0a3.12,3.12,0,0,0-6.24,0Zm36,0A3.12,3.12,0,1,0,43.2,4.08,3.12,3.12,0,0,0,40.08,7.2Z"/><g id="g10"><g id="g14"><text class="cls-2" transform="translate(16.2 6.12)">BME280</text></g><g id="g20"><text class="cls-3" transform="translate(1.99 44.02)">VIN</text></g><g id="g26"><text class="cls-3" transform="translate(8.64 53.38)">3<tspan class="cls-4" x="1.86" y="0">V</tspan><tspan x="3.9" y="0">o</tspan></text></g><g id="g32"><text class="cls-3" transform="translate(14.9 44.02)">GND</text></g><g id="g38"><text class="cls-3" transform="translate(22.29 53.38)">SCK</text></g><g id="g44"><text class="cls-3" transform="translate(29.48 44.02)">SDO</text></g><g id="g50"><text class="cls-3" transform="translate(37.63 53.38)">SDI</text></g><g id="g56"><text class="cls-3" transform="translate(45.04 44.02)">CS</text></g><g id="g62"><g id="g66"><text class="cls-5" transform="translate(19.57 11.16)">Pressure</text></g><g id="g70"><text class="cls-5" transform="translate(14.94 14.33)"><tspan class="cls-6">T</tspan><tspan x="1.59" y="0">emp+Humidity</tspan></text></g></g><g id="g74"><g id="g78"><line id="line82" class="cls-7" x1="6.48" y1="36" x2="6.48" y2="38.88"/></g></g><g id="g84"><g id="g88"><line id="line92" class="cls-7" x1="6.84" y1="18.36" x2="6.84" y2="21.24"/></g></g><g id="g94"><g id="g98"><line id="line102" class="cls-8" x1="41.71" y1="23.58" x2="36.05" y2="23.58"/><line id="line104" class="cls-8" x1="36.05" y1="19.62" x2="41.71" y2="19.62"/><line id="line106" class="cls-8" x1="39.59" y1="21.6" x2="37.89" y2="22.73"/><line id="line108" class="cls-8" x1="37.89" y1="22.73" x2="37.89" y2="20.47"/><line id="line110" class="cls-8" x1="37.89" y1="20.47" x2="39.59" y2="21.6"/><g id="g112"><path id="path116" class="cls-8" d="M39.16,21.6l-.85.57V21l.85.57h0"/></g></g></g><g id="g126"><g id="g130"><line id="line134" class="cls-8" x1="27.78" y1="34.15" x2="27.78" y2="37.87"/><line id="line136" class="cls-8" x1="27.78" y1="37.87" x2="25.06" y2="37.87"/><line id="line138" class="cls-8" x1="18.3" y1="37.87" x2="18.3" y2="34.15"/><line id="line140" class="cls-8" x1="21.02" y1="37.87" x2="18.3" y2="37.87"/><line id="line142" class="cls-8" x1="22.41" y1="34.13" x2="23.71" y2="34.13"/></g></g><g id="g144"><g id="g148"><line id="line152" class="cls-8" x1="44.7" y1="33.07" x2="44.7" y2="36.79"/><line id="line154" class="cls-8" x1="44.7" y1="36.79" x2="41.98" y2="36.79"/><line id="line156" class="cls-8" x1="35.22" y1="36.79" x2="35.22" y2="33.07"/><line id="line158" class="cls-8" x1="37.94" y1="36.79" x2="35.22" y2="36.79"/><line id="line160" class="cls-8" x1="39.33" y1="33.05" x2="40.63" y2="33.05"/></g></g><g id="g162"><g id="g166"><line id="line170" class="cls-7" x1="39.96" y1="25.56" x2="39.96" y2="28.44"/></g></g><g id="g172"><g id="g176"><line id="line180" class="cls-7" x1="23.04" y1="27" x2="23.04" y2="29.88"/></g></g><g id="g182"><g id="g186"><line id="line190" class="cls-8" x1="16.2" y1="22.68" x2="13.32" y2="22.68"/></g></g><g id="g192"><g id="g196"><line id="line200" class="cls-7" x1="13.32" y1="35.28" x2="16.2" y2="35.28"/></g></g><g id="g202"><g id="g206"><line id="line210" class="cls-7" x1="29.52" y1="35.28" x2="32.4" y2="35.28"/></g></g><g id="g236"><g id="g240"><circle id="circle244" class="cls-9" cx="7.2" cy="7.2" r="5.1"/></g></g><g id="g246"><g id="g250"><circle id="circle254" class="cls-9" cx="43.2" cy="7.2" r="5.1"/></g></g><g id="g272"><g id="g276"><line id="line280" class="cls-10" x1="29.03" y1="14.89" x2="29.03" y2="22.55"/><line id="line282" class="cls-10" x1="21.37" y1="14.89" x2="21.37" y2="22.55"/><circle id="circle284" class="cls-11" cx="28.03" cy="24.25" r="0.57"/></g></g><g id="g286"><g id="g290"><line id="line294" class="cls-8" x1="2.16" y1="26.17" x2="2.16" y2="30.71"/><line id="line296" class="cls-8" x1="11.52" y1="26.17" x2="11.52" y2="30.71"/><line id="line298" class="cls-8" x1="5.71" y1="25.46" x2="7.97" y2="25.46"/></g></g></g><rect id="connector0pin" class="cls-12" x="1.94" y="35.31" width="3.69" height="4.25"/><rect id="connector1pin" class="cls-12" x="7.33" y="35.31" width="3.69" height="4.25"/><rect id="connector2pin" class="cls-12" x="2.3" y="17.67" width="3.69" height="4.25"/><rect id="connector3pin" class="cls-12" x="7.69" y="17.67" width="3.69" height="4.25"/><g id="g304"><rect id="connector4pin" class="cls-12" x="33.37" y="20.47" width="3.83" height="2.27"/></g><g id="g307"><rect id="connector5pin" class="cls-12" x="40.57" y="20.47" width="3.83" height="2.27"/></g><circle id="connector6pin" class="cls-13" cx="3.6" cy="46.8" r="1.97"/><circle id="connector7pin" class="cls-13" cx="10.8" cy="46.8" r="1.97"/><circle id="connector8pin" class="cls-13" cx="18" cy="46.8" r="1.97"/><circle id="connector9pin" class="cls-13" cx="25.2" cy="46.8" r="1.97"/><circle id="connector10pin" class="cls-13" cx="32.4" cy="46.8" r="1.97"/><circle id="connector11pin" class="cls-13" cx="39.6" cy="46.8" r="1.97"/><circle id="connector12pin" class="cls-13" cx="46.8" cy="46.8" r="1.97"/><g id="g317"><rect id="connector13pin" class="cls-12" x="24.32" y="31.46" width="2.83" height="3.4"/></g><g id="g320"><rect id="connector14pin" class="cls-12" x="18.93" y="31.46" width="2.83" height="3.4"/></g><g id="g323"><rect id="connector15pin" class="cls-12" x="21.62" y="37.13" width="2.83" height="3.4"/></g><g id="g326"><rect id="connector16pin" class="cls-12" x="41.24" y="30.38" width="2.83" height="3.4"/></g><g id="g329"><rect id="connector17pin" class="cls-12" x="35.85" y="30.38" width="2.83" height="3.4"/></g><g id="g332"><rect id="connector18pin" class="cls-12" x="38.54" y="36.05" width="2.83" height="3.4"/></g><rect id="connector19pin" class="cls-12" x="35.42" y="24.87" width="3.69" height="4.25"/><rect id="connector20pin" class="cls-12" x="40.81" y="24.87" width="3.69" height="4.25"/><rect id="connector21pin" class="cls-12" x="18.5" y="26.31" width="3.69" height="4.25"/><rect id="connector22pin" class="cls-12" x="23.89" y="26.31" width="3.69" height="4.25"/><g id="g339"><rect id="connector23pin" class="cls-12" x="12.92" y="18.1" width="3.69" height="3.4"/></g><g id="g342"><rect id="connector24pin" class="cls-12" x="12.92" y="23.86" width="3.69" height="3.4"/></g><g id="g345"><rect id="connector25pin" class="cls-12" x="12.63" y="36.13" width="4.25" height="3.69"/></g><g id="g348"><rect id="connector26pin" class="cls-12" x="12.63" y="30.74" width="4.25" height="3.69"/></g><g id="g351"><rect id="connector27pin" class="cls-12" x="28.83" y="36.13" width="4.25" height="3.69"/></g><g id="g354"><rect id="connector28pin" class="cls-12" x="28.83" y="30.74" width="4.25" height="3.69"/></g><rect id="connector29pin" class="cls-12" x="1.46" y="12.98" width="2.83" height="2.83" rx="1.42" ry="1.42"/><circle id="connector30pin" class="cls-14" cx="7.2" cy="7.2" r="3.84"/><circle id="connector31pin" class="cls-14" cx="43.2" cy="7.2" r="3.84"/><rect id="connector32pin" class="cls-12" x="46.46" y="35.66" width="2.83" height="2.83" rx="1.42" ry="1.42"/><g id="g361"><rect id="connector33pin" class="cls-12" x="27.47" y="20.63" width="0.99" height="1.98"/></g><g id="g364"><rect id="connector34pin" class="cls-12" x="25.63" y="20.63" width="0.99" height="1.98"/></g><g id="g367"><rect id="connector35pin" class="cls-12" x="23.78" y="20.63" width="0.99" height="1.98"/></g><g id="g370"><rect id="connector36pin" class="cls-12" x="21.94" y="20.63" width="0.99" height="1.98"/></g><g id="g373"><rect id="connector37pin" class="cls-12" x="21.94" y="14.82" width="0.99" height="1.98"/></g><g id="g376"><rect id="connector38pin" class="cls-12" x="23.78" y="14.82" width="0.99" height="1.98"/></g><g id="g379"><rect id="connector39pin" class="cls-12" x="25.63" y="14.82" width="0.99" height="1.98"/></g><g id="g382"><rect id="connector40pin" class="cls-12" x="27.47" y="14.82" width="0.99" height="1.98"/></g><rect id="connector41pin" class="cls-12" x="3.37" y="30.42" width="1.56" height="3.4"/><rect id="connector42pin" class="cls-12" x="6.06" y="30.42" width="1.56" height="3.4"/><rect id="connector43pin" class="cls-12" x="8.75" y="30.42" width="1.56" height="3.4"/><rect id="connector44pin" class="cls-12" x="8.75" y="23.05" width="1.56" height="3.4"/><rect id="connector45pin" class="cls-12" x="3.37" y="23.05" width="1.56" height="3.4"/></g><g id="_0805-cap" data-name="0805-cap"><path id="path391" class="cls-15" d="M9,39.21H3.93a.28.28,0,0,1-.28-.28V36a.28.28,0,0,1,.28-.28H9a.28.28,0,0,1,.28.28v3A.28.28,0,0,1,9,39.21Z"/><rect id="rect393" class="cls-16" x="4.71" y="35.67" width="3.54" height="3.54"/></g><g id="g395"><path id="path397" class="cls-15" d="M9.39,21.57H4.29A.28.28,0,0,1,4,21.29v-3A.28.28,0,0,1,4.29,18h5.1a.28.28,0,0,1,.28.28v3A.28.28,0,0,1,9.39,21.57Z"/><rect id="rect399" class="cls-16" x="5.07" y="18.03" width="3.54" height="3.54"/></g><g id="sod-323"><g id="g402"><rect id="rect404" class="cls-15" x="35.34" y="21.18" width="7.09" height="0.85"/><rect id="rect406" class="cls-17" x="36.47" y="19.83" width="4.82" height="3.54"/></g></g><g id="sot23-wide"><g id="g409"><g id="g411"><rect id="rect413" class="cls-15" x="25.02" y="32.17" width="1.42" height="2.98"/><rect id="rect415" class="cls-15" x="19.64" y="32.17" width="1.42" height="2.98"/><rect id="rect417" class="cls-15" x="22.33" y="36.71" width="1.42" height="3.12"/><rect id="rect419" class="cls-17" x="18.79" y="34.16" width="8.5" height="3.68"/></g></g></g><g id="g421"><g id="g423"><g id="g425"><rect id="rect427" class="cls-15" x="41.94" y="31.09" width="1.42" height="2.98"/><rect id="rect429" class="cls-15" x="36.56" y="31.09" width="1.42" height="2.98"/><rect id="rect431" class="cls-15" x="39.25" y="35.63" width="1.42" height="3.12"/><rect id="rect433" class="cls-17" x="35.71" y="33.08" width="8.5" height="3.68"/></g></g></g><g id="_0805-res" data-name="0805-res"><path id="path436" class="cls-15" d="M42.51,28.77h-5.1a.28.28,0,0,1-.28-.28v-3a.28.28,0,0,1,.28-.28h5.1a.28.28,0,0,1,.28.28v3A.28.28,0,0,1,42.51,28.77Z"/><rect id="rect438" class="cls-18" x="38.19" y="25.23" width="3.54" height="3.54"/></g><g id="g440"><path id="path442" class="cls-15" d="M25.59,30.21h-5.1a.28.28,0,0,1-.28-.28V27a.28.28,0,0,1,.28-.28h5.1a.28.28,0,0,1,.28.28v3A.28.28,0,0,1,25.59,30.21Z"/><rect id="rect444" class="cls-18" x="21.27" y="26.67" width="3.54" height="3.54"/></g><g id="g446"><g id="g448"><path id="path450" class="cls-15" d="M13,25.23v-5.1a.28.28,0,0,1,.28-.28h3a.28.28,0,0,1,.28.28v5.1a.28.28,0,0,1-.28.28h-3A.28.28,0,0,1,13,25.23Z"/><rect id="rect452" class="cls-18" x="12.99" y="20.91" width="3.54" height="3.54"/></g></g><g id="g454"><g id="g456"><path id="path458" class="cls-15" d="M16.53,32.73v5.1a.28.28,0,0,1-.28.28h-3a.28.28,0,0,1-.28-.28v-5.1a.28.28,0,0,1,.28-.28h3A.28.28,0,0,1,16.53,32.73Z"/><rect id="rect460" class="cls-18" x="12.99" y="33.51" width="3.54" height="3.54"/></g></g><g id="g462"><g id="g464"><path id="path466" class="cls-15" d="M32.73,32.73v5.1a.28.28,0,0,1-.28.28h-3a.28.28,0,0,1-.28-.28v-5.1a.28.28,0,0,1,.28-.28h3A.28.28,0,0,1,32.73,32.73Z"/><rect id="rect468" class="cls-18" x="29.19" y="33.51" width="3.54" height="3.54"/></g></g><g id="adafruit_2.5mm" data-name="adafruit 2.5mm"><path id="path471" class="cls-19" d="M50.43,14.91c0-.14-.1-.18-.29-.24l-1.09-.35a1.35,1.35,0,0,0-1.15.1l-.2.16.16-.2a1.35,1.35,0,0,0,.1-1.15l-.35-1.09c-.06-.19-.1-.26-.24-.28s-.2,0-.32.2l-.67.93a1.35,1.35,0,0,0-.26,1.13l.09.24-.14-.21A1.35,1.35,0,0,0,45,13.68H43.87c-.19,0-.28,0-.35.14s0,.21.09.36l.68.92a1.35,1.35,0,0,0,1,.59h.26l-.25.07a1.35,1.35,0,0,0-.76.87l-.36,1.09c-.06.19-.07.27,0,.37s.19.09.37,0l1.09-.36a1.35,1.35,0,0,0,.87-.76c0-.08,0-.16.07-.25,0,.09,0,.18,0,.26a1.36,1.36,0,0,0,.59,1l.92.68c.16.12.24.15.37.09s.14-.15.14-.35,0-1.14,0-1.14a1.35,1.35,0,0,0-.45-1.06l-.21-.14.24.09a1.35,1.35,0,0,0,1.13-.26l.93-.67C50.39,15.11,50.45,15.05,50.43,14.91ZM47,14.18c.11,0,.16.25.12.52s-.16.47-.27.45-.16-.25-.12-.52S46.9,14.16,47,14.18Zm-1.39.71c0-.1.29-.08.53,0s.4.3.35.4-.29.08-.53,0S45.57,15,45.62,14.89Zm.73,1.33c-.19.19-.41.28-.49.21s0-.3.21-.49.41-.29.49-.21S46.54,16,46.35,16.22Zm1.05.45c-.1.05-.28-.11-.4-.35s-.14-.48,0-.53.28.11.4.35S47.5,16.62,47.4,16.67Zm.25-1.12c-.27,0-.5,0-.52-.12s.19-.23.45-.27.5,0,.52.12S47.92,15.51,47.66,15.55Z"/></g><g id="bme280"><g id="g474"><g id="g3350"><g id="g3339"><path id="path5" class="cls-20" d="M28.74,16.55v4.13a.8.8,0,0,1-.83.77H22.48a.8.8,0,0,1-.83-.77V16.55a.8.8,0,0,1,.83-.77h5.44A.8.8,0,0,1,28.74,16.55Z"/><path id="path7" class="cls-15" d="M28.19,20.68a.32.32,0,0,1-.33.31H22.44a.32.32,0,0,1-.33-.31v-4.1a.32.32,0,0,1,.33-.31h5.42a.32.32,0,0,1,.33.31Z"/><ellipse id="circle9" cx="26.89" cy="19.88" rx="0.7" ry="0.71"/></g></g></g></g><g id="sot23-5"><g id="g486"><rect id="rect488" class="cls-15" x="3.58" y="24.61" width="1.13" height="7.65"/><rect id="rect490" class="cls-15" x="8.97" y="24.61" width="1.13" height="7.65"/><rect id="rect492" class="cls-15" x="6.27" y="29.15" width="1.13" height="3.12"/><rect id="rect494" class="cls-17" x="2.73" y="26.17" width="8.22" height="4.53"/></g></g></g></g></svg>