<svg xmlns="http://www.w3.org/2000/svg" viewBox="0 0 64.8 57.96"><defs><style>.cls-1{fill:#014cb1;}.cls-12,.cls-13,.cls-14,.cls-16,.cls-17,.cls-2,.cls-3{fill:none;}.cls-12,.cls-13,.cls-14,.cls-2,.cls-3{stroke:#fff;}.cls-12,.cls-2{stroke-linecap:round;}.cls-2{stroke-width:1.15px;}.cls-3{stroke-width:0.72px;}.cls-10,.cls-11,.cls-4,.cls-5,.cls-6{isolation:isolate;fill:#fff;font-family:ArialMT, Arial;}.cls-4,.cls-5{font-size:5.51px;}.cls-5{letter-spacing:-0.02em;}.cls-6{font-size:3.34px;}.cls-7{letter-spacing:-0.04em;}.cls-8{letter-spacing:-0.06em;}.cls-9{letter-spacing:-0.02em;}.cls-10{font-size:4.18px;}.cls-11{font-size:3.76px;}.cls-12,.cls-13{stroke-width:0.58px;}.cls-14{stroke-width:0.71px;}.cls-15{fill:#9a916c;}.cls-16,.cls-17{stroke:#9a916c;}.cls-16{stroke-width:1.32px;}.cls-17{stroke-width:0.99px;}.cls-18{fill:#dcdcdc;}.cls-19{fill:#6e554b;}.cls-20{fill:#303030;}.cls-21{fill:#333;}.cls-22{fill:#b3b3b3;}</style></defs><title>DEV_9</title><g id="Layer_2" data-name="Layer 2"><g id="svg2"><g id="icon"><path id="path8" class="cls-1" d="M0,50.4V7.2A7.2,7.2,0,0,1,7.2,0H57.6a7.2,7.2,0,0,1,7.2,7.2h0V50.4a7.2,7.2,0,0,1-7.2,7.2H7.2A7.2,7.2,0,0,1,0,50.4H0m5.78,0A1.42,1.42,0,1,0,7.2,49,1.42,1.42,0,0,0,5.78,50.4Zm7.2,0a1.42,1.42,0,1,0,2.83,0h0a1.42,1.42,0,1,0-2.83,0Zm7.2,0a1.42,1.42,0,1,0,2.83,0h0a1.42,1.42,0,1,0-2.83,0Zm7.2,0a1.42,1.42,0,1,0,2.83,0h0a1.42,1.42,0,1,0-2.83,0Zm7.2,0a1.42,1.42,0,1,0,2.83,0h0a1.42,1.42,0,1,0-2.83,0Zm7.2,0A1.42,1.42,0,1,0,43.2,49a1.42,1.42,0,0,0-1.42,1.42Zm7.2,0a1.42,1.42,0,1,0,2.83,0h0a1.42,1.42,0,1,0-2.83,0Zm7.2,0A1.42,1.42,0,1,0,57.6,49a1.42,1.42,0,0,0-1.42,1.42ZM3.66,7.2a3.54,3.54,0,1,0,7.09,0s0,0,0,0a3.54,3.54,0,0,0-7.09,0S3.66,7.2,3.66,7.2Zm50.4,0a3.54,3.54,0,0,0,7.09,0s0,0,0,0a3.54,3.54,0,0,0-7.09,0S54.06,7.2,54.06,7.2Z"/><g id="g10"><line id="line14" class="cls-2" x1="61.2" y1="27.36" x2="61.2" y2="23.04"/><line id="line16" class="cls-2" x1="61.2" y1="23.04" x2="59.76" y2="24.48"/><line id="line18" class="cls-2" x1="59.76" y1="24.48" x2="62.64" y2="24.48"/><line id="line20" class="cls-2" x1="62.64" y1="24.48" x2="61.2" y2="23.04"/><line id="line22" class="cls-2" x1="54" y1="31.68" x2="54" y2="33.12"/><line id="line24" class="cls-2" x1="54" y1="33.12" x2="52.56" y2="31.68"/><line id="line26" class="cls-2" x1="52.56" y1="31.68" x2="54" y2="30.24"/><line id="line28" class="cls-2" x1="54" y1="30.24" x2="54" y2="31.68"/><line id="line30" class="cls-2" x1="54" y1="31.68" x2="52.56" y2="31.68"/><line id="line32" class="cls-2" x1="56.88" y1="31.68" x2="54" y2="31.68"/><circle id="circle34" class="cls-3" cx="61.2" cy="31.68" r="0.72"/><circle id="circle36" class="cls-3" cx="61.2" cy="31.68" r="2.28"/><g id="g38"><text class="cls-4" transform="translate(59.44 22.23)">X</text></g><g id="g44"><text class="cls-5" transform="translate(52.55 28.62)">Y</text></g><g id="g50"><text class="cls-6" transform="translate(3.6 46.44)">SC<tspan class="cls-7" x="4.64" y="0">L</tspan></text></g><g id="g56"><text class="cls-6" transform="translate(10.8 56.88)">SD<tspan class="cls-8" x="4.64" y="0">A</tspan></text></g><g id="g62"><text class="cls-6" transform="translate(19.44 47.16)">I2</text></g><g id="g68"><text class="cls-6" transform="translate(27.36 56.52)">I1</text></g><g id="g74"><text class="cls-6" transform="translate(32.04 47.16)">DRD<tspan class="cls-9" x="7.24" y="0">Y</tspan></text></g><g id="g80"><text class="cls-6" transform="translate(39.6 56.52)">GND</text></g><g id="g86"><text class="cls-6" transform="translate(47.16 47.16)"><tspan class="cls-9">V</tspan><tspan x="2.17" y="0">in</tspan></text></g><g id="g92"><text class="cls-6" transform="translate(56.16 47.16)">3V3</text></g><g id="g98"><text class="cls-4" transform="translate(59.44 40.23)">Z</text></g><g id="g104"><text class="cls-10" transform="translate(16.56 5.04)">LSM303DLHC</text></g><g id="g110"><text class="cls-11" transform="translate(13.68 9.36)">Compass+Accel</text></g><g id="g116"><g id="g120"><line id="line124" class="cls-12" x1="51.48" y1="17.64" x2="40.68" y2="17.64"/><line id="line126" class="cls-12" x1="40.68" y1="17.64" x2="40.68" y2="12.6"/><line id="line128" class="cls-12" x1="40.68" y1="12.6" x2="51.48" y2="12.6"/><line id="line130" class="cls-12" x1="51.48" y1="12.6" x2="51.48" y2="17.64"/></g></g><g id="g132"><g id="g136"><line id="line140" class="cls-12" x1="27.72" y1="12.6" x2="38.52" y2="12.6"/><line id="line142" class="cls-12" x1="38.52" y1="12.6" x2="38.52" y2="17.64"/><line id="line144" class="cls-12" x1="38.52" y1="17.64" x2="27.72" y2="17.64"/><line id="line146" class="cls-12" x1="27.72" y1="17.64" x2="27.72" y2="12.6"/></g></g><g id="g148"><g id="g152"><line id="line156" class="cls-12" x1="34.92" y1="43.2" x2="24.12" y2="43.2"/><line id="line158" class="cls-12" x1="24.12" y1="43.2" x2="24.12" y2="38.16"/><line id="line160" class="cls-12" x1="24.12" y1="38.16" x2="34.92" y2="38.16"/><line id="line162" class="cls-12" x1="34.92" y1="38.16" x2="34.92" y2="43.2"/></g></g><g id="g164"><g id="g168"><line id="line172" class="cls-12" x1="40.68" y1="18.36" x2="51.48" y2="18.36"/><line id="line174" class="cls-12" x1="51.48" y1="18.36" x2="51.48" y2="23.4"/><line id="line176" class="cls-12" x1="51.48" y1="23.4" x2="40.68" y2="23.4"/><line id="line178" class="cls-12" x1="40.68" y1="23.4" x2="40.68" y2="18.36"/></g></g><g id="g180"><g id="g184"><line id="line188" class="cls-12" x1="40.68" y1="24.12" x2="51.48" y2="24.12"/><line id="line190" class="cls-12" x1="51.48" y1="24.12" x2="51.48" y2="29.16"/><line id="line192" class="cls-12" x1="51.48" y1="29.16" x2="40.68" y2="29.16"/><line id="line194" class="cls-12" x1="40.68" y1="29.16" x2="40.68" y2="24.12"/></g></g><g id="g220"><g id="g224"><line id="line228" class="cls-12" x1="17.69" y1="42.9" x2="13.97" y2="42.9"/><line id="line230" class="cls-12" x1="13.97" y1="42.9" x2="13.97" y2="40.18"/><line id="line232" class="cls-12" x1="13.97" y1="33.42" x2="17.69" y2="33.42"/><line id="line234" class="cls-12" x1="13.97" y1="36.14" x2="13.97" y2="33.42"/><line id="line236" class="cls-12" x1="17.71" y1="37.53" x2="17.71" y2="38.83"/></g></g><g id="g238"><g id="g242"><line id="line246" class="cls-12" x1="14.7" y1="16.97" x2="14.7" y2="13.25"/><line id="line248" class="cls-12" x1="14.7" y1="13.25" x2="17.42" y2="13.25"/><line id="line250" class="cls-12" x1="24.18" y1="13.25" x2="24.18" y2="16.97"/><line id="line252" class="cls-12" x1="21.46" y1="13.25" x2="24.18" y2="13.25"/><line id="line254" class="cls-12" x1="20.07" y1="16.99" x2="18.77" y2="16.99"/></g></g><g id="g256"><g id="g260"><line id="line264" class="cls-12" x1="24.84" y1="25.56" x2="14.04" y2="25.56"/><line id="line266" class="cls-12" x1="14.04" y1="25.56" x2="14.04" y2="20.52"/><line id="line268" class="cls-12" x1="14.04" y1="20.52" x2="24.84" y2="20.52"/><line id="line270" class="cls-12" x1="24.84" y1="20.52" x2="24.84" y2="25.56"/></g></g><g id="g272"><g id="g276"><line id="line280" class="cls-12" x1="24.84" y1="31.32" x2="14.04" y2="31.32"/><line id="line282" class="cls-12" x1="14.04" y1="31.32" x2="14.04" y2="26.28"/><line id="line284" class="cls-12" x1="14.04" y1="26.28" x2="24.84" y2="26.28"/><line id="line286" class="cls-12" x1="24.84" y1="26.28" x2="24.84" y2="31.32"/></g></g><g id="g288"><g id="g292"><line id="line296" class="cls-12" x1="7.56" y1="34.92" x2="7.56" y2="24.12"/><line id="line298" class="cls-12" x1="7.56" y1="24.12" x2="12.6" y2="24.12"/><line id="line300" class="cls-12" x1="12.6" y1="24.12" x2="12.6" y2="34.92"/><line id="line302" class="cls-12" x1="12.6" y1="34.92" x2="7.56" y2="34.92"/></g></g><g id="g304"><g id="g308"><line id="line312" class="cls-12" x1="12.6" y1="13.32" x2="12.6" y2="24.12"/><line id="line314" class="cls-12" x1="12.6" y1="24.12" x2="7.56" y2="24.12"/><line id="line316" class="cls-12" x1="7.56" y1="24.12" x2="7.56" y2="13.32"/><line id="line318" class="cls-12" x1="7.56" y1="13.32" x2="12.6" y2="13.32"/></g></g><g id="g320"><g id="g324"><circle id="circle328" class="cls-13" cx="7.2" cy="7.2" r="4.96"/></g></g><g id="g330"><g id="g334"><circle id="circle338" class="cls-13" cx="57.6" cy="7.2" r="4.96"/></g></g><g id="g348"><g id="g352"><line id="line356" class="cls-12" x1="28.87" y1="21.71" x2="31.14" y2="21.71"/><line id="line358" class="cls-12" x1="35.1" y1="21.71" x2="37.37" y2="21.71"/><line id="line360" class="cls-12" x1="37.37" y1="35.89" x2="35.1" y2="35.89"/><line id="line362" class="cls-12" x1="31.14" y1="35.89" x2="28.87" y2="35.89"/><circle id="circle364" class="cls-14" cx="30.29" cy="20.3" r="0.43"/></g></g><g id="g366"><g id="g370"><line id="line374" class="cls-12" x1="49.43" y1="34.05" x2="44.89" y2="34.05"/><line id="line376" class="cls-12" x1="49.43" y1="42.27" x2="44.89" y2="42.27"/><line id="line378" class="cls-12" x1="49.43" y1="36.88" x2="49.43" y2="39.44"/></g></g></g><g id="g380"><rect id="connector5pin" class="cls-15" x="47.26" y="13.28" width="3.4" height="3.69" rx="0.29" ry="0.29"/></g><g id="g383"><rect id="connector6pin" class="cls-15" x="41.5" y="13.28" width="3.4" height="3.69" rx="0.29" ry="0.29"/></g><rect id="connector7pin" class="cls-15" x="28.54" y="13.28" width="3.4" height="3.69" rx="0.29" ry="0.29"/><rect id="connector8pin" class="cls-15" x="34.3" y="13.28" width="3.4" height="3.69" rx="0.29" ry="0.29"/><g id="g388"><rect id="connector9pin" class="cls-15" x="30.7" y="38.84" width="3.4" height="3.69" rx="0.29" ry="0.29"/></g><g id="g391"><rect id="connector10pin" class="cls-15" x="24.94" y="38.84" width="3.4" height="3.69" rx="0.29" ry="0.29"/></g><rect id="connector11pin" class="cls-15" x="41.5" y="19.04" width="3.4" height="3.69" rx="0.29" ry="0.29"/><rect id="connector12pin" class="cls-15" x="47.26" y="19.04" width="3.4" height="3.69" rx="0.29" ry="0.29"/><rect id="connector13pin" class="cls-15" x="41.5" y="24.8" width="3.4" height="3.69" rx="0.29" ry="0.29"/><rect id="connector14pin" class="cls-15" x="47.26" y="24.8" width="3.4" height="3.69" rx="0.29" ry="0.29"/><rect id="connector15pin" class="cls-15" x="2.9" y="15.14" width="2.83" height="2.83" rx="1.42" ry="1.42"/><rect id="connector16pin" class="cls-15" x="54.74" y="37.46" width="2.83" height="2.83" rx="1.42" ry="1.42"/><circle id="connector17pin" class="cls-16" cx="7.2" cy="50.4" r="2.08"/><circle id="connector18pin" class="cls-16" cx="14.4" cy="50.4" r="2.08"/><circle id="connector19pin" class="cls-16" cx="21.6" cy="50.4" r="2.08"/><circle id="connector20pin" class="cls-16" cx="28.8" cy="50.4" r="2.08"/><circle id="connector21pin" class="cls-16" cx="36" cy="50.4" r="2.08"/><circle id="connector22pin" class="cls-16" cx="43.2" cy="50.4" r="2.08"/><circle id="connector23pin" class="cls-16" cx="50.4" cy="50.4" r="2.08"/><circle id="connector24pin" class="cls-16" cx="57.6" cy="50.4" r="2.08"/><g id="g408"><rect id="connector25pin" class="cls-15" x="16.87" y="39.44" width="3.6" height="2.83" rx="0.28" ry="0.28"/></g><g id="g411"><rect id="connector26pin" class="cls-15" x="16.87" y="34.05" width="3.6" height="2.83" rx="0.28" ry="0.28"/></g><g id="g414"><rect id="connector27pin" class="cls-15" x="11.21" y="36.74" width="3.6" height="2.83" rx="0.28" ry="0.28"/></g><rect id="connector28pin" class="cls-15" x="15.33" y="16.15" width="2.83" height="3.6" rx="0.28" ry="0.28"/><rect id="connector29pin" class="cls-15" x="20.72" y="16.15" width="2.83" height="3.6" rx="0.28" ry="0.28"/><rect id="connector30pin" class="cls-15" x="18.02" y="10.49" width="2.83" height="3.6" rx="0.28" ry="0.28"/><g id="g420"><rect id="connector31pin" class="cls-15" x="20.62" y="21.2" width="3.4" height="3.69" rx="0.29" ry="0.29"/></g><g id="g423"><rect id="connector32pin" class="cls-15" x="14.86" y="21.2" width="3.4" height="3.69" rx="0.29" ry="0.29"/></g><g id="g426"><rect id="connector33pin" class="cls-15" x="20.62" y="26.96" width="3.4" height="3.69" rx="0.29" ry="0.29"/></g><g id="g429"><rect id="connector34pin" class="cls-15" x="14.86" y="26.96" width="3.4" height="3.69" rx="0.29" ry="0.29"/></g><g id="g432"><rect id="connector35pin" class="cls-15" x="8.24" y="30.7" width="3.69" height="3.4" rx="0.29" ry="0.29"/></g><g id="g435"><rect id="connector36pin" class="cls-15" x="8.24" y="24.94" width="3.69" height="3.4" rx="0.29" ry="0.29"/></g><g id="g438"><rect id="connector37pin" class="cls-15" x="8.24" y="14.14" width="3.69" height="3.4" rx="0.29" ry="0.29"/></g><g id="g441"><rect id="connector38pin" class="cls-15" x="8.24" y="19.9" width="3.69" height="3.4" rx="0.29" ry="0.29"/></g><circle id="connector39pin" class="cls-17" cx="7.2" cy="7.2" r="4.04"/><circle id="connector40pin" class="cls-17" cx="57.6" cy="7.2" r="4.04"/><g id="g446"><rect id="connector41pin" class="cls-15" x="28.3" y="22.42" width="3.4" height="1.42" rx="0.29" ry="0.29"/></g><g id="g449"><rect id="connector42pin" class="cls-15" x="28.3" y="24.69" width="3.4" height="1.42" rx="0.29" ry="0.29"/></g><g id="g452"><rect id="connector43pin" class="cls-15" x="28.3" y="26.96" width="3.4" height="1.42" rx="0.29" ry="0.29"/></g><g id="g455"><rect id="connector44pin" class="cls-15" x="28.3" y="29.23" width="3.4" height="1.42" rx="0.29" ry="0.29"/></g><g id="g458"><rect id="connector45pin" class="cls-15" x="28.3" y="31.49" width="3.4" height="1.42" rx="0.29" ry="0.29"/></g><g id="g461"><rect id="connector46pin" class="cls-15" x="28.3" y="33.76" width="3.4" height="1.42" rx="0.29" ry="0.29"/></g><rect id="connector47pin" class="cls-15" x="32.41" y="33.05" width="1.42" height="3.4" rx="0.29" ry="0.29"/><g id="g465"><rect id="connector48pin" class="cls-15" x="34.54" y="33.76" width="3.4" height="1.42" rx="0.29" ry="0.29"/></g><g id="g468"><rect id="connector49pin" class="cls-15" x="34.54" y="31.49" width="3.4" height="1.42" rx="0.29" ry="0.29"/></g><g id="g471"><rect id="connector50pin" class="cls-15" x="34.54" y="29.23" width="3.4" height="1.42" rx="0.29" ry="0.29"/></g><g id="g474"><rect id="connector51pin" class="cls-15" x="34.54" y="26.96" width="3.4" height="1.42" rx="0.29" ry="0.29"/></g><g id="g477"><rect id="connector52pin" class="cls-15" x="34.54" y="24.69" width="3.4" height="1.42" rx="0.29" ry="0.29"/></g><g id="g480"><rect id="connector53pin" class="cls-15" x="34.54" y="22.42" width="3.4" height="1.42" rx="0.29" ry="0.29"/></g><g id="g483"><rect id="connector54pin" class="cls-15" x="32.41" y="21.15" width="1.42" height="3.4" rx="0.29" ry="0.29"/></g><g id="g486"><rect id="connector55pin" class="cls-15" x="41.77" y="34.69" width="3.4" height="1.56" rx="0.29" ry="0.29"/></g><g id="g489"><rect id="connector56pin" class="cls-15" x="41.77" y="37.38" width="3.4" height="1.56" rx="0.29" ry="0.29"/></g><g id="g492"><rect id="connector57pin" class="cls-15" x="41.77" y="40.07" width="3.4" height="1.56" rx="0.29" ry="0.29"/></g><g id="g495"><rect id="connector58pin" class="cls-15" x="49.14" y="40.07" width="3.4" height="1.56" rx="0.29" ry="0.29"/></g><g id="g498"><rect id="connector59pin" class="cls-15" x="49.14" y="34.69" width="3.4" height="1.56" rx="0.29" ry="0.29"/></g></g><g id="_0805" data-name=" 0805"><g id="g502"><path id="path504" class="cls-18" d="M43.57,13.3h5.1a.28.28,0,0,1,.28.28v3a.28.28,0,0,1-.28.28h-5.1a.28.28,0,0,1-.28-.28v-3A.28.28,0,0,1,43.57,13.3Z"/><rect id="rect506" class="cls-19" x="44.35" y="13.3" width="3.54" height="3.54"/></g></g><g id="g508"><path id="path510" class="cls-18" d="M35.55,16.86h-5.1a.28.28,0,0,1-.28-.28v-3a.28.28,0,0,1,.28-.28h5.1a.28.28,0,0,1,.28.28v3A.28.28,0,0,1,35.55,16.86Z"/><rect id="rect512" class="cls-19" x="31.22" y="13.31" width="3.54" height="3.54"/></g><g id="g514"><g id="g516"><path id="path518" class="cls-18" d="M27,38.94h5.1a.28.28,0,0,1,.28.28v3a.28.28,0,0,1-.28.28H27a.28.28,0,0,1-.28-.28v-3A.28.28,0,0,1,27,38.94Z"/><rect id="rect520" class="cls-19" x="27.79" y="38.94" width="3.54" height="3.54"/></g></g><g id="g522"><path id="path524" class="cls-18" d="M48.68,22.7h-5.1a.28.28,0,0,1-.28-.28v-3a.28.28,0,0,1,.28-.28h5.1a.28.28,0,0,1,.28.28v3A.28.28,0,0,1,48.68,22.7Z"/><rect id="rect526" class="cls-19" x="44.36" y="19.16" width="3.54" height="3.54"/></g><g id="g528"><path id="path530" class="cls-18" d="M48.51,28.46H43.4a.28.28,0,0,1-.28-.28v-3a.28.28,0,0,1,.28-.28h5.1a.28.28,0,0,1,.28.28v3A.28.28,0,0,1,48.51,28.46Z"/><rect id="rect532" class="cls-19" x="44.18" y="24.92" width="3.54" height="3.54"/></g><g id="sot23-wide"><g id="g535"><g id="g537"><rect id="rect539" class="cls-18" x="16.69" y="40.21" width="2.98" height="1.42"/><rect id="rect541" class="cls-18" x="16.69" y="34.82" width="2.98" height="1.42"/><rect id="rect543" class="cls-18" x="12.01" y="37.52" width="3.12" height="1.42"/><rect id="rect545" class="cls-20" x="14" y="33.97" width="3.68" height="8.5"/></g></g></g><g id="g547"><g id="g549"><rect id="rect551" class="cls-18" x="16.06" y="15.97" width="1.42" height="2.98"/><rect id="rect553" class="cls-18" x="21.45" y="15.97" width="1.42" height="2.98"/><rect id="rect555" class="cls-18" x="18.75" y="11.29" width="1.42" height="3.12"/><rect id="rect557" class="cls-20" x="15.21" y="13.28" width="8.5" height="3.68"/></g></g><g id="g559"><g id="g561"><path id="path563" class="cls-18" d="M16.76,21.22h5.1a.28.28,0,0,1,.28.28v3a.28.28,0,0,1-.28.28h-5.1a.28.28,0,0,1-.28-.28v-3A.28.28,0,0,1,16.76,21.22Z"/><rect id="rect565" class="cls-19" x="17.54" y="21.22" width="3.54" height="3.54"/></g></g><g id="g567"><g id="g569"><path id="path571" class="cls-18" d="M16.67,27h5.1a.28.28,0,0,1,.28.28v3a.28.28,0,0,1-.28.28h-5.1a.28.28,0,0,1-.28-.28v-3A.28.28,0,0,1,16.67,27Z"/><rect id="rect573" class="cls-19" x="17.45" y="26.98" width="3.54" height="3.54"/></g></g><g id="g575"><g id="g577"><path id="path579" class="cls-18" d="M11.82,27.09v5.1a.28.28,0,0,1-.28.28h-3a.28.28,0,0,1-.28-.28V27.1a.28.28,0,0,1,.28-.28h3A.28.28,0,0,1,11.82,27.09Z"/><rect id="rect581" class="cls-19" x="8.27" y="27.87" width="3.54" height="3.54"/></g></g><g id="g583"><g id="g585"><path id="path587" class="cls-18" d="M8.26,21.49v-5.1a.28.28,0,0,1,.28-.28h3a.28.28,0,0,1,.28.28v5.1a.28.28,0,0,1-.28.28h-3A.28.28,0,0,1,8.26,21.49Z"/><rect id="rect589" class="cls-19" x="8.26" y="17.17" width="3.54" height="3.54"/></g></g><g id="adafruit_3.5mm" data-name="adafruit 3.5mm"><path id="path592" class="cls-18" d="M10.28,37.22c0-.2-.14-.26-.4-.34l-1.53-.49a1.9,1.9,0,0,0-1.62.15l-.29.22.22-.29a1.91,1.91,0,0,0,.14-1.62l-.49-1.53c-.09-.26-.14-.37-.34-.4s-.29.05-.45.28L4.59,34.5a1.91,1.91,0,0,0-.36,1.59c0,.11.08.22.13.34l-.2-.3a1.91,1.91,0,0,0-1.5-.64H1c-.27,0-.4,0-.49.2s0,.29.13.51l1,1.3A1.91,1.91,0,0,0,3,38.33h.36l-.35.1A1.9,1.9,0,0,0,2,39.64l-.5,1.53c-.09.26-.1.38,0,.53s.26.13.53,0l1.53-.51a1.91,1.91,0,0,0,1.22-1.07c0-.11.07-.22.1-.35,0,.13,0,.25,0,.36a1.91,1.91,0,0,0,.84,1.39l1.3,1c.22.16.33.22.51.12s.2-.21.2-.49,0-1.61,0-1.61a1.9,1.9,0,0,0-.64-1.49l-.3-.2.34.12a1.9,1.9,0,0,0,1.58-.36L10,37.67C10.23,37.51,10.32,37.42,10.28,37.22Zm-4.82-1c.15,0,.23.35.17.73s-.23.66-.38.64-.23-.35-.17-.72S5.31,36.16,5.46,36.19Zm-2,1c.07-.14.4-.11.74.06s.56.43.49.56-.4.11-.74-.06S3.44,37.32,3.51,37.19Zm1,1.88c-.27.27-.58.4-.69.29s0-.42.29-.69.58-.4.69-.29S4.81,38.79,4.54,39.06ZM6,39.7c-.14.07-.39-.15-.56-.49s-.2-.67-.07-.74.39.15.56.49S6.16,39.63,6,39.7Zm.36-1.57c-.38.06-.7,0-.73-.17s.26-.33.64-.39.7,0,.73.17S6.75,38.06,6.38,38.12Z"/></g><g id="lga14"><g id="g595"><g id="g3339"><rect id="rect3" class="cls-21" x="28.83" y="21.7" width="8.5" height="14.17"/><circle id="path3337" class="cls-22" cx="29.87" cy="22.66" r="0.45"/></g></g></g><g id="sot23-5"><g id="g604"><g id="g606"><rect id="rect608" class="cls-18" x="43.33" y="34.88" width="7.65" height="1.13"/><rect id="rect610" class="cls-18" x="43.33" y="40.27" width="7.65" height="1.13"/><rect id="rect612" class="cls-18" x="43.33" y="37.58" width="3.12" height="1.13"/><rect id="rect614" class="cls-20" x="44.89" y="34.03" width="4.53" height="8.22"/></g></g></g></g></g></svg>