<svg xmlns="http://www.w3.org/2000/svg" viewBox="0 0 43.2 50.64"><defs><style>.cls-1{fill:#014cb1;}.cls-2{isolation:isolate;font-size:3.34px;fill:#fff;font-family:ArialMT, Arial;}.cls-3{letter-spacing:-0.06em;}.cls-4{letter-spacing:-0.04em;}.cls-11,.cls-12,.cls-5,.cls-6,.cls-7,.cls-8,.cls-9{fill:none;}.cls-5,.cls-6,.cls-7,.cls-8,.cls-9{stroke:#fff;}.cls-5,.cls-6,.cls-8{stroke-linecap:round;}.cls-5{stroke-width:0.86px;}.cls-6,.cls-7{stroke-width:0.58px;}.cls-8{stroke-width:0.36px;}.cls-9{stroke-width:1.73px;}.cls-10{fill:#9a916c;}.cls-11,.cls-12{stroke:#9a916c;}.cls-11{stroke-width:1.1px;}.cls-12{stroke-width:1.44px;}.cls-13{fill:#dcdcdc;}.cls-14{fill:#6e554b;}.cls-15{fill:#303030;}.cls-16{fill:#333;}.cls-17{fill:#ececec;}</style></defs><title>DEV_4</title><g id="Layer_2" data-name="Layer 2"><g id="svg5928"><g id="icon"><path id="path5934" class="cls-1" d="M0,43.2V7.2A7.2,7.2,0,0,1,7.2,0H36a7.2,7.2,0,0,1,7.2,7.2h0v36A7.2,7.2,0,0,1,36,50.4H7.2A7.2,7.2,0,0,1,0,43.2H0m34.58,0A1.42,1.42,0,1,0,36,41.78a1.42,1.42,0,0,0-1.42,1.42Zm-7.2,0a1.42,1.42,0,1,0,2.83,0h0a1.42,1.42,0,1,0-2.83,0Zm-7.2,0a1.42,1.42,0,1,0,2.83,0h0a1.42,1.42,0,1,0-2.83,0Zm-7.2,0a1.42,1.42,0,1,0,2.83,0h0a1.42,1.42,0,1,0-2.83,0Zm-7.2,0a1.42,1.42,0,1,0,2.83,0h0a1.42,1.42,0,1,0-2.83,0Zm26.67-36a3.54,3.54,0,0,0,7.09,0s0,0,0,0a3.54,3.54,0,0,0-7.09,0S32.46,7.2,32.46,7.2Zm-28.8,0a3.54,3.54,0,1,0,7.09,0s0,0,0,0a3.54,3.54,0,1,0-7.09,0S3.66,7.2,3.66,7.2Z"/><g id="g5936"><g id="g5940"><text class="cls-2" transform="translate(15.32 4.55)">Si7021</text></g><g id="g5946"><text class="cls-2" transform="translate(14.82 9.59)">RH%</text></g><g id="g5952"><text class="cls-2" transform="translate(32.93 40.19)">SD<tspan class="cls-3" x="4.64" y="0">A</tspan></text></g><g id="g5958"><text class="cls-2" transform="translate(25.55 49.55)">SC<tspan class="cls-4" x="4.64" y="0">L</tspan></text></g><g id="g5964"><text class="cls-2" transform="translate(17.89 40.19)">GND</text></g><g id="g5970"><text class="cls-2" transform="translate(11.88 49.55)">3<tspan class="cls-3" x="1.86" y="0">V</tspan><tspan x="3.9" y="0">o</tspan></text></g><g id="g5976"><text class="cls-2" transform="translate(4.42 40.19)">VIN</text></g><g id="g5982"><g id="g5986"><line id="line5990" class="cls-5" x1="21.24" y1="11.88" x2="21.24" y2="14.76"/></g></g><g id="g5992"><g id="g5996"><line id="line6000" class="cls-5" x1="5.4" y1="32.76" x2="5.4" y2="35.64"/></g></g><g id="g6002"><g id="g6006"><line id="line6010" class="cls-5" x1="6.12" y1="15.84" x2="6.12" y2="18.72"/></g></g><g id="g6036"><g id="g6040"><line id="line6044" class="cls-6" x1="20.47" y1="26.94" x2="24.19" y2="26.94"/><line id="line6046" class="cls-6" x1="24.19" y1="26.94" x2="24.19" y2="29.66"/><line id="line6048" class="cls-6" x1="24.19" y1="36.42" x2="20.47" y2="36.42"/><line id="line6050" class="cls-6" x1="24.19" y1="33.7" x2="24.19" y2="36.42"/><line id="line6052" class="cls-6" x1="20.45" y1="32.31" x2="20.45" y2="31.01"/></g></g><g id="g6054"><g id="g6058"><line id="line6062" class="cls-6" x1="35.95" y1="16.5" x2="39.67" y2="16.5"/><line id="line6064" class="cls-6" x1="39.67" y1="16.5" x2="39.67" y2="19.22"/><line id="line6066" class="cls-6" x1="39.67" y1="25.98" x2="35.95" y2="25.98"/><line id="line6068" class="cls-6" x1="39.67" y1="23.26" x2="39.67" y2="25.98"/><line id="line6070" class="cls-6" x1="35.93" y1="21.87" x2="35.93" y2="20.57"/></g></g><g id="g6072"><g id="g6076"><line id="line6080" class="cls-5" x1="13.32" y1="32.04" x2="16.2" y2="32.04"/></g></g><g id="g6082"><g id="g6086"><line id="line6090" class="cls-5" x1="28.44" y1="31.32" x2="31.32" y2="31.32"/></g></g><g id="g6092"><g id="g6096"><line id="line6100" class="cls-5" x1="37.08" y1="31.32" x2="34.2" y2="31.32"/></g></g><g id="g6102"><g id="g6106"><line id="line6110" class="cls-5" x1="31.68" y1="21.24" x2="28.8" y2="21.24"/></g></g><g id="g6120"><g id="g6124"><circle id="circle6128" class="cls-7" cx="36" cy="7.2" r="5.67"/></g></g><g id="g6130"><g id="g6134"><circle id="circle6138" class="cls-7" cx="7.2" cy="7.2" r="5.67"/></g></g><g id="g6156"><g id="g6160"><line id="line6164" class="cls-6" x1="1.44" y1="23.29" x2="1.44" y2="27.83"/><line id="line6166" class="cls-6" x1="10.8" y1="23.29" x2="10.8" y2="27.83"/><line id="line6168" class="cls-6" x1="4.99" y1="22.58" x2="7.25" y2="22.58"/></g></g><g id="g6170"><g id="g6174"><line id="line6178" class="cls-8" x1="25.42" y1="25.49" x2="25.42" y2="25.78"/><line id="line6180" class="cls-8" x1="25.42" y1="25.78" x2="16.34" y2="25.78"/><line id="line6182" class="cls-8" x1="16.34" y1="25.78" x2="16.34" y2="25.49"/><line id="line6184" class="cls-8" x1="25.42" y1="16.99" x2="25.42" y2="16.7"/><line id="line6186" class="cls-8" x1="25.42" y1="16.7" x2="16.34" y2="16.7"/><line id="line6188" class="cls-8" x1="16.34" y1="16.7" x2="16.34" y2="16.99"/><circle id="circle6190" class="cls-9" cx="26.83" cy="26.34" r="0.28"/></g></g></g><rect id="connector0pin" class="cls-10" x="16.79" y="11.19" width="3.51" height="4.25"/><rect id="connector1pin" class="cls-10" x="22.18" y="11.19" width="3.51" height="4.25"/><rect id="connector2pin" class="cls-10" x="0.95" y="32.07" width="3.51" height="4.25"/><rect id="connector3pin" class="cls-10" x="6.34" y="32.07" width="3.51" height="4.25"/><rect id="connector4pin" class="cls-10" x="1.67" y="15.15" width="3.51" height="4.25"/><rect id="connector5pin" class="cls-10" x="7.06" y="15.15" width="3.51" height="4.25"/><rect id="connector6pin" class="cls-10" x="0.74" y="40.34" width="2.83" height="2.83" rx="1.42" ry="1.42"/><rect id="connector7pin" class="cls-10" x="28.46" y="12.26" width="2.83" height="2.83" rx="1.42" ry="1.42"/><circle id="connector8pin" class="cls-11" cx="36" cy="43.2" r="1.97"/><circle id="connector9pin" class="cls-11" cx="28.8" cy="43.2" r="1.97"/><circle id="connector10pin" class="cls-11" cx="21.6" cy="43.2" r="1.97"/><circle id="connector11pin" class="cls-11" cx="14.4" cy="43.2" r="1.97"/><circle id="connector12pin" class="cls-11" cx="7.2" cy="43.2" r="1.97"/><g id="g6205"><rect id="connector13pin" class="cls-10" x="17.78" y="27.57" width="3.4" height="2.83"/></g><g id="g6208"><rect id="connector14pin" class="cls-10" x="17.78" y="32.96" width="3.4" height="2.83"/></g><g id="g6211"><rect id="connector15pin" class="cls-10" x="23.45" y="30.26" width="3.4" height="2.83"/></g><g id="g6214"><rect id="connector16pin" class="cls-10" x="33.26" y="17.13" width="3.4" height="2.83"/></g><g id="g6217"><rect id="connector17pin" class="cls-10" x="33.26" y="22.52" width="3.4" height="2.83"/></g><g id="g6220"><rect id="connector18pin" class="cls-10" x="38.93" y="19.82" width="3.4" height="2.83"/></g><g id="g6223"><rect id="connector19pin" class="cls-10" x="12.63" y="32.98" width="4.25" height="3.51"/></g><g id="g6226"><rect id="connector20pin" class="cls-10" x="12.63" y="27.59" width="4.25" height="3.51"/></g><g id="g6229"><rect id="connector21pin" class="cls-10" x="27.75" y="32.26" width="4.25" height="3.51"/></g><g id="g6232"><rect id="connector22pin" class="cls-10" x="27.75" y="26.87" width="4.25" height="3.51"/></g><g id="g6235"><rect id="connector23pin" class="cls-10" x="33.51" y="26.87" width="4.25" height="3.51"/></g><g id="g6238"><rect id="connector24pin" class="cls-10" x="33.51" y="32.26" width="4.25" height="3.51"/></g><g id="g6241"><rect id="connector25pin" class="cls-10" x="28.11" y="16.79" width="4.25" height="3.51"/></g><g id="g6244"><rect id="connector26pin" class="cls-10" x="28.11" y="22.18" width="4.25" height="3.51"/></g><circle id="connector27pin" class="cls-12" cx="36" cy="7.2" r="4.26"/><circle id="connector28pin" class="cls-12" cx="7.2" cy="7.2" r="4.26"/><rect id="connector29pin" class="cls-10" x="2.65" y="27.54" width="1.56" height="3.4"/><rect id="connector30pin" class="cls-10" x="5.34" y="27.54" width="1.56" height="3.4"/><rect id="connector31pin" class="cls-10" x="8.03" y="27.54" width="1.56" height="3.4"/><rect id="connector32pin" class="cls-10" x="8.03" y="20.17" width="1.56" height="3.4"/><rect id="connector33pin" class="cls-10" x="2.65" y="20.17" width="1.56" height="3.4"/><g id="g6254"><rect id="connector34pin" class="cls-10" x="23.79" y="23.44" width="2.41" height="1.28" rx="0.64" ry="0.64"/></g><g id="g6257"><path id="connector35pin" class="cls-10" d="M25.56,21.88H24.42a.64.64,0,0,1-.64-.64h0a.64.64,0,0,1,.64-.64h1.13a.64.64,0,0,1,.64.64h0A.64.64,0,0,1,25.56,21.88Z"/></g><g id="g6260"><rect id="connector36pin" class="cls-10" x="23.79" y="17.77" width="2.41" height="1.28" rx="0.64" ry="0.64"/></g><g id="g6263"><rect id="connector37pin" class="cls-10" x="15.57" y="17.77" width="2.41" height="1.28" rx="0.64" ry="0.64"/></g><g id="g6266"><path id="connector38pin" class="cls-10" d="M17.34,21.88H16.2a.64.64,0,0,1-.64-.64h0a.64.64,0,0,1,.64-.64h1.13a.64.64,0,0,1,.64.64h0A.64.64,0,0,1,17.34,21.88Z"/></g><g id="g6269"><rect id="connector39pin" class="cls-10" x="15.57" y="23.44" width="2.41" height="1.28" rx="0.64" ry="0.64"/></g><g id="g6272"><rect id="connector40pin" class="cls-10" x="18.61" y="17.7" width="4.54" height="7.09"/></g></g><g id="_0805-cap" data-name="0805-cap"><path id="path6276" class="cls-13" d="M23.79,15.09h-5.1a.28.28,0,0,1-.28-.28v-3a.28.28,0,0,1,.28-.28h5.1a.28.28,0,0,1,.28.28v3A.28.28,0,0,1,23.79,15.09Z"/><rect id="rect6278" class="cls-14" x="19.47" y="11.55" width="3.54" height="3.54"/></g><g id="g6280"><path id="path6282" class="cls-13" d="M8,36H2.85a.28.28,0,0,1-.28-.28v-3a.28.28,0,0,1,.28-.28H8a.28.28,0,0,1,.28.28v3A.28.28,0,0,1,8,36Z"/><rect id="rect6284" class="cls-14" x="3.63" y="32.43" width="3.54" height="3.54"/></g><g id="g6286"><path id="path6288" class="cls-13" d="M8.67,19.05H3.57a.28.28,0,0,1-.28-.28v-3a.28.28,0,0,1,.28-.28h5.1a.28.28,0,0,1,.28.28v3A.28.28,0,0,1,8.67,19.05Z"/><rect id="rect6290" class="cls-14" x="4.35" y="15.51" width="3.54" height="3.54"/></g><g id="sot23-wide"><g id="g6293"><g id="g6295"><rect id="rect6297" class="cls-13" x="18.49" y="28.28" width="2.98" height="1.42"/><rect id="rect6299" class="cls-13" x="18.49" y="33.66" width="2.98" height="1.42"/><rect id="rect6301" class="cls-13" x="23.03" y="30.97" width="3.12" height="1.42"/><rect id="rect6303" class="cls-15" x="20.48" y="27.43" width="3.68" height="8.5"/></g></g></g><g id="g6305"><g id="g6307"><g id="g6309"><rect id="rect6311" class="cls-13" x="33.97" y="17.84" width="2.98" height="1.42"/><rect id="rect6313" class="cls-13" x="33.97" y="23.22" width="2.98" height="1.42"/><rect id="rect6315" class="cls-13" x="38.51" y="20.53" width="3.12" height="1.42"/><rect id="rect6317" class="cls-15" x="35.96" y="16.99" width="3.68" height="8.5"/></g></g></g><g id="_0805-res" data-name="0805-res"><g id="g6320"><path id="path6322" class="cls-13" d="M16.53,29.49v5.1a.28.28,0,0,1-.28.28h-3a.28.28,0,0,1-.28-.28v-5.1a.28.28,0,0,1,.28-.28h3A.28.28,0,0,1,16.53,29.49Z"/><rect id="rect6324" class="cls-16" x="12.99" y="30.27" width="3.54" height="3.54"/></g></g><g id="g6326"><g id="g6328"><path id="path6330" class="cls-13" d="M31.65,28.77v5.1a.28.28,0,0,1-.28.28h-3a.28.28,0,0,1-.28-.28v-5.1a.28.28,0,0,1,.28-.28h3A.28.28,0,0,1,31.65,28.77Z"/><rect id="rect6332" class="cls-16" x="28.11" y="29.55" width="3.54" height="3.54"/></g></g><g id="g6334"><g id="g6336"><path id="path6338" class="cls-13" d="M33.87,33.87v-5.1a.28.28,0,0,1,.28-.28h3a.28.28,0,0,1,.28.28v5.1a.28.28,0,0,1-.28.28h-3A.28.28,0,0,1,33.87,33.87Z"/><rect id="rect6340" class="cls-16" x="33.87" y="29.55" width="3.54" height="3.54"/></g></g><g id="g6342"><g id="g6344"><path id="path6346" class="cls-13" d="M28.47,23.79v-5.1a.28.28,0,0,1,.28-.28h3a.28.28,0,0,1,.28.28v5.1a.28.28,0,0,1-.28.28h-3A.28.28,0,0,1,28.47,23.79Z"/><rect id="rect6348" class="cls-16" x="28.47" y="19.47" width="3.54" height="3.54"/></g></g><g id="adafruit_2.5mm" data-name="adafruit 2.5mm"><g id="g6351"><path id="path6353" class="cls-13" d="M29.85,7.67c0-.14-.1-.18-.29-.24l-1.09-.35a1.35,1.35,0,0,0-1.15.1l-.2.16.16-.2A1.35,1.35,0,0,0,27.38,6L27,4.9c-.06-.19-.1-.26-.24-.29s-.2,0-.32.2l-.67.93a1.35,1.35,0,0,0-.26,1.13l.09.24-.14-.21a1.35,1.35,0,0,0-1.06-.45H23.29c-.19,0-.28,0-.35.14s0,.21.09.36l.68.92a1.35,1.35,0,0,0,1,.59H25l-.25.07a1.35,1.35,0,0,0-.76.87l-.36,1.09c-.06.19-.07.27,0,.37s.19.09.37,0l1.09-.36a1.35,1.35,0,0,0,.87-.76c0-.08,0-.16.07-.25,0,.09,0,.18,0,.26a1.36,1.36,0,0,0,.59,1l.92.68c.16.12.24.15.37.09s.14-.15.14-.35S28,10,28,10A1.35,1.35,0,0,0,27.57,9l-.21-.14.24.09a1.35,1.35,0,0,0,1.13-.26L29.65,8C29.81,7.88,29.87,7.81,29.85,7.67Zm-3.42-.73c.11,0,.16.25.12.52s-.16.47-.27.45-.16-.25-.12-.52S26.31,6.92,26.42,6.94ZM25,7.65c0-.1.29-.08.53,0s.4.3.35.4-.29.08-.53,0S25,7.75,25,7.65ZM25.77,9c-.19.19-.41.28-.49.21s0-.3.21-.49.41-.29.49-.21S26,8.79,25.77,9Zm1.05.45c-.1.05-.28-.11-.4-.35s-.14-.48,0-.53.28.11.4.35S26.92,9.38,26.82,9.43Zm.25-1.12c-.27,0-.5,0-.52-.12s.19-.23.45-.27.5,0,.52.12S27.34,8.27,27.07,8.31Z"/></g></g><g id="sot23-5"><g id="g6356"><rect id="rect6358" class="cls-13" x="2.86" y="21.73" width="1.13" height="7.65"/><rect id="rect6360" class="cls-13" x="8.25" y="21.73" width="1.13" height="7.65"/><rect id="rect6362" class="cls-13" x="5.55" y="26.27" width="1.13" height="3.12"/><rect id="rect6364" class="cls-15" x="2.01" y="23.29" width="8.22" height="4.53"/></g></g><g id="dfn6_3x3_si" data-name="dfn6 3x3 si"><g id="g6367"><rect id="rect5" class="cls-16" x="16.62" y="16.92" width="8.5" height="8.5"/><path id="rect4154" class="cls-17" d="M23.7,25.15H16.92V17.21h7.94V24"/></g></g></g></g></svg>