<svg xmlns="http://www.w3.org/2000/svg" viewBox="0 0 86.4 54"><defs><style>.cls-1{fill:#014cb1;}.cls-2,.cls-7,.cls-8{isolation:isolate;fill:#fff;font-family:ArialMT, Arial;}.cls-2,.cls-8{font-size:2.67px;}.cls-3,.cls-8{letter-spacing:-0.02em;}.cls-4{letter-spacing:-0.06em;}.cls-5{letter-spacing:-0.04em;}.cls-6{letter-spacing:-0.06em;}.cls-7{font-size:3.27px;}.cls-10,.cls-11,.cls-12,.cls-13,.cls-14,.cls-16,.cls-17,.cls-9{fill:none;}.cls-10,.cls-11,.cls-12,.cls-13,.cls-14,.cls-9{stroke:#fff;}.cls-10,.cls-11,.cls-13,.cls-9{stroke-linecap:round;}.cls-9{stroke-width:0.86px;}.cls-10{stroke-width:0.36px;}.cls-11{stroke-width:0.43px;}.cls-12{stroke-width:1.73px;}.cls-13,.cls-14{stroke-width:0.58px;}.cls-15{fill:#9a916c;}.cls-16,.cls-17{stroke:#9a916c;}.cls-16{stroke-width:1.32px;}.cls-17{stroke-width:1.44px;}.cls-18{fill:#dcdcdc;}.cls-19{fill:#6e554b;}.cls-20{fill:#303030;}.cls-21{fill:#666;}.cls-22{fill:#333;}</style></defs><title>DEV_7</title><g id="Layer_2" data-name="Layer 2"><g id="Layer_1-2" data-name="Layer 1"><g id="breadboard"><g id="icon"><path class="cls-1" d="M86.4,46.8A7.2,7.2,0,0,1,79.2,54H7.2A7.2,7.2,0,0,1,0,46.8H0V43.56a7.2,7.2,0,0,1,7.2-7.2H9v-22H7.2A7.2,7.2,0,0,1,0,7.2H0A7.2,7.2,0,0,1,7.2,0h72a7.2,7.2,0,0,1,7.2,7.2h0a7.2,7.2,0,0,1-7.2,7.2H77.4v22h1.8a7.2,7.2,0,0,1,7.2,7.2h0V46.8M13,49.68a1.42,1.42,0,1,0,1.42-1.42A1.42,1.42,0,0,0,13,49.68Zm7.2,0a1.42,1.42,0,1,0,1.42-1.42A1.42,1.42,0,0,0,20.18,49.68Zm7.2,0a1.42,1.42,0,1,0,1.42-1.42A1.42,1.42,0,0,0,27.38,49.68Zm7.2,0A1.42,1.42,0,1,0,36,48.26,1.42,1.42,0,0,0,34.58,49.68Zm7.2,0a1.42,1.42,0,1,0,1.42-1.42A1.42,1.42,0,0,0,41.78,49.68Zm7.2,0a1.42,1.42,0,1,0,1.42-1.42A1.42,1.42,0,0,0,49,49.68Zm7.2,0a1.42,1.42,0,1,0,1.42-1.42A1.42,1.42,0,0,0,56.18,49.68Zm7.2,0a1.42,1.42,0,1,0,1.42-1.42A1.42,1.42,0,0,0,63.38,49.68Zm7.2,0A1.42,1.42,0,1,0,72,48.26,1.42,1.42,0,0,0,70.58,49.68ZM76.08,7.2A3.12,3.12,0,1,0,79.2,4.08,3.12,3.12,0,0,0,76.08,7.2Zm-72,0a3.12,3.12,0,1,0,6.24,0h0a3.12,3.12,0,0,0-6.24,0Zm0,36.36a3.12,3.12,0,0,0,6.24,0h0a3.12,3.12,0,0,0-6.24,0Zm72,0a3.12,3.12,0,1,0,3.12-3.12A3.12,3.12,0,0,0,76.08,43.56Z"/><text class="cls-2" transform="translate(73.08 46.08) rotate(-90)"><tspan class="cls-3">V</tspan><tspan x="1.73" y="0">in</tspan></text><text class="cls-2" transform="translate(66.24 46.08) rotate(-90)">3<tspan class="cls-4" x="1.49" y="0">V</tspan><tspan x="3.12" y="0">o</tspan></text><text class="cls-2" transform="translate(16.2 46.08) rotate(-90)">SC<tspan class="cls-5" x="3.71" y="0">L</tspan></text><text class="cls-2" transform="translate(23.04 46.44) rotate(-90)">SD<tspan class="cls-6" x="3.71" y="0">A</tspan></text><text class="cls-2" transform="translate(30.24 46.44) rotate(-90)">SA0</text><text class="cls-2" transform="translate(37.44 46.08) rotate(-90)">CS</text><text class="cls-2" transform="translate(44.64 46.08) rotate(-90)">DRD<tspan class="cls-3" x="5.79" y="0">Y</tspan></text><text class="cls-2" transform="translate(51.84 46.08) rotate(-90)">INT1</text><text class="cls-2" transform="translate(59.04 46.08) rotate(-90)">GND</text><text class="cls-2" transform="translate(67.75 9.79)">Z</text><text class="cls-7" transform="translate(13.68 6.12)">L3GD20H 3-Axis Gyro</text><text class="cls-2" transform="translate(45.79 9.79)">X</text><text class="cls-8" transform="translate(57.31 9.79)">Y</text><line class="cls-9" x1="29.52" y1="21.96" x2="29.52" y2="24.84"/><line class="cls-9" x1="58.32" y1="26.28" x2="61.2" y2="26.28"/><line class="cls-9" x1="36" y1="15.12" x2="33.12" y2="15.12"/><line class="cls-9" x1="61.56" y1="33.84" x2="61.56" y2="36.72"/><line class="cls-10" x1="51.01" y1="37.48" x2="46.19" y2="37.48"/><line class="cls-10" x1="46.19" y1="37.48" x2="46.19" y2="33.8"/><line class="cls-10" x1="46.19" y1="33.8" x2="51.01" y2="33.8"/><line class="cls-10" x1="51.01" y1="33.8" x2="51.01" y2="37.48"/><line class="cls-10" x1="47.47" y1="37.34" x2="47.47" y2="33.94"/><line class="cls-10" x1="47.47" y1="33.94" x2="47.75" y2="33.94"/><line class="cls-10" x1="47.75" y1="33.94" x2="47.75" y2="37.34"/><line class="cls-11" x1="70.99" y1="24.34" x2="70.99" y2="28.94"/><line class="cls-11" x1="62.93" y1="28.94" x2="62.93" y2="24.34"/><line class="cls-11" x1="65.48" y1="24.34" x2="68.44" y2="24.34"/><line class="cls-11" x1="65.75" y1="28.94" x2="65.48" y2="28.94"/><line class="cls-11" x1="68.44" y1="28.94" x2="68.17" y2="28.94"/><line class="cls-11" x1="63.2" y1="28.94" x2="62.93" y2="28.94"/><line class="cls-11" x1="70.99" y1="28.94" x2="70.72" y2="28.94"/><line class="cls-11" x1="70.72" y1="24.34" x2="70.99" y2="24.34"/><line class="cls-11" x1="62.93" y1="24.34" x2="63.2" y2="24.34"/><line class="cls-10" x1="38.67" y1="30.45" x2="38.67" y2="21.39"/><line class="cls-10" x1="38.67" y1="21.39" x2="47.74" y2="21.39"/><line class="cls-10" x1="47.74" y1="21.39" x2="47.74" y2="30.45"/><line class="cls-10" x1="47.74" y1="30.45" x2="38.67" y2="30.45"/><circle class="cls-12" cx="40.37" cy="32.72" r="0.85"/><line class="cls-9" x1="16.92" y1="15.84" x2="16.92" y2="18.72"/><line class="cls-13" x1="16.2" y1="35.28" x2="16.2" y2="38.16"/><line class="cls-9" x1="26.28" y1="35.28" x2="26.28" y2="38.16"/><line class="cls-9" x1="29.52" y1="29.88" x2="29.52" y2="27"/><line class="cls-13" x1="55.8" y1="27.36" x2="52.92" y2="27.36"/><line class="cls-9" x1="36.72" y1="35.28" x2="36.72" y2="38.16"/><circle class="cls-14" cx="79.2" cy="7.2" r="5.1"/><circle class="cls-14" cx="7.2" cy="7.2" r="5.1"/><circle class="cls-14" cx="7.2" cy="43.56" r="5.1"/><circle class="cls-14" cx="79.2" cy="43.56" r="5.1"/><rect id="connector5pin" class="cls-15" x="24.99" y="21.27" width="3.68" height="4.25"/><rect id="connector6pin" class="cls-15" x="30.37" y="21.27" width="3.68" height="4.25"/><rect id="connector7pin" class="cls-15" x="57.63" y="27.13" width="4.25" height="3.68"/><rect id="connector8pin" class="cls-15" x="57.63" y="21.74" width="4.25" height="3.68"/><rect id="connector9pin" class="cls-15" x="32.43" y="10.58" width="4.25" height="3.69"/><rect id="connector10pin" class="cls-15" x="32.43" y="15.97" width="4.25" height="3.69"/><rect id="connector11pin" class="cls-15" x="57.03" y="33.15" width="3.69" height="4.25"/><rect id="connector12pin" class="cls-15" x="62.41" y="33.15" width="3.69" height="4.25"/><rect id="connector13pin" class="cls-15" x="50.02" y="34.51" width="2.83" height="2.27"/><rect id="connector14pin" class="cls-15" x="44.35" y="34.51" width="2.83" height="2.27"/><rect id="connector15pin" class="cls-15" x="63.49" y="28.62" width="1.56" height="3.4"/><rect id="connector16pin" class="cls-15" x="66.18" y="28.62" width="1.56" height="3.4"/><rect id="connector17pin" class="cls-15" x="68.87" y="28.62" width="1.56" height="3.4"/><rect id="connector18pin" class="cls-15" x="68.87" y="21.25" width="1.56" height="3.4"/><rect id="connector19pin" class="cls-15" x="63.49" y="21.25" width="1.56" height="3.4"/><circle id="connector36pin" class="cls-16" cx="14.4" cy="49.68" r="2.08"/><circle id="connector37pin" class="cls-16" cx="21.6" cy="49.68" r="2.08"/><circle id="connector38pin" class="cls-16" cx="28.8" cy="49.68" r="2.08"/><circle id="connector39pin" class="cls-16" cx="36" cy="49.68" r="2.08"/><circle id="connector40pin" class="cls-16" cx="43.2" cy="49.68" r="2.08"/><circle id="connector41pin" class="cls-16" cx="50.4" cy="49.68" r="2.08"/><circle id="connector42pin" class="cls-16" cx="57.6" cy="49.68" r="2.08"/><circle id="connector43pin" class="cls-16" cx="64.8" cy="49.68" r="2.08"/><circle id="connector44pin" class="cls-16" cx="72" cy="49.68" r="2.08"/><rect id="connector45pin" class="cls-15" x="24.89" y="13.87" width="3.97" height="2.84"/><rect id="connector46pin" class="cls-15" x="24.89" y="8.49" width="3.97" height="2.84"/><rect id="connector47pin" class="cls-15" x="18.66" y="11.18" width="3.97" height="2.84"/><rect id="connector48pin" class="cls-15" x="17.83" y="22.26" width="2.84" height="3.97"/><rect id="connector49pin" class="cls-15" x="12.45" y="22.26" width="2.84" height="3.97"/><rect id="connector50pin" class="cls-15" x="15.14" y="28.49" width="2.84" height="3.97"/><rect id="connector51pin" class="cls-15" x="12.39" y="15.15" width="3.68" height="4.25"/><rect id="connector52pin" class="cls-15" x="17.77" y="15.15" width="3.68" height="4.25"/><rect id="connector53pin" class="cls-15" x="11.62" y="34.88" width="3.4" height="3.69"/><rect id="connector54pin" class="cls-15" x="17.38" y="34.88" width="3.4" height="3.69"/><rect id="connector55pin" class="cls-15" x="21.75" y="34.59" width="3.68" height="4.25"/><rect id="connector56pin" class="cls-15" x="27.13" y="34.59" width="3.68" height="4.25"/><rect id="connector57pin" class="cls-15" x="30.37" y="26.31" width="3.68" height="4.25"/><rect id="connector58pin" class="cls-15" x="24.98" y="26.31" width="3.68" height="4.25"/><rect id="connector59pin" class="cls-15" x="52.52" y="22.78" width="3.69" height="3.4"/><rect id="connector60pin" class="cls-15" x="52.52" y="28.54" width="3.69" height="3.4"/><rect id="connector61pin" class="cls-15" x="32.19" y="34.59" width="3.69" height="4.25"/><rect id="connector62pin" class="cls-15" x="37.57" y="34.59" width="3.69" height="4.25"/><circle id="connector63pin" class="cls-17" cx="79.2" cy="7.2" r="3.84"/><circle id="connector64pin" class="cls-17" cx="7.2" cy="7.2" r="3.84"/><circle id="connector65pin" class="cls-17" cx="7.2" cy="43.56" r="3.84"/><circle id="connector66pin" class="cls-17" cx="79.2" cy="43.56" r="3.84"/><path id="connector67pin" class="cls-15" d="M41,9.38h0a1.42,1.42,0,0,1,1.42,1.42h0A1.42,1.42,0,0,1,41,12.22h0a1.42,1.42,0,0,1-1.42-1.42h0A1.42,1.42,0,0,1,41,9.38Z"/><path id="connector68pin" class="cls-15" d="M73.8,33.5h0a1.42,1.42,0,0,1,1.42,1.42h0a1.42,1.42,0,0,1-1.42,1.42h0a1.42,1.42,0,0,1-1.42-1.42h0A1.42,1.42,0,0,1,73.8,33.5Z"/></g><g id="_0805-cap" data-name="0805-cap"><path class="cls-18" d="M32.07,25.17H27a.28.28,0,0,1-.28-.28v-3a.28.28,0,0,1,.28-.28h5.1a.28.28,0,0,1,.28.28v3A.28.28,0,0,1,32.07,25.17Z"/><rect class="cls-19" x="27.75" y="21.63" width="3.54" height="3.54"/></g><g id="_0805-cap-2" data-name="0805-cap"><path class="cls-18" d="M61.53,23.73v5.1a.28.28,0,0,1-.28.28h-3a.28.28,0,0,1-.28-.28v-5.1a.28.28,0,0,1,.28-.28h3A.28.28,0,0,1,61.53,23.73Z"/><rect class="cls-19" x="57.99" y="24.51" width="3.54" height="3.54"/></g><g id="_0805-cap-3" data-name="0805-cap"><path class="cls-18" d="M32.79,17.67v-5.1a.28.28,0,0,1,.28-.28h3a.28.28,0,0,1,.28.28v5.1A.28.28,0,0,1,36,18h-3A.28.28,0,0,1,32.79,17.67Z"/><rect class="cls-19" x="32.79" y="13.35" width="3.54" height="3.54"/></g><g id="_0805-cap-4" data-name="0805-cap"><path class="cls-18" d="M64.11,37.05H59a.28.28,0,0,1-.28-.28v-3a.28.28,0,0,1,.28-.28h5.1a.28.28,0,0,1,.28.28v3A.28.28,0,0,1,64.11,37.05Z"/><rect class="cls-19" x="59.79" y="33.51" width="3.54" height="3.54"/></g><g id="sod-323f"><rect id="rect3" class="cls-18" x="45.06" y="35.22" width="7.09" height="0.85"/><rect id="rect5" class="cls-20" x="46.19" y="33.87" width="4.82" height="3.54"/><rect id="rect3339" class="cls-21" x="49.95" y="33.84" width="0.63" height="3.56"/></g><g id="sot23-5l"><rect class="cls-18" x="63.7" y="22.81" width="1.13" height="7.65"/><rect class="cls-18" x="69.09" y="22.81" width="1.13" height="7.65"/><rect class="cls-18" x="66.39" y="27.35" width="1.13" height="3.12"/><rect class="cls-20" x="62.85" y="24.37" width="8.22" height="4.53"/></g><g id="l3gd20h_lga16l" data-name="l3gd20h lga16l"><rect class="cls-22" x="38.95" y="21.67" width="8.5" height="8.5"/></g><g id="sot23"><rect class="cls-18" x="24.61" y="14.58" width="2.98" height="1.42"/><rect class="cls-18" x="24.61" y="9.2" width="2.98" height="1.42"/><rect class="cls-18" x="19.93" y="11.89" width="3.12" height="1.42"/><rect class="cls-20" x="21.92" y="8.35" width="3.68" height="8.5"/></g><g id="sot23-2" data-name="sot23"><rect class="cls-18" x="18.54" y="23.53" width="1.42" height="2.98"/><rect class="cls-18" x="13.16" y="23.53" width="1.42" height="2.98"/><rect class="cls-18" x="15.85" y="28.07" width="1.42" height="3.12"/><rect class="cls-20" x="12.31" y="25.52" width="8.5" height="3.68"/></g><g id="_0805-res" data-name="0805-res"><path class="cls-18" d="M19.47,19.05h-5.1a.28.28,0,0,1-.28-.28v-3a.28.28,0,0,1,.28-.28h5.1a.28.28,0,0,1,.28.28v3A.28.28,0,0,1,19.47,19.05Z"/><rect class="cls-22" x="15.15" y="15.51" width="3.54" height="3.54"/></g><g id="_0805-res-2" data-name="0805-res"><path class="cls-18" d="M18.75,38.49h-5.1a.28.28,0,0,1-.28-.28v-3a.28.28,0,0,1,.28-.28h5.1a.28.28,0,0,1,.28.28v3A.28.28,0,0,1,18.75,38.49Z"/><rect class="cls-22" x="14.43" y="34.95" width="3.54" height="3.54"/></g><g id="_0805-res-3" data-name="0805-res"><path class="cls-18" d="M28.83,38.49h-5.1a.28.28,0,0,1-.28-.28v-3a.28.28,0,0,1,.28-.28h5.1a.28.28,0,0,1,.28.28v3A.28.28,0,0,1,28.83,38.49Z"/><rect class="cls-22" x="24.51" y="34.95" width="3.54" height="3.54"/></g><g id="_0805-res-4" data-name="0805-res"><path class="cls-18" d="M27,26.67h5.1a.28.28,0,0,1,.28.28v3a.28.28,0,0,1-.28.28H27a.28.28,0,0,1-.28-.28V27A.28.28,0,0,1,27,26.67Z"/><rect class="cls-22" x="27.75" y="26.67" width="3.54" height="3.54"/></g><g id="_0805-res-5" data-name="0805-res"><path class="cls-18" d="M52.59,29.91v-5.1a.28.28,0,0,1,.28-.28h3a.28.28,0,0,1,.28.28v5.1a.28.28,0,0,1-.28.28h-3A.28.28,0,0,1,52.59,29.91Z"/><rect class="cls-22" x="52.59" y="25.59" width="3.54" height="3.54"/></g><g id="_0805-res-6" data-name="0805-res"><path class="cls-18" d="M39.27,38.49h-5.1a.28.28,0,0,1-.28-.28v-3a.28.28,0,0,1,.28-.28h5.1a.28.28,0,0,1,.28.28v3A.28.28,0,0,1,39.27,38.49Z"/><rect class="cls-22" x="34.95" y="34.95" width="3.54" height="3.54"/></g></g><g id="symbol_gyroxyz_10mm" data-name="symbol gyroxyz 10mm"><path class="cls-18" d="M69,16.77a1.57,1.57,0,1,1,1.57-1.57A1.57,1.57,0,0,1,69,16.77Zm0-2.43a.86.86,0,1,0,.86.86A.86.86,0,0,0,69,14.34Z"/><path class="cls-18" d="M72.84,15.23,70.95,17l.56.17a3.18,3.18,0,1,1,.69-2H73.5a4.52,4.52,0,1,0-.69,2.37l.63.19Z"/><path class="cls-18" d="M49.22,15.14a5.61,5.61,0,0,0-1.67-4,.65.65,0,0,0-.92.93,4.32,4.32,0,0,1,1.29,3.08,4.53,4.53,0,0,1-.69,2.17l-.71-.59L46,19.92l3-1.14-.79-.65A5.83,5.83,0,0,0,49.22,15.14Z"/><path class="cls-18" d="M63.38,15.07l-3.25.17.5.78a6.71,6.71,0,0,1-5.2-.38.65.65,0,0,0-.58,1.17,8.08,8.08,0,0,0,3.62.88,7.79,7.79,0,0,0,2.89-.55l.54.83Z"/><path class="cls-18" d="M43.13,15.53a.83.83,0,0,1-.12-.43.55.55,0,0,1,.15-.43H47a3.68,3.68,0,0,0-.17-.71H43.13c-.45,0-.82.51-.82,1.13s.37,1.13.82,1.13h3.7a3.93,3.93,0,0,0,.2-.71Z"/><path class="cls-18" d="M50.21,15.53a.83.83,0,0,0,.11-.43.55.55,0,0,0-.15-.43H50a2.59,2.59,0,0,0-.19-.71h.44c.45,0,.82.51.82,1.13s-.37,1.13-.82,1.13h-.41a5.71,5.71,0,0,0,.16-.71Z"/><path class="cls-18" d="M57.94,11.69a.83.83,0,0,1,.42-.11.55.55,0,0,1,.43.15v3.87a3.85,3.85,0,0,0,.71-.17V11.69c0-.45-.51-.82-1.13-.82s-1.13.37-1.13.82v3.7a3.93,3.93,0,0,0,.71.2Z"/><path class="cls-18" d="M57.94,18.77a.83.83,0,0,0,.42.11.55.55,0,0,0,.43-.15v-.22a2.59,2.59,0,0,0,.71-.19v.44c0,.45-.51.82-1.13.82s-1.13-.37-1.13-.82v-.41a5.67,5.67,0,0,0,.71.16Z"/></g></g></g></svg>