<?xml version="1.0" encoding="utf-8"?>
<!-- Generator: Adobe Illustrator 16.0.0, SVG Export Plug-In . SVG Version: 6.00 Build 0)  -->
<!DOCTYPE svg PUBLIC "-//W3C//DTD SVG 1.1//EN" "http://www.w3.org/Graphics/SVG/1.1/DTD/svg11.dtd">
<svg version="1.1" id="Layer_1" xmlns:svg="http://www.w3.org/2000/svg"
	 xmlns="http://www.w3.org/2000/svg" xmlns:xlink="http://www.w3.org/1999/xlink" x="0px" y="0px" width="132.211px"
	 height="40.201px" viewBox="0 0 132.211 40.201" enable-background="new 0 0 132.211 40.201" xml:space="preserve">
<path fill="none" stroke="#8C8C8C" stroke-width="2.1" stroke-linecap="round" stroke-linejoin="round" d="M-9.681,10.84v8.924"/>
<path fill="none" stroke="#8C8C8C" stroke-width="2.1" stroke-linecap="round" stroke-linejoin="round" d="M34.773,10.84v8.924"/>
<g>
	<g id="breadboard">
		<rect id="connector0pin" x="-11.212" y="8.569" fill="none" width="2" height="2"/>
		<rect id="connector1pin" x="31.988" y="8.569" fill="none" width="2" height="2"/>
		<g id="connector0leg">
		</g>
		<g id="connector1leg">
		</g>
		<g>
			<path fill="none" stroke="#8C8C8C" stroke-width="2.1" stroke-linecap="round" d="M34.773,10.84H-9.681"/>
			<path d="M-2.052,10.93c0,4.355,1.918,8.254,4.945,10.934h19.31c3.035-2.676,4.953-6.572,4.953-10.934
				c0-4.354-1.918-8.252-4.953-10.93H2.891C-0.134,2.674-2.052,6.574-2.052,10.93z"/>
			<rect x="2.891" width="19.312" height="21.862"/>
			<path fill="#CCCCCC" d="M22.238,20.612c0,0-4.699,0.459-9.691,0.459c-4.992,0-9.688-0.459-9.688-0.459s-0.447-4.688-0.447-9.682
				c0-4.992,0.449-9.688,0.449-9.688s4.696-0.459,9.688-0.459c4.99,0,9.689,0.459,9.689,0.459s0.453,4.695,0.453,9.688
				C22.684,15.924,22.238,20.612,22.238,20.612z"/>
			<path fill="#8F0000" d="M21.184,2.719l-0.063-0.363l-0.367-0.063c-0.043-0.006-3.959-0.623-8.208-0.623
				c-2.218,0-4.326,0.174-5.702,0.291C5.461,2.11,4.744,2.19,4.355,2.289c-0.113,0-0.21,0.043-0.29,0.125
				C3.941,2.469,3.916,2.576,3.912,2.699c-0.12,0.377-0.217,1.1-0.358,2.525C3.448,6.297,3.269,8.479,3.269,10.94
				c0,4.271,0.641,8.176,0.646,8.209l0.062,0.363l0.362,0.061c0.038,0.008,3.942,0.627,8.21,0.627c4.275,0,8.171-0.623,8.208-0.623
				l0.367-0.061l0.059-0.361c0.008-0.043,0.641-3.959,0.641-8.211S21.188,2.758,21.184,2.719z M4.872,18.606
				c-0.154-1.049-0.58-4.236-0.58-7.676c0-3.6,0.376-6.764,0.542-7.678C5.2,3.198,5.887,3.104,6.761,3.01
				C6.748,3.096,6.725,3.166,6.725,3.26c0,0.611,0.376,1.643,0.42,1.758c0.09,0.238,0.334,0.377,0.584,0.324
				c0.024-0.004,2.314-0.471,4.82-0.471c2.376,0,4.541,0.418,4.779,0.461c0.004,0.01,0.023,0.039,0.023,0.121
				c0,0.209-0.098,0.543-0.205,0.832c-0.564-0.098-1.631-0.25-2.869-0.25c-1.772,0-3.47,0.316-3.54,0.33
				c-0.15,0.043-0.276,0.125-0.353,0.252C10.35,6.678,10.178,7.01,10.178,7.66c0,0.541,0.143,1.291,0.148,1.352
				c0.025,0.123,0.102,0.254,0.214,0.33c0.114,0.078,0.254,0.104,0.39,0.078c0.006,0,0.778-0.15,1.618-0.15
				c0.519,0,0.99,0.057,1.291,0.1c0.043,0.131,0.043,0.295,0.043,0.482c0,0.205-0.023,0.408-0.047,0.58h-1.289H10.83
				c-0.238,0-0.444,0.162-0.5,0.391c-0.006,0.023-0.152,0.619-0.152,1.207c0,0.602,0.15,1.049,0.164,1.102
				c0.06,0.172,0.208,0.303,0.388,0.338c0.036,0.006,0.872,0.168,1.816,0.168c0.494,0,0.952-0.039,1.289-0.088
				c0.043,0.211,0.051,0.459,0.051,0.67c0,0.148-0.018,0.238-0.031,0.326c-0.561,0.088-1.792,0.258-3.042,0.258
				c-1.666,0-3.069-0.291-3.084-0.291c-0.2-0.043-0.399,0.031-0.52,0.193c-0.04,0.049-0.462,0.627-0.462,1.314
				c0,0.689,0.422,1.26,0.472,1.322c0.076,0.098,0.184,0.166,0.304,0.191c0.097,0.023,2.414,0.492,5.026,0.492
				c1.97,0,3.769-0.268,4.58-0.406c0.109,0.354,0.211,0.768,0.211,0.99c0,0.166-0.059,0.277-0.125,0.357
				c-1.352,0.125-2.973,0.227-4.677,0.227C9.109,19.186,5.919,18.762,4.872,18.606z M20.223,18.606
				c-0.379,0.057-1.043,0.15-1.883,0.24c0.012-0.082,0.043-0.15,0.043-0.246c0-0.607-0.375-1.641-0.422-1.754
				c-0.088-0.24-0.334-0.379-0.584-0.326c-0.033,0.004-2.316,0.471-4.82,0.471c-2.084,0-4.002-0.32-4.605-0.432
				C7.87,16.416,7.784,16.2,7.784,16.012c0-0.152,0.052-0.313,0.111-0.451c0.55,0.098,1.652,0.266,2.931,0.266
				c1.771,0,3.471-0.318,3.542-0.33c0.141-0.043,0.277-0.125,0.352-0.256c0.039-0.061,0.207-0.389,0.207-1.043
				c0-0.574-0.123-1.32-0.123-1.35c-0.041-0.133-0.123-0.252-0.209-0.324c-0.123-0.078-0.258-0.105-0.375-0.082
				c-0.051,0.01-0.828,0.158-1.66,0.158c-0.521,0-0.992-0.057-1.294-0.098c-0.023-0.133-0.044-0.293-0.044-0.48
				c0-0.209,0.024-0.408,0.05-0.582h1.288h1.71c0.238,0,0.451-0.164,0.504-0.393c0.004-0.025,0.148-0.623,0.148-1.207
				c0-0.604-0.148-1.049-0.164-1.104c-0.059-0.197-0.209-0.301-0.383-0.336c-0.039-0.043-0.874-0.207-1.818-0.207
				c-0.496,0-0.95,0.045-1.29,0.125c-0.027-0.213-0.052-0.459-0.052-0.707c0-0.123,0.018-0.207,0.03-0.291
				c0.56-0.09,1.792-0.293,3.042-0.293c1.658,0,3.064,0.307,3.082,0.309c0.236,0.051,0.479-0.07,0.576-0.293
				c0.043-0.119,0.438-0.984,0.438-1.623c0-0.752-0.527-1.061-0.797-1.125c-0.098-0.041-2.414-0.482-5.029-0.482
				c-1.97,0-3.768,0.273-4.582,0.4c-0.109-0.375-0.22-0.783-0.22-0.984c0-0.16,0.062-0.291,0.12-0.373
				c1.362-0.125,2.996-0.209,4.678-0.209c3.439,0,6.623,0.426,7.675,0.572c0.152,1.043,0.578,4.229,0.578,7.682
				C20.797,14.367,20.379,17.555,20.223,18.606z"/>
			<circle fill="#8C8C8C" cx="1.085" cy="10.932" r="2.758"/>
			<circle fill="#8C8C8C" cx="24.008" cy="10.93" r="2.758"/>
			<path opacity="0.2" enable-background="new    " d="M22.203,0H2.891c-3.025,2.674-4.943,6.574-4.943,10.93
				c0,4.356,1.918,8.254,4.945,10.934h19.31c3.035-2.676,4.953-6.572,4.953-10.934C27.15,6.574,25.232,2.674,22.203,0z
				 M11.956,19.323c-4.971,0-9-4.043-9-9c0-4.971,4.029-9.002,9-9.002c4.966,0,9.001,4.031,9.001,9.002
				C20.957,15.289,16.926,19.323,11.956,19.323z"/>
			<circle opacity="0.8" fill="#FFFFFF" enable-background="new    " cx="8.933" cy="6.795" r="2.34"/>
		</g>
	</g>
</g>
<g id="breadboard_1_">
	
		<rect id="connector0pin_1_" x="115.559" y="17.533" transform="matrix(0.9872 -0.1594 0.1594 0.9872 -1.7492 19.0754)" fill="#868584" width="5" height="5.821"/>
	
		<rect id="connector1pin_1_" x="35.756" y="30.409" transform="matrix(0.9871 -0.1601 0.1601 0.9871 -4.8407 6.5543)" fill="#868584" width="5.002" height="5.821"/>
	
		<rect x="33.906" y="24.023" transform="matrix(0.9872 -0.1593 0.1593 0.9872 -3.3083 12.6903)" fill="#868584" width="87.182" height="5.913"/>
	<path id="Body_1_" fill="#D9B578" d="M88.561,15.912c-0.914,0.607-2.553,1.25-3.637,1.43l-16.105,2.596
		c-1.082,0.174-2.844,0.082-3.9-0.209L64.7,19.666c-1.061-0.291-2.814-0.385-3.904-0.209l-5.924,0.957
		c-1.975,0.319-3.631,2.612-3.313,4.592l1.912,11.849c0.316,1.971,2.611,3.627,4.586,3.309l5.924-0.957
		c1.09-0.174,2.725-0.813,3.641-1.426l0.191-0.127c0.918-0.611,2.555-1.252,3.639-1.426l16.104-2.599
		c1.086-0.178,2.836-0.084,3.899,0.209l0.219,0.06c1.062,0.289,2.818,0.383,3.904,0.209l5.922-0.957
		c1.978-0.318,3.633-2.613,3.313-4.586L102.9,16.715c-0.315-1.979-2.61-3.628-4.586-3.314l-5.922,0.959
		c-1.086,0.172-2.724,0.814-3.64,1.422L88.561,15.912z"/>
	<path fill="#893E19" d="M96.344,13.721l3.188,19.744c0,0-4.094,0.632-4.529,0.699c-0.438,0.069-1.438,0.006-1.438,0.006
		l-3.102-19.24c0,0,0.896-0.393,1.57-0.5C92.708,14.323,96.34,13.725,96.344,13.721z"/>
	<path d="M86.713,16.815l2.699,16.732c0,0-1.222-0.022-1.841,0.074c-0.62,0.104-4.12,0.664-4.12,0.664l-2.63-16.291
		c0,0,3.255-0.525,4.078-0.658C85.721,17.205,86.709,16.819,86.713,16.815z"/>
	
		<rect x="72.218" y="19.013" transform="matrix(0.9873 -0.1591 0.1591 0.9873 -3.3804 12.3162)" fill="#EF7714" width="6.002" height="16.509"/>
	
		<rect x="58.774" y="19.731" transform="matrix(0.9872 -0.1593 0.1593 0.9872 -3.971 9.9267)" opacity="0.5" fill="#F5E731" enable-background="new    " width="2.305" height="19.999"/>
	<path id="Reflex_1_" opacity="0.4" fill="#FFFFFF" enable-background="new    " d="M100.926,17.033
		c-0.16-0.982-1.303-1.813-2.291-1.65c-1.973,0.314-3.951,0.637-5.922,0.955c-1.978,0.313-4.621,2.77-6.594,3.09
		c-1.978,0.313-15.802,2.547-17.773,2.867c-1.975,0.317-5.25-1.183-7.223-0.858c-1.979,0.313-1.979,0.313-4.941,0.795
		c-4.141,0.668-3.313,4.586-3.789,1.627c-0.16-0.988,1.654-2.293,2.643-2.455c0.656-0.105,3.047-0.49,4.592-0.74
		c0.711-0.115,1.25-0.201,1.334-0.213c1.973-0.318,5.252,1.178,7.225,0.861c1.976-0.32,16.785-2.708,17.772-2.87
		c0.986-0.16,4.617-2.773,6.59-3.09c1.978-0.32,3.949-0.639,5.929-0.957c1.976-0.318,3.274,1.498,3.438,2.479
		c0.16,0.988,0.795,4.939,0.795,4.939C101.564,20.983,101.086,18.022,100.926,17.033z"/>
	<path id="Shaddow_1_" opacity="0.4" enable-background="new    " d="M55.293,35.535c0.479,2.963,3.441,2.483,4.428,2.323
		c1.979-0.317,1.979-0.317,3.947-0.635c1.977-0.318,4.62-2.771,6.59-3.088c1.977-0.318,15.801-2.549,17.775-2.869
		c1.973-0.318,5.254,1.18,7.225,0.857c1.979-0.314,1.979-0.314,4.938-0.793c4.136-0.668,3.979-6.719,4.457-3.76
		c0.033,0.197,0.132,0.814,0.16,0.988c0.388,2.407-1.979,4.371-3.313,4.586c-0.959,0.156-6.383,1.033-6.646,1.074
		c-1.976,0.313-4.655-1.023-7.449-0.572c-1.979,0.319-15.354,2.442-16.344,2.604c-1.819,0.291-4.592,2.549-7.074,2.949
		c-1.975,0.318-3.953,0.639-5.924,0.957c-1.977,0.318-4.271-1.336-4.586-3.311c-0.16-0.988-0.797-4.938-0.797-4.938
		C53.666,31.754,55.133,34.554,55.293,35.535z"/>
</g>
</svg>
