<?xml version="1.0" encoding="utf-8"?>
<!-- Generator: Adobe Illustrator 16.0.0, SVG Export Plug-In . SVG Version: 6.00 Build 0)  -->
<!DOCTYPE svg PUBLIC "-//W3C//DTD SVG 1.1//EN" "http://www.w3.org/Graphics/SVG/1.1/DTD/svg11.dtd">
<svg version="1.1" id="Layer_1" xmlns="http://www.w3.org/2000/svg" xmlns:xlink="http://www.w3.org/1999/xlink" x="0px" y="0px"
	 width="235.328px" height="241.153px" viewBox="113.415 365.728 235.328 241.153"
	 enable-background="new 113.415 365.728 235.328 241.153" xml:space="preserve">
<g id="mood_x26_tone">
</g>
<g id="Icon_Kit">
</g>
<g id="ActionIcon">
</g>
<g id="ActionKit">
</g>
<g id="ActionKit-on-list">
</g>
<g id="ActionKit-on-list-2">
</g>
<g id="Action-on-canvas">
</g>
<g id="TriggerIcon">
</g>
<g id="TriggerKit">
</g>
<g id="Action-Properties">
</g>
<g id="UIdecorate">
</g>
<g id="UIdecorate-overlay">
</g>
<g id="ActionRepresent">
</g>
<g id="UX-mock-up">
</g>
<g id="symbol-navbar">
</g>
<g id="undo-redo-save">
	<g>
		<path fill="#B22A34" d="M130.144,411.342v92.262c0,1.262,1.009,2.272,2.271,2.272h92.515c1.262,0,2.271-1.01,2.271-2.272v-92.262
			c0-4.615-3.75-8.365-8.364-8.365h-80.329C133.893,402.977,130.144,406.727,130.144,411.342z M151.56,461.061
			c-5.155,0.504-9.482-3.786-8.977-8.978c0.397-3.821,3.461-6.922,7.283-7.283c5.156-0.505,9.482,3.785,8.977,8.977
			C158.483,457.598,155.382,460.663,151.56,461.061z M180.548,464.234c-6.85,0.432-12.475-5.192-12.042-12.043
			c0.362-5.624,4.939-10.204,10.564-10.564c6.85-0.432,12.474,5.192,12.042,12.042C190.751,459.294,186.208,463.873,180.548,464.234
			z M209.715,461.061c-5.155,0.504-9.482-3.786-8.977-8.978c0.396-3.821,3.461-6.922,7.283-7.283
			c5.156-0.505,9.482,3.785,8.978,8.977C216.638,457.598,213.573,460.663,209.715,461.061z"/>
		<path fill="#E16156" d="M129.964,409.358v92.264c0,1.262,1.009,2.271,2.271,2.271h92.515c1.262,0,2.272-1.009,2.272-2.271v-92.264
			c0-4.615-3.75-8.364-8.365-8.364h-80.328C133.713,400.994,129.964,404.743,129.964,409.358z M151.38,459.077
			c-5.156,0.505-9.482-3.786-8.978-8.977c0.396-3.822,3.461-6.923,7.283-7.284c5.156-0.503,9.482,3.786,8.978,8.978
			C158.302,455.616,155.201,458.681,151.38,459.077z M180.367,462.25c-6.85,0.433-12.475-5.192-12.042-12.042
			c0.36-5.625,4.939-10.203,10.564-10.563c6.85-0.433,12.474,5.192,12.042,12.042C190.571,457.31,186.028,461.89,180.367,462.25z
			 M209.534,459.077c-5.155,0.505-9.482-3.786-8.977-8.977c0.396-3.822,3.461-6.923,7.283-7.284
			c5.156-0.503,9.482,3.786,8.977,8.978C216.458,455.616,213.393,458.681,209.534,459.077z"/>
		<rect x="130" y="408.926" fill="#B22A34" width="96.986" height="29.204"/>
		<rect x="177.302" y="381.994" fill="#969696" width="2.343" height="36.054"/>
		<path fill="#CCCCCB" d="M166.162,397.388h24.589c1.983,0,3.605,1.623,3.605,3.606l0,0c0,1.982-1.622,3.605-3.605,3.605h-24.589
			c-1.983,0-3.606-1.623-3.606-3.605l0,0C162.556,399.011,164.179,397.388,166.162,397.388z"/>
		<g>
			<path fill="#FFFFFF" d="M224.426,502.631h-55.812c-1.045,0-1.875-0.829-1.875-1.875v-12.799c0-1.045,0.829-1.875,1.875-1.875
				h55.812c1.046,0,1.875,0.83,1.875,1.875v12.799C226.301,501.802,225.471,502.631,224.426,502.631z"/>
			<text transform="matrix(1 0 0 1 169.8137 485.3464)" fill="#FFFFFF" font-family="'MyriadPro-Semibold'" font-size="6.4897">INB</text>
			<text transform="matrix(1 0 0 1 183.9534 485.3464)" fill="#FFFFFF" font-family="'MyriadPro-Semibold'" font-size="6.4897">INA</text>
			<text transform="matrix(1 0 0 1 197.4788 485.3464)" fill="#FFFFFF" font-family="'MyriadPro-Semibold'" font-size="6.4897">UCC</text>
			<text transform="matrix(1 0 0 1 211.1516 485.3464)" fill="#FFFFFF" font-family="'MyriadPro-Semibold'" font-size="6.4897">GND</text>
			<g>
				<path fill="#606161" d="M171.57,487.38h7.031c1.874,0,3.388,1.513,3.388,3.389v7.03c0,1.874-1.515,3.389-3.388,3.389h-7.031
					c-1.875,0-3.389-1.515-3.389-3.389v-7.03C168.181,488.893,169.695,487.38,171.57,487.38z"/>
				<path fill="#606161" d="M185.884,487.38h7.03c1.875,0,3.389,1.513,3.389,3.389v7.03c0,1.874-1.514,3.389-3.389,3.389h-7.03
					c-1.875,0-3.389-1.515-3.389-3.389v-7.03C182.494,488.893,184.009,487.38,185.884,487.38z"/>
				<path fill="#606161" d="M200.161,487.38h7.03c1.875,0,3.389,1.513,3.389,3.389v7.03c0,1.874-1.514,3.389-3.389,3.389h-7.03
					c-1.875,0-3.39-1.515-3.39-3.389v-7.03C196.808,488.893,198.322,487.38,200.161,487.38z"/>
				<path fill="#606161" d="M214.474,487.38h7.031c1.875,0,3.389,1.513,3.389,3.389v7.03c0,1.874-1.514,3.389-3.389,3.389h-7.031
					c-1.874,0-3.389-1.515-3.389-3.389v-7.03C211.121,488.893,212.636,487.38,214.474,487.38z"/>
			</g>
		</g>
		<path fill="#2D2D2D" d="M133.641,469.388h28.699c1.01,0,1.803,0.793,1.803,1.803v28.699c0,1.01-0.793,1.802-1.803,1.802h-28.699
			c-1.01,0-1.803-0.792-1.803-1.802v-28.699C131.839,470.218,132.667,469.388,133.641,469.388z"/>
		<rect x="133.605" y="471.011" fill="#FFFFFF" width="5.3" height="4.002"/>
		<rect x="141.501" y="471.011" fill="#FFFFFF" width="5.3" height="4.002"/>
		<rect x="149.396" y="471.011" fill="#FFFFFF" width="5.301" height="4.002"/>
		<rect x="157.293" y="471.011" fill="#FFFFFF" width="5.3" height="4.002"/>
		<rect x="133.605" y="496.032" fill="#FFFFFF" width="5.3" height="4.002"/>
		<rect x="141.501" y="496.032" fill="#FFFFFF" width="5.3" height="4.002"/>
		<rect x="149.396" y="496.032" fill="#FFFFFF" width="5.301" height="4.002"/>
		<rect x="157.293" y="496.032" fill="#FFFFFF" width="5.3" height="4.002"/>
		<g>
			<text transform="matrix(1 0 0 1 168.9514 469.3992)" fill="#FFFFFF" font-family="'MyriadPro-Bold'" font-size="6.4897">Keyes</text>
		</g>
		<g>
			<text transform="matrix(1 0 0 1 168.8342 477.1863)" fill="#FFFFFF" font-family="'MyriadPro-Bold'" font-size="6.4897">111330</text>
		</g>
		<path fill="#BFBFBF" d="M218.621,420.031h-80.292c-4.616,0-8.365-3.75-8.365-8.365v-2.308c0-4.615,3.75-8.364,8.365-8.364h80.292
			c4.615,0,8.365,3.749,8.365,8.364v2.308C226.986,416.281,223.236,420.031,218.621,420.031z"/>
		<path fill="#DCDBDB" d="M158.374,400.994h40.164c2.055,0,3.713,1.658,3.713,3.713v28.158c0,2.056-1.658,3.713-3.713,3.713h-40.164
			c-2.055,0-3.713-1.658-3.713-3.713v-28.158C154.661,402.653,156.319,400.994,158.374,400.994z"/>
		<path fill="#E16156" d="M181.16,366.994c3.966,3.931,8.942,15.865,10.131,26.536c-8.544,3.029-17.089,3.029-25.634,0
			c0-11.465,5.372-21.163,9.771-26.247C177.159,365.336,179.322,365.193,181.16,366.994z"/>
		<path fill="#E16156" d="M171.318,390.394h-50.764c-3.93,0-7.139-3.209-7.139-7.139l0,0c0-3.93,3.208-7.138,7.139-7.138h50.764
			c3.93,0,7.138,3.208,7.138,7.138l0,0C178.456,387.185,175.283,390.394,171.318,390.394z"/>
		<path fill="#E16156" d="M237.55,390.394h-50.764c-3.931,0-7.14-3.209-7.14-7.139l0,0c0-3.93,3.208-7.138,7.14-7.138h50.764
			c3.929,0,7.139,3.208,7.139,7.138l0,0C244.688,387.185,241.479,390.394,237.55,390.394z"/>
		<g>
			<path fill="#8C8C8C" d="M146.764,404.743h-5.227c-0.433,0-0.866,0.252-1.082,0.613l-2.596,4.507
				c-0.216,0.396-0.216,0.864,0,1.262l2.596,4.507c0.216,0.396,0.649,0.612,1.082,0.612h5.227c0.433,0,0.866-0.253,1.082-0.612
				l2.596-4.507c0.217-0.397,0.217-0.866,0-1.262l-2.596-4.507C147.631,404.995,147.198,404.743,146.764,404.743z"/>
			<circle fill="#EDEEEF" cx="144.133" cy="410.512" r="3.353"/>
		</g>
		<g>
			<path fill="#8C8C8C" d="M217.07,404.743h-5.228c-0.433,0-0.865,0.252-1.082,0.613l-2.595,4.507c-0.216,0.396-0.216,0.864,0,1.262
				l2.595,4.507c0.217,0.396,0.649,0.612,1.082,0.612h5.228c0.433,0,0.866-0.253,1.082-0.612l2.597-4.507
				c0.216-0.397,0.216-0.866,0-1.262l-2.597-4.507C217.936,404.995,217.503,404.743,217.07,404.743z"/>
			<circle fill="#EDEEEF" cx="214.439" cy="410.512" r="3.353"/>
		</g>
		<path fill="#EDEEEF" d="M159.203,400.994h38.217v29.491c0,3.245-2.631,5.878-5.877,5.878h-26.5c-3.245,0-5.876-2.633-5.876-5.878
			v-29.491H159.203z"/>
		<path fill="#FFFFFF" d="M167.496,400.994h21.632v28.302c0,2.309-1.838,4.146-4.146,4.146h-13.34c-2.308,0-4.146-1.838-4.146-4.146
			V400.994z"/>
		<path fill="#EE807B" d="M177.591,372.692v14.566c0,0.324-0.18,0.648-0.469,0.793c-2.668,1.586-5.3,1.586-7.968,0
			c-0.361-0.216-0.541-0.649-0.433-1.046c1.55-5.696,4.002-10.564,7.175-14.853C176.438,371.43,177.591,371.789,177.591,372.692z"/>
		<path fill="#EE807B" d="M159.492,381.885h-35.91c-2.631,0-4.759-2.127-4.759-4.758v-1.009h45.428v1.009
			C164.251,379.758,162.124,381.885,159.492,381.885z"/>
		<path fill="#EE807B" d="M232.322,381.885h-35.947c-2.631,0-4.759-2.127-4.759-4.758v-1.009h45.429v1.009
			C237.08,379.758,234.953,381.885,232.322,381.885z"/>
		<path fill="#EE807B" d="M179.754,371.358v7.283c0,0.217,0.145,0.396,0.361,0.469c1.297,0.36,2.632,0.36,3.929,0
			c0.217-0.072,0.397-0.289,0.325-0.541c-0.396-2.345-1.767-4.868-3.786-7.536C180.331,370.708,179.754,370.89,179.754,371.358z"/>
		<g>
			<text transform="matrix(0 -1 1 0 224.928 471.6687)" fill="#FFFFFF" font-family="'MyriadPro-Bold'" font-size="6.4897">Fan Motor</text>
		</g>
	</g>
</g>
<g id="breadboard_1_">
	<g>
		<g>
			<path fill="#939393" d="M210.749,597.31v-14.458c0-0.313-0.256-0.566-0.567-0.566h-8.22c-0.313,0-0.565,0.256-0.565,0.566v7.229
				v7.231c0,0.311,0.254,0.564,0.565,0.564h8.22C210.495,597.875,210.749,597.621,210.749,597.31z M202.061,597.006
				c-0.306,0-0.553-0.248-0.553-0.553v-6.374v-6.373c0-0.303,0.247-0.551,0.553-0.551h8.024c0.304,0,0.552,0.248,0.552,0.551v12.747
				c0,0.305-0.248,0.553-0.552,0.553H202.061z"/>
			<path fill="#B2B2B2" d="M210.637,596.453v-6.374v-6.373c0-0.303-0.248-0.551-0.552-0.551h-8.024
				c-0.306,0-0.553,0.248-0.553,0.551v6.373v6.374c0,0.305,0.247,0.553,0.553,0.553h8.024
				C210.389,597.006,210.637,596.758,210.637,596.453z"/>
			<path fill="#E6E6E6" d="M210.549,595.208v-5.129v-5.127c0-0.281-0.23-0.51-0.511-0.51h-7.621c-0.28,0-0.51,0.229-0.51,0.51v3.98
				c0.094-0.109,0.232-0.188,0.396-0.188h6.864c0.281,0,0.511,0.211,0.511,0.467v0.865v2.475c0,0.258-0.229,0.467-0.511,0.467
				h-6.864c-0.164,0-0.304-0.076-0.396-0.188v2.375c0,0.279,0.229,0.51,0.51,0.51h7.619
				C210.32,595.718,210.549,595.488,210.549,595.208z"/>
			<path opacity="0.9" fill="#FFFFFF" enable-background="new    " d="M202.63,587.64c-0.299,0-0.54,0.199-0.54,0.441v-2.172
				c0-0.244,0.241-0.443,0.54-0.443h7.277c0.299,0,0.543,0.199,0.543,0.443v2.172c0-0.242-0.244-0.441-0.543-0.441H202.63z"/>
		</g>
		<rect x="201.436" y="582.318" opacity="0.1" enable-background="new    " width="1.547" height="15.547"/>
	</g>
	<g>
		<path fill="#919191" d="M204.651,579.761c-0.018,0.385,0.674,1.127,0.674,1.127s-0.744,0.363-0.793,1.012
			c-0.217,2.887-0.119,4.328-0.119,7.215c0,0.389-0.014,0.813,0.49,0.996c-0.504,0.18-0.49,0.602-0.49,0.992
			c0,2.943-0.086,4.412,0.138,7.36c0.053,0.715,0.791,1.018,0.791,1.018s-0.72,0.422-0.699,0.852
			c0.01,0.521-0.029,1.008,0.418,1.047c1.733,0.152,2.526,0.295,4.082,0.371c1.324,0.064,1.901-0.391,3.379-0.391
			c1.018,0,2.17-0.904,2.17-1.674c0-2.717-0.063-4.075,0.143-6.79c0.093-1.207-0.143-2.451-1.229-2.787
			c1.088-0.336,1.322-1.584,1.231-2.791c-0.204-2.715-0.146-4.072-0.146-6.787c0-0.77-1.234-1.539-2.172-1.539
			c0,0-2.105-0.682-3.674-0.574c-1.57,0.109-3.802,0.557-3.802,0.557C204.402,579.029,204.657,579.575,204.651,579.761z"/>
		<g>
			<path fill="#F4F4F4" d="M206.983,601.267c-0.252-0.85-0.49-1.445-0.49-1.445c1.797,0.174,2.646,0.275,4.162-0.002
				c-0.092,0.52-0.176,1.006-0.25,1.477C209.104,601.574,208.49,601.363,206.983,601.267z"/>
			<path fill="#B7B7B7" d="M205.049,601.017c0.038-0.746,0.643-1.273,1.44-1.195c0,0,0.24,0.598,0.492,1.445
				C206.208,601.217,205.823,601.084,205.049,601.017z"/>
			<path fill="#999999" d="M209.749,599.924c0.601-0.016,0.822-0.096,1.343-0.188c0.68-0.121,1.354,0.504,1.405,1.258
				c-0.926,0-1.295,0.131-2.096,0.301C210.404,600.738,210.292,599.91,209.749,599.924z"/>
		</g>
		<g>
			<path fill="#F4F4F4" d="M206.44,599.06c-0.834-0.063-1.543-0.549-1.58-1.064c-0.188-2.62-0.1-3.907-0.1-6.508
				c0-0.516,0.674-0.932,1.51-0.932c0,0,1.416,0.188,2.246,0.188s2.155-0.188,2.155-0.188c1.24,0,2.104,0.416,2.076,0.932
				c-0.147,2.602-0.239,3.902-0.239,6.504c0,0.512-0.707,0.902-1.416,1C209.391,599.224,208.445,599.209,206.44,599.06z"/>
			<g>
				<path fill="#B7B7B7" d="M204.86,597.994c-0.188-2.62-0.1-3.907-0.1-6.508c0-0.516,0.674-0.932,1.51-0.932
					c0,0,0.119,2.748,0.119,4.408c0,1.786,0.051,4.096,0.051,4.096C205.606,598.996,204.897,598.511,204.86,597.994z"/>
			</g>
			<g>
				<path fill="#999999" d="M212.508,597.99c0-2.602,0.092-3.903,0.239-6.504c0.027-0.516-0.643-0.932-1.473-0.932
					c-0.244,0-0.367,0-0.613,0c-0.396,1.221-0.643,2.746-0.643,4.406c-0.002,1.797,0.6,3.01-0.355,4.17
					c0.646,0.004,0.879-0.064,1.429-0.143C211.801,598.894,212.508,598.502,212.508,597.99z"/>
			</g>
		</g>
		<g>
			<path fill="#F4F4F4" d="M206.981,578.95c-0.254,0.852-0.494,1.449-0.494,1.449c1.797-0.172,2.65-0.273,4.168,0
				c-0.092-0.521-0.176-1.004-0.25-1.479C209.104,578.65,208.486,578.855,206.981,578.95z"/>
			<path fill="#B7B7B7" d="M205.046,579.198c0.037,0.746,0.64,1.277,1.438,1.201c0,0,0.24-0.602,0.494-1.449
				C206.206,578.999,205.82,579.13,205.046,579.198z"/>
			<path fill="#999999" d="M209.419,580.296c0.716-0.006,1.037,0.072,1.673,0.186c0.68,0.119,1.354-0.506,1.405-1.26
				c-0.926,0-1.295-0.129-2.096-0.299C210.404,579.347,210.07,580.292,209.419,580.296z"/>
		</g>
		<g>
			<path fill="#F4F4F4" d="M206.434,581.159c-0.834,0.063-1.541,0.545-1.578,1.063c-0.187,2.615-0.096,3.906-0.096,6.508
				c0,0.514,0.674,0.928,1.51,0.928c0,0,1.521-0.17,2.436-0.17c0.912,0,1.967,0.17,1.967,0.17c0.832,0,2.109-0.414,2.08-0.928
				c-0.145-2.602-0.243-3.902-0.243-6.502c0-0.514-0.707-0.904-1.416-0.998C209.391,580.999,208.44,581.013,206.434,581.159z"/>
			<g>
				<path fill="#B7B7B7" d="M204.856,582.222c-0.187,2.615-0.096,3.906-0.096,6.508c0,0.514,0.674,0.928,1.51,0.928
					c0,0,0.119-2.744,0.119-4.406c0-1.785,0.045-4.09,0.045-4.09C205.6,581.222,204.893,581.704,204.856,582.222z"/>
			</g>
			<g>
				<path fill="#999999" d="M212.508,582.228c0,2.6,0.1,3.9,0.243,6.502c0.027,0.514-0.643,0.928-1.475,0.928
					c-0.244,0-0.367,0-0.613,0c-0.396-1.219-0.643-2.746-0.645-4.406c-0.002-1.795,0.334-3.199-0.566-4.164
					c0.711,0,1.019,0.061,1.64,0.145C211.801,581.322,212.508,581.714,212.508,582.228z"/>
			</g>
		</g>
	</g>
	<g>
		<path fill="#939393" d="M204.215,546.759v14.455c0,0.314,0.254,0.566,0.565,0.566h8.219c0.313,0,0.566-0.254,0.566-0.566v-7.229
			v-7.229c0-0.313-0.254-0.566-0.566-0.566h-8.217C204.469,546.193,204.215,546.445,204.215,546.759z M212.904,547.064
			c0.305,0,0.553,0.248,0.553,0.551v6.373v6.373c0,0.305-0.248,0.553-0.553,0.553h-8.025c-0.305,0-0.553-0.248-0.553-0.553v-12.746
			c0-0.303,0.248-0.551,0.553-0.551H212.904z"/>
		<path fill="#B2B2B2" d="M204.327,547.613v6.373v6.373c0,0.305,0.248,0.553,0.551,0.553h8.025c0.305,0,0.553-0.248,0.553-0.553
			v-6.373v-6.373c0-0.305-0.248-0.553-0.553-0.553h-8.025C204.575,547.064,204.327,547.312,204.327,547.613z"/>
		<path fill="#E6E6E6" d="M204.415,548.861v5.127v5.129c0,0.279,0.229,0.51,0.511,0.51h7.618c0.281,0,0.511-0.229,0.511-0.51v-3.98
			c-0.095,0.107-0.23,0.186-0.396,0.186h-6.867c-0.28,0-0.51-0.209-0.51-0.465v-0.867v-2.475c0-0.256,0.229-0.465,0.51-0.465h6.865
			c0.164,0,0.303,0.076,0.396,0.186v-2.375c0-0.279-0.229-0.51-0.511-0.51h-7.62C204.645,548.351,204.415,548.577,204.415,548.861z"
			/>
		<path opacity="0.9" fill="#FFFFFF" enable-background="new    " d="M212.331,556.427c0.299,0,0.543-0.197,0.543-0.441v2.174
			c0,0.244-0.244,0.443-0.543,0.443h-7.276c-0.3,0-0.541-0.199-0.541-0.443v-2.174c0,0.244,0.241,0.441,0.541,0.441H212.331z"/>
	</g>
	<rect x="211.981" y="546.2" fill="none" width="1.547" height="15.549"/>
	<rect x="211.981" y="578.907" opacity="0.1" enable-background="new    " width="1.547" height="22.592"/>
	<path fill="#353535" d="M348.743,601.211v-0.059c0,0.098-0.008,0.193-0.012,0.293C348.736,601.367,348.743,601.291,348.743,601.211
		z"/>
	<path fill="#353535" d="M348.719,601.771c0,0.021-0.005,0.041-0.007,0.063C348.714,601.812,348.719,601.791,348.719,601.771z"/>
	<path opacity="0.35" enable-background="new    " d="M348.733,601.445c-0.004,0.107-0.004,0.219-0.014,0.326
		C348.727,601.664,348.729,601.554,348.733,601.445z"/>
	<path fill="#353535" d="M345.122,536.155c0.896,0.605,1.566,2.843,1.566,5.497v59.5c0,3.117-0.924,5.666-2.053,5.666h0.125
		c2.075-0.359,3.721-2.42,3.95-4.986c0.002-0.02,0.005-0.041,0.007-0.061c0.008-0.107,0.01-0.219,0.014-0.326
		c0.002-0.098,0.01-0.193,0.01-0.293v-59.469C348.743,538.988,347.188,536.724,345.122,536.155z"/>
	<path opacity="0.35" enable-background="new    " d="M345.122,536.155c0.896,0.605,1.566,2.843,1.566,5.497v59.5
		c0,3.117-0.924,5.666-2.053,5.666h0.125c2.075-0.359,3.721-2.42,3.95-4.986c0.002-0.02,0.005-0.041,0.007-0.061
		c0.008-0.107,0.01-0.219,0.014-0.326c0.002-0.098,0.01-0.193,0.01-0.293v-59.469C348.743,538.988,347.188,536.724,345.122,536.155z
		"/>
	<g>
		<g>
			<path fill="#353535" d="M212.669,540.552c0-1.986,1.703-4.537,3.783-4.537h127.662c2.545,0,4.627,2.551,4.627,5.67v59.526
				c0,3.119-2.082,5.67-4.627,5.67h-127.66c-2.082,0-3.783-2.551-3.783-6.803v-59.526H212.669z"/>
			<path fill="#D18D52" d="M246.266,536.015v70.866h-29.812c-2.08,0-3.783-2.551-3.783-6.803v-59.526
				c0-1.986,1.703-4.537,3.783-4.537H246.266z"/>
		</g>
		<path opacity="0.15" fill="#FFFFFF" enable-background="new    " d="M344.639,537.279c0.573,0,1.065,1.594,1.235,3.783H214.762
			c0.139-2.189,0.541-3.783,1.012-3.783H344.639z"/>
		<path opacity="0.15" fill="#FFFFFF" enable-background="new    " d="M344.639,605.738c0.573,0,1.065-1.594,1.235-3.783H214.762
			c0.139,2.189,0.541,3.783,1.012,3.783H344.639z"/>
		<path opacity="0.35" fill="#FFFFFF" enable-background="new    " d="M215.762,605.738c-0.586,0-1.064-2.465-1.064-5.479v-57.508
			c0-3.014,0.479-5.476,1.064-5.476h-0.218c-1.053,0-1.914,2.462-1.914,5.476v57.51c0,3.014,0.861,5.477,1.914,5.477H215.762
			L215.762,605.738z"/>
		<g opacity="0.2">
			<path d="M215.393,537.279c0,0,128.895,0,130.528,0c-0.297-0.629-0.297-0.629-0.646-1c-0.625,0-126.219,0-126.68,0
				C217.531,536.279,216.034,536.986,215.393,537.279z"/>
		</g>
		<g opacity="0.2">
			<path d="M215.393,605.738c0,0,128.895,0,130.528,0c-0.297,0.627-0.297,0.627-0.646,1c-0.625,0-126.219,0-126.68,0
				C217.531,606.738,216.034,606.029,215.393,605.738z"/>
		</g>
	</g>
	<path fill="none" stroke="#000000" stroke-width="3" d="M201.286,539.167c0-14.468,13.25-13.854,13.25-27.556v-6.068"/>
	<path fill="none" stroke="#FF0000" stroke-width="3" d="M201.288,539.167c0-17.259,6.035-16.103,6.035-27.556c0,0,0-1.82,0-6.068"
		/>
	<g>
		<path fill="#919191" d="M211.268,564.314c0.018-0.385-0.672-1.127-0.672-1.127s0.741-0.365,0.791-1.012
			c0.217-2.889,0.118-4.328,0.118-7.215c0-0.391,0.015-0.813-0.489-0.996c0.504-0.182,0.489-0.604,0.489-0.992
			c0-2.945,0.087-4.412-0.137-7.359c-0.055-0.715-0.791-1.018-0.791-1.018s0.719-0.424,0.699-0.855
			c-0.01-0.518,0.029-1.006-0.418-1.045c-1.734-0.152-2.527-0.295-4.084-0.371c-1.322-0.063-1.9,0.391-3.377,0.391
			c-1.019,0-2.17,0.904-2.17,1.676c0,2.715,0.063,4.072-0.144,6.789c-0.092,1.205,0.142,2.449,1.229,2.785
			c-1.088,0.336-1.322,1.584-1.232,2.791c0.205,2.715,0.146,4.072,0.146,6.787c0,0.77,1.233,1.539,2.17,1.539
			c0,0,2.106,0.684,3.676,0.574c1.568-0.109,3.803-0.557,3.803-0.557C211.516,565.044,211.26,564.495,211.268,564.314z"/>
		<g>
			<path fill="#F4F4F4" d="M208.936,542.808c0.252,0.85,0.492,1.445,0.492,1.445c-1.798-0.176-2.646-0.275-4.164,0
				c0.092-0.52,0.176-1.006,0.25-1.477C206.815,542.499,207.43,542.71,208.936,542.808z"/>
			<path fill="#B7B7B7" d="M210.868,543.058c-0.039,0.748-0.643,1.271-1.44,1.195c0,0-0.24-0.6-0.492-1.445
				C209.708,542.859,210.096,542.988,210.868,543.058z"/>
			<path fill="#999999" d="M206.167,544.152c-0.6,0.016-0.821,0.094-1.342,0.188c-0.68,0.121-1.354-0.504-1.406-1.258
				c0.927,0,1.296-0.131,2.095-0.303C205.514,543.335,205.624,544.161,206.167,544.152z"/>
		</g>
		<g>
			<path fill="#F4F4F4" d="M209.479,545.015c0.834,0.063,1.543,0.549,1.58,1.063c0.188,2.619,0.102,3.906,0.102,6.508
				c0,0.518-0.676,0.934-1.512,0.934c0,0-1.416-0.188-2.246-0.188c-0.828,0-2.156,0.188-2.156,0.188
				c-1.237,0-2.104-0.416-2.073-0.934c0.146-2.602,0.239-3.9,0.239-6.502c0-0.514,0.707-0.902,1.416-1.002
				C206.527,544.851,207.473,544.863,209.479,545.015z"/>
			<g>
				<path fill="#B7B7B7" d="M211.059,546.077c0.188,2.619,0.102,3.906,0.102,6.508c0,0.518-0.676,0.934-1.512,0.934
					c0,0-0.119-2.748-0.119-4.408c0-1.787-0.051-4.096-0.051-4.096C210.313,545.075,211.022,545.564,211.059,546.077z"/>
			</g>
			<g>
				<path fill="#999999" d="M203.411,546.083c0,2.602-0.094,3.9-0.24,6.502c-0.028,0.518,0.642,0.934,1.472,0.934
					c0.246,0,0.369,0,0.612,0c0.396-1.221,0.644-2.746,0.644-4.406c0.002-1.797-0.598-3.01,0.354-4.172
					c-0.645-0.002-0.879,0.068-1.426,0.145C204.118,545.181,203.411,545.57,203.411,546.083z"/>
			</g>
		</g>
		<g>
			<path fill="#F4F4F4" d="M208.938,565.122c0.254-0.852,0.494-1.449,0.494-1.449c-1.797,0.172-2.648,0.271-4.168,0
				c0.092,0.521,0.176,1.004,0.25,1.477C206.815,565.425,207.432,565.22,208.938,565.122z"/>
			<path fill="#B7B7B7" d="M210.872,564.874c-0.037-0.748-0.641-1.277-1.438-1.201c0,0-0.24,0.6-0.494,1.449
				C209.71,565.072,210.098,564.945,210.872,564.874z"/>
			<path fill="#999999" d="M206.497,563.777c-0.715,0.006-1.037-0.072-1.672-0.184c-0.68-0.119-1.354,0.506-1.406,1.26
				c0.927,0,1.296,0.129,2.095,0.297C205.514,564.728,205.848,563.781,206.497,563.777z"/>
		</g>
		<g>
			<path fill="#F4F4F4" d="M209.485,562.913c0.834-0.063,1.541-0.547,1.578-1.063c0.188-2.617,0.098-3.906,0.098-6.508
				c0-0.516-0.676-0.928-1.512-0.928c0,0-1.521,0.168-2.434,0.168c-0.914,0-1.97-0.168-1.97-0.168c-0.832,0-2.106,0.412-2.08,0.928
				c0.146,2.602,0.244,3.9,0.244,6.502c0,0.514,0.707,0.902,1.416,0.998C206.527,563.073,207.479,563.062,209.485,562.913z"/>
			<g>
				<path fill="#B7B7B7" d="M211.063,561.853c0.188-2.617,0.098-3.906,0.098-6.508c0-0.516-0.676-0.928-1.512-0.928
					c0,0-0.119,2.744-0.119,4.404c0,1.787-0.045,4.092-0.045,4.092C210.319,562.853,211.026,562.366,211.063,561.853z"/>
			</g>
			<g>
				<path fill="#999999" d="M203.411,561.847c0-2.602-0.102-3.9-0.244-6.502c-0.028-0.516,0.642-0.928,1.474-0.928
					c0.246,0,0.369,0,0.614,0c0.396,1.219,0.642,2.744,0.644,4.404c0.002,1.797-0.334,3.201,0.568,4.164
					c-0.712,0.002-1.021-0.059-1.64-0.143C204.118,562.749,203.411,562.361,203.411,561.847z"/>
			</g>
		</g>
	</g>
	<path fill="#262626" d="M203.788,539.128c0,0-3.563,0-4.479,0c-1.699,0-2.437,1.166-2.437,6.258v52.143
		c0,5.09,0.736,6.256,2.437,6.256c0.918,0,4.479,0,4.479,0V539.128z"/>
	<path opacity="0.35" fill="#FFFFFF" enable-background="new    " d="M197.438,544.113c0-3.607,0.861-4.256,1.914-4.256h0.217
		c-0.586,0-1.064,1.447-1.064,4.256v54.688c0,2.811,0.479,4.256,1.064,4.256h-0.217c-1.053,0-1.914-0.646-1.914-4.256V544.113z"/>
	<path opacity="0.15" fill="#FFFFFF" enable-background="new    " d="M198.688,601.295c0.188,1.152,0.51,1.762,0.881,1.762h3.818
		v-1.762H198.688z"/>
	<path opacity="0.15" fill="#FFFFFF" enable-background="new    " d="M198.688,541.616c0.188-1.148,0.51-1.76,0.881-1.76h3.818v1.76
		H198.688z"/>
	<g>
		
			<text transform="matrix(-4.371139e-008 -1 1 -4.371139e-008 272.8069 584.2395)" fill="#FFFFFF" font-family="'DroidSans'" font-size="22">9</text>
		
			<text transform="matrix(-4.371139e-008 -1 1 -4.371139e-008 272.8088 570.302)" fill="#FFFFFF" font-family="'DroidSans'" font-size="22">v</text>
	</g>
</g>
<rect id="connector0pin_2_" x="214.886" y="498.25" transform="matrix(-0.8735 -0.4869 0.4869 -0.8735 160.6607 1047.0941)" fill="#8C8C8C" width="2.996" height="8.843"/>
<rect id="connector1pin_2_" x="204.03" y="497.243" transform="matrix(-0.9069 0.4214 -0.4214 -0.9069 603.3883 870.353)" fill="#8C8C8C" width="3" height="9.202"/>
</svg>
