<?xml version="1.0" encoding="utf-8"?>
<!-- Generator: Adobe Illustrator 16.0.0, SVG Export Plug-In . SVG Version: 6.00 Build 0)  -->
<!DOCTYPE svg PUBLIC "-//W3C//DTD SVG 1.1//EN" "http://www.w3.org/Graphics/SVG/1.1/DTD/svg11.dtd">
<svg version="1.1" id="Layer_1" xmlns="http://www.w3.org/2000/svg" xmlns:xlink="http://www.w3.org/1999/xlink" x="0px" y="0px"
	 width="129.6px" height="345.992px" viewBox="-64.8 -173.139 129.6 345.992" enable-background="new -64.8 -173.139 129.6 345.992"
	 xml:space="preserve">
<desc>Fritzing breadboard generated by brd2svg</desc>
<g id="breadboard">
	<g id="icon">
		<path fill="#C62717" d="M50.4-172.745H-50.399c-7.954,0-14.4,6.447-14.4,14.4v77.847h43.336c0.634-3.328,3.55-5.848,7.064-5.848
			H14.4c3.514,0,6.43,2.52,7.064,5.848H64.8v-77.849C64.8-166.3,58.355-172.745,50.4-172.745z M-41.04-158.347
			c0,5.17-4.188,9.361-9.357,9.361c-5.168,0-9.36-4.189-9.362-9.357c0,0,0-0.002,0-0.004c-0.002-5.168,4.188-9.361,9.355-9.363
			c5.171-0.002,9.362,4.189,9.364,9.359C-41.04-158.351-41.04-158.349-41.04-158.347z M-20.966-149.04
			c-1.878,0-3.402-1.523-3.402-3.4c0-1.879,1.522-3.402,3.402-3.402s3.402,1.521,3.402,3.402
			C-17.563-150.562-19.086-149.04-20.966-149.04z M-0.114-149.04c-1.878,0-3.401-1.523-3.401-3.4c0-1.879,1.521-3.402,3.401-3.402
			s3.403,1.521,3.403,3.402C3.289-150.562,1.766-149.04-0.114-149.04z M20.736-149.04c-1.877,0-3.4-1.523-3.4-3.4
			c0-1.879,1.523-3.402,3.4-3.402s3.4,1.521,3.4,3.402C24.136-150.562,22.617-149.04,20.736-149.04z M50.4-148.986
			c-5.17,0-9.361-4.189-9.361-9.359c0-5.168,4.191-9.361,9.361-9.361s9.361,4.191,9.361,9.361
			C59.761-153.177,55.57-148.986,50.4-148.986z"/>
		<g>
			<title>layer 21</title>
			<g>
				<title>text:GND</title>
				<text transform="matrix(1 0 0 1 -6.1133 -161.0662)" fill="#FFFFFF" font-family="'OCRA'" font-size="5.3452"> +</text>
			</g>
			<g>
				<title>text:SIG</title>
				<text transform="matrix(1 0 0 1 15.0391 -160.9216)" fill="#FFFFFF" font-family="'OCRA'" font-size="5.3452"> -</text>
			</g>
			<g>
				<title>text:VCC</title>
				<text transform="matrix(1 0 0 1 -27.1299 -161.0662)" fill="#FFFFFF" font-family="'OCRA'" font-size="5.3452"> S</text>
			</g>
			<g>
				<title>text:Soil Moisture Sensor</title>
				<text transform="matrix(1 0 0 1 -59.0396 -89.947)" fill="#FFFFFF" font-family="'OCRA'" font-size="8.352">Soil Moisture Sensor</text>
			</g>
			<g>
				<title>element:FID1</title>
				<g>
					<title>package:FIDUCIAL-1X2</title>
				</g>
			</g>
			<g>
				<title>element:FID2</title>
				<g>
					<title>package:FIDUCIAL-1X2</title>
				</g>
			</g>
			<g>
				<title>element:JP2</title>
				<g>
					<title>package:SCREWTERMINAL-3.5MM-3_LOCK.007S</title>
					
						<line fill="none" stroke="#FFFFFF" stroke-width="0.576" stroke-linecap="round" x1="32.769" y1="-133.165" x2="-32.996" y2="-133.165"/>
					
						<line fill="none" stroke="#FFFFFF" stroke-width="0.576" stroke-linecap="round" x1="-32.996" y1="-133.165" x2="-32.996" y2="-168.316"/>
					
						<line fill="none" stroke="#FFFFFF" stroke-width="0.576" stroke-linecap="round" x1="-32.996" y1="-168.316" x2="-32.996" y2="-172.851"/>
					
						<line fill="none" stroke="#FFFFFF" stroke-width="0.576" stroke-linecap="round" x1="-32.996" y1="-172.851" x2="32.769" y2="-172.851"/>
					
						<line fill="none" stroke="#FFFFFF" stroke-width="0.576" stroke-linecap="round" x1="32.769" y1="-172.851" x2="32.769" y2="-168.316"/>
					
						<line fill="none" stroke="#FFFFFF" stroke-width="0.576" stroke-linecap="round" x1="32.769" y1="-168.316" x2="32.769" y2="-133.165"/>
					
						<line fill="none" stroke="#FFFFFF" stroke-width="0.576" stroke-linecap="round" x1="-32.996" y1="-168.316" x2="32.769" y2="-168.316"/>
				</g>
			</g>
			<g>
				<title>element:LOGO1</title>
				<g>
					<title>package:SFE_LOGO_NAME_FLAME_.1</title>
				</g>
			</g>
			<g>
				<title>element:LOGO2</title>
				<g>
					<title>package:OSHW-LOGO-S</title>
				</g>
			</g>
			<g>
				<title>element:STANDOFF1</title>
				<g>
					<title>package:STAND-OFF</title>
				</g>
			</g>
			<g>
				<title>element:STANDOFF2</title>
				<g>
					<title>package:STAND-OFF</title>
				</g>
			</g>
		</g>
		<rect x="-7.936" y="-111.915" fill="#333333" width="15.873" height="4.535"/>
		<circle id="connector5pin" fill="none" stroke="#9A916C" stroke-width="1.1792" cx="20.736" cy="-152.441" r="4.58"/>
		<circle id="connector6pin" fill="none" stroke="#9A916C" stroke-width="1.1792" cx="-0.114" cy="-152.441" r="4.58"/>
		<circle id="connector7pin" fill="none" stroke="#9A916C" stroke-width="1.1792" cx="-20.966" cy="-152.441" r="4.58"/>
		<g>
			<path fill="#D2D2D2" d="M-64.8-80.5v210.151l14.4,43.201H-36l14.4-43.201v-208.8c0-0.461,0.052-0.914,0.136-1.352H-64.8z"/>
			<path fill="#D2D2D2" d="M21.464-80.5c0.082,0.439,0.137,0.891,0.137,1.352v208.8l14.396,43.201h14.4l14.398-43.201V-80.5H21.464z
				"/>
		</g>
		<g>
			<g>
				<circle fill="#F0F0F0" cx="-43.464" cy="157.023" r="2"/>
			</g>
			<g>
				<circle fill="#F0F0F0" cx="-58.5" cy="100.329" r="2"/>
				<circle fill="#F0F0F0" cx="-43.464" cy="100.329" r="2"/>
				<circle fill="#F0F0F0" cx="-28.5" cy="100.329" r="2"/>
			</g>
			<g>
				<circle fill="#F0F0F0" cx="-58.5" cy="43.638" r="2"/>
				<circle fill="#F0F0F0" cx="-43.464" cy="43.638" r="2"/>
				<circle fill="#F0F0F0" cx="-28.5" cy="43.638" r="2"/>
			</g>
			<g>
				<circle fill="#F0F0F0" cx="-58.5" cy="-13.056" r="2"/>
				<circle fill="#F0F0F0" cx="-43.464" cy="-13.056" r="2"/>
				<circle fill="#F0F0F0" cx="-28.5" cy="-13.056" r="2"/>
			</g>
			<g>
				<circle fill="#F0F0F0" cx="-58.5" cy="-69.75" r="2"/>
				<circle fill="#F0F0F0" cx="-43.464" cy="-69.75" r="2"/>
				<circle fill="#F0F0F0" cx="-28.5" cy="-69.75" r="2"/>
			</g>
		</g>
		<g>
			<g>
				<circle fill="#F0F0F0" cx="-50.945" cy="128.079" r="2"/>
				<circle fill="#F0F0F0" cx="-35.981" cy="128.079" r="2"/>
			</g>
			<g>
				<circle fill="#F0F0F0" cx="-50.945" cy="71.388" r="2"/>
				<circle fill="#F0F0F0" cx="-35.981" cy="71.388" r="2"/>
			</g>
			<g>
				<circle fill="#F0F0F0" cx="-50.945" cy="14.693" r="2"/>
				<circle fill="#F0F0F0" cx="-35.981" cy="14.693" r="2"/>
			</g>
			<g>
				<circle fill="#F0F0F0" cx="-50.945" cy="-42" r="2"/>
				<circle fill="#F0F0F0" cx="-35.981" cy="-42" r="2"/>
			</g>
		</g>
		<g>
			<g>
				<circle fill="#F0F0F0" cx="43.167" cy="157.023" r="2"/>
			</g>
			<g>
				<circle fill="#F0F0F0" cx="28.132" cy="100.329" r="2"/>
				<circle fill="#F0F0F0" cx="43.167" cy="100.329" r="2"/>
				<circle fill="#F0F0F0" cx="58.132" cy="100.329" r="2"/>
			</g>
			<g>
				<circle fill="#F0F0F0" cx="28.132" cy="43.638" r="2"/>
				<circle fill="#F0F0F0" cx="43.167" cy="43.638" r="2"/>
				<circle fill="#F0F0F0" cx="58.132" cy="43.638" r="2"/>
			</g>
			<g>
				<circle fill="#F0F0F0" cx="28.132" cy="-13.056" r="2"/>
				<circle fill="#F0F0F0" cx="43.167" cy="-13.056" r="2"/>
				<circle fill="#F0F0F0" cx="58.132" cy="-13.056" r="2"/>
			</g>
			<g>
				<circle fill="#F0F0F0" cx="28.132" cy="-69.75" r="2"/>
				<circle fill="#F0F0F0" cx="43.167" cy="-69.75" r="2"/>
				<circle fill="#F0F0F0" cx="58.132" cy="-69.75" r="2"/>
			</g>
		</g>
		<g>
			<g>
				<circle fill="#F0F0F0" cx="35.687" cy="128.079" r="2"/>
				<circle fill="#F0F0F0" cx="50.65" cy="128.079" r="2"/>
			</g>
			<g>
				<circle fill="#F0F0F0" cx="35.687" cy="71.388" r="2"/>
				<circle fill="#F0F0F0" cx="50.65" cy="71.388" r="2"/>
			</g>
			<g>
				<circle fill="#F0F0F0" cx="35.687" cy="14.693" r="2"/>
				<circle fill="#F0F0F0" cx="50.65" cy="14.693" r="2"/>
			</g>
			<g>
				<circle fill="#F0F0F0" cx="35.687" cy="-42" r="2"/>
				<circle fill="#F0F0F0" cx="50.65" cy="-42" r="2"/>
			</g>
		</g>
	</g>
</g>
</svg>
