<?xml version="1.0" encoding="utf-8"?>
<!-- Generator: Adobe Illustrator 16.0.0, SVG Export Plug-In . SVG Version: 6.00 Build 0)  -->
<!DOCTYPE svg PUBLIC "-//W3C//DTD SVG 1.1//EN" "http://www.w3.org/Graphics/SVG/1.1/DTD/svg11.dtd">
<svg version="1.1" id="svg2" xmlns="http://www.w3.org/2000/svg" xmlns:xlink="http://www.w3.org/1999/xlink" x="0px" y="0px"
	 width="198px" height="198px" viewBox="-49.5 -99 198 198" enable-background="new -49.5 -99 198 198" xml:space="preserve">
<desc>
	<referenceFile>TCS3200-Sensor-v10_breadboard.svg</referenceFile>
</desc>
<desc  id="desc4">Fritzing breadboard generated by brd2svg</desc>
<g transform="translate(-0.3750681,-0.075)">
	<g>
		<g>
			<g>
				<g id="g606">
					<title  id="title608">element:R1</title>
					<g id="g610">
						<title  id="title612">package:0402-RES</title>
					</g>
				</g>
			</g>
		</g>
	</g>
</g>
<g transform="translate(-0.3750681,-0.075)">
	<g>
		<g>
			<g>
				<g id="g614">
					<title  id="title616">element:R3</title>
					<g id="g618">
						<title  id="title620">package:0402-RES</title>
					</g>
				</g>
			</g>
		</g>
	</g>
</g>
<g transform="translate(-0.3750681,-0.075)">
	<g>
		<g>
			<g>
				<g id="g622">
					<title  id="title624">element:R4</title>
					<g id="g626">
						<title  id="title628">package:0402-RES</title>
					</g>
				</g>
			</g>
		</g>
	</g>
</g>
<g transform="translate(-0.3750681,-0.075)">
	<g>
		<g>
			<g>
				<g id="g630">
					<title  id="title632">element:R11</title>
					<g id="g634">
						<title  id="title636">package:0402-RES</title>
					</g>
				</g>
			</g>
		</g>
	</g>
</g>
<g transform="translate(-0.3750681,-0.075)">
	<g>
		<g>
			<g>
				<g id="g672">
					<title  id="title674">element:U$4</title>
					<g id="g676">
						<title  id="title678">package:SFE-NEW-WEBLOGO</title>
					</g>
				</g>
			</g>
		</g>
	</g>
</g>
<g transform="translate(-0.3750681,-0.075)">
	<g>
		<g>
			<g>
				<g id="g680">
					<title  id="title682">element:U$5</title>
					<g id="g684">
						<title  id="title686">package:STAND-OFF</title>
					</g>
				</g>
			</g>
		</g>
	</g>
</g>
<g transform="translate(-0.3750681,-0.075)">
	<g>
		<g>
			<g>
				<g id="g688">
					<title  id="title690">element:U$7</title>
					<g id="g692">
						<title  id="title694">package:FIDUCIAL-1X2</title>
					</g>
				</g>
			</g>
		</g>
	</g>
</g>
<g transform="translate(-0.3750681,-0.075)">
	<g>
		<g>
			<g>
				<g id="g696">
					<title  id="title698">element:U$9</title>
					<g id="g700">
						<title  id="title702">package:STAND-OFF</title>
					</g>
				</g>
			</g>
		</g>
	</g>
</g>
<g transform="translate(-0.3750681,-0.075)">
	<g>
		<g>
			<g>
				<g id="g704">
					<title  id="title706">element:U$10</title>
					<g id="g708">
						<title  id="title710">package:STAND-OFF</title>
					</g>
				</g>
			</g>
		</g>
	</g>
</g>
<g transform="translate(-0.3750681,-0.075)">
	<g>
		<g>
			<g>
				<g id="g712">
					<title  id="title714">element:U$11</title>
					<g id="g716">
						<title  id="title718">package:STAND-OFF</title>
					</g>
				</g>
			</g>
		</g>
	</g>
</g>
<g transform="translate(-0.3750681,-0.075)">
	<g>
		<g>
			<g>
				<g id="g720">
					<title  id="title722">element:U$16</title>
					<g id="g724">
						<title  id="title726">package:FIDUCIAL-1X2</title>
					</g>
				</g>
			</g>
		</g>
	</g>
</g>
<path id="path8" fill="#C62717" d="M-49.5-99V99h74.563h85.375H148.5V-99h-38.063H25.063H-49.5z M-31.188-92.75
	c6.354,0.177,11.404,5.394,11.375,11.75c0,6.472-5.247,11.719-11.719,11.719c-6.473,0-11.719-5.247-11.719-11.719
	c-0.009-6.147,4.742-11.254,10.875-11.688C-31.98-92.729-31.584-92.749-31.188-92.75z M129.625-92.75
	c0.188-0.005,0.375-0.005,0.563,0c0.396,0.001,0.793,0.021,1.188,0.063c6.133,0.434,10.883,5.54,10.875,11.688
	c-0.004,6.472-5.252,11.717-11.723,11.714c-6.469-0.003-11.711-5.246-11.715-11.714C118.77-87.149,123.492-92.284,129.625-92.75z
	 M137.875-40.188c2.215,0,4,1.786,4,4s-1.785,4-4,4s-4-1.786-4-4S135.66-40.188,137.875-40.188z M-39.813-40.063
	c2.214,0,4,1.786,4,4s-1.786,4-4,4s-4-1.786-4-4S-42.026-40.063-39.813-40.063z M137.875-22.188c2.215,0,4,1.786,4,4s-1.785,4-4,4
	s-4-1.786-4-4S135.66-22.188,137.875-22.188z M-39.813-22c2.214,0,4,1.786,4,4s-1.786,4-4,4s-4-1.786-4-4S-42.026-22-39.813-22z
	 M137.875-4.188c2.215,0,4,1.786,4,4c0,2.215-1.785,4-4,4s-4-1.785-4-4C133.875-2.401,135.66-4.188,137.875-4.188z M-39.813-4
	c2.214,0,4,1.786,4,4c0,2.215-1.786,4-4,4s-4-1.785-4-4C-43.813-2.214-42.026-4-39.813-4z M137.875,13.813c2.215,0,4,1.785,4,4
	s-1.785,4-4,4s-4-1.785-4-4S135.66,13.813,137.875,13.813z M-39.813,14c2.214,0,4,1.785,4,4s-1.786,4-4,4s-4-1.785-4-4
	S-42.026,14-39.813,14z M137.875,31.813c2.215,0,4,1.785,4,4s-1.785,4-4,4s-4-1.785-4-4S135.66,31.813,137.875,31.813z
	 M-39.813,32.063c2.214,0,4,1.785,4,4s-1.786,4-4,4s-4-1.785-4-4S-42.026,32.063-39.813,32.063z M-31.188,69.25
	c6.354,0.176,11.404,5.395,11.375,11.75c0,6.473-5.247,11.719-11.719,11.719c-6.473,0-11.719-5.246-11.719-11.719
	c-0.009-6.148,4.742-11.254,10.875-11.688C-31.98,69.271-31.584,69.25-31.188,69.25z M129.625,69.25
	c0.188-0.004,0.375-0.004,0.563,0c0.396,0,0.793,0.021,1.188,0.063c6.133,0.434,10.883,5.539,10.875,11.688
	c-0.004,6.473-5.252,11.717-11.723,11.715c-6.469-0.004-11.711-5.246-11.715-11.715C118.77,74.852,123.492,69.715,129.625,69.25z"/>
<g transform="translate(-24.24811,11.372533)">
	<g>
		<g>
			<g>
				<g id="g8988">
					<g transform="matrix(0,-0.9997812,0.99479488,0,-25.60253,49.822925)">
						<g>
							<g>
								<g>
									<g id="g3035">
										<title  id="title3037">element:JP1</title>
										<g id="g3039">
											<title  id="title3041">package:1X07</title>
											
												<line id="line3067" fill="none" stroke="#FFFFFF" stroke-width="0.576" stroke-linecap="round" x1="74.709" y1="1.074" x2="83.709" y2="1.074"/>
											
												<line id="line3069" fill="none" stroke="#FFFFFF" stroke-width="0.576" stroke-linecap="round" x1="83.709" y1="1.074" x2="88.209" y2="5.574"/>
											
												<line id="line3071" fill="none" stroke="#FFFFFF" stroke-width="0.576" stroke-linecap="round" x1="88.209" y1="14.574" x2="83.709" y2="19.074"/>
											
												<line id="line3073" fill="none" stroke="#FFFFFF" stroke-width="0.576" stroke-linecap="round" x1="88.209" y1="5.574" x2="92.709" y2="1.074"/>
											
												<line id="line3075" fill="none" stroke="#FFFFFF" stroke-width="0.576" stroke-linecap="round" x1="92.709" y1="1.074" x2="101.709" y2="1.074"/>
											
												<line id="line3077" fill="none" stroke="#FFFFFF" stroke-width="0.576" stroke-linecap="round" x1="101.709" y1="1.074" x2="106.209" y2="5.574"/>
											
												<line id="line3079" fill="none" stroke="#FFFFFF" stroke-width="0.576" stroke-linecap="round" x1="106.209" y1="14.574" x2="101.709" y2="19.074"/>
											
												<line id="line3081" fill="none" stroke="#FFFFFF" stroke-width="0.576" stroke-linecap="round" x1="101.709" y1="19.074" x2="92.709" y2="19.074"/>
											
												<line id="line3083" fill="none" stroke="#FFFFFF" stroke-width="0.576" stroke-linecap="round" x1="92.709" y1="19.074" x2="88.209" y2="14.574"/>
											
												<line id="line3085" fill="none" stroke="#FFFFFF" stroke-width="0.576" stroke-linecap="round" x1="52.209" y1="5.574" x2="56.708" y2="1.074"/>
											
												<line id="line3087" fill="none" stroke="#FFFFFF" stroke-width="0.576" stroke-linecap="round" x1="56.708" y1="1.074" x2="65.709" y2="1.074"/>
											
												<line id="line3089" fill="none" stroke="#FFFFFF" stroke-width="0.576" stroke-linecap="round" x1="65.709" y1="1.074" x2="70.209" y2="5.574"/>
											
												<line id="line3091" fill="none" stroke="#FFFFFF" stroke-width="0.576" stroke-linecap="round" x1="70.209" y1="14.574" x2="65.709" y2="19.074"/>
											
												<line id="line3093" fill="none" stroke="#FFFFFF" stroke-width="0.576" stroke-linecap="round" x1="65.709" y1="19.074" x2="56.708" y2="19.074"/>
											
												<line id="line3095" fill="none" stroke="#FFFFFF" stroke-width="0.576" stroke-linecap="round" x1="56.708" y1="19.074" x2="52.209" y2="14.574"/>
											
												<line id="line3097" fill="none" stroke="#FFFFFF" stroke-width="0.576" stroke-linecap="round" x1="74.709" y1="1.074" x2="70.209" y2="5.574"/>
											
												<line id="line3099" fill="none" stroke="#FFFFFF" stroke-width="0.576" stroke-linecap="round" x1="70.209" y1="14.574" x2="74.709" y2="19.074"/>
											
												<line id="line3101" fill="none" stroke="#FFFFFF" stroke-width="0.576" stroke-linecap="round" x1="83.709" y1="19.074" x2="74.709" y2="19.074"/>
											
												<line id="line3103" fill="none" stroke="#FFFFFF" stroke-width="0.576" stroke-linecap="round" x1="20.708" y1="1.074" x2="29.71" y2="1.074"/>
											
												<line id="line3105" fill="none" stroke="#FFFFFF" stroke-width="0.576" stroke-linecap="round" x1="29.71" y1="1.074" x2="34.209" y2="5.574"/>
											
												<line id="line3107" fill="none" stroke="#FFFFFF" stroke-width="0.576" stroke-linecap="round" x1="34.209" y1="14.574" x2="29.71" y2="19.074"/>
											
												<line id="line3109" fill="none" stroke="#FFFFFF" stroke-width="0.576" stroke-linecap="round" x1="34.209" y1="5.574" x2="38.708" y2="1.074"/>
											
												<line id="line3111" fill="none" stroke="#FFFFFF" stroke-width="0.576" stroke-linecap="round" x1="38.708" y1="1.074" x2="47.71" y2="1.074"/>
											
												<line id="line3113" fill="none" stroke="#FFFFFF" stroke-width="0.576" stroke-linecap="round" x1="47.71" y1="1.074" x2="52.209" y2="5.574"/>
											
												<line id="line3115" fill="none" stroke="#FFFFFF" stroke-width="0.576" stroke-linecap="round" x1="52.209" y1="14.574" x2="47.71" y2="19.074"/>
											
												<line id="line3117" fill="none" stroke="#FFFFFF" stroke-width="0.576" stroke-linecap="round" x1="47.71" y1="19.074" x2="38.708" y2="19.074"/>
											
												<line id="line3119" fill="none" stroke="#FFFFFF" stroke-width="0.576" stroke-linecap="round" x1="38.708" y1="19.074" x2="34.209" y2="14.574"/>
											
												<line id="line3121" fill="none" stroke="#FFFFFF" stroke-width="0.576" stroke-linecap="round" x1="16.209" y1="5.574" x2="16.209" y2="14.574"/>
											
												<line id="line3123" fill="none" stroke="#FFFFFF" stroke-width="0.576" stroke-linecap="round" x1="20.708" y1="1.074" x2="16.209" y2="5.574"/>
											
												<line id="line3125" fill="none" stroke="#FFFFFF" stroke-width="0.576" stroke-linecap="round" x1="16.209" y1="14.574" x2="20.708" y2="19.074"/>
											
												<line id="line3127" fill="none" stroke="#FFFFFF" stroke-width="0.576" stroke-linecap="round" x1="29.71" y1="19.074" x2="20.708" y2="19.074"/>
											
												<line id="line3129" fill="none" stroke="#FFFFFF" stroke-width="0.576" stroke-linecap="round" x1="106.21" y1="5.568" x2="106.21" y2="14.568"/>
										</g>
									</g>
								</g>
							</g>
						</g>
					</g>
					<g transform="matrix(0,-0.9997812,0.99479488,0,-25.60253,49.822925)">
						<g>
							<g>
								<g>
									
										<ellipse id="circle82" fill="none" stroke="#9A916C" stroke-width="1.224" cx="25.209" cy="10.074" rx="5.104" ry="5.129"/>
								</g>
							</g>
						</g>
					</g>
					<g transform="matrix(0,-0.9997812,0.99479488,0,-25.60253,49.822925)">
						<g>
							<g>
								<g>
									
										<ellipse id="circle84" fill="none" stroke="#9A916C" stroke-width="1.224" cx="43.209" cy="10.074" rx="5.104" ry="5.129"/>
								</g>
							</g>
						</g>
					</g>
					<g transform="matrix(0,-0.9997812,0.99479488,0,-25.60253,49.822925)">
						<g>
							<g>
								<g>
									
										<ellipse id="circle86" fill="none" stroke="#9A916C" stroke-width="1.224" cx="61.209" cy="10.074" rx="5.104" ry="5.129"/>
								</g>
							</g>
						</g>
					</g>
					<g transform="matrix(0,-0.9997812,0.99479488,0,-25.60253,49.822925)">
						<g>
							<g>
								<g>
									
										<ellipse id="circle88" fill="none" stroke="#9A916C" stroke-width="1.224" cx="79.209" cy="10.074" rx="5.104" ry="5.129"/>
								</g>
							</g>
						</g>
					</g>
					<g transform="matrix(0,-0.9997812,0.99479488,0,-25.60253,49.822925)">
						<g>
							<g>
								<g>
									
										<ellipse id="circle90" fill="none" stroke="#9A916C" stroke-width="1.224" cx="97.209" cy="10.074" rx="5.104" ry="5.128"/>
								</g>
							</g>
						</g>
					</g>
					<g transform="matrix(0,1,-1,0,0,0)">
						<g>
							<g>
								<g>
									
										<rect id="connector16pin" x="17.775" y="8.477" transform="matrix(2.578893e-006 1 -1 2.578893e-006 40.2061 -9.302)" fill="none" width="13.959" height="13.949"/>
								</g>
							</g>
						</g>
					</g>
					<g transform="matrix(0,1,-1,0,0,0)">
						<g>
							<g>
								<g>
									
										<rect id="connector15pin" x="-0.557" y="8.36" transform="matrix(2.578893e-006 1 -1 2.578893e-006 22.0884 9.0296)" fill="none" width="14.173" height="14.398"/>
								</g>
							</g>
						</g>
					</g>
					<g transform="matrix(0,1,-1,0,0,0)">
						<g>
							<g>
								<g>
									
										<rect id="connector14pin" x="-18.446" y="8.477" transform="matrix(2.578893e-006 1 -1 2.578893e-006 4.2101 26.9187)" fill="none" width="14.184" height="14.174"/>
								</g>
							</g>
						</g>
					</g>
					<g transform="matrix(0,1,-1,0,0,0)">
						<g>
							<g>
								<g>
									
										<rect id="connector13pin" x="-36.552" y="8.81" transform="matrix(2.578893e-006 1 -1 2.578893e-006 -13.6815 45.2488)" fill="none" width="14.173" height="13.948"/>
								</g>
							</g>
						</g>
					</g>
					<g transform="matrix(0,1,-1,0,0,0)">
						<g>
							<g>
								<g>
									
										<rect id="connector12pin" x="-54.18" y="8.28" transform="matrix(2.578893e-006 1 -1 2.578893e-006 -31.7586 62.6297)" fill="none" width="13.971" height="14.311"/>
								</g>
							</g>
						</g>
					</g>
				</g>
			</g>
		</g>
	</g>
</g>
<g transform="translate(46.839934,11.297533)">
	<g>
		<g>
			<g>
				<g id="g9036">
					<g transform="matrix(0,-0.9997812,0.99479488,0,-25.60253,49.822925)">
						<g>
							<g>
								<g>
									<g id="g9038">
										<title  id="title9040">element:JP1</title>
										<g id="g9042">
											<title  id="title9044">package:1X07</title>
											
												<line id="line9046" fill="none" stroke="#FFFFFF" stroke-width="0.576" stroke-linecap="round" x1="74.822" y1="108.264" x2="83.822" y2="108.264"/>
											
												<line id="line9048" fill="none" stroke="#FFFFFF" stroke-width="0.576" stroke-linecap="round" x1="83.822" y1="108.264" x2="88.322" y2="112.764"/>
											
												<line id="line9050" fill="none" stroke="#FFFFFF" stroke-width="0.576" stroke-linecap="round" x1="88.322" y1="121.764" x2="83.822" y2="126.264"/>
											
												<line id="line9052" fill="none" stroke="#FFFFFF" stroke-width="0.576" stroke-linecap="round" x1="88.322" y1="112.764" x2="92.822" y2="108.264"/>
											
												<line id="line9054" fill="none" stroke="#FFFFFF" stroke-width="0.576" stroke-linecap="round" x1="92.822" y1="108.264" x2="101.822" y2="108.264"/>
											
												<line id="line9056" fill="none" stroke="#FFFFFF" stroke-width="0.576" stroke-linecap="round" x1="101.822" y1="108.264" x2="106.322" y2="112.764"/>
											
												<line id="line9058" fill="none" stroke="#FFFFFF" stroke-width="0.576" stroke-linecap="round" x1="106.322" y1="121.764" x2="101.822" y2="126.264"/>
											
												<line id="line9060" fill="none" stroke="#FFFFFF" stroke-width="0.576" stroke-linecap="round" x1="101.822" y1="126.264" x2="92.822" y2="126.264"/>
											
												<line id="line9062" fill="none" stroke="#FFFFFF" stroke-width="0.576" stroke-linecap="round" x1="92.822" y1="126.264" x2="88.322" y2="121.764"/>
											
												<line id="line9064" fill="none" stroke="#FFFFFF" stroke-width="0.576" stroke-linecap="round" x1="52.322" y1="112.764" x2="56.821" y2="108.264"/>
											
												<line id="line9066" fill="none" stroke="#FFFFFF" stroke-width="0.576" stroke-linecap="round" x1="56.821" y1="108.264" x2="65.822" y2="108.264"/>
											
												<line id="line9068" fill="none" stroke="#FFFFFF" stroke-width="0.576" stroke-linecap="round" x1="65.822" y1="108.264" x2="70.322" y2="112.764"/>
											
												<line id="line9070" fill="none" stroke="#FFFFFF" stroke-width="0.576" stroke-linecap="round" x1="70.322" y1="121.764" x2="65.822" y2="126.264"/>
											
												<line id="line9072" fill="none" stroke="#FFFFFF" stroke-width="0.576" stroke-linecap="round" x1="65.822" y1="126.264" x2="56.821" y2="126.264"/>
											
												<line id="line9074" fill="none" stroke="#FFFFFF" stroke-width="0.576" stroke-linecap="round" x1="56.821" y1="126.264" x2="52.322" y2="121.764"/>
											
												<line id="line9076" fill="none" stroke="#FFFFFF" stroke-width="0.576" stroke-linecap="round" x1="74.822" y1="108.264" x2="70.322" y2="112.764"/>
											
												<line id="line9078" fill="none" stroke="#FFFFFF" stroke-width="0.576" stroke-linecap="round" x1="70.322" y1="121.764" x2="74.822" y2="126.264"/>
											
												<line id="line9080" fill="none" stroke="#FFFFFF" stroke-width="0.576" stroke-linecap="round" x1="83.822" y1="126.264" x2="74.822" y2="126.264"/>
											
												<line id="line9082" fill="none" stroke="#FFFFFF" stroke-width="0.576" stroke-linecap="round" x1="20.821" y1="108.264" x2="29.823" y2="108.264"/>
											
												<line id="line9084" fill="none" stroke="#FFFFFF" stroke-width="0.576" stroke-linecap="round" x1="29.823" y1="108.264" x2="34.322" y2="112.764"/>
											
												<line id="line9086" fill="none" stroke="#FFFFFF" stroke-width="0.576" stroke-linecap="round" x1="34.322" y1="121.764" x2="29.823" y2="126.264"/>
											
												<line id="line9088" fill="none" stroke="#FFFFFF" stroke-width="0.576" stroke-linecap="round" x1="34.322" y1="112.764" x2="38.821" y2="108.264"/>
											
												<line id="line9090" fill="none" stroke="#FFFFFF" stroke-width="0.576" stroke-linecap="round" x1="38.821" y1="108.264" x2="47.823" y2="108.264"/>
											
												<line id="line9092" fill="none" stroke="#FFFFFF" stroke-width="0.576" stroke-linecap="round" x1="47.823" y1="108.264" x2="52.322" y2="112.764"/>
											
												<line id="line9094" fill="none" stroke="#FFFFFF" stroke-width="0.576" stroke-linecap="round" x1="52.322" y1="121.764" x2="47.823" y2="126.264"/>
											
												<line id="line9096" fill="none" stroke="#FFFFFF" stroke-width="0.576" stroke-linecap="round" x1="47.823" y1="126.264" x2="38.821" y2="126.264"/>
											
												<line id="line9098" fill="none" stroke="#FFFFFF" stroke-width="0.576" stroke-linecap="round" x1="38.821" y1="126.264" x2="34.322" y2="121.764"/>
											
												<line id="line9100" fill="none" stroke="#FFFFFF" stroke-width="0.576" stroke-linecap="round" x1="16.322" y1="112.764" x2="16.322" y2="121.764"/>
											
												<line id="line9102" fill="none" stroke="#FFFFFF" stroke-width="0.576" stroke-linecap="round" x1="20.821" y1="108.264" x2="16.322" y2="112.764"/>
											
												<line id="line9104" fill="none" stroke="#FFFFFF" stroke-width="0.576" stroke-linecap="round" x1="16.322" y1="121.764" x2="20.821" y2="126.264"/>
											
												<line id="line9106" fill="none" stroke="#FFFFFF" stroke-width="0.576" stroke-linecap="round" x1="29.823" y1="126.264" x2="20.821" y2="126.264"/>
											
												<line id="line9108" fill="none" stroke="#FFFFFF" stroke-width="0.576" stroke-linecap="round" x1="106.323" y1="112.76" x2="106.323" y2="121.76"/>
										</g>
									</g>
								</g>
							</g>
						</g>
					</g>
					<g transform="matrix(0,-0.9997812,0.99479488,0,-25.60253,49.822925)">
						<g>
							<g>
								<g>
									
										<ellipse id="circle9110" fill="none" stroke="#9A916C" stroke-width="1.224" cx="25.322" cy="117.265" rx="5.103" ry="5.129"/>
								</g>
							</g>
						</g>
					</g>
					<g transform="matrix(0,-0.9997812,0.99479488,0,-25.60253,49.822925)">
						<g>
							<g>
								<g>
									
										<ellipse id="circle9112" fill="none" stroke="#9A916C" stroke-width="1.224" cx="43.322" cy="117.265" rx="5.103" ry="5.129"/>
								</g>
							</g>
						</g>
					</g>
					<g transform="matrix(0,-0.9997812,0.99479488,0,-25.60253,49.822925)">
						<g>
							<g>
								<g>
									
										<ellipse id="circle9114" fill="none" stroke="#9A916C" stroke-width="1.224" cx="61.322" cy="117.265" rx="5.103" ry="5.129"/>
								</g>
							</g>
						</g>
					</g>
					<g transform="matrix(0,-0.9997812,0.99479488,0,-25.60253,49.822925)">
						<g>
							<g>
								<g>
									
										<ellipse id="circle9116" fill="none" stroke="#9A916C" stroke-width="1.224" cx="79.322" cy="117.265" rx="5.103" ry="5.129"/>
								</g>
							</g>
						</g>
					</g>
					<g transform="matrix(0,-0.9997812,0.99479488,0,-25.60253,49.822925)">
						<g>
							<g>
								<g>
									
										<ellipse id="circle9118" fill="none" stroke="#9A916C" stroke-width="1.224" cx="97.322" cy="117.265" rx="5.103" ry="5.128"/>
								</g>
							</g>
						</g>
					</g>
					<g transform="matrix(0,1,-1,0,0,0)">
						<g>
							<g>
								<g>
									
										<rect id="connector21pin" x="17.662" y="-98.155" transform="matrix(2.578893e-006 1 -1 2.578893e-006 -66.5391 -115.8219)" fill="none" width="13.959" height="13.949"/>
								</g>
							</g>
						</g>
					</g>
					<g transform="matrix(0,1,-1,0,0,0)">
						<g>
							<g>
								<g>
									
										<rect id="connector20pin" x="-0.67" y="-98.272" transform="matrix(2.578893e-006 1 -1 2.578893e-006 -84.6562 -97.4898)" fill="none" width="14.174" height="14.398"/>
								</g>
							</g>
						</g>
					</g>
					<g transform="matrix(0,1,-1,0,0,0)">
						<g>
							<g>
								<g>
									
										<rect id="connector19pin" x="-18.559" y="-98.155" transform="matrix(2.578893e-006 1 -1 2.578893e-006 -102.5351 -79.6012)" fill="none" width="14.184" height="14.174"/>
								</g>
							</g>
						</g>
					</g>
					<g transform="matrix(0,1,-1,0,0,0)">
						<g>
							<g>
								<g>
									
										<rect id="connector18pin" x="-36.664" y="-97.822" transform="matrix(2.578893e-006 1 -1 2.578893e-006 -120.4252 -61.2696)" fill="none" width="14.172" height="13.948"/>
								</g>
							</g>
						</g>
					</g>
					<g transform="matrix(0,1,-1,0,0,0)">
						<g>
							<g>
								<g>
									
										<rect id="connector17pin" x="-54.292" y="-98.351" transform="matrix(2.578893e-006 1 -1 2.578893e-006 -138.5028 -43.8893)" fill="none" width="13.971" height="14.311"/>
								</g>
							</g>
						</g>
					</g>
				</g>
			</g>
		</g>
	</g>
</g>
<g id="text9226" xmlns:xml="http://www.w3.org/XML/1998/namespace">
	<text id="tspan9228" transform="matrix(1 0 0 1 -2.542 -76.682)" fill="#FFFFFF" font-family="'OCRA'" font-size="9.6">Color Sensor</text>
</g>
<g transform="translate(0,-0.04799934)">
	<g>
		<g>
			<g>
				<g id="g3200">
					<g id="text3123" xmlns:xml="http://www.w3.org/XML/1998/namespace">
						<text id="tspan3125" transform="matrix(1 0 0 1 -28.0615 -32.593)" fill="#FFFFFF" font-family="'OCRA'" font-size="6.4">VCC</text>
					</g>
					<g id="text3127" xmlns:xml="http://www.w3.org/XML/1998/namespace">
						<text id="tspan3129" transform="matrix(1 0 0 1 -28.0615 -14.4329)" fill="#FFFFFF" font-family="'OCRA'" font-size="6.4">S1</text>
					</g>
					<g id="text3131" xmlns:xml="http://www.w3.org/XML/1998/namespace">
						<text id="tspan3133" transform="matrix(1 0 0 1 -28.0615 3.7273)" fill="#FFFFFF" font-family="'OCRA'" font-size="6.4">S0</text>
					</g>
					<g id="text3135" xmlns:xml="http://www.w3.org/XML/1998/namespace">
						<text id="tspan3137" transform="matrix(1 0 0 1 -28.0615 21.8884)" fill="#FFFFFF" font-family="'OCRA'" font-size="6.4">LED</text>
					</g>
					<g id="text3139" xmlns:xml="http://www.w3.org/XML/1998/namespace">
						<text id="tspan3141" transform="matrix(1 0 0 1 -28.0615 40.0457)" fill="#FFFFFF" font-family="'OCRA'" font-size="6.4">GND</text>
					</g>
				</g>
			</g>
		</g>
	</g>
</g>
<g transform="translate(0.64,0.94400029)">
	<g>
		<g>
			<g>
				<g id="g3188">
					<g id="text3123-9" xmlns:xml="http://www.w3.org/XML/1998/namespace">
						<text id="tspan3125-2" transform="matrix(1 0 0 1 113.6813 -33.585)" fill="#FFFFFF" font-family="'OCRA'" font-size="6.4">VCC</text>
					</g>
					<g id="text3127-9" xmlns:xml="http://www.w3.org/XML/1998/namespace">
						<text id="tspan3129-1" transform="matrix(1 0 0 1 113.6813 -15.4248)" fill="#FFFFFF" font-family="'OCRA'" font-size="6.4">S3</text>
					</g>
					<g id="text3131-0" xmlns:xml="http://www.w3.org/XML/1998/namespace">
						<text id="tspan3133-9" transform="matrix(1 0 0 1 113.6813 2.7354)" fill="#FFFFFF" font-family="'OCRA'" font-size="6.4">S2</text>
					</g>
					<g id="text3135-3" xmlns:xml="http://www.w3.org/XML/1998/namespace">
						<text id="tspan3137-0" transform="matrix(1 0 0 1 113.6813 20.8965)" fill="#FFFFFF" font-family="'OCRA'" font-size="6.4">OUT</text>
					</g>
					<g id="text3139-0" xmlns:xml="http://www.w3.org/XML/1998/namespace">
						<text id="tspan3141-3" transform="matrix(1 0 0 1 113.901 39.0537)" fill="#FFFFFF" font-family="'OCRA'" font-size="6.4">GND</text>
					</g>
				</g>
			</g>
		</g>
	</g>
</g>
<g transform="matrix(0,-0.8,0.8,0,18.406705,60.948953)">
	<g>
		<g>
			<g>
				<g id="g6124">
					<g transform="translate(43.037866,-0.11063719)">
						<g>
							<g>
								<g>
									<g id="g6137">
										<g transform="matrix(0,0.16876054,0.16876054,0,-555.20408,-399.84868)">
											<g>
												<g>
													<g>
														<g id="g10763">
															<path id="path5031" fill="#8C8C8C" d="M2700.361,3616.306c-10.011,0-17.505-7.501-17.505-17.498l0,0
																c0-9.996,7.494-17.497,17.505-17.497h82.489c10.011,0,17.505,7.501,17.505,17.497l0,0
																c0,9.997-7.494,17.498-17.505,17.498"/>
															<path id="path5035" fill="#8C8C8C" d="M2700.361,3391.306c-10.011,0-17.505-7.508-17.505-17.49l0,0
																c0-10.011,7.494-17.505,17.505-17.505h82.489c10.011,0,17.505,7.494,17.505,17.505l0,0
																c0,9.982-7.494,17.49-17.505,17.49"/>
															<path id="path5039" fill="#8C8C8C" d="M2700.361,3466.316c-10.011,0-17.505-7.508-17.505-17.504l0,0
																c0-10.011,7.494-17.505,17.505-17.505h82.489c10.011,0,17.505,7.494,17.505,17.505l0,0
																c0,9.996-7.494,17.504-17.505,17.504"/>
															<path id="path5043" fill="#8C8C8C" d="M2700.361,3541.311c-10.011,0-17.505-7.501-17.505-17.504l0,0
																c0-9.997,7.494-17.498,17.505-17.498h82.489c10.011,0,17.505,7.501,17.505,17.498l0,0
																c0,10.003-7.494,17.504-17.505,17.504"/>
														</g>
													</g>
												</g>
											</g>
										</g>
										<g transform="matrix(0,0.16876054,0.16876054,0,-555.20408,-398.1736)">
											<g>
												<g>
													<g>
														<g id="g10757">
															<path id="path5033" fill="#8C8C8C" d="M2407.778,3616.306c-10.004,0-17.505-7.501-17.505-17.497l0,0
																c0-9.997,7.501-17.498,17.505-17.498h82.496c10.004,0,17.497,7.501,17.497,17.498l0,0
																c0,9.996-7.494,17.497-17.497,17.497"/>
															<path id="path5037" fill="#8C8C8C" d="M2407.778,3391.307c-10.004,0-17.505-7.508-17.505-17.49l0,0
																c0-10.011,7.501-17.505,17.505-17.505h82.496c10.004,0,17.497,7.494,17.497,17.505l0,0
																c0,9.982-7.494,17.49-17.497,17.49"/>
															<path id="path5041" fill="#8C8C8C" d="M2407.778,3466.316c-10.004,0-17.505-7.508-17.505-17.504l0,0
																c0-10.011,7.501-17.505,17.505-17.505h82.496c10.004,0,17.497,7.494,17.497,17.505l0,0
																c0,9.997-7.494,17.504-17.497,17.504"/>
															<path id="path5045" fill="#8C8C8C" d="M2407.778,3541.311c-10.004,0-17.505-7.501-17.505-17.504l0,0
																c0-9.997,7.501-17.498,17.505-17.498h82.496c10.004,0,17.497,7.501,17.497,17.498l0,0
																c0,10.003-7.494,17.504-17.497,17.504"/>
														</g>
													</g>
												</g>
											</g>
										</g>
										
											<path id="path5021" fill="#1D1D1D" stroke="#1D1D1D" stroke-width="1.1315" stroke-linecap="square" stroke-miterlimit="10" d="
											M58.463,54.47c-16.875,0-33.751,0-50.626,0c0-10.62,0-21.239,0-31.86c16.875,0,33.751,0,50.626,0c0,2.655,0,5.31,0,7.965
											c-1.683-0.14-3.486,0.509-4.641,2.124c-1.281,1.451-1.801,3.724-1.687,5.842c-0.043,2.081,0.969,3.922,2.109,5.309
											c1.14,1.309,2.651,2.212,4.219,2.39C58.463,49.163,58.463,51.817,58.463,54.47"/>
									</g>
								</g>
							</g>
						</g>
					</g>
				</g>
			</g>
		</g>
	</g>
</g>
<g transform="translate(-0.14399949,-0.51690648)">
	<g>
		<g>
			<g>
				<g id="g3293">
					<g transform="translate(0.064,0)">
						<g>
							<g>
								<g>
									<g id="g3285">
										<g transform="translate(0,0.064)">
											<g>
												<g>
													<g>
														<g id="g3255">
															<g transform="matrix(0.53866667,0,0,0.53866667,17.418113,10.779093)">
																<g>
																	<g>
																		<g>
																			<path id="path3245" fill="#E6E6E6" d="M11.588-102.933c0,16.458-13.432,29.801-30,29.801
																				c-16.568,0-30-13.343-30-29.801c0-16.458,13.432-29.799,30-29.799C-1.844-132.732,11.588-119.391,11.588-102.933
																				z"/>
																		</g>
																	</g>
																</g>
															</g>
															<g transform="matrix(0.8,0,0,0.8,27.135873,3.7969063)">
																<g>
																	<g>
																		<g>
																			<path id="path3247" fill="#FFFF00" d="M-15.945-60.581c0,4.75-3.85,8.6-8.6,8.6s-8.6-3.85-8.6-8.6
																				s3.85-8.6,8.6-8.6S-15.945-65.33-15.945-60.581z"/>
																		</g>
																	</g>
																</g>
															</g>
														</g>
													</g>
												</g>
											</g>
										</g>
										<g transform="translate(33.664,0.064)">
											<g>
												<g>
													<g>
														<g id="g3259">
															<g transform="matrix(0.53866667,0,0,0.53866667,17.418113,10.779093)">
																<g>
																	<g>
																		<g>
																			<path id="path3261" fill="#E6E6E6" d="M105.331-102.933c0,16.458-13.434,29.801-30,29.801
																				c-16.567,0-30-13.343-30-29.801c0-16.458,13.434-29.799,30-29.799
																				C91.897-132.732,105.331-119.391,105.331-102.933z"/>
																		</g>
																	</g>
																</g>
															</g>
															<g transform="matrix(0.8,0,0,0.8,27.135873,3.7969063)">
																<g>
																	<g>
																		<g>
																			<path id="path3263" fill="#FFFF00" d="M47.176-60.581c0,4.75-3.853,8.6-8.601,8.6s-8.601-3.85-8.601-8.6
																				s3.853-8.6,8.601-8.6S47.176-65.33,47.176-60.581z"/>
																		</g>
																	</g>
																</g>
															</g>
														</g>
													</g>
												</g>
											</g>
										</g>
									</g>
								</g>
							</g>
						</g>
					</g>
					<g transform="translate(-0.064,0)">
						<g>
							<g>
								<g>
									<g id="g3277">
										<g transform="translate(0.128,36.16)">
											<g>
												<g>
													<g>
														<g id="g3265">
															<g transform="matrix(0.53866667,0,0,0.53866667,17.418113,10.779093)">
																<g>
																	<g>
																		<g>
																			<path id="path3267" fill="#E6E6E6" d="M11.588-2.416c0,16.454-13.432,29.797-30,29.797
																				c-16.568,0-30-13.343-30-29.797c0-16.461,13.432-29.804,30-29.804C-1.844-32.22,11.588-18.877,11.588-2.416z"/>
																		</g>
																	</g>
																</g>
															</g>
															<g transform="matrix(0.8,0,0,0.8,27.135873,3.7969063)">
																<g>
																	<g>
																		<g>
																			<path id="path3269" fill="#FFFF00" d="M-15.945,7.101c0,4.749-3.85,8.599-8.6,8.599s-8.6-3.85-8.6-8.599
																				c0-4.751,3.85-8.601,8.6-8.601S-15.945,2.35-15.945,7.101z"/>
																		</g>
																	</g>
																</g>
															</g>
														</g>
													</g>
												</g>
											</g>
										</g>
										<g transform="translate(33.792,36.16)">
											<g>
												<g>
													<g>
														<g id="g3271">
															<g transform="matrix(0.53866667,0,0,0.53866667,17.418113,10.779093)">
																<g>
																	<g>
																		<g>
																			<path id="path3273" fill="#E6E6E6" d="M105.331-2.416c0,16.454-13.434,29.797-30,29.797
																				c-16.567,0-30-13.343-30-29.797c0-16.461,13.434-29.804,30-29.804C91.897-32.22,105.331-18.877,105.331-2.416z"
																				/>
																		</g>
																	</g>
																</g>
															</g>
															<g transform="matrix(0.8,0,0,0.8,27.135873,3.7969063)">
																<g>
																	<g>
																		<g>
																			<path id="path3275" fill="#FFFF00" d="M47.177,7.101c0,4.749-3.853,8.599-8.601,8.599s-8.601-3.85-8.601-8.599
																				c0-4.751,3.853-8.601,8.601-8.601S47.177,2.35,47.177,7.101z"/>
																		</g>
																	</g>
																</g>
															</g>
														</g>
													</g>
												</g>
											</g>
										</g>
									</g>
								</g>
							</g>
						</g>
					</g>
				</g>
			</g>
		</g>
	</g>
</g>
<g transform="matrix(0,-1,1,0,0,0)">
	<g>
		<g>
			<g>
				<g id="text3173" xmlns:xml="http://www.w3.org/XML/1998/namespace">
					<text id="tspan3175" transform="matrix(1 0 0 1 -6.8689 47.6193)" fill="#FFFFFF" font-family="'OCRA'" font-size="6.4">TCS</text>
					<text id="tspan3177" transform="matrix(1 0 0 1 -9.158 57.6193)" fill="#FFFFFF" font-family="'OCRA'" font-size="6.4">3200</text>
				</g>
			</g>
		</g>
	</g>
</g>
</svg>
