<?xml version="1.0" encoding="utf-8"?>
<!-- Generator: Adobe Illustrator 20.1.0, SVG Export Plug-In . SVG Version: 6.00 Build 0)  -->
<svg version="1.1" id="Layer_1" xmlns="http://www.w3.org/2000/svg" xmlns:xlink="http://www.w3.org/1999/xlink" x="0px" y="0px"
	 viewBox="0 0 72 72" style="enable-background:new 0 0 72 72;" xml:space="preserve">
<style type="text/css">
	.st0{fill:#343434;stroke:#000000;stroke-width:0.18;}
	.st1{fill:#B3B3B3;}
	.st2{fill:none;}
	.st3{fill:#D7F4EE;fill-opacity:0.6359;stroke:#000000;stroke-width:0.2257;stroke-linecap:round;}
	.st4{fill:none;stroke:#316691;stroke-width:1.8;stroke-linecap:round;}
	.st5{fill:#48A1D1;stroke:#000000;stroke-width:0.18;}
	.st6{fill:none;stroke:#FFFFFF;stroke-width:0.63;stroke-linecap:round;stroke-opacity:0.7065;}
</style>
<g transform="translate(0,-12)">
	<g>
		<g>
			<g>
				<g>
					<g>
						<g>
							<g>
								<g>
									<g>
										<g>
											<g id="g3350">
												<path id="rect5185" class="st0" d="M3.6,12.3h64.8c2,0,3.6,1.6,3.6,3.6v32.6c0,2-1.6,3.6-3.6,3.6H3.6
													c-2,0-3.6-1.6-3.6-3.6V15.9C0,13.9,1.6,12.3,3.6,12.3z"/>
												<rect id="rect5470" x="12.2" y="52" class="st1" width="4.3" height="28.8"/>
												<rect id="rect5476" x="26.6" y="52" class="st1" width="4.3" height="28.8"/>
												<rect id="rect5478" x="41" y="52" class="st1" width="4.3" height="28.8"/>
												<rect id="rect5480" x="55.4" y="52" class="st1" width="4.3" height="28.8"/>
												<rect id="connector1" x="11.5" y="77.9" class="st2" width="5.8" height="5.8"/>
												<rect id="connector2" x="25.9" y="77.9" class="st2" width="5.8" height="5.8"/>
												<rect id="connector3" x="40.3" y="77.9" class="st2" width="5.8" height="5.8"/>
												<rect id="connector4" x="54.7" y="77.9" class="st2" width="5.8" height="5.8"/>
												<rect id="rect5401" x="12.6" y="15" class="st3" width="45.1" height="22.5"/>
												<path id="rect5406" class="st4" d="M3.7,13.9h64.8c1.1,0,2.1,1,2.1,2.2v32.1c0,1.3-0.9,2.2-2.1,2.2H3.7
													c-1.1,0-2.1-1-2.1-2.2v-32C1.7,15,2.6,13.9,3.7,13.9z"/>
												<path id="rect4672" class="st5" d="M3.6,12.4C1.6,12.4,0,14,0,16v2.6h6.4v5.8H0v17.3h6.4v5.8H0v1.2c0,2,1.6,3.6,3.6,3.6
													h64.8c2,0,3.6-1.6,3.6-3.6v-1.2h-6.2v-5.8H72V24.4h-6.2v-5.8H72V16c0-2-1.6-3.6-3.6-3.6C23.5,12.2,47.4,12.4,3.6,12.4z
													 M21.6,18.6h5.8v5.8h-5.8V18.6z M33.1,18.6H39v5.8h-5.8V18.6z M44.6,18.6h5.8v5.8h-5.8V18.6z M21.6,30.2h5.8v5.8h-5.8
													V30.2z M33.1,30.2H39v5.8h-5.8V30.2z M44.6,30.2h5.8v5.8h-5.8V30.2z M21.6,41.7h5.8v5.8h-5.8V41.7z M33.1,41.7H39v5.8
													h-5.8V41.7z M44.6,41.7h5.8v5.8h-5.8V41.7z"/>
												<g transform="translate(3.3378601e-7,-953.36218)">
													<g>
														<g>
															<g>
																<g>
																	<g>
																		<g>
																			<g>
																				<g>
																					<g>
																						<g>
																							<g id="g5460">
																								<path id="path5415" class="st6" d="M3.6,967.4h15.1 M1.4,969.6c0-1.2,1-2.2,2.2-2.2 M1.4,971.2v-1.6"/>
																								<path id="path5432" class="st6" d="M1.4,979.1v14.6"/>
																							</g>
																						</g>
																					</g>
																				</g>
																			</g>
																		</g>
																	</g>
																</g>
															</g>
														</g>
													</g>
												</g>
											</g>
										</g>
									</g>
								</g>
							</g>
						</g>
					</g>
				</g>
			</g>
		</g>
	</g>
</g>
</svg>
