<?xml version="1.0" encoding="utf-8"?>
<!-- Generator: Adobe Illustrator 16.0.0, SVG Export Plug-In . SVG Version: 6.00 Build 0)  -->
<!DOCTYPE svg PUBLIC "-//W3C//DTD SVG 1.1//EN" "http://www.w3.org/Graphics/SVG/1.1/DTD/svg11.dtd">
<svg version="1.1" id="Layer_2" xmlns:xml="http://www.w3.org/XML/1998/namespace"
	 xmlns="http://www.w3.org/2000/svg" xmlns:xlink="http://www.w3.org/1999/xlink" x="0px" y="0px" width="210.63px"
	 height="389.742px" viewBox="-52.157 -134.623 210.63 389.742" enable-background="new -52.157 -134.623 210.63 389.742"
	 xml:space="preserve">
<desc>
	<referenceFile>FC28_P_BREADBOARD_v3.svg</referenceFile>
</desc>
<path fill="#191919" d="M53.455-85.04h-97.845c-3.637,1.555-6.48,4.6-7.768,8.371v73.963h39.439
	c0.008-0.184,0.014-0.367,0.029-0.549c0.301-9.041,7.884-16.283,17.22-16.283c9.391,0,17.01,7.326,17.229,16.438h0.041v0.395h39.419
	v-73.963C59.936-80.44,57.09-83.485,53.455-85.04z M-35.532-58.29c-5.109,0-9.25-4.141-9.25-9.25c0-5.107,4.141-9.25,9.25-9.25
	c5.111,0,9.25,4.143,9.25,9.25C-26.282-62.43-30.423-58.29-35.532-58.29z M-2.667-67.817c-1.322,0-2.395-1.072-2.395-2.395
	s1.072-2.395,2.395-2.395s2.393,1.072,2.393,2.395S-1.345-67.817-2.667-67.817z M11.729-67.817c-1.322,0-2.393-1.072-2.393-2.396
	s1.07-2.396,2.393-2.396c1.324,0,2.395,1.072,2.395,2.396S13.053-67.817,11.729-67.817z M44.343-58.29
	c-5.111,0-9.25-4.141-9.25-9.25c0-5.107,4.139-9.25,9.25-9.25c5.109,0,9.249,4.143,9.249,9.25
	C53.592-62.43,49.452-58.29,44.343-58.29z"/>
<g>
	<polygon fill="#7E847E" points="-52.157,-2.706 -52.157,209.959 -35.458,255.119 -28.936,255.119 -12.7,209.959 -12.7,-2.706 	"/>
	<g>
		<polygon fill="#7E847E" points="61.176,255.119 61.221,255.119 61.221,209.959 61.176,214.959 		"/>
		<polygon fill="#7E847E" points="21.8,-2.706 21.8,209.959 37.968,255.119 44.55,255.119 61.221,209.959 61.221,-2.706 		"/>
	</g>
</g>
<g>
	<polygon fill="#4C5456" points="-47.157,-2.706 -47.157,209.959 -32.491,248.959 -18.157,209.959 -18.157,-2.706 	"/>
	<polygon fill="#4C5456" points="27.175,-2.706 27.175,209.959 41.841,248.959 56.174,209.959 56.174,-2.706 	"/>
</g>
<g id="silkscreen">
	
		<rect x="-9.653" y="-76.864" fill="none" stroke="#FFFFFF" stroke-width="0.65" stroke-miterlimit="10" width="28.371" height="13.303"/>
	<g transform="matrix(1 0 0 1 19.7285 20.23)">
		<g>
			<g>
				<text transform="matrix(1 0 0 1 -32.4294 -64.8103)" fill="#FFFFFF" font-family="'DroidSans'" font-size="13.9999">FC-28</text>
			</g>
		</g>
	</g>
</g>
<g>
	<path id="connector8pin" fill="#9A916C" d="M-2.667-74.997c-2.645,0-4.787,2.139-4.787,4.785s2.14,4.789,4.787,4.789
		c2.645,0,4.785-2.143,4.785-4.789S-0.025-74.997-2.667-74.997z M-2.667-67.819c-1.324,0-2.395-1.07-2.395-2.395
		c0-1.32,1.07-2.395,2.395-2.395c1.318,0,2.393,1.074,2.393,2.395C-0.275-68.889-1.349-67.819-2.667-67.819z"/>
	<path id="connector9pin" fill="#9A916C" d="M11.731-74.997c-2.643,0-4.789,2.139-4.789,4.785s2.145,4.789,4.789,4.789
		c2.641,0,4.787-2.143,4.787-4.789S14.374-74.997,11.731-74.997z M11.731-67.819c-1.322,0-2.393-1.07-2.393-2.395
		c0-1.32,1.07-2.395,2.393-2.395c1.32,0,2.391,1.074,2.391,2.395C14.124-68.889,13.052-67.819,11.731-67.819z"/>
</g>
<path fill="#19283D" d="M79.094-86.04V95.378h79.379V-86.04H79.094z M125.348-78.063c1.322,0,2.395,1.074,2.395,2.396
	c0,1.324-1.072,2.398-2.395,2.398c-1.324,0-2.396-1.074-2.396-2.398C122.951-76.989,124.024-78.063,125.348-78.063z M97.553,83.227
	c-1.324,0-2.395-1.074-2.395-2.395c0-1.324,1.07-2.398,2.395-2.398c1.322,0,2.395,1.074,2.395,2.398
	C99.948,82.153,98.875,83.227,97.553,83.227z M108.549-75.669c0-1.322,1.072-2.396,2.396-2.396c1.322,0,2.395,1.074,2.395,2.396
	c0,1.324-1.072,2.396-2.395,2.396C109.621-73.272,108.549-74.344,108.549-75.669z M111.953,83.227c-1.324,0-2.396-1.074-2.396-2.395
	c0-1.324,1.072-2.398,2.396-2.398c1.322,0,2.395,1.074,2.395,2.398C114.348,82.153,113.276,83.227,111.953,83.227z M126.356,83.227
	c-1.324,0-2.396-1.074-2.396-2.395c0-1.324,1.072-2.398,2.396-2.398c1.322,0,2.395,1.074,2.395,2.398
	C128.75,82.153,127.678,83.227,126.356,83.227z M119.442,56.29c-5.223,0-9.459-4.234-9.459-9.457s4.236-9.461,9.459-9.461
	c5.229,0,9.461,4.234,9.461,9.461C128.903,52.055,124.67,56.29,119.442,56.29z M140.752,83.227c-1.324,0-2.396-1.074-2.396-2.395
	c0-1.324,1.072-2.398,2.396-2.398c1.322,0,2.393,1.074,2.393,2.398C143.145,82.153,142.074,83.227,140.752,83.227z"/>
<g>
	<rect x="116.756" y="-25.917" fill="#115DA8" width="36.395" height="36.121"/>
	<circle fill="#414141" cx="134.983" cy="-7.873" r="8.042"/>
	<path fill="#999999" d="M136.233-6.501v6.57c3.391-0.533,6.082-3.182,6.674-6.549L136.233-6.501z"/>
	<path fill="#999999" d="M136.233-9.126h6.697c-0.539-3.436-3.25-6.152-6.684-6.693L136.233-9.126z"/>
	<path fill="#999999" d="M127.039-9.126c0.535-3.404,3.203-6.104,6.59-6.678l-0.02,6.678H127.039z"/>
	<path fill="#999999" d="M133.61,0.05c-3.313-0.578-5.932-3.209-6.535-6.551h6.535V0.05z"/>
	<circle fill="#D1D2D1" cx="144.776" cy="5.375" r="2.083"/>
</g>
<g id="silkscreen_1_">
	<g>
		<polyline fill="none" stroke="#FFFFFF" stroke-miterlimit="10" points="97.817,47.954 97.817,59.704 84.817,59.704 84.817,47.954 
					"/>
		<polyline fill="none" stroke="#FFFFFF" stroke-miterlimit="10" points="97.817,43.583 97.817,34.704 95.317,32.141 87.817,32.141 
			84.817,34.641 84.817,43.583 		"/>
	</g>
	<rect x="90.983" y="73.786" fill="none" stroke="#FFFFFF" stroke-miterlimit="10" width="56.334" height="14.084"/>
	<rect x="104.006" y="-82.708" fill="none" stroke="#FFFFFF" stroke-miterlimit="10" width="28.281" height="14.082"/>
	<g>
		<line fill="none" stroke="#FFFFFF" stroke-miterlimit="10" x1="138.649" y1="-71.858" x2="138.649" y2="-79.229"/>
		<line fill="none" stroke="#FFFFFF" stroke-miterlimit="10" x1="142.461" y1="-75.542" x2="135.092" y2="-75.542"/>
	</g>
	<g>
		<polyline fill="none" stroke="#FFFFFF" stroke-miterlimit="10" points="101.006,-50.501 101.006,-61.751 88.256,-61.751 
			88.256,-50.501 		"/>
		<polyline fill="none" stroke="#FFFFFF" stroke-miterlimit="10" points="101.006,-45.856 101.006,-34.606 88.256,-34.606 
			88.256,-45.856 		"/>
	</g>
	<g>
		<polyline fill="none" stroke="#FFFFFF" stroke-miterlimit="10" points="116.756,-50.501 116.756,-61.751 104.006,-61.751 
			104.006,-50.501 		"/>
		<polyline fill="none" stroke="#FFFFFF" stroke-miterlimit="10" points="116.756,-45.856 116.756,-34.606 104.006,-34.606 
			104.006,-45.856 		"/>
	</g>
	<g>
		<polyline fill="none" stroke="#FFFFFF" stroke-miterlimit="10" points="132.287,-45.856 132.287,-37.01 128.944,-33.958 
			123.1,-33.958 119.535,-37.01 119.535,-45.856 		"/>
		<polyline fill="none" stroke="#FFFFFF" stroke-miterlimit="10" points="119.535,-50.501 119.535,-59.344 122.881,-62.397 
			128.723,-62.397 132.287,-59.344 132.287,-50.501 		"/>
	</g>
	<g>
		<polyline fill="none" stroke="#FFFFFF" stroke-miterlimit="10" points="148.162,-45.856 148.162,-37.01 144.817,-33.958 
			138.973,-33.958 135.412,-37.01 135.412,-45.856 		"/>
		<polyline fill="none" stroke="#FFFFFF" stroke-miterlimit="10" points="135.412,-50.501 135.412,-59.344 138.756,-62.397 
			144.6,-62.397 148.162,-59.344 148.162,-50.501 		"/>
	</g>
	<rect x="114.817" y="-27.708" fill="none" stroke="#FFFFFF" stroke-miterlimit="10" width="40.334" height="39.666"/>
	<g>
		<polyline fill="none" stroke="#FFFFFF" stroke-miterlimit="10" points="100.735,27.891 111.817,27.891 111.817,15.314 
			100.735,15.314 		"/>
		<polyline fill="none" stroke="#FFFFFF" stroke-miterlimit="10" points="96.153,27.891 84.817,27.891 84.817,15.314 96.153,15.314 
					"/>
	</g>
	<g>
		<polyline fill="none" stroke="#FFFFFF" stroke-miterlimit="10" points="142.067,28.372 153.149,28.372 153.149,15.786 
			142.067,15.786 		"/>
		<polyline fill="none" stroke="#FFFFFF" stroke-miterlimit="10" points="137.483,28.372 126.149,28.372 126.149,15.786 
			137.483,15.786 		"/>
	</g>
	<g>
		<polyline fill="none" stroke="#FFFFFF" stroke-miterlimit="10" points="153.817,47.954 153.817,59.704 140.817,59.704 
			140.817,47.954 		"/>
		<polyline fill="none" stroke="#FFFFFF" stroke-miterlimit="10" points="153.817,43.583 153.817,34.704 151.317,32.141 
			143.817,32.141 140.817,34.641 140.817,43.583 		"/>
	</g>
	<line fill="none" stroke="#FFFFFF" stroke-miterlimit="10" x1="101.006" y1="-76.106" x2="94.77" y2="-76.106"/>
	<g transform="matrix(1 0 0 1 7.2793 78.1973)">
		<g>
			<g>
				<g>
					<text transform="matrix(1 0 0 1 86.3723 -7.8401)" fill="#FFFFFF" font-family="'DroidSans'" font-size="6.8">AO  DO  GND  VCC</text>
				</g>
			</g>
		</g>
	</g>
	<g transform="matrix(0 1 -1 0 27.3574 58.3203)">
		<g>
			<g>
				<g>
					<text transform="matrix(1 0 0 1 -27.7239 -106.4466)" fill="#FFFFFF" font-family="'DroidSans'" font-size="6.8">PWR—LED</text>
				</g>
			</g>
		</g>
	</g>
	<g transform="matrix(0 -1 1 0 12.8911 73.0195)">
		<g>
			<g>
				<g>
					<text transform="matrix(1 0 0 1 13.0261 91.9851)" fill="#FFFFFF" font-family="'DroidSans'" font-size="6.8">DO—LED</text>
				</g>
			</g>
		</g>
	</g>
</g>
<path fill="#B0AFB0" d="M119.444,60.001c7.271,0,13.166-5.895,13.166-13.168c0-7.27-5.895-13.164-13.166-13.164
	s-13.166,5.895-13.166,13.164S112.172,60.001,119.444,60.001z M119.444,37.372c5.225,0,9.459,4.234,9.459,9.461
	c0,5.223-4.234,9.457-9.459,9.457s-9.461-4.234-9.461-9.457C109.983,41.606,114.219,37.372,119.444,37.372z"/>
<g id="copper1">
	<g id="copper0">
		<path id="connector8pin_1_" fill="#9A916C" d="M140.752,85.612c2.643,0,4.785-2.139,4.785-4.783s-2.141-4.785-4.785-4.785
			c-2.646,0-4.787,2.141-4.787,4.785S138.108,85.612,140.752,85.612z M140.752,78.434c1.324,0,2.393,1.07,2.393,2.395
			c0,1.32-1.068,2.395-2.393,2.395c-1.32,0-2.395-1.074-2.395-2.395C138.358,79.505,139.432,78.434,140.752,78.434z"/>
		<path id="connector9pin_1_" fill="#9A916C" d="M126.352,85.612c2.645,0,4.789-2.139,4.789-4.783s-2.143-4.785-4.789-4.785
			c-2.641,0-4.787,2.141-4.787,4.785S123.711,85.612,126.352,85.612z M126.352,78.434c1.324,0,2.395,1.07,2.395,2.395
			c0,1.32-1.07,2.395-2.395,2.395c-1.32,0-2.391-1.074-2.391-2.395C123.961,79.505,125.031,78.434,126.352,78.434z"/>
		<path id="connector10pin" fill="#9A916C" d="M111.951,85.612c2.645,0,4.785-2.139,4.785-4.783s-2.139-4.785-4.785-4.785
			s-4.785,2.141-4.785,4.785S109.307,85.612,111.951,85.612z M111.948,78.434c1.324,0,2.395,1.07,2.395,2.395
			c0,1.32-1.07,2.395-2.395,2.395c-1.32,0-2.391-1.074-2.391-2.395C109.557,79.505,110.627,78.434,111.948,78.434z"/>
		<path id="connector11pin" fill="#9A916C" d="M97.549,85.612c2.645,0,4.787-2.139,4.787-4.783s-2.141-4.785-4.787-4.785
			s-4.785,2.141-4.785,4.785S94.906,85.612,97.549,85.612z M97.549,78.434c1.324,0,2.395,1.07,2.395,2.395
			c0,1.32-1.07,2.395-2.395,2.395c-1.32,0-2.393-1.074-2.393-2.395C95.156,79.505,96.229,78.434,97.549,78.434z"/>
	</g>
	<g id="copper0_2_">
		<g id="copper0_1_">
			<path id="connector12pin" fill="#9A916C" d="M125.348-70.882c2.645,0,4.785-2.141,4.785-4.787s-2.139-4.785-4.785-4.785
				s-4.787,2.139-4.787,4.785S122.703-70.882,125.348-70.882z M125.344-78.063c1.324,0,2.393,1.07,2.393,2.395
				c0,1.322-1.068,2.395-2.393,2.395c-1.32,0-2.391-1.072-2.391-2.395C122.953-76.993,124.024-78.063,125.344-78.063z"/>
			<path id="connector13pin" fill="#9A916C" d="M110.946-70.882c2.645,0,4.785-2.141,4.785-4.787s-2.139-4.785-4.785-4.785
				s-4.785,2.139-4.785,4.785S108.301-70.882,110.946-70.882z M110.946-78.063c1.324,0,2.395,1.07,2.395,2.395
				c0,1.322-1.07,2.395-2.395,2.395c-1.32,0-2.395-1.072-2.395-2.395C108.551-76.993,109.625-78.063,110.946-78.063z"/>
		</g>
	</g>
</g>
<g>
	<rect x="91.27" y="-55.096" fill="#020202" width="6.998" height="11.695"/>
	<rect x="91.27" y="-45.819" fill="#999999" width="6.998" height="2.418"/>
	<rect x="91.27" y="-55.096" fill="#999999" width="6.998" height="2.15"/>
</g>
<g>
	<rect x="139.342" y="-54.518" fill="#847863" width="6.238" height="10.541"/>
	<rect x="139.342" y="-54.518" fill="#999999" width="6.238" height="2.371"/>
	<rect x="139.34" y="-46.356" fill="#999999" width="6.24" height="2.377"/>
</g>
<g>
	<rect x="89.098" y="41.204" fill="#8E8D8A" width="5.844" height="11.25"/>
	<rect x="89.098" y="43.204" fill="#B6B39A" width="5.844" height="6.813"/>
	<rect x="90.201" y="45.52" fill="#D8C66B" width="2.877" height="3.25"/>
	<circle fill="#508759" cx="92.364" cy="46.266" r="0.359"/>
</g>
<g>
	<rect x="123.031" y="-54.518" fill="#847863" width="6.238" height="10.541"/>
	<rect x="123.031" y="-54.518" fill="#999999" width="6.238" height="2.371"/>
	<rect x="123.031" y="-46.356" fill="#999999" width="6.238" height="2.377"/>
</g>
<g>
	<rect x="106.879" y="-55.096" fill="#020202" width="6.998" height="11.695"/>
	<rect x="106.879" y="-45.817" fill="#999999" width="6.998" height="2.416"/>
	<rect x="106.879" y="-55.096" fill="#999999" width="6.998" height="2.152"/>
</g>
<g>
	<rect x="145.35" y="40.282" fill="#8E8D8A" width="5.844" height="11.25"/>
	<rect x="145.35" y="42.282" fill="#B6B39A" width="5.844" height="6.813"/>
	<rect x="146.453" y="44.598" fill="#D8C66B" width="2.877" height="3.25"/>
	<circle fill="#508759" cx="148.615" cy="45.344" r="0.359"/>
</g>
<g>
	<rect x="135.287" y="18.384" fill="#020202" width="11.695" height="6.437"/>
	<rect x="135.287" y="18.384" fill="#999999" width="2.418" height="6.437"/>
	<rect x="144.83" y="18.384" fill="#999999" width="2.15" height="6.437"/>
</g>
<g>
	<rect x="94.582" y="18.861" fill="#020202" width="11.695" height="6.437"/>
	<rect x="94.582" y="18.861" fill="#999999" width="2.418" height="6.437"/>
	<rect x="104.123" y="18.861" fill="#999999" width="2.152" height="6.437"/>
</g>
<g>
	<rect x="85.418" y="-17.612" fill="#414141" width="26.398" height="18.471"/>
	<g>
		<g>
			<rect x="108.217" y="-25.028" fill="#999999" width="2.215" height="7.416"/>
			<rect x="108.217" y="-22.423" fill="#666766" width="2.215" height="1.875"/>
		</g>
		<g>
			<rect x="101.094" y="-25.028" fill="#999999" width="2.213" height="7.416"/>
			<rect x="101.094" y="-22.423" fill="#666766" width="2.213" height="1.875"/>
		</g>
		<g>
			<rect x="93.928" y="-25.028" fill="#999999" width="2.213" height="7.416"/>
			<rect x="93.928" y="-22.423" fill="#666766" width="2.213" height="1.875"/>
		</g>
		<g>
			<rect x="86.51" y="-25.028" fill="#999999" width="2.213" height="7.416"/>
			<rect x="86.51" y="-22.423" fill="#666766" width="2.213" height="1.875"/>
		</g>
	</g>
	<g>
		<g>
			<rect x="86.426" y="0.861" fill="#999999" width="2.213" height="7.414"/>
			<rect x="86.426" y="3.796" fill="#666766" width="2.213" height="1.877"/>
		</g>
		<g>
			<rect x="93.717" y="0.861" fill="#999999" width="2.215" height="7.414"/>
			<rect x="93.717" y="3.796" fill="#666766" width="2.215" height="1.877"/>
		</g>
		<g>
			<rect x="100.799" y="0.861" fill="#999999" width="2.215" height="7.414"/>
			<rect x="100.799" y="3.796" fill="#666766" width="2.215" height="1.877"/>
		</g>
		<g>
			<rect x="108.217" y="0.861" fill="#999999" width="2.215" height="7.414"/>
			<rect x="108.217" y="3.796" fill="#666766" width="2.215" height="1.877"/>
		</g>
	</g>
	<circle fill="#232323" cx="89.098" cy="-2.458" r="1.852"/>
</g>
<path fill="none" stroke="#000000" stroke-width="3" stroke-miterlimit="10" d="M-2.668-70.858
	c0-34.416,30.196-62.265,67.513-62.265"/>
<path fill="none" stroke="#000000" stroke-width="3" stroke-miterlimit="10" d="M109.817-75.106
	c0-32.068-20.114-58.017-44.972-58.017"/>
<path fill="none" stroke="#E01010" stroke-width="3" stroke-miterlimit="10" d="M11.729-72.61c0-22.761,19.878-41.18,44.445-41.18"
	/>
<path fill="none" stroke="#E01010" stroke-width="3" stroke-miterlimit="10" d="M125.742-74.667
	c0-21.625-31.115-39.123-69.568-39.123"/>
</svg>
