<?xml version="1.0" encoding="utf-8"?>
<!-- Generator: Adobe Illustrator 16.0.0, SVG Export Plug-In . SVG Version: 6.00 Build 0)  -->
<!DOCTYPE svg PUBLIC "-//W3C//DTD SVG 1.1//EN" "http://www.w3.org/Graphics/SVG/1.1/DTD/svg11.dtd">
<svg version="1.1" id="Layer_1" xmlns="http://www.w3.org/2000/svg" xmlns:xlink="http://www.w3.org/1999/xlink" x="0px" y="0px"
	 width="255.8px" height="134.4px" viewBox="0 0 255.8 134.4" style="enable-background:new 0 0 255.8 134.4;" xml:space="preserve"
	>
<style type="text/css">
<![CDATA[
	.st0{fill:#E56274;}
	.st1{opacity:0.19;fill:#332F2F;enable-background:new    ;}
	.st2{fill:#EAEAEA;}
	.st3{fill:#B84256;}
	.st4{fill:#EE8686;}
	.st5{fill:#3F3D3A;stroke:#BABABA;stroke-width:3;stroke-miterlimit:10;}
	.st6{fill:#BABABA;}
	.st7{fill:#F4DC64;}
	.st8{fill:#5A4F50;}
	.st9{fill:#969696;}
	.st10{fill:#332F2F;}
	.st11{fill:#D6D6D6;}
	.st12{fill:#DE3A56;}
]]>
</style>
<title>waterMotor</title>
<g id="undo-redo-save">
	<polygon class="st11" points="242.9,40 217,40 217,57.5 242.9,57.5 255.8,54.6 255.8,42.9 	"/>
	<polygon class="st11" points="242.9,76.9 217,76.9 217,94.5 242.9,94.5 255.8,90.4 255.8,80.4 	"/>
	<rect x="217" y="40" class="st8" width="4.7" height="17.5"/>
	<rect x="217" y="76.9" class="st8" width="4.7" height="17.5"/>
	<polygon class="st1" points="221.7,49.4 255.8,49.4 255.8,54.6 242.9,57.5 221.7,57.5 	"/>
	<polygon class="st1" points="221.7,84.9 255.8,84.9 255.8,90.4 242.9,94.5 221.7,94.5 	"/>
	<path class="st7" d="M0,37.5v3.9c0,1.2,1,2.1,2.1,2.1h19.9v-8.2H2.1C1,35.4,0,36.3,0,37.5z M6.3,42.1c-1.4,0-2.5-1.1-2.5-2.5
		c0-1.4,1.1-2.5,2.5-2.5c1.4,0,2.5,1.1,2.5,2.5C8.9,40.9,7.7,42,6.3,42.1L6.3,42.1z"/>
	<path class="st7" d="M0,93.1v3.9c0,1.2,1,2.1,2.1,2.1h19.9v-8.1H2.1C1,90.9,0,91.9,0,93.1z M6.3,97.6c-1.4,0-2.5-1.1-2.5-2.5
		c0-1.4,1.1-2.5,2.5-2.5c1.4,0,2.5,1.1,2.5,2.5C8.9,96.5,7.7,97.6,6.3,97.6z"/>
	<rect x="15.4" y="54.9" class="st2" width="6.7" height="24.6"/>
	<rect x="14" y="64" class="st7" width="1.4" height="7.3"/>
	<path class="st2" d="M25.6,23.4h10.7l0,0v87.8l0,0H25.6c-2,0-3.6-1.6-3.6-3.6V27C22.1,25,23.7,23.4,25.6,23.4z"/>
	<path class="st9" d="M67.7,17.6c-1.4,0-2.5,1.3-2.5,2.9v2.9H36.3v87.8h26.4c1.4,0,2.5,1.3,2.5,2.9l0,0c0,1.6,1.1,2.9,2.5,2.9h149.3
		V17.6H67.7z"/>
	<path class="st12" d="M148.9,8.8h65.4c1.5,0,2.7,1.2,2.7,2.7v111.7c0,1.5-1.2,2.7-2.7,2.7h-65.4c-5.4,0-9.8-4.4-9.8-9.8V18.6
		C139.1,13.2,143.5,8.8,148.9,8.8z"/>
	<path class="st3" d="M178,116.9H217l0,0v10.4c0,3.9-3.2,7.1-7.1,7.1h-28.3c-2,0-3.6-1.6-3.6-3.6V116.9L178,116.9z"/>
	<path class="st3" d="M173.8,116.9h4.3l0,0v14.6l0,0h-4.3c-2,0-3.6-1.6-3.6-3.6v-7.5C170.2,118.5,171.8,116.9,173.8,116.9
		L173.8,116.9z"/>
	<path class="st6" d="M137,17.7H71.2c-1.1,0-2.1,1.3-2.1,2.9v0.5c0,1.3-1,2.3-2.3,2.3H36.3v70.7c0,1.3,1,2.3,2.3,2.3h28.6
		c1.1,0,2.1-1.3,2.1-2.9l0,0c0-1.3,1-2.3,2.3-2.3h67.7V20.6C139.1,19,138.2,17.7,137,17.7z"/>
	<path class="st11" d="M82,22.8h47.4c3.9,0,7.1,3.2,7.1,7.1v19.8c0,3.9-3.2,7.1-7.1,7.1H82c-3.9,0-7.1-3.2-7.1-7.1V29.9
		C74.9,26,78,22.8,82,22.8z"/>
	<path class="st11" d="M49.6,28.2h12.5c3.9,0,7.1,3.2,7.1,7.1v14.4c0,3.9-3.2,7.1-7.1,7.1H49.6c-3.9,0-7.1-3.2-7.1-7.1V35.3
		C42.5,31.4,45.7,28.2,49.6,28.2z"/>
	<path class="st5" d="M56.9,83L56.9,83c2.6,0,4.8,2.1,4.8,4.8v12.6c0,2.6-2.1,4.8-4.8,4.8l0,0c-2.6,0-4.8-2.1-4.8-4.8V87.8
		C52.1,85.2,54.2,83,56.9,83z"/>
	<path class="st5" d="M56.9,54.7L56.9,54.7c2.6,0,4.8,2.1,4.8,4.8v12.6c0,2.6-2.1,4.8-4.8,4.8l0,0c-2.6,0-4.8-2.1-4.8-4.8V59.5
		C52.1,56.8,54.2,54.7,56.9,54.7z"/>
	<path class="st5" d="M56.9,26.4L56.9,26.4c2.6,0,4.8,2.1,4.8,4.8v12.6c0,2.6-2.1,4.8-4.8,4.8l0,0c-2.6,0-4.8-2.1-4.8-4.8V31.2
		C52.1,28.5,54.2,26.4,56.9,26.4z"/>
	<path class="st0" d="M149.4,7.7h64.4c1.8,0,3.2,1.4,3.2,3.2l0,0V88c0,1.8-1.4,3.2-3.2,3.2l0,0h-71.5c-1.8,0-3.2-1.4-3.2-3.2l0,0
		V17.9C139.1,12.3,143.7,7.7,149.4,7.7z"/>
	<path class="st12" d="M178,116.8h2l0,0v17.6l0,0l0,0c-1.1,0-2-0.9-2-2V116.8L178,116.8z"/>
	<path class="st12" d="M168.5,7.7H217l0,0v15.1l0,0h-44.9c-2,0-3.6-1.6-3.6-3.6V7.7L168.5,7.7z"/>
	<path class="st0" d="M181.6,0h28.3c3.9,0,7.1,3.2,7.1,7.1v10.5l0,0H178l0,0V3.6C178,1.6,179.6,0,181.6,0z"/>
	<path class="st0" d="M173.8,3.1h4.3l0,0v14.6l0,0h-4.3c-2,0-3.6-1.6-3.6-3.6V6.6C170.2,4.6,171.8,3.1,173.8,3.1z"/>
	<path class="st12" d="M180.1,0L180.1,0L180.1,0v17.6l0,0h-2l0,0V2C178,0.9,178.9,0,180.1,0z"/>
	<rect x="188.2" y="20.6" class="st12" width="13.9" height="70.6"/>
	<path class="st4" d="M183.8,2.7h28.6c0.9,0,1.6,0.7,1.6,1.6v1.7c0,0.9-0.7,1.6-1.6,1.6h-28.6c-0.9,0-1.6-0.7-1.6-1.6V4.2
		C182.2,3.4,182.9,2.7,183.8,2.7z"/>
	<path class="st4" d="M173.1,5.1h2.5c0.7,0,1.3,0.6,1.3,1.3l0,0c0,0.7-0.6,1.3-1.3,1.3h-2.5c-0.7,0-1.3-0.6-1.3-1.3l0,0
		C171.8,5.7,172.4,5.1,173.1,5.1z"/>
	<rect x="217" y="48.6" class="st10" width="4.7" height="9.6"/>
	<rect x="217" y="76.2" class="st10" width="4.7" height="8.1"/>
</g>
</svg>
