<?xml version="1.0" encoding="utf-8"?>
<!-- Generator: Adobe Illustrator 16.0.0, SVG Export Plug-In . SVG Version: 6.00 Build 0)  -->
<!DOCTYPE svg PUBLIC "-//W3C//DTD SVG 1.1//EN" "http://www.w3.org/Graphics/SVG/1.1/DTD/svg11.dtd">
<svg version="1.1" id="Layer_1" xmlns="http://www.w3.org/2000/svg" xmlns:xlink="http://www.w3.org/1999/xlink" x="0px" y="0px"
	 width="85.6px" height="105.8px" viewBox="0 0 85.6 105.8" style="enable-background:new 0 0 85.6 105.8;" xml:space="preserve">
<style type="text/css">
<![CDATA[
	.st0{fill:none;stroke:#9A916C;stroke-width:1.1027;}
	.st1{fill:none;stroke:#FFFFFF;stroke-width:2;stroke-miterlimit:10;}
	.st2{font-family:'MyriadPro-Regular';}
	.st3{fill:#2D2D2D;}
	.st4{font-size:15.0681;}
	.st5{fill:#606161;}
	.st6{fill:#FFFFFF;}
	.st7{fill:none;stroke:#FFFFFF;stroke-width:3;stroke-miterlimit:10;}
	.st8{font-size:20.9877;}
]]>
</style>
<path class="st3" d="M0,0v105.8h85.6V0H0z M20.7,93.8c-1.6,0-2.8-1.3-2.8-2.8c0,0,0,0,0,0c0-1.6,1.3-2.8,2.8-2.8
	c1.6,0,2.8,1.3,2.8,2.8S22.3,93.8,20.7,93.8z M38,91c0,1.6-1.3,2.8-2.8,2.8c-1.6,0-2.8-1.3-2.8-2.8c0,0,0,0,0,0
	c0-1.6,1.3-2.8,2.8-2.8C36.7,88.1,38,89.4,38,91C38,91,38,91,38,91z M52.4,91c0,1.6-1.3,2.8-2.8,2.8c-1.6,0-2.8-1.3-2.8-2.8
	c0,0,0,0,0,0c0-1.6,1.3-2.8,2.8-2.8C51.1,88.1,52.4,89.4,52.4,91C52.4,91,52.4,91,52.4,91z M66.8,91c0,1.6-1.3,2.8-2.8,2.8
	c-1.6,0-2.8-1.3-2.8-2.8c0,0,0,0,0,0c0-1.6,1.3-2.8,2.8-2.8C65.5,88.1,66.8,89.4,66.8,91C66.8,91,66.8,91,66.8,91z"/>
<circle class="st6" cx="17.3" cy="13.2" r="6.7"/>
<circle class="st6" cx="67.4" cy="13.2" r="6.7"/>
<text transform="matrix(1 0 0 1 34.5415 19.8418)" class="st6 st2 st4">KS</text>
<rect x="11.5" y="83.2" class="st1" width="61.7" height="16.5"/>
<text transform="matrix(1 0 0 1 14.916 78.7358)" class="st6 st2 st4">R</text>
<text transform="matrix(1 0 0 1 29.8442 78.7358)" class="st6 st2 st4">G</text>
<text transform="matrix(1 0 0 1 45.606 78.7358)" class="st6 st2 st4">B</text>
<text transform="matrix(1 0 0 1 61.438 78.7358)" class="st6 st2 st8">-</text>
<circle class="st7" cx="42.3" cy="44.4" r="12.7"/>
<circle class="st7" cx="42.3" cy="44.4" r="8.6"/>
<path class="st5" d="M33.7,34.6h1.4c1.6,0,2.8,1.3,2.8,2.8v1.4c0,1.6-1.3,2.8-2.8,2.8h-1.4c-1.6,0-2.8-1.3-2.8-2.8v-1.4
	C30.9,35.8,32.1,34.6,33.7,34.6z"/>
<path class="st5" d="M49,34.6h1.4c1.6,0,2.8,1.3,2.8,2.8v1.4c0,1.6-1.3,2.8-2.8,2.8H49c-1.6,0-2.8-1.3-2.8-2.8v-1.4
	C46.2,35.8,47.5,34.6,49,34.6z"/>
<path class="st5" d="M49,47.5h1.4c1.6,0,2.8,1.3,2.8,2.8v1.4c0,1.6-1.3,2.8-2.8,2.8H49c-1.6,0-2.8-1.3-2.8-2.8v-1.4
	C46.2,48.7,47.5,47.5,49,47.5z"/>
<path class="st5" d="M33.7,47.5h1.4c1.6,0,2.8,1.3,2.8,2.8v1.4c0,1.6-1.3,2.8-2.8,2.8h-1.4c-1.6,0-2.8-1.3-2.8-2.8v-1.4
	C30.9,48.7,32.1,47.5,33.7,47.5z"/>
<circle id="connector6pin" class="st0" cx="20.7" cy="91" r="3.9"/>
<circle id="connector7pin" class="st0" cx="35.1" cy="91" r="3.9"/>
<circle id="connector8pin" class="st0" cx="49.5" cy="91" r="3.9"/>
<circle id="connector9pin" class="st0" cx="63.9" cy="91" r="3.9"/>
</svg>
