<?xml version="1.0" encoding="utf-8"?>
<!-- Generator: Adobe Illustrator 16.0.0, SVG Export Plug-In . SVG Version: 6.00 Build 0)  -->
<!DOCTYPE svg PUBLIC "-//W3C//DTD SVG 1.1//EN" "http://www.w3.org/Graphics/SVG/1.1/DTD/svg11.dtd">
<svg version="1.1" id="Layer_2" xmlns:xml="http://www.w3.org/XML/1998/namespace"
	 xmlns="http://www.w3.org/2000/svg" xmlns:xlink="http://www.w3.org/1999/xlink" x="0px" y="0px" width="113.378px"
	 height="351.498px" viewBox="-28.344 -87.874 113.378 351.498" enable-background="new -28.344 -87.874 113.378 351.498"
	 xml:space="preserve">
<desc>
	<referenceFile>water-depth-sensor-BREADBOARD_v6.svg</referenceFile>
</desc>
<path fill="#FA1A1B" d="M-28.344,232.55v31.074H85.034V232.55l-11.881-11.684c-5.627-5.592-4.834-12.554-4.834-12.554v-19.515
	c0,0-0.729-9.26,3.207-13.173l13.508-13.796V-87.874H-28.344v249.703l13.504,13.796c3.938,3.915,3.207,13.173,3.207,13.173v19.515
	c0,0,0.793,6.959-4.834,12.554L-28.344,232.55z M-18.817,154.957c-1.141,0-2.066-0.926-2.066-2.066c0-1.14,0.926-2.065,2.066-2.065
	s2.066,0.926,2.066,2.065C-16.75,154.031-17.674,154.957-18.817,154.957z M30.476,256.542c-1.473,0-2.666-1.196-2.666-2.668
	s1.193-2.668,2.666-2.668c1.471,0,2.666,1.196,2.666,2.668S31.947,256.542,30.476,256.542z M65.4,150.825
	c1.141,0,2.066,0.926,2.066,2.065c0,1.141-0.926,2.066-2.066,2.066s-2.066-0.926-2.066-2.066
	C63.333,151.751,64.257,150.825,65.4,150.825z M70.202,235.29c5.893,0,10.668,4.776,10.668,10.668s-4.775,10.666-10.668,10.666
	c-5.891,0-10.668-4.776-10.668-10.668S64.312,235.29,70.202,235.29z M60.585,176.917c1.035,0,1.875,0.84,1.875,1.876
	c0,1.035-0.84,1.875-1.875,1.875c-1.037,0-1.877-0.84-1.877-1.875C58.708,177.757,59.548,176.917,60.585,176.917z M48.88,212.248
	c1.037,0,1.877,0.84,1.877,1.876S49.917,216,48.88,216c-1.035,0-1.875-0.84-1.875-1.876S47.847,212.248,48.88,212.248z
	 M47.54,253.874c0,1.472-1.193,2.668-2.666,2.668c-1.471,0-2.666-1.196-2.666-2.668s1.195-2.668,2.666-2.668
	C46.347,251.206,47.54,252.402,47.54,253.874z M44.2,150.825c1.141,0,2.066,0.926,2.066,2.065c0,1.141-0.926,2.066-2.066,2.066
	c-1.139,0-2.066-0.926-2.066-2.066C42.134,151.751,43.06,150.825,44.2,150.825z M32.066,176.375c1.035,0,1.875,0.84,1.875,1.876
	c0,1.035-0.84,1.875-1.875,1.875c-1.037,0-1.877-0.84-1.877-1.875C30.189,177.215,31.029,176.375,32.066,176.375z M28.345,200.29
	c1.035,0,1.875,0.84,1.875,1.876s-0.84,1.876-1.875,1.876c-1.035,0-1.877-0.84-1.877-1.876S27.31,200.29,28.345,200.29z
	 M23.261,150.825c1.141,0,2.066,0.926,2.066,2.065c0,1.141-0.926,2.066-2.066,2.066s-2.066-0.926-2.066-2.066
	C21.195,151.751,22.121,150.825,23.261,150.825z M16.076,251.206c1.471,0,2.668,1.196,2.668,2.668s-1.197,2.668-2.668,2.668
	c-1.473,0-2.668-1.196-2.668-2.668S14.601,251.206,16.076,251.206z M2.168,150.825c1.141,0,2.066,0.926,2.066,2.065
	c0,1.141-0.926,2.066-2.066,2.066s-2.066-0.926-2.066-2.066C0.101,151.751,1.027,150.825,2.168,150.825z M-0.963,245.958
	c0,5.892-4.775,10.668-10.668,10.668c-5.891,0-10.668-4.776-10.668-10.668s4.777-10.668,10.668-10.668
	C-5.739,235.29-0.963,240.066-0.963,245.958z"/>
<g>
	<rect x="2.049" y="217.072" fill="#CDC2B2" width="4.654" height="8.506"/>
	
		<polyline opacity="0.52" fill="none" stroke="#A2A2A2" stroke-width="0.5" stroke-miterlimit="10" enable-background="new    " points="
		3.209,223.811 3.209,223.154 3.742,220.813 	"/>
	<polyline fill="none" stroke="#FFFFFF" stroke-width="0.5" stroke-miterlimit="10" points="2.578,222.977 3.797,222.977 
		4.375,223.62 	"/>
	<polyline fill="none" stroke="#FFFFFF" stroke-width="0.5" stroke-miterlimit="10" points="2.578,220.634 4.482,220.634 
		4.922,221.326 5.732,222.592 	"/>
	<line fill="none" stroke="#FFFFFF" stroke-width="0.5" stroke-miterlimit="10" x1="5.404" y1="219.638" x2="4.922" y2="221.326"/>
	<circle opacity="0.69" fill="#696153" enable-background="new    " cx="4.373" cy="221.326" r="0.512"/>
	<rect x="2.049" y="217.072" fill="#E1E1E1" width="4.654" height="0.735"/>
	<rect x="2.051" y="224.84" fill="#E1E1E1" width="4.652" height="0.738"/>
	<polyline fill="#696153" points="3.476,217.072 4.922,217.072 4.195,217.682 	"/>
	<polyline fill="#696153" points="4.922,225.578 3.476,225.578 4.197,224.968 	"/>
</g>
<g>
	<rect x="1.75" y="188.64" fill="#020202" width="4.9" height="8.694"/>
	<rect x="1.75" y="195.948" fill="#C0BFBE" width="4.9" height="1.382"/>
	<rect x="1.75" y="188.64" fill="#C0BFBE" width="4.9" height="1.391"/>
</g>
<g>
	<rect x="17.211" y="189.674" fill="#020202" width="4.9" height="8.694"/>
	<rect x="17.211" y="196.982" fill="#C0BFBE" width="4.9" height="1.382"/>
	<rect x="17.211" y="189.674" fill="#C0BFBE" width="4.9" height="1.391"/>
</g>
<g>
	<rect x="58.331" y="189.798" fill="#020202" width="4.9" height="8.694"/>
	<rect x="58.331" y="197.105" fill="#C0BFBE" width="4.9" height="1.383"/>
	<rect x="58.331" y="189.798" fill="#C0BFBE" width="4.9" height="1.39"/>
</g>
<g>
	<rect x="33.591" y="190.986" fill="#30302F" width="13.756" height="6.067"/>
	<polyline fill="#1E1F1E" points="47.347,190.986 48.134,190.684 48.134,197.606 47.347,197.054 	"/>
	<polygon fill="#1E1F1E" points="32.798,190.684 32.798,197.606 33.591,197.054 33.591,190.986 	"/>
	<polygon fill="#262626" points="32.798,197.606 33.591,197.054 47.347,197.054 48.134,197.606 32.995,197.606 	"/>
	<polygon points="32.798,190.684 33.591,190.986 47.347,190.986 48.134,190.684 32.995,190.684 	"/>
	<rect x="39.013" y="197.606" fill="#989898" width="2.646" height="2.901"/>
	<rect x="44.331" y="188.168" fill="#989898" width="2.383" height="2.516"/>
	<rect x="33.941" y="188.168" fill="#989898" width="2.301" height="2.516"/>
	<rect x="39.013" y="198.368" fill="#6D6E6E" width="2.646" height="0.882"/>
	<rect x="44.331" y="189.192" fill="#6D6E6E" width="2.383" height="0.819"/>
	<rect x="33.941" y="189.192" fill="#6D6E6E" width="2.301" height="0.819"/>
</g>
<g>
	<path fill="#DDDDDD" stroke="#969696" stroke-width="0.1" stroke-miterlimit="10" d="M76.034,154.083c0.957,0,1.73-0.774,1.73-1.73
		V-83.155c0-0.957-0.773-1.729-1.73-1.729c-0.953,0-1.729,0.773-1.729,1.729v235.507C74.306,153.309,75.081,154.083,76.034,154.083z
		"/>
	<path fill="#DDDDDD" stroke="#969696" stroke-width="0.1" stroke-miterlimit="10" d="M55.034,154.083
		c0.957,0,1.729-0.774,1.729-1.73l0.001-235.507c0-0.957-0.773-1.729-1.729-1.729c-0.953,0-1.729,0.773-1.729,1.729l-0.001,235.507
		C53.306,153.309,54.079,154.083,55.034,154.083z"/>
	<path fill="#DDDDDD" stroke="#969696" stroke-width="0.1" stroke-miterlimit="10" d="M33.911,154.083
		c0.955,0,1.727-0.774,1.727-1.73l0.001-235.507c0-0.957-0.773-1.729-1.727-1.729c-0.955,0-1.729,0.773-1.729,1.729l-0.001,235.507
		C32.183,153.309,32.954,154.083,33.911,154.083z"/>
	<path fill="#DDDDDD" stroke="#969696" stroke-width="0.1" stroke-miterlimit="10" d="M12.931,154.083
		c0.955,0,1.729-0.774,1.729-1.73V-83.155c0-0.957-0.775-1.729-1.729-1.729s-1.729,0.773-1.729,1.729v235.507
		C11.203,153.309,11.978,154.083,12.931,154.083z"/>
	<path fill="#DDDDDD" stroke="#969696" stroke-width="0.1" stroke-miterlimit="10" d="M-8.215,154.083
		c0.957,0,1.729-0.774,1.729-1.73V-83.155c0-0.957-0.773-1.729-1.729-1.729c-0.953,0-1.727,0.773-1.727,1.729v235.507
		C-9.942,153.309-9.17,154.083-8.215,154.083z"/>
	<path fill="#DDDDDD" stroke="#969696" stroke-width="0.1" stroke-miterlimit="10" d="M65.4,156.801
		c2.168,0,3.926-1.758,3.926-3.926c0-1.544-0.9-2.868-2.199-3.508V-83.151c0-0.959-0.773-1.73-1.727-1.73
		c-0.955,0-1.729,0.773-1.729,1.73v232.518c-1.297,0.642-2.199,1.964-2.199,3.508C61.472,155.043,63.232,156.801,65.4,156.801z
		 M65.4,150.999c1.035,0,1.875,0.84,1.875,1.876s-0.84,1.876-1.875,1.876c-1.037,0-1.877-0.84-1.877-1.876
		S64.363,150.999,65.4,150.999z"/>
	<path fill="#DDDDDD" stroke="#969696" stroke-width="0.1" stroke-miterlimit="10" d="M44.411,156.801
		c2.168,0,3.926-1.758,3.926-3.926c0-1.544-0.9-2.868-2.199-3.508l0.001-232.518c0-0.959-0.773-1.73-1.727-1.73
		c-0.955,0-1.729,0.773-1.729,1.73l-0.001,232.518c-1.297,0.642-2.197,1.964-2.197,3.508
		C40.488,155.043,42.243,156.801,44.411,156.801z M44.154,150.999c1.035,0,1.875,0.84,1.875,1.876s-0.84,1.876-1.875,1.876
		c-1.037,0-1.877-0.84-1.877-1.876S43.118,150.999,44.154,150.999z"/>
	<path fill="#DDDDDD" stroke="#969696" stroke-width="0.1" stroke-miterlimit="10" d="M23.42,156.801
		c2.17,0,3.928-1.758,3.928-3.926c0-1.544-0.9-2.868-2.199-3.508V-83.151c0-0.959-0.775-1.73-1.729-1.73
		c-0.955,0-1.729,0.773-1.729,1.73v232.518c-1.295,0.642-2.197,1.964-2.197,3.508C19.494,155.043,21.252,156.801,23.42,156.801z
		 M23.273,150.999c1.037,0,1.877,0.84,1.877,1.876s-0.84,1.876-1.877,1.876c-1.035,0-1.875-0.84-1.875-1.876
		S22.24,150.999,23.273,150.999z"/>
	<path fill="#DDDDDD" stroke="#969696" stroke-width="0.1" stroke-miterlimit="10" d="M2.295,156.801
		c2.17,0,3.928-1.758,3.928-3.926c0-1.544-0.898-2.868-2.199-3.508V-83.155c0-0.957-0.773-1.729-1.729-1.729
		c-0.953,0-1.727,0.773-1.727,1.729v232.522c-1.297,0.642-2.199,1.964-2.199,3.508C-1.631,155.043,0.127,156.801,2.295,156.801z
		 M2.15,150.999c1.035,0,1.875,0.84,1.875,1.876s-0.84,1.876-1.875,1.876c-1.037,0-1.877-0.84-1.877-1.876
		S1.113,150.999,2.15,150.999z"/>
	<path fill="#DDDDDD" stroke="#969696" stroke-width="0.1" stroke-miterlimit="10" d="M-18.819,156.801
		c2.17,0,3.928-1.758,3.928-3.926c0-1.544-0.9-2.868-2.199-3.508V-83.151c0-0.959-0.775-1.73-1.729-1.73s-1.729,0.773-1.729,1.73
		v232.518c-1.295,0.642-2.197,1.964-2.197,3.508C-22.744,155.043-20.987,156.801-18.819,156.801z M-18.819,150.999
		c1.035,0,1.877,0.84,1.877,1.876s-0.842,1.876-1.877,1.876s-1.877-0.84-1.877-1.876S-19.852,150.999-18.819,150.999z"/>
</g>
<g id="silkscreen">
	<path fill="none" stroke="#FFFFFF" stroke-width="0.75" stroke-miterlimit="10" d="M7.785,261.248v-31.124h45.375v31.124H7.785z
		 M7.785,244.624h45.375 M23.285,230.124v31.124 M37.909,261.248v-31.124"/>
	<g>
		<path fill="#FFFFFF" d="M15.66,211.954l-1.23-1.23c0-1.632,0.02-2.472,0.061-2.514c0.039-0.042,0.088-0.092,0.143-0.144
			c0.057-0.055,0.117-0.11,0.178-0.17c0.059-0.061,0.109-0.106,0.148-0.141c0.053-0.046,0.119-0.104,0.195-0.174
			c0.078-0.07,0.15-0.138,0.225-0.206c0.072-0.065,0.166-0.146,0.281-0.24h2.889v-1.83c0-0.012,0.035-0.042,0.102-0.09
			c0.064-0.048,0.119-0.076,0.16-0.09c0.006,0,0.02-0.002,0.039-0.004c0.021-0.002,0.037-0.004,0.051-0.004
			c0.012,0,0.039,0.002,0.08,0.01c0.033,0.014,0.07,0.042,0.115,0.09c0.043,0.048,0.064,0.078,0.064,0.09v6.65h-3.5V211.954z
			 M18.461,207.924c-1.633,0-2.477,0.021-2.535,0.061s-0.125,0.088-0.195,0.144c-0.074,0.056-0.148,0.116-0.225,0.174
			c-0.078,0.061-0.143,0.11-0.195,0.15c-0.029,0.02-0.064,0.052-0.113,0.094c-0.043,0.044-0.068,0.068-0.068,0.076v1.93l0.701,0.7
			h2.629v-3.328H18.461z"/>
		<path fill="#FFFFFF" d="M13.429,208.624c0,0.006-0.02,0.032-0.061,0.076c-0.039,0.042-0.088,0.092-0.143,0.144
			c-0.057,0.055-0.117,0.11-0.178,0.17c-0.057,0.061-0.109,0.106-0.146,0.141c-0.047,0.04-0.109,0.088-0.184,0.144
			c-0.07,0.056-0.145,0.114-0.223,0.17c-0.076,0.057-0.143,0.106-0.201,0.146c-0.057,0.04-0.088,0.06-0.096,0.06h-2.27
			c-0.006,0-0.041-0.02-0.096-0.06c-0.057-0.04-0.125-0.088-0.201-0.146c-0.074-0.058-0.15-0.114-0.223-0.17
			c-0.074-0.056-0.133-0.104-0.18-0.144c-0.043-0.034-0.092-0.08-0.15-0.141c-0.061-0.06-0.121-0.115-0.176-0.17
			c-0.057-0.052-0.107-0.102-0.145-0.144c-0.043-0.044-0.061-0.068-0.061-0.076v-2.271l1.23-1.229h2.27l1.23,1.229V208.624
			L13.429,208.624z M12.029,205.824h-1.93l-0.699,0.7v1.75c0,0.006,0.023,0.031,0.066,0.073c0.047,0.044,0.084,0.08,0.113,0.106
			c0.045,0.04,0.107,0.088,0.186,0.144c0.076,0.057,0.152,0.114,0.229,0.17c0.078,0.057,0.141,0.106,0.195,0.146
			s0.084,0.06,0.09,0.06c0.008,0,0.043,0.005,0.105,0.011s0.137,0.01,0.221,0.014c0.082,0.002,0.168,0.006,0.254,0.01
			c0.088,0.004,0.156,0.004,0.211,0.004c0.051,0,0.121,0,0.205-0.004c0.082-0.002,0.166-0.006,0.25-0.01
			c0.082-0.004,0.156-0.008,0.219-0.014c0.064-0.006,0.1-0.011,0.105-0.011s0.037-0.02,0.09-0.06s0.121-0.088,0.195-0.146
			c0.076-0.058,0.154-0.113,0.23-0.17c0.076-0.056,0.139-0.104,0.184-0.144c0.037-0.026,0.072-0.063,0.117-0.106
			c0.043-0.042,0.066-0.067,0.066-0.073v-1.75L12.029,205.824z"/>
		<path fill="#FFFFFF" d="M7.699,209.474c0,0.015-0.021,0.042-0.064,0.084c-0.041,0.044-0.072,0.068-0.09,0.076
			c-0.018,0.006-0.035,0.013-0.055,0.017c-0.021,0.002-0.037,0.004-0.049,0.004s-0.029-0.002-0.049-0.004
			c-0.021-0.004-0.035-0.006-0.041-0.006c-0.041-0.013-0.094-0.043-0.16-0.084c-0.066-0.043-0.1-0.072-0.1-0.084v-2.98
			c0-0.006-0.023-0.032-0.07-0.076c-0.045-0.044-0.104-0.094-0.17-0.15c-0.066-0.056-0.135-0.113-0.205-0.17
			c-0.072-0.056-0.129-0.098-0.178-0.126c0-0.006-0.01-0.012-0.029-0.014s-0.037-0.004-0.051-0.004
			c-0.012,0-0.029,0.002-0.047,0.004c-0.021,0.002-0.033,0.008-0.043,0.014c-0.02,0.015-0.07,0.057-0.16,0.126
			c-0.086,0.07-0.178,0.146-0.275,0.227c-0.096,0.08-0.188,0.154-0.273,0.22c-0.088,0.066-0.137,0.106-0.15,0.116
			s-0.029,0.016-0.051,0.02c-0.02,0.004-0.035,0.004-0.047,0.004s-0.031,0-0.051-0.004c-0.02-0.002-0.033-0.004-0.039-0.004
			c-0.021-0.02-0.074-0.063-0.16-0.13c-0.088-0.065-0.18-0.14-0.275-0.22c-0.1-0.08-0.191-0.156-0.277-0.227
			c-0.086-0.069-0.141-0.111-0.17-0.125c0-0.007-0.01-0.013-0.029-0.015c-0.021-0.002-0.039-0.004-0.051-0.004
			s-0.029,0.002-0.049,0.004c-0.021,0.002-0.035,0.008-0.041,0.015c-0.045,0.027-0.104,0.067-0.17,0.125
			c-0.066,0.059-0.131,0.114-0.199,0.17c-0.068,0.057-0.127,0.108-0.17,0.15c-0.047,0.042-0.07,0.068-0.07,0.076v2.98
			c0,0.014-0.037,0.041-0.105,0.084c-0.07,0.043-0.117,0.067-0.135,0.075c-0.018,0.009-0.043,0.013-0.061,0.017
			c-0.02,0.002-0.037,0.004-0.049,0.004s-0.043-0.004-0.09-0.01c-0.027-0.013-0.063-0.042-0.111-0.084
			c-0.045-0.043-0.07-0.072-0.07-0.084v-3.15c0.82-0.82,1.24-1.234,1.262-1.24s0.037-0.01,0.049-0.01s0.043,0.006,0.09,0.02
			c0.029,0.015,0.084,0.057,0.17,0.127c0.086,0.069,0.178,0.146,0.277,0.226c0.096,0.08,0.188,0.154,0.275,0.224
			c0.086,0.07,0.139,0.112,0.16,0.126c0.006,0,0.02,0.002,0.039,0.004c0.021,0.005,0.039,0.005,0.051,0.005s0.039-0.003,0.08-0.011
			c0.025-0.014,0.082-0.054,0.17-0.126c0.086-0.07,0.178-0.144,0.273-0.224c0.098-0.08,0.189-0.156,0.277-0.227
			c0.088-0.069,0.139-0.111,0.158-0.126c0.01,0,0.021-0.002,0.043-0.01c0.02-0.006,0.035-0.01,0.049-0.01
			c0.012,0,0.041,0.006,0.078,0.02l1.23,1.23v3.146H7.699z"/>
		<path fill="#FFFFFF" d="M1.969,208.624l-1.229,1.229h-2.271l-1.229-1.229v-1.49h3.889c0-0.02,0.01-0.06,0.031-0.12
			c0.021-0.06,0.041-0.122,0.059-0.184c0.02-0.063,0.039-0.126,0.051-0.186c0.012-0.061,0.012-0.101,0-0.12
			c-0.027-0.061-0.076-0.137-0.146-0.227c-0.068-0.09-0.139-0.176-0.213-0.26c-0.072-0.084-0.143-0.156-0.209-0.214
			c-0.066-0.061-0.111-0.09-0.129-0.09H-1.53c-0.014,0-0.041-0.034-0.086-0.101c-0.041-0.065-0.072-0.12-0.094-0.16v-0.09v-0.08
			c0.014-0.034,0.043-0.071,0.09-0.113c0.047-0.044,0.076-0.066,0.09-0.066h2.271l1.229,1.229v2.271H1.969z M-2.174,208.03
			c0.01,0.05,0.021,0.102,0.035,0.16c0.014,0.056,0.027,0.109,0.045,0.159c0.016,0.051,0.027,0.084,0.035,0.106
			c0.035,0.052,0.082,0.12,0.148,0.2c0.068,0.08,0.139,0.156,0.215,0.229c0.076,0.074,0.146,0.136,0.209,0.19
			c0.064,0.052,0.105,0.08,0.125,0.08H0.57c0.02,0,0.063-0.028,0.129-0.08c0.066-0.055,0.137-0.118,0.209-0.19
			c0.074-0.073,0.145-0.149,0.213-0.229c0.07-0.08,0.121-0.148,0.146-0.2c0.012-0.021,0.025-0.054,0.041-0.106
			c0.014-0.05,0.029-0.104,0.043-0.159c0.018-0.059,0.029-0.11,0.043-0.16c0.01-0.05,0.014-0.084,0.014-0.106h-3.6
			C-2.19,207.944-2.184,207.98-2.174,208.03z"/>
		<path fill="#FFFFFF" d="M-4.02,209.684c-0.016,0-0.043-0.002-0.092-0.01c-0.02-0.014-0.051-0.042-0.1-0.084
			c-0.047-0.042-0.074-0.072-0.08-0.084c-0.008-0.04-0.021-0.109-0.041-0.21c-0.02-0.1-0.039-0.206-0.055-0.313
			c-0.016-0.11-0.033-0.217-0.049-0.316c-0.018-0.1-0.025-0.17-0.025-0.21c-0.033,0.026-0.092,0.072-0.176,0.134
			c-0.084,0.063-0.172,0.134-0.266,0.21c-0.092,0.078-0.182,0.148-0.264,0.214c-0.084,0.068-0.143,0.114-0.176,0.141
			c-0.047,0.04-0.109,0.088-0.188,0.144c-0.074,0.056-0.15,0.114-0.227,0.17c-0.078,0.057-0.143,0.106-0.197,0.146
			c-0.053,0.04-0.084,0.06-0.09,0.06c-0.008,0-0.033,0.004-0.08,0.01c-0.045,0.007-0.104,0.013-0.17,0.017
			c-0.064,0.002-0.133,0.006-0.201,0.01s-0.121,0.004-0.16,0.004c-0.02,0-0.059-0.002-0.119-0.004
			c-0.063-0.002-0.123-0.006-0.188-0.01c-0.061-0.004-0.125-0.008-0.186-0.017c-0.059-0.006-0.1-0.01-0.119-0.01
			c-0.021-0.014-0.051-0.042-0.098-0.084c-0.041-0.042-0.068-0.072-0.084-0.084v-0.09v-0.09c0.016-0.021,0.043-0.052,0.092-0.094
			c0.045-0.045,0.074-0.07,0.09-0.076c0.02-0.006,0.072-0.019,0.16-0.036c0.086-0.019,0.178-0.034,0.275-0.05
			c0.096-0.017,0.188-0.036,0.275-0.057c0.086-0.02,0.139-0.033,0.158-0.04c0.008,0,0.041-0.021,0.096-0.063
			c0.057-0.044,0.125-0.092,0.201-0.146c0.078-0.052,0.15-0.109,0.225-0.17c0.072-0.06,0.133-0.105,0.18-0.14
			c0.029-0.021,0.094-0.074,0.197-0.16s0.213-0.18,0.334-0.28c0.121-0.1,0.23-0.193,0.33-0.279s0.164-0.141,0.189-0.16
			c0.021-0.014,0.066-0.042,0.137-0.084c0.068-0.044,0.113-0.072,0.133-0.084v-2.101c0-0.012,0.035-0.042,0.102-0.09
			c0.064-0.048,0.119-0.076,0.158-0.09c0.008,0,0.021-0.002,0.041-0.004c0.021-0.002,0.037-0.004,0.051-0.004
			c0.012,0,0.039,0.002,0.078,0.01c0.035,0.015,0.072,0.042,0.117,0.09c0.043,0.048,0.064,0.078,0.064,0.09v4.2
			c0,0.014-0.023,0.042-0.064,0.084c-0.043,0.042-0.074,0.068-0.09,0.076c-0.018,0.006-0.037,0.012-0.057,0.014
			C-3.992,209.682-4.006,209.684-4.02,209.684z"/>
	</g>
	<g>
		<path fill="#FFFFFF" d="M48.669,235.124c0,0.018-0.004,0.06-0.014,0.126c-0.02,0.028-0.059,0.072-0.121,0.132
			c-0.063,0.061-0.098,0.097-0.111,0.106c-0.014,0.008-0.037,0.016-0.063,0.02c-0.027,0.004-0.051,0.006-0.07,0.006
			c-0.018,0-0.041-0.002-0.07-0.006c-0.027-0.004-0.045-0.006-0.055-0.006c-0.039-0.076-0.123-0.174-0.252-0.3
			c-0.131-0.126-0.271-0.254-0.426-0.384c-0.154-0.131-0.307-0.248-0.457-0.351c-0.15-0.102-0.262-0.168-0.336-0.196
			c-0.01-0.01-0.066-0.02-0.168-0.027c-0.102-0.01-0.219-0.018-0.35-0.028c-0.131-0.008-0.26-0.016-0.393-0.02
			c-0.129-0.004-0.238-0.006-0.322-0.006c-0.045,0-0.127,0.002-0.246,0.006c-0.115,0.004-0.236,0.012-0.363,0.02
			c-0.125,0.011-0.248,0.019-0.363,0.028c-0.117,0.008-0.199,0.018-0.246,0.027c-0.029,0.028-0.08,0.074-0.154,0.141
			s-0.152,0.138-0.23,0.216s-0.152,0.156-0.215,0.232c-0.066,0.073-0.113,0.126-0.141,0.153c-0.027,0.038-0.072,0.118-0.133,0.238
			c-0.059,0.12-0.096,0.206-0.104,0.252c-0.01,0.008-0.016,0.061-0.021,0.154c-0.004,0.092-0.006,0.164-0.006,0.21
			s0.002,0.116,0.006,0.21c0.004,0.092,0.012,0.144,0.021,0.154c0,0.037,0.031,0.115,0.098,0.237s0.113,0.206,0.141,0.252
			c0.045,0.066,0.109,0.148,0.189,0.246c0.08,0.099,0.158,0.194,0.238,0.288s0.15,0.172,0.211,0.238
			c0.059,0.066,0.096,0.098,0.104,0.098h2.688l1.723,1.834v1.723l-1.723,1.708h-3.43c-0.008,0-0.045-0.03-0.104-0.091
			c-0.061-0.06-0.107-0.109-0.133-0.146c-0.037-0.046-0.094-0.12-0.168-0.216c-0.074-0.099-0.152-0.2-0.23-0.303
			c-0.078-0.102-0.152-0.197-0.215-0.287c-0.066-0.088-0.109-0.146-0.127-0.175c-0.018-0.046-0.061-0.13-0.125-0.252
			c-0.066-0.122-0.104-0.2-0.113-0.237c-0.008-0.009-0.014-0.032-0.014-0.07c0-0.028,0-0.052,0-0.07c0-0.018,0-0.042,0-0.069
			c0-0.028,0.004-0.042,0.014-0.042c0.02-0.028,0.059-0.072,0.121-0.133c0.061-0.06,0.1-0.096,0.119-0.104
			c0.008-0.01,0.049-0.016,0.121-0.022c0.068-0.004,0.123-0.006,0.16-0.006c0.027,0,0.066,0.002,0.119,0.006
			c0.053,0.005,0.082,0.013,0.09,0.022l1.232,1.218h2.441c0.047,0,0.117-0.038,0.211-0.112c0.094-0.073,0.191-0.164,0.293-0.266
			s0.203-0.21,0.295-0.322c0.094-0.111,0.154-0.206,0.182-0.279c0-0.009,0.004-0.038,0.014-0.084
			c0.008-0.047,0.016-0.103,0.02-0.168c0.004-0.066,0.01-0.131,0.014-0.196c0.006-0.066,0.008-0.118,0.008-0.154
			c0-0.046-0.002-0.102-0.008-0.168c-0.004-0.065-0.01-0.13-0.014-0.196c-0.004-0.065-0.012-0.123-0.02-0.174
			c-0.01-0.052-0.014-0.082-0.014-0.09c-0.039-0.084-0.1-0.186-0.188-0.308s-0.188-0.24-0.295-0.356
			c-0.107-0.118-0.207-0.216-0.299-0.3c-0.096-0.084-0.16-0.126-0.197-0.126h-3.191c-0.018-0.028-0.059-0.092-0.121-0.19
			c-0.059-0.098-0.1-0.161-0.117-0.188c-0.02-0.028-0.066-0.088-0.141-0.183c-0.074-0.092-0.154-0.193-0.238-0.3
			c-0.084-0.105-0.158-0.21-0.229-0.308s-0.115-0.162-0.133-0.19c-0.018-0.027-0.041-0.065-0.07-0.111
			c-0.027-0.046-0.053-0.099-0.078-0.154c-0.023-0.056-0.043-0.106-0.061-0.148c-0.02-0.042-0.029-0.067-0.029-0.077
			c0-0.009-0.002-0.049-0.006-0.12c-0.004-0.07-0.01-0.15-0.014-0.238s-0.006-0.18-0.006-0.274c0-0.092,0-0.168,0-0.224
			s0-0.13,0-0.224c0-0.093,0.002-0.187,0.006-0.28s0.01-0.172,0.014-0.238c0.004-0.065,0.006-0.102,0.006-0.112
			c0-0.027,0.031-0.104,0.09-0.229c0.061-0.126,0.111-0.212,0.148-0.258c0.018-0.028,0.061-0.086,0.127-0.176
			c0.064-0.091,0.137-0.185,0.215-0.288c0.08-0.103,0.156-0.202,0.23-0.301c0.076-0.098,0.131-0.17,0.168-0.216
			c0.027-0.046,0.072-0.1,0.133-0.162c0.059-0.062,0.096-0.09,0.104-0.09h3.43c1.148,1.148,1.725,1.736,1.729,1.765
			C48.667,235.082,48.669,235.104,48.669,235.124z"/>
	</g>
	<g>
		<path fill="#FFFFFF" d="M30.079,241.912v-3.292h-3.166v-0.84h3.166v-3.32h0.896v3.32h3.166v0.84h-3.166v3.292H30.079z"/>
	</g>
	<g>
		<path fill="#FFFFFF" d="M12.531,238.24v-0.7h7.004v0.7H12.531z"/>
	</g>
</g>
<g id="copper1">
	<path id="connector8pin" fill="#99906C" d="M40.415,253.874c0,2.462,1.996,4.458,4.457,4.458c2.463,0,4.459-1.996,4.459-4.458
		s-1.996-4.458-4.459-4.458C42.411,249.416,40.415,251.412,40.415,253.874z M47.538,253.874c0,1.472-1.193,2.666-2.666,2.666
		c-1.471,0-2.666-1.194-2.666-2.666s1.195-2.666,2.666-2.666C46.345,251.208,47.538,252.402,47.538,253.874z"/>
	<path id="connector9pin" fill="#99906C" d="M34.931,253.874c0-2.462-1.996-4.458-4.459-4.458c-2.46,0-4.457,1.996-4.457,4.458
		s1.996,4.458,4.457,4.458C32.935,258.332,34.931,256.336,34.931,253.874z M27.806,253.874c0-1.472,1.195-2.666,2.666-2.666
		c1.473,0,2.666,1.194,2.666,2.666s-1.193,2.666-2.666,2.666C29.001,256.54,27.806,255.346,27.806,253.874z"/>
	<path id="connector10pin" fill="#99906C" d="M20.531,253.874c0-2.462-1.996-4.458-4.457-4.458s-4.459,1.996-4.459,4.458
		s1.996,4.458,4.459,4.458C18.535,258.332,20.531,256.336,20.531,253.874z M13.408,253.874c0-1.472,1.193-2.666,2.666-2.666
		c1.471,0,2.668,1.194,2.668,2.666s-1.197,2.666-2.668,2.666C14.601,256.54,13.408,255.346,13.408,253.874z"/>
</g>
</svg>
