<?xml version="1.0" encoding="utf-8"?>
<!-- Generator: Adobe Illustrator 17.0.0, SVG Export Plug-In . SVG Version: 6.00 Build 0)  -->
<!DOCTYPE svg PUBLIC "-//W3C//DTD SVG 1.1//EN" "http://www.w3.org/Graphics/SVG/1.1/DTD/svg11.dtd">
<svg version="1.1" id="Layer_1" xmlns="http://www.w3.org/2000/svg" xmlns:xlink="http://www.w3.org/1999/xlink" x="0px" y="0px"
	 width="85.6px" height="105.8px" viewBox="0 0 85.6 105.8" enable-background="new 0 0 85.6 105.8" xml:space="preserve">
<path fill="#E5CB91" d="M0,0v105.8h85.6V0H0z M20.7,93.8c-1.6,0-2.8-1.3-2.8-2.8l0,0c0-1.6,1.3-2.8,2.8-2.8c1.6,0,2.8,1.3,2.8,2.8
	S22.3,93.8,20.7,93.8z M38,91c0,1.6-1.3,2.8-2.8,2.8c-1.6,0-2.8-1.3-2.8-2.8l0,0c0-1.6,1.3-2.8,2.8-2.8C36.7,88.1,38,89.4,38,91
	L38,91z M52.4,91c0,1.6-1.3,2.8-2.8,2.8c-1.6,0-2.8-1.3-2.8-2.8l0,0c0-1.6,1.3-2.8,2.8-2.8C51.1,88.1,52.4,89.4,52.4,91L52.4,91z
	 M66.8,91c0,1.6-1.3,2.8-2.8,2.8c-1.6,0-2.8-1.3-2.8-2.8l0,0c0-1.6,1.3-2.8,2.8-2.8C65.5,88.1,66.8,89.4,66.8,91L66.8,91z"/>
<circle fill="#FFFFFF" cx="6.7" cy="70.7" r="6.7"/>
<circle fill="#FFFFFF" cx="78.9" cy="70.7" r="6.7"/>
<text transform="matrix(4.489659e-011 1 -1 4.489659e-011 73.2004 16.5153)" font-family="'MyriadPro-Regular'" font-size="8">LED RGB</text>
<rect x="11.5" y="83.2" fill="none" stroke="#000000" stroke-width="2" stroke-miterlimit="10" width="61.7" height="16.5"/>
<rect x="20.75" y="11.554" fill="none" stroke="#5B5252" stroke-width="2" stroke-miterlimit="10" width="7.7" height="12.808"/>
<rect x="38.45" y="11.554" fill="none" stroke="#5B5252" stroke-width="2" stroke-miterlimit="10" width="7.7" height="12.808"/>
<rect x="56.15" y="11.554" fill="none" stroke="#5B5252" stroke-width="2" stroke-miterlimit="10" width="7.7" height="12.808"/>
<text transform="matrix(1 0 0 1 31.2002 78.7358)" font-family="'MyriadPro-Regular'" font-size="15.0681">R</text>
<text transform="matrix(1 0 0 1 59.9997 78.7354)" fill="#050303" font-family="'MyriadPro-Regular'" font-size="15.0681">G</text>
<text transform="matrix(1 0 0 1 45.6004 78.7365)" font-family="'MyriadPro-Regular'" font-size="15.0681">B</text>
<text transform="matrix(1 0 0 1 16.8002 78.7361)" fill="#020101" font-family="'MyriadPro-Regular'" font-size="15.07">V</text>
<circle fill="none" stroke="#FFFFFF" stroke-width="3" stroke-miterlimit="10" cx="42.3" cy="44.4" r="12.7"/>
<circle fill="none" stroke="#FFFFFF" stroke-width="3" stroke-miterlimit="10" cx="42.3" cy="44.4" r="8.6"/>
<path fill="#606161" d="M33.7,34.6h1.4c1.6,0,2.8,1.3,2.8,2.8v1.4c0,1.6-1.3,2.8-2.8,2.8h-1.4c-1.6,0-2.8-1.3-2.8-2.8v-1.4
	C30.9,35.8,32.1,34.6,33.7,34.6z"/>
<path fill="#606161" d="M49,34.6h1.4c1.6,0,2.8,1.3,2.8,2.8v1.4c0,1.6-1.3,2.8-2.8,2.8H49c-1.6,0-2.8-1.3-2.8-2.8v-1.4
	C46.2,35.8,47.5,34.6,49,34.6z"/>
<path fill="#606161" d="M49,47.5h1.4c1.6,0,2.8,1.3,2.8,2.8v1.4c0,1.6-1.3,2.8-2.8,2.8H49c-1.6,0-2.8-1.3-2.8-2.8v-1.4
	C46.2,48.7,47.5,47.5,49,47.5z"/>
<path fill="#606161" d="M33.7,47.5h1.4c1.6,0,2.8,1.3,2.8,2.8v1.4c0,1.6-1.3,2.8-2.8,2.8h-1.4c-1.6,0-2.8-1.3-2.8-2.8v-1.4
	C30.9,48.7,32.1,47.5,33.7,47.5z"/>
<circle id="connector6pin" fill="none" stroke="#9A916C" stroke-width="1.1027" cx="20.7" cy="91" r="3.9"/>
<circle id="connector7pin" fill="none" stroke="#9A916C" stroke-width="1.1027" cx="35.1" cy="91" r="3.9"/>
<circle id="connector8pin" fill="none" stroke="#9A916C" stroke-width="1.1027" cx="49.5" cy="91" r="3.9"/>
<circle id="connector9pin" fill="none" stroke="#9A916C" stroke-width="1.1027" cx="63.9" cy="91" r="3.9"/>
</svg>
