<?xml version="1.0" encoding="utf-8"?>
<!-- Generator: Adobe Illustrator 20.1.0, SVG Export Plug-In . SVG Version: 6.00 Build 0)  -->
<svg version="1.1" id="Layer_1" xmlns="http://www.w3.org/2000/svg" xmlns:xlink="http://www.w3.org/1999/xlink" x="0px" y="0px"
	 viewBox="0 0 205 80" style="enable-background:new 0 0 205 80;" xml:space="preserve">
<style type="text/css">
	.st0{fill:#014CB1;}
	.st1{fill:#434343;}
	.st2{fill:#010101;}
	.st3{fill:#5E5F5F;}
	.st4{fill:#D3D3D3;}
	.st5{fill:#919191;}
	.st6{fill:#3C91DD;}
	.st7{fill:#D8D9D8;}
	.st8{fill:none;stroke:#939598;stroke-width:2;stroke-miterlimit:10;}
	.st9{fill:#2D2E2D;}
	.st10{fill:#DCDBDB;}
	.st11{fill:#D08B29;}
	.st12{fill:#FFFFFF;}
	.st13{fill:#AAA9AA;}
	.st14{font-family:'MyriadPro-Regular';}
	.st15{font-size:4.386px;}
	.st16{font-family:'ArialMT';}
	.st17{font-size:7px;}
	.st18{fill:#9A916C;}
</style>
<path class="st0" d="M202.1,0H44.4C42.7,0,41,1.2,41,2.6v74.5c0,1.5,1.8,2.9,3.4,2.9h157.8c1.6,0,2.9-1.5,2.9-2.9V2.6
	C205,1.2,203.7,0,202.1,0z M194,57.2c-1.6,0-2.8-1.3-2.8-2.8c0-1.6,1.3-2.8,2.8-2.8s2.8,1.3,2.8,2.8C196.8,56,195.6,57.2,194,57.2z
	 M194,42.8c-1.6,0-2.8-1.3-2.8-2.8c0-1.6,1.3-2.8,2.8-2.8s2.8,1.3,2.8,2.8C196.8,41.6,195.6,42.8,194,42.8z M194,28.4
	c-1.6,0-2.8-1.3-2.8-2.8c0-1.6,1.3-2.8,2.8-2.8s2.8,1.3,2.8,2.8C196.8,27.2,195.6,28.4,194,28.4z"/>
<g>
	<g>
		<path class="st1" d="M11.4,9.3C5.1,9.3,0,14.4,0,20.7C0,27,5.1,32.1,11.4,32.1c0.1,0,0.2,0,0.4,0l0,0h22.8V9.3H11.7l0,0
			C11.6,9.4,11.5,9.3,11.4,9.3z"/>
		<g>
			<polygon class="st2" points="33.9,28.7 33.9,18.9 24.2,28.7 			"/>
			<polygon class="st2" points="24.2,22.5 33.9,12.8 24.2,12.8 			"/>
		</g>
		<polyline class="st3" points="53.3,26 34.7,26 34.7,24.8 53.3,24.8 		"/>
		<polyline class="st3" points="53.3,16.7 34.7,16.7 34.7,15.5 53.3,15.5 		"/>
	</g>
</g>
<g>
	<g>
		<path class="st4" d="M11.4,45.6C5.1,45.6,0,50.7,0,57s5.1,11.4,11.4,11.4c0.1,0,0.2,0,0.4,0l0,0h22.8V45.6H11.7l0,0
			C11.6,45.7,11.5,45.6,11.4,45.6z"/>
		<g>
			<g>
				<polygon class="st5" points="33.9,65 33.9,55.2 24.2,65 				"/>
				<polygon class="st5" points="24.2,58.8 33.9,49.1 24.2,49.1 				"/>
			</g>
		</g>
		<polyline class="st3" points="53.3,62.2 34.7,62.2 34.7,61 53.3,61 		"/>
		<polyline class="st3" points="53.3,53 34.7,53 34.7,51.8 53.3,51.8 		"/>
	</g>
</g>
<path class="st6" d="M103.9,3H124c2.4,0,4.3,2,4.3,4.3v20.1c0,2.4-2,4.3-4.3,4.3h-20.1c-2.4,0-4.3-2-4.3-4.3V7.3
	C99.6,4.9,101.5,3,103.9,3z"/>
<circle class="st7" cx="114" cy="17.1" r="6.4"/>
<g>
	<path class="st8" d="M113.2,10.8v5c0,0.5-0.4,0.9-0.9,0.9h-4.6"/>
	<path class="st8" d="M114.8,10.8v5c0,0.5,0.4,0.9,0.9,0.9h4.6"/>
</g>
<g>
	<path class="st8" d="M113.2,23.5v-4.7c0-0.5-0.4-0.8-0.9-0.8h-4.6"/>
	<path class="st8" d="M114.8,23.5v-4.7c0-0.5,0.4-0.8,0.9-0.8h4.6"/>
</g>
<path class="st9" d="M103.3,44.3h21.5c1.3,0,2.4,1.1,2.4,2.4v20.7c0,1.3-1.1,2.4-2.4,2.4h-21.5c-1.3,0-2.4-1.1-2.4-2.4V46.6
	C100.9,45.3,102,44.3,103.3,44.3z"/>
<path class="st10" d="M96.1,48.6h5.2c0.7,0,1.2-0.5,1.2-1.2l0,0c0-0.7-0.5-1.2-1.2-1.2h-5.2c-0.7,0-1.2,0.5-1.2,1.2l0,0
	C94.9,48.1,95.4,48.6,96.1,48.6z"/>
<path class="st10" d="M96.1,54.9h5.2c0.7,0,1.2-0.5,1.2-1.2l0,0c0-0.7-0.5-1.2-1.2-1.2h-5.2c-0.7,0-1.2,0.5-1.2,1.2l0,0
	C94.9,54.3,95.4,54.9,96.1,54.9z"/>
<path class="st10" d="M96.1,61.1h5.2c0.7,0,1.2-0.5,1.2-1.2l0,0c0-0.7-0.5-1.2-1.2-1.2h-5.2c-0.7,0-1.2,0.5-1.2,1.2l0,0
	C94.9,60.6,95.4,61.1,96.1,61.1z"/>
<path class="st10" d="M96.1,67.4h5.2c0.7,0,1.2-0.5,1.2-1.2l0,0c0-0.7-0.5-1.2-1.2-1.2h-5.2c-0.7,0-1.2,0.5-1.2,1.2l0,0
	C94.9,66.9,95.4,67.4,96.1,67.4z"/>
<path class="st10" d="M125.6,48.6h5.2c0.7,0,1.2-0.5,1.2-1.2l0,0c0-0.7-0.5-1.2-1.2-1.2h-5.2c-0.7,0-1.2,0.5-1.2,1.2l0,0
	C124.4,48.1,124.9,48.6,125.6,48.6z"/>
<path class="st10" d="M125.6,54.9h5.2c0.7,0,1.2-0.5,1.2-1.2l0,0c0-0.7-0.5-1.2-1.2-1.2h-5.2c-0.7,0-1.2,0.5-1.2,1.2l0,0
	C124.4,54.3,124.9,54.9,125.6,54.9z"/>
<path class="st10" d="M125.6,61.1h5.2c0.7,0,1.2-0.5,1.2-1.2l0,0c0-0.7-0.5-1.2-1.2-1.2h-5.2c-0.7,0-1.2,0.5-1.2,1.2l0,0
	C124.4,60.6,124.9,61.1,125.6,61.1z"/>
<path class="st10" d="M125.6,67.4h5.2c0.7,0,1.2-0.5,1.2-1.2l0,0c0-0.7-0.5-1.2-1.2-1.2h-5.2c-0.7,0-1.2,0.5-1.2,1.2l0,0
	C124.4,66.9,124.9,67.4,125.6,67.4z"/>
<g>
	<path class="st11" d="M77.4,7.5h13.4c0.2,0,0.4,0.2,0.4,0.4v4.7c0,0.2-0.2,0.4-0.4,0.4H77.4c-0.2,0-0.4-0.2-0.4-0.4V7.9
		C77,7.7,77.2,7.5,77.4,7.5z"/>
	<path class="st12" d="M80,13h-2.6c-0.2,0-0.4-0.2-0.4-0.4V7.9c0-0.2,0.2-0.4,0.4-0.4H80c0.2,0,0.4,0.2,0.4,0.4v4.7
		C80.3,12.8,80.2,13,80,13z"/>
	<path class="st12" d="M90.7,13h-2.6c-0.2,0-0.4-0.2-0.4-0.4V7.9c0-0.2,0.2-0.4,0.4-0.4h2.6c0.2,0,0.4,0.2,0.4,0.4v4.7
		C91.1,12.8,90.9,13,90.7,13z"/>
</g>
<g>
	<path class="st13" d="M146.7,7.5h13.4c0.2,0,0.4,0.2,0.4,0.4v4.7c0,0.2-0.2,0.4-0.4,0.4h-13.4c-0.2,0-0.4-0.2-0.4-0.4V7.9
		C146.3,7.7,146.5,7.5,146.7,7.5z"/>
	<path class="st12" d="M149.4,13h-2.6c-0.2,0-0.4-0.2-0.4-0.4V7.9c0-0.2,0.2-0.4,0.4-0.4h2.6c0.2,0,0.4,0.2,0.4,0.4v4.7
		C149.7,12.8,149.6,13,149.4,13z"/>
	<path class="st12" d="M160.1,13h-2.6c-0.2,0-0.4-0.2-0.4-0.4V7.9c0-0.2,0.2-0.4,0.4-0.4h2.6c0.2,0,0.4,0.2,0.4,0.4v4.7
		C160.5,12.8,160.3,13,160.1,13z"/>
</g>
<g>
	<path class="st13" d="M146.7,63.3h13.4c0.2,0,0.4,0.2,0.4,0.4v4.7c0,0.2-0.2,0.4-0.4,0.4h-13.4c-0.2,0-0.4-0.2-0.4-0.4v-4.7
		C146.3,63.5,146.5,63.3,146.7,63.3z"/>
	<path class="st12" d="M149.4,68.8h-2.6c-0.2,0-0.4-0.2-0.4-0.4v-4.7c0-0.2,0.2-0.4,0.4-0.4h2.6c0.2,0,0.4,0.2,0.4,0.4v4.7
		C149.7,68.6,149.6,68.8,149.4,68.8z"/>
	<path class="st12" d="M160.1,68.8h-2.6c-0.2,0-0.4-0.2-0.4-0.4v-4.7c0-0.2,0.2-0.4,0.4-0.4h2.6c0.2,0,0.4,0.2,0.4,0.4v4.7
		C160.5,68.6,160.3,68.8,160.1,68.8z"/>
</g>
<g>
	<path class="st11" d="M77.4,21.9h13.4c0.2,0,0.4,0.2,0.4,0.4v4.7c0,0.2-0.2,0.4-0.4,0.4H77.4c-0.2,0-0.4-0.2-0.4-0.4v-4.7
		C77,22,77.2,21.9,77.4,21.9z"/>
	<path class="st12" d="M80,27.4h-2.6c-0.2,0-0.4-0.2-0.4-0.4v-4.7c0-0.2,0.2-0.4,0.4-0.4H80c0.2,0,0.4,0.2,0.4,0.4V27
		C80.3,27.2,80.2,27.4,80,27.4z"/>
	<path class="st12" d="M90.7,27.4h-2.6c-0.2,0-0.4-0.2-0.4-0.4v-4.7c0-0.2,0.2-0.4,0.4-0.4h2.6c0.2,0,0.4,0.2,0.4,0.4V27
		C91.1,27.2,90.9,27.4,90.7,27.4z"/>
</g>
<g>
	<g>
		<path class="st9" d="M77.4,36.2h13.4c0.2,0,0.4,0.2,0.4,0.4v4.7c0,0.2-0.2,0.4-0.4,0.4H77.4c-0.2,0-0.4-0.2-0.4-0.4v-4.7
			C77,36.4,77.2,36.2,77.4,36.2z"/>
		<path class="st12" d="M79.2,41.7h-1c-0.2,0-0.4-0.2-0.4-0.4v-4.7c0-0.2,0.2-0.4,0.4-0.4h1c0.2,0,0.4,0.2,0.4,0.4v4.7
			C79.5,41.5,79.4,41.7,79.2,41.7z"/>
		<path class="st12" d="M90,41.7h-1c-0.2,0-0.4-0.2-0.4-0.4v-4.7c0-0.2,0.2-0.4,0.4-0.4h1c0.2,0,0.4,0.2,0.4,0.4v4.7
			C90.3,41.5,90.2,41.7,90,41.7z"/>
	</g>
	<text transform="matrix(1 0 0 1 80.5566 40.3364)" class="st12 st14 st15">103</text>
</g>
<g>
	<g>
		<path class="st9" d="M136.6,32.3V19c0-0.2,0.2-0.4,0.4-0.4h4.7c0.2,0,0.4,0.2,0.4,0.4v13.4c0,0.2-0.2,0.4-0.4,0.4H137
			C136.8,32.8,136.6,32.6,136.6,32.3z"/>
		<path class="st12" d="M142.1,30.5v1c0,0.2-0.2,0.4-0.4,0.4H137c-0.2,0-0.4-0.2-0.4-0.4v-1c0-0.2,0.2-0.4,0.4-0.4h4.7
			C141.9,30.2,142.1,30.3,142.1,30.5z"/>
		<path class="st12" d="M142.1,19.8v1c0,0.2-0.2,0.4-0.4,0.4H137c-0.2,0-0.4-0.2-0.4-0.4v-1c0-0.2,0.2-0.4,0.4-0.4h4.7
			C141.9,19.4,142.1,19.6,142.1,19.8z"/>
	</g>
	<text transform="matrix(6.123234e-17 -1 1 6.123234e-17 140.749 29.1538)" class="st12 st14 st15">103</text>
</g>
<g>
	<g>
		<path class="st9" d="M136.6,56.3V42.9c0-0.2,0.2-0.4,0.4-0.4h4.7c0.2,0,0.4,0.2,0.4,0.4v13.4c0,0.2-0.2,0.4-0.4,0.4H137
			C136.8,56.7,136.6,56.5,136.6,56.3z"/>
		<path class="st12" d="M142.1,54.5v1c0,0.2-0.2,0.4-0.4,0.4H137c-0.2,0-0.4-0.2-0.4-0.4v-1c0-0.2,0.2-0.4,0.4-0.4h4.7
			C141.9,54.1,142.1,54.3,142.1,54.5z"/>
		<path class="st12" d="M142.1,43.7v1c0,0.2-0.2,0.4-0.4,0.4H137c-0.2,0-0.4-0.2-0.4-0.4v-1c0-0.2,0.2-0.4,0.4-0.4h4.7
			C141.9,43.3,142.1,43.5,142.1,43.7z"/>
	</g>
	<text transform="matrix(6.123234e-17 -1 1 6.123234e-17 140.749 53.0781)" class="st12 st14 st15">103</text>
</g>
<g>
	<g>
		<path class="st9" d="M77.4,49.8h13.4c0.2,0,0.4,0.2,0.4,0.4v4.7c0,0.2-0.2,0.4-0.4,0.4H77.4c-0.2,0-0.4-0.2-0.4-0.4v-4.7
			C77,49.9,77.2,49.8,77.4,49.8z"/>
		<path class="st12" d="M79.2,55.3h-1c-0.2,0-0.4-0.2-0.4-0.4v-4.7c0-0.2,0.2-0.4,0.4-0.4h1c0.2,0,0.4,0.2,0.4,0.4v4.7
			C79.5,55.1,79.4,55.3,79.2,55.3z"/>
		<path class="st12" d="M90,55.3h-1c-0.2,0-0.4-0.2-0.4-0.4v-4.7c0-0.2,0.2-0.4,0.4-0.4h1c0.2,0,0.4,0.2,0.4,0.4v4.7
			C90.3,55.1,90.2,55.3,90,55.3z"/>
	</g>
	<text transform="matrix(1 0 0 1 80.5566 53.8936)" class="st12 st14 st15">103</text>
</g>
<g>
	<g>
		<path class="st9" d="M77.4,62.9h13.4c0.2,0,0.4,0.2,0.4,0.4V68c0,0.2-0.2,0.4-0.4,0.4H77.4c-0.2,0-0.4-0.2-0.4-0.4v-4.7
			C77,63.1,77.2,62.9,77.4,62.9z"/>
		<path class="st12" d="M79.2,68.4h-1c-0.2,0-0.4-0.2-0.4-0.4v-4.7c0-0.2,0.2-0.4,0.4-0.4h1c0.2,0,0.4,0.2,0.4,0.4v4.7
			C79.5,68.2,79.4,68.4,79.2,68.4z"/>
		<path class="st12" d="M90,68.4h-1c-0.2,0-0.4-0.2-0.4-0.4v-4.7c0-0.2,0.2-0.4,0.4-0.4h1c0.2,0,0.4,0.2,0.4,0.4v4.7
			C90.3,68.2,90.2,68.4,90,68.4z"/>
	</g>
	<text transform="matrix(1 0 0 1 80.5566 67.0518)" class="st12 st14 st15">101</text>
</g>
<g id="g20_1_">
	<title  id="title22">text:VIN</title>
	<text id="text24_1_" transform="matrix(1 0 0 1 169.2222 42.1338)" class="st12 st16 st17">GND</text>
</g>
<g id="g20_3_">
	<title  id="title22">text:VIN</title>
	<text id="text24_3_" transform="matrix(1 0 0 1 169.6101 28.3005)" class="st12 st16 st17">VCC</text>
</g>
<g id="g20_4_">
	<title  id="title22">text:VIN</title>
	<text id="text24_4_" transform="matrix(1 0 0 1 169.6753 56.8005)" class="st12 st16 st17">OUT</text>
</g>
<g id="connector6pin_3_">
	<path class="st18" d="M194,45c-2.8,0-5-2.3-5-5c0-2.8,2.3-5,5-5s5,2.3,5,5C199,42.8,196.8,45,194,45z M194,37.2
		c-1.6,0-2.8,1.3-2.8,2.8c0,1.6,1.3,2.8,2.8,2.8s2.8-1.3,2.8-2.8C196.8,38.4,195.6,37.2,194,37.2z"/>
</g>
<g id="connector6pin_5_">
	<path class="st18" d="M194,59.4c-2.8,0-5-2.3-5-5c0-2.8,2.3-5,5-5s5,2.3,5,5C199,57.2,196.8,59.4,194,59.4z M194,51.6
		c-1.6,0-2.8,1.3-2.8,2.8c0,1.6,1.3,2.8,2.8,2.8s2.8-1.3,2.8-2.8C196.8,52.8,195.6,51.6,194,51.6z"/>
</g>
<g id="connector6pin_4_">
	<path class="st18" d="M194,30.6c-2.8,0-5-2.3-5-5c0-2.8,2.3-5,5-5s5,2.3,5,5C199,28.4,196.8,30.6,194,30.6z M194,22.8
		c-1.6,0-2.8,1.3-2.8,2.8c0,1.6,1.3,2.8,2.8,2.8s2.8-1.3,2.8-2.8C196.8,24,195.6,22.8,194,22.8z"/>
</g>
</svg>
