<?xml version="1.0" encoding="utf-8"?>
<!-- Generator: Adobe Illustrator 16.0.0, SVG Export Plug-In . SVG Version: 6.00 Build 0)  -->
<!DOCTYPE svg PUBLIC "-//W3C//DTD SVG 1.1//EN" "http://www.w3.org/Graphics/SVG/1.1/DTD/svg11.dtd">
<svg version="1.1" id="Layer_1" xmlns="http://www.w3.org/2000/svg" xmlns:xlink="http://www.w3.org/1999/xlink" x="0px" y="0px"
	 width="41.64px" height="102.929px" viewBox="0 0 41.64 102.929" enable-background="new 0 0 41.64 102.929" xml:space="preserve">
<g id="undo-redo-save">
	<path fill="#37586A" d="M0,101.479V22.269c0-0.79,0.581-1.448,1.321-1.448h37.397c0.721,0,1.321,0.637,1.321,1.448v79.211
		c0,0.79-0.58,1.449-1.321,1.449H1.321C0.6,102.929,0,102.29,0,101.479z"/>
	<path fill="#4A7EA2" d="M1.001,101.479V22.269c0-0.79,0.581-1.448,1.321-1.448h37.396c0.721,0,1.322,0.637,1.322,1.448v79.211
		c0,0.79-0.581,1.449-1.322,1.449H2.322C1.601,102.929,1.001,102.29,1.001,101.479z"/>
	<g>
		<path fill="none" stroke="#FFD83B" stroke-width="3" stroke-miterlimit="10" d="M25.024,28.488v-3.704
			c0-0.42,0.341-0.761,0.761-0.761h9.61c0.42,0,0.761,0.341,0.761,0.761v3.704c0,0.42-0.341,0.761-0.761,0.761h-9.61
			C25.365,29.228,25.024,28.888,25.024,28.488z"/>
		<line fill="none" stroke="#FFD83B" stroke-width="3" stroke-miterlimit="10" x1="30.57" y1="24.023" x2="30.57" y2="29.228"/>
		<circle fill="#D8D9D8" cx="33.433" cy="26.626" r="2.202"/>
		<circle fill="#D8D9D8" cx="27.827" cy="26.626" r="2.202"/>
		<g>
			<path fill="#434343" d="M36.355,5.705C36.355,2.562,33.793,0,30.63,0c-3.164,0-5.706,2.562-5.706,5.705c0,0.06,0,0.121,0,0.18
				l0,0v11.432h11.431V5.885l0,0C36.335,5.826,36.355,5.765,36.355,5.705z"/>
			<g>
				<polygon fill="#010101" points="26.646,17.016 31.531,17.016 26.646,12.152 				"/>
				<polygon fill="#010101" points="29.729,12.152 34.614,17.016 34.614,12.152 				"/>
			</g>
			<polyline fill="#5E5F5F" points="28.007,26.786 28.007,17.437 28.608,17.437 28.608,26.786 			"/>
			<polyline fill="#5E5F5F" points="32.652,26.786 32.652,17.437 33.253,17.437 33.253,26.786 			"/>
		</g>
	</g>
	<g>
		<path fill="none" stroke="#FFD83B" stroke-width="3" stroke-miterlimit="10" d="M6.806,28.387v-3.503
			c0-0.46,0.38-0.861,0.861-0.861h9.409c0.46,0,0.861,0.38,0.861,0.861v3.503c0,0.46-0.38,0.862-0.861,0.862H7.667
			C7.187,29.228,6.806,28.848,6.806,28.387z"/>
		<line fill="none" stroke="#FFD83B" stroke-width="3" stroke-miterlimit="10" x1="12.352" y1="24.023" x2="12.352" y2="29.228"/>
		<circle fill="#D8D9D8" cx="15.215" cy="26.626" r="2.203"/>
		<circle fill="#D8D9D8" cx="9.61" cy="26.626" r="2.202"/>
		<g>
			<path fill="#D3D3D3" d="M18.138,5.705C18.138,2.562,15.575,0,12.412,0S6.706,2.562,6.706,5.705c0,0.06,0,0.121,0,0.18l0,0v11.432
				h11.432V5.885l0,0C18.117,5.826,18.138,5.765,18.138,5.705z"/>
			<g>
				<g>
					<polygon fill="#919191" points="8.428,17.016 13.313,17.016 8.428,12.152 					"/>
					<polygon fill="#919191" points="11.511,12.152 16.396,17.016 16.396,12.152 					"/>
				</g>
			</g>
			<polyline fill="#5E5F5F" points="9.789,26.786 9.789,17.437 10.39,17.437 10.39,26.786 			"/>
			<polyline fill="#5E5F5F" points="14.434,26.786 14.434,17.437 15.034,17.437 15.034,26.786 			"/>
		</g>
	</g>
	<path fill="#37586A" d="M38.237,52.17v10.07c0,1.202-0.981,2.183-2.182,2.183H25.986c-1.202,0-2.183-0.98-2.183-2.183V52.17
		c0-1.201,0.981-2.183,2.183-2.183h10.069C37.256,50.009,38.237,50.969,38.237,52.17z"/>
	<path fill="#5C95B6" d="M39.539,52.17v10.07c0,1.202-0.98,2.183-2.182,2.183h-10.07c-1.201,0-2.183-0.98-2.183-2.183V52.17
		c0-1.201,0.982-2.183,2.183-2.183h10.07C38.558,50.009,39.539,50.969,39.539,52.17z"/>
	<circle fill="#D8D9D8" cx="32.432" cy="57.255" r="3.203"/>
	<g>
		<path fill="none" stroke="#939598" stroke-width="2" stroke-miterlimit="10" d="M35.595,56.816h-2.522
			c-0.241,0-0.461-0.201-0.461-0.46v-2.303"/>
		<path fill="none" stroke="#939598" stroke-width="2" stroke-miterlimit="10" d="M35.595,57.656h-2.522
			c-0.241,0-0.461,0.2-0.461,0.46v2.302"/>
	</g>
	<g>
		<path fill="none" stroke="#939598" stroke-width="2" stroke-miterlimit="10" d="M29.229,56.816h2.382c0.24,0,0.42-0.201,0.42-0.46
			v-2.303"/>
		<path fill="none" stroke="#939598" stroke-width="2" stroke-miterlimit="10" d="M29.229,57.656h2.382c0.24,0,0.42,0.2,0.42,0.46
			v2.302"/>
	</g>
	
		<rect x="23.123" y="49.348" fill="none" stroke="#DCDBDB" stroke-width="3" stroke-miterlimit="10" width="17.017" height="15.616"/>
	<path fill="#2D2E2D" d="M18.819,51.85v10.811c0,0.661-0.542,1.202-1.202,1.202H7.208c-0.661,0-1.202-0.541-1.202-1.202V51.85
		c0-0.66,0.541-1.2,1.202-1.2h10.41C18.278,50.65,18.819,51.19,18.819,51.85z"/>
	<path fill="#DCDBDB" d="M16.616,48.248v2.602c0,0.34,0.261,0.601,0.6,0.601l0,0c0.341,0,0.601-0.261,0.601-0.601v-2.602
		c0-0.341-0.26-0.601-0.601-0.601l0,0C16.877,47.646,16.616,47.907,16.616,48.248z"/>
	<path fill="#DCDBDB" d="M13.473,48.248v2.602c0,0.34,0.26,0.601,0.6,0.601l0,0c0.341,0,0.601-0.261,0.601-0.601v-2.602
		c0-0.341-0.26-0.601-0.601-0.601l0,0C13.753,47.646,13.473,47.907,13.473,48.248z"/>
	<path fill="#DCDBDB" d="M10.35,48.248v2.602c0,0.34,0.26,0.601,0.601,0.601l0,0c0.34,0,0.601-0.261,0.601-0.601v-2.602
		c0-0.341-0.261-0.601-0.601-0.601l0,0C10.61,47.646,10.35,47.907,10.35,48.248z"/>
	<path fill="#DCDBDB" d="M7.208,48.248v2.602c0,0.34,0.26,0.601,0.6,0.601l0,0c0.34,0,0.601-0.261,0.601-0.601v-2.602
		c0-0.341-0.261-0.601-0.601-0.601l0,0C7.468,47.646,7.208,47.907,7.208,48.248z"/>
	<path fill="#DCDBDB" d="M16.616,63.062v2.602c0,0.34,0.261,0.601,0.6,0.601l0,0c0.341,0,0.601-0.261,0.601-0.601v-2.602
		c0-0.34-0.26-0.601-0.601-0.601l0,0C16.877,62.461,16.616,62.722,16.616,63.062z"/>
	<path fill="#DCDBDB" d="M13.473,63.062v2.602c0,0.34,0.26,0.601,0.6,0.601l0,0c0.341,0,0.601-0.261,0.601-0.601v-2.602
		c0-0.34-0.26-0.601-0.601-0.601l0,0C13.753,62.461,13.473,62.722,13.473,63.062z"/>
	<path fill="#DCDBDB" d="M10.35,63.062v2.602c0,0.34,0.26,0.601,0.601,0.601l0,0c0.34,0,0.601-0.261,0.601-0.601v-2.602
		c0-0.34-0.261-0.601-0.601-0.601l0,0C10.61,62.461,10.35,62.722,10.35,63.062z"/>
	<path fill="#DCDBDB" d="M7.208,63.062v2.602c0,0.34,0.26,0.601,0.6,0.601l0,0c0.34,0,0.601-0.261,0.601-0.601v-2.602
		c0-0.34-0.261-0.601-0.601-0.601l0,0C7.468,62.461,7.208,62.722,7.208,63.062z"/>
	<g>
		<path fill="none" stroke="#DCDBDB" stroke-width="3" stroke-miterlimit="10" d="M33.493,46.465v-8.648
			c0-0.101,0.08-0.181,0.181-0.181h4.444c0.1,0,0.18,0.08,0.18,0.181v8.648c0,0.1-0.08,0.18-0.18,0.18h-4.444
			C33.573,46.646,33.493,46.565,33.493,46.465z"/>
		<path fill="#D08B29" d="M37.277,38.838v6.707c0,0.12-0.101,0.199-0.2,0.199h-2.343c-0.12,0-0.2-0.101-0.2-0.199v-6.707
			c0-0.121,0.1-0.2,0.2-0.2h2.343C37.197,38.638,37.277,38.737,37.277,38.838z"/>
		<path fill="#FFFFFF" d="M34.514,40.158v-1.32c0-0.101,0.08-0.18,0.18-0.18h2.383c0.099,0,0.18,0.08,0.18,0.18v1.32
			c0,0.101-0.081,0.181-0.18,0.181h-2.383C34.614,40.339,34.514,40.259,34.514,40.158z"/>
		<path fill="#FFFFFF" d="M34.514,45.564v-1.321c0-0.1,0.08-0.18,0.18-0.18h2.383c0.099,0,0.18,0.08,0.18,0.18v1.321
			c0,0.101-0.081,0.18-0.18,0.18h-2.383C34.614,45.744,34.514,45.665,34.514,45.564z"/>
	</g>
	<g>
		<path fill="none" stroke="#DCDBDB" stroke-width="3" stroke-miterlimit="10" d="M33.493,81.3V72.65c0-0.1,0.08-0.179,0.181-0.179
			h4.444c0.1,0,0.18,0.079,0.18,0.179V81.3c0,0.1-0.08,0.181-0.18,0.181h-4.444C33.573,81.48,33.493,81.399,33.493,81.3z"/>
		<path fill="#AAA9AA" d="M37.277,73.671v6.708c0,0.12-0.101,0.2-0.2,0.2h-2.343c-0.12,0-0.2-0.101-0.2-0.2v-6.708
			c0-0.119,0.1-0.199,0.2-0.199h2.343C37.197,73.472,37.277,73.571,37.277,73.671z"/>
		<path fill="#FFFFFF" d="M34.514,74.993v-1.322c0-0.1,0.08-0.179,0.18-0.179h2.383c0.099,0,0.18,0.079,0.18,0.179v1.322
			c0,0.1-0.081,0.181-0.18,0.181h-2.383C34.614,75.174,34.514,75.093,34.514,74.993z"/>
		<path fill="#FFFFFF" d="M34.514,80.399v-1.322c0-0.1,0.08-0.18,0.18-0.18h2.383c0.099,0,0.18,0.08,0.18,0.18v1.322
			c0,0.1-0.081,0.18-0.18,0.18h-2.383C34.614,80.579,34.514,80.499,34.514,80.399z"/>
	</g>
	<g>
		<path fill="none" stroke="#DCDBDB" stroke-width="3" stroke-miterlimit="10" d="M5.465,81.3V72.65c0-0.1,0.08-0.179,0.181-0.179
			h4.444c0.1,0,0.18,0.079,0.18,0.179V81.3c0,0.1-0.08,0.181-0.18,0.181H5.646C5.545,81.48,5.465,81.399,5.465,81.3z"/>
		<path fill="#AAA9AA" d="M9.249,73.671v6.708c0,0.12-0.101,0.2-0.2,0.2H6.706c-0.12,0-0.2-0.101-0.2-0.2v-6.708
			c0-0.119,0.101-0.199,0.2-0.199h2.343C9.168,73.472,9.249,73.571,9.249,73.671z"/>
		<path fill="#FFFFFF" d="M6.486,74.993v-1.322c0-0.1,0.08-0.179,0.18-0.179h2.382c0.1,0,0.181,0.079,0.181,0.179v1.322
			c0,0.1-0.081,0.181-0.181,0.181H6.667C6.586,75.174,6.486,75.093,6.486,74.993z"/>
		<path fill="#FFFFFF" d="M6.486,80.399v-1.322c0-0.1,0.08-0.18,0.18-0.18h2.382c0.1,0,0.181,0.08,0.181,0.18v1.322
			c0,0.1-0.081,0.18-0.181,0.18H6.667C6.586,80.579,6.486,80.499,6.486,80.399z"/>
	</g>
	<g>
		<path fill="none" stroke="#DCDBDB" stroke-width="3" stroke-miterlimit="10" d="M26.285,46.465v-8.648
			c0-0.101,0.081-0.181,0.181-0.181h4.444c0.1,0,0.18,0.08,0.18,0.181v8.648c0,0.1-0.08,0.18-0.18,0.18h-4.444
			C26.366,46.646,26.285,46.565,26.285,46.465z"/>
		<path fill="#D08B29" d="M30.069,38.838v6.707c0,0.12-0.1,0.199-0.2,0.199h-2.342c-0.121,0-0.201-0.101-0.201-0.199v-6.707
			c0-0.121,0.1-0.2,0.201-0.2h2.342C29.989,38.638,30.069,38.737,30.069,38.838z"/>
		<path fill="#FFFFFF" d="M27.307,40.158v-1.32c0-0.101,0.081-0.18,0.18-0.18h2.382c0.1,0,0.18,0.08,0.18,0.18v1.32
			c0,0.101-0.08,0.181-0.18,0.181h-2.382C27.407,40.339,27.307,40.259,27.307,40.158z"/>
		<path fill="#FFFFFF" d="M27.307,45.564v-1.321c0-0.1,0.081-0.18,0.18-0.18h2.382c0.1,0,0.18,0.08,0.18,0.18v1.321
			c0,0.101-0.08,0.18-0.18,0.18h-2.382C27.407,45.744,27.307,45.665,27.307,45.564z"/>
	</g>
	<g>
		<g>
			<path fill="none" stroke="#DCDBDB" stroke-width="3" stroke-miterlimit="10" d="M19.079,46.465v-8.648
				c0-0.101,0.08-0.181,0.18-0.181h4.445c0.1,0,0.18,0.08,0.18,0.181v8.648c0,0.1-0.08,0.18-0.18,0.18h-4.445
				C19.159,46.646,19.079,46.565,19.079,46.465z"/>
			<path fill="#2D2E2D" d="M22.862,38.838v6.707c0,0.12-0.1,0.199-0.2,0.199H20.32c-0.12,0-0.2-0.101-0.2-0.199v-6.707
				c0-0.121,0.1-0.2,0.2-0.2h2.342C22.783,38.638,22.862,38.737,22.862,38.838z"/>
			<path fill="#FFFFFF" d="M20.1,39.759v-0.521c0-0.1,0.08-0.18,0.18-0.18h2.382c0.1,0,0.181,0.08,0.181,0.18v0.521
				c0,0.1-0.081,0.179-0.181,0.179H20.28C20.2,39.938,20.1,39.859,20.1,39.759z"/>
			<path fill="#FFFFFF" d="M20.1,45.165v-0.521c0-0.101,0.08-0.181,0.18-0.181h2.382c0.1,0,0.181,0.08,0.181,0.181v0.521
				c0,0.099-0.081,0.18-0.181,0.18H20.28C20.2,45.344,20.1,45.264,20.1,45.165z"/>
		</g>
		
			<text transform="matrix(-4.371139e-008 1 -1 -4.371139e-008 20.7871 40.4468)" fill="#FFFFFF" font-family="'MyriadPro-Regular'" font-size="2.2022">103</text>
	</g>
	<g>
		<g>
			<path fill="none" stroke="#DCDBDB" stroke-width="3" stroke-miterlimit="10" d="M32.412,72.37h-8.648
				c-0.101,0-0.181-0.08-0.181-0.18v-4.444c0-0.101,0.081-0.181,0.181-0.181h8.648c0.1,0,0.18,0.08,0.18,0.181v4.444
				C32.592,72.29,32.512,72.37,32.412,72.37z"/>
			<path fill="#2D2E2D" d="M24.804,68.587h6.707c0.12,0,0.2,0.1,0.2,0.2v2.344c0,0.119-0.1,0.199-0.2,0.199h-6.707
				c-0.12,0-0.2-0.102-0.2-0.199v-2.344C24.584,68.687,24.685,68.587,24.804,68.587z"/>
			<path fill="#FFFFFF" d="M25.705,71.349h-0.521c-0.1,0-0.18-0.079-0.18-0.18v-2.382c0-0.101,0.08-0.181,0.18-0.181h0.521
				c0.101,0,0.18,0.08,0.18,0.181v2.382C25.885,71.27,25.806,71.349,25.705,71.349z"/>
			<path fill="#FFFFFF" d="M31.11,71.349h-0.52c-0.101,0-0.181-0.079-0.181-0.18v-2.382c0-0.101,0.08-0.181,0.181-0.181h0.52
				c0.1,0,0.18,0.08,0.18,0.181v2.382C31.291,71.27,31.21,71.349,31.11,71.349z"/>
		</g>
		<text transform="matrix(1 0 0 1 26.4019 70.6699)" fill="#FFFFFF" font-family="'MyriadPro-Regular'" font-size="2.2022">103</text>
	</g>
	<g>
		<g>
			<path fill="none" stroke="#DCDBDB" stroke-width="3" stroke-miterlimit="10" d="M20.4,72.37h-8.649c-0.1,0-0.18-0.08-0.18-0.18
				v-4.444c0-0.101,0.08-0.181,0.18-0.181H20.4c0.1,0,0.18,0.08,0.18,0.181v4.444C20.58,72.29,20.5,72.37,20.4,72.37z"/>
			<path fill="#2D2E2D" d="M12.792,68.587h6.707c0.12,0,0.201,0.1,0.201,0.2v2.344c0,0.119-0.101,0.199-0.201,0.199h-6.707
				c-0.121,0-0.2-0.102-0.2-0.199v-2.344C12.572,68.687,12.672,68.587,12.792,68.587z"/>
			<path fill="#FFFFFF" d="M13.693,71.349h-0.521c-0.099,0-0.179-0.079-0.179-0.18v-2.382c0-0.101,0.08-0.181,0.179-0.181h0.521
				c0.101,0,0.181,0.08,0.181,0.181v2.382C13.874,71.27,13.794,71.349,13.693,71.349z"/>
			<path fill="#FFFFFF" d="M19.099,71.349h-0.521c-0.099,0-0.18-0.079-0.18-0.18v-2.382c0-0.101,0.081-0.181,0.18-0.181h0.521
				c0.101,0,0.181,0.08,0.181,0.181v2.382C19.279,71.27,19.2,71.349,19.099,71.349z"/>
		</g>
		<text transform="matrix(1 0 0 1 14.3896 70.6699)" fill="#FFFFFF" font-family="'MyriadPro-Regular'" font-size="2.2022">103</text>
	</g>
	<g>
		<g>
			<path fill="none" stroke="#DCDBDB" stroke-width="3" stroke-miterlimit="10" d="M12.272,46.465v-8.648
				c0-0.101,0.08-0.181,0.18-0.181h4.444c0.101,0,0.181,0.08,0.181,0.181v8.648c0,0.1-0.08,0.18-0.181,0.18h-4.444
				C12.352,46.646,12.272,46.565,12.272,46.465z"/>
			<path fill="#2D2E2D" d="M16.056,38.838v6.707c0,0.12-0.1,0.199-0.2,0.199h-2.343c-0.12,0-0.2-0.101-0.2-0.199v-6.707
				c0-0.121,0.101-0.2,0.2-0.2h2.343C15.976,38.638,16.056,38.737,16.056,38.838z"/>
			<path fill="#FFFFFF" d="M13.293,39.759v-0.521c0-0.1,0.08-0.18,0.18-0.18h2.382c0.1,0,0.18,0.08,0.18,0.18v0.521
				c0,0.1-0.08,0.179-0.18,0.179h-2.382C13.393,39.938,13.293,39.859,13.293,39.759z"/>
			<path fill="#FFFFFF" d="M13.293,45.165v-0.521c0-0.101,0.08-0.181,0.18-0.181h2.382c0.1,0,0.18,0.08,0.18,0.181v0.521
				c0,0.099-0.08,0.18-0.18,0.18h-2.382C13.393,45.344,13.293,45.264,13.293,45.165z"/>
		</g>
		
			<text transform="matrix(-4.371139e-008 1 -1 -4.371139e-008 13.9805 40.4468)" fill="#FFFFFF" font-family="'MyriadPro-Regular'" font-size="2.2022">103</text>
	</g>
	<g>
		<g>
			<path fill="none" stroke="#DCDBDB" stroke-width="3" stroke-miterlimit="10" d="M5.666,46.465v-8.648
				c0-0.101,0.08-0.181,0.18-0.181h4.445c0.1,0,0.179,0.08,0.179,0.181v8.648c0,0.1-0.08,0.18-0.179,0.18H5.846
				C5.745,46.646,5.666,46.565,5.666,46.465z"/>
			<path fill="#2D2E2D" d="M9.45,38.838v6.707c0,0.12-0.101,0.199-0.201,0.199H6.907c-0.12,0-0.201-0.101-0.201-0.199v-6.707
				c0-0.121,0.1-0.2,0.201-0.2h2.342C9.369,38.638,9.45,38.737,9.45,38.838z"/>
			<path fill="#FFFFFF" d="M6.687,39.759v-0.521c0-0.1,0.08-0.18,0.18-0.18h2.382c0.1,0,0.18,0.08,0.18,0.18v0.521
				c0,0.1-0.08,0.179-0.18,0.179H6.867C6.787,39.938,6.687,39.859,6.687,39.759z"/>
			<path fill="#FFFFFF" d="M6.687,45.165v-0.521c0-0.101,0.08-0.181,0.18-0.181h2.382c0.1,0,0.18,0.08,0.18,0.181v0.521
				c0,0.099-0.08,0.18-0.18,0.18H6.867C6.787,45.344,6.687,45.264,6.687,45.165z"/>
		</g>
		
			<text transform="matrix(-4.371139e-008 1 -1 -4.371139e-008 7.3735 40.4468)" fill="#FFFFFF" font-family="'MyriadPro-Regular'" font-size="2.2022">101</text>
	</g>
	<g>
		<path fill="#FFFFFF" d="M32.788,93.912H11.129c-0.538,0-0.964-0.427-0.964-0.966v-6.588c0-0.538,0.427-0.965,0.964-0.965h21.659
			c0.539,0,0.965,0.427,0.965,0.965v6.588C33.734,93.466,33.308,93.912,32.788,93.912z"/>
		<text transform="matrix(1 0 0 1 9.3291 99.7695)" fill="#FFFFFF" font-family="'MyriadPro-Semibold'" font-size="5">OUT</text>
		<text transform="matrix(1 0 0 1 17.2168 84.5)" fill="#FFFFFF" font-family="'MyriadPro-Semibold'" font-size="5">GND</text>
		<text transform="matrix(1 0 0 1 25.1045 99.7695)" fill="#FFFFFF" font-family="'MyriadPro-Semibold'" font-size="5">VCC</text>
		<g>
			<path fill="#616262" d="M12.632,86.043h3.619c0.965,0,1.745,0.779,1.745,1.743v3.621c0,0.964-0.779,1.743-1.745,1.743h-3.619
				c-0.965,0-1.745-0.779-1.745-1.743v-3.621C10.907,86.822,11.667,86.043,12.632,86.043z"/>
			<path fill="#616262" d="M20,86.043h3.62c0.965,0,1.744,0.779,1.744,1.743v3.621c0,0.964-0.779,1.743-1.744,1.743H20
				c-0.964,0-1.744-0.779-1.744-1.743v-3.621C18.256,86.822,19.036,86.043,20,86.043z"/>
			<path fill="#616262" d="M27.369,86.043h3.619c0.965,0,1.745,0.779,1.745,1.743v3.621c0,0.964-0.78,1.743-1.745,1.743h-3.619
				c-0.965,0-1.744-0.779-1.744-1.743v-3.621C25.625,86.822,26.403,86.043,27.369,86.043z"/>
		</g>
	</g>
</g>
</svg>
