<?xml version="1.0" encoding="utf-8"?>
<!-- Generator: Adobe Illustrator 16.0.0, SVG Export Plug-In . SVG Version: 6.00 Build 0)  -->
<!DOCTYPE svg PUBLIC "-//W3C//DTD SVG 1.1//EN" "http://www.w3.org/Graphics/SVG/1.1/DTD/svg11.dtd">
<svg version="1.1" id="Layer_1" xmlns:svg="http://www.w3.org/2000/svg"
	 xmlns="http://www.w3.org/2000/svg" xmlns:xlink="http://www.w3.org/1999/xlink" x="0px" y="0px" width="109.964px"
	 height="128.057px" viewBox="-27.88 -26.319 109.964 128.057" enable-background="new -27.88 -26.319 109.964 128.057"
	 xml:space="preserve">
<g id="breadboard">
	
		<rect id="connector0pin" x="76.646" y="79.077" transform="matrix(-0.9873 0.159 -0.159 -0.9873 170.3219 150.3468)" fill="#868584" width="4.999" height="5.821"/>
	
		<rect id="connector1pin" x="-3.16" y="91.948" transform="matrix(-0.9871 0.1601 -0.1601 -0.9871 13.876 188.5964)" fill="#868584" width="5.002" height="5.819"/>
	
		<rect x="-5.018" y="85.565" transform="matrix(-0.9872 0.1593 -0.1593 -0.9872 90.7615 169.7646)" fill="#868584" width="87.189" height="5.91"/>
	<path id="Body_1_" fill="#D9B578" d="M49.644,77.452c-0.914,0.607-2.553,1.25-3.637,1.426l-16.102,2.597
		c-1.084,0.174-2.843,0.082-3.902-0.207l-0.219-0.062c-1.061-0.293-2.816-0.385-3.906-0.209l-5.924,0.957
		c-1.975,0.318-3.631,2.609-3.313,4.586l1.912,11.849c0.318,1.973,2.611,3.629,4.586,3.311l5.924-0.957
		c1.088-0.174,2.725-0.813,3.64-1.426l0.189-0.125c0.918-0.611,2.557-1.252,3.641-1.426l16.102-2.599
		c1.086-0.176,2.838-0.084,3.902,0.209l0.219,0.062c1.063,0.287,2.819,0.383,3.905,0.209l5.922-0.955
		c1.977-0.318,3.633-2.613,3.313-4.586l-1.912-11.847c-0.318-1.977-2.611-3.631-4.586-3.313l-5.922,0.955
		c-1.086,0.174-2.725,0.813-3.641,1.424L49.644,77.452z"/>
	<path fill="#EF7714" d="M57.427,75.262l3.188,19.743c0,0-4.094,0.63-4.528,0.699c-0.438,0.07-1.437,0.004-1.437,0.004
		l-3.104-19.239c0,0,0.898-0.394,1.572-0.5C53.791,75.862,57.424,75.264,57.427,75.262z"/>
	<path fill="#EF7714" d="M47.797,78.356l2.699,16.731c0,0-1.221-0.024-1.84,0.074c-0.619,0.103-4.119,0.664-4.119,0.664
		l-2.629-16.289c0,0,3.252-0.526,4.076-0.66C46.806,78.745,47.795,78.358,47.797,78.356z"/>
	
		<rect x="33.311" y="80.554" transform="matrix(-0.9873 0.1592 -0.1592 -0.9873 86.2957 170.7028)" fill="#893E19" width="6" height="16.507"/>
	
		<rect x="19.854" y="81.27" transform="matrix(-0.9872 0.1593 -0.1593 -0.9872 56.2852 178.0263)" opacity="0.5" fill="#F5E731" enable-background="new    " width="2.305" height="20"/>
	<path id="Reflex_1_" opacity="0.4" fill="#FFFFFF" enable-background="new    " d="M62.01,78.575
		c-0.16-0.986-1.303-1.813-2.291-1.654c-1.973,0.316-3.949,0.638-5.922,0.955c-1.975,0.316-4.619,2.771-6.592,3.088
		c-1.977,0.318-15.799,2.55-17.773,2.867c-1.972,0.318-5.251-1.18-7.224-0.858c-1.977,0.317-1.977,0.317-4.939,0.797
		c-4.141,0.668-3.313,4.586-3.789,1.623c-0.16-0.988,1.656-2.291,2.643-2.451c0.656-0.105,3.047-0.49,4.59-0.74
		c0.713-0.115,1.25-0.201,1.334-0.215c1.973-0.318,5.252,1.178,7.226,0.861c1.975-0.32,16.785-2.709,17.773-2.869
		c0.986-0.16,4.615-2.771,6.59-3.09c1.975-0.32,3.948-0.638,5.924-0.955c1.978-0.318,3.278,1.498,3.438,2.481
		c0.16,0.986,0.797,4.938,0.797,4.938C62.648,82.524,62.17,79.561,62.01,78.575z"/>
	<path id="Shaddow_1_" opacity="0.4" enable-background="new    " d="M16.377,97.075c0.48,2.965,3.441,2.484,4.428,2.324
		c1.977-0.318,1.977-0.318,3.947-0.635c1.977-0.318,4.619-2.771,6.591-3.088c1.975-0.318,15.797-2.55,17.773-2.869
		c1.973-0.318,5.254,1.18,7.226,0.858c1.978-0.315,1.978-0.315,4.938-0.793c4.136-0.668,3.979-6.723,4.457-3.76
		c0.031,0.195,0.132,0.813,0.158,0.988c0.39,2.407-1.979,4.369-3.313,4.586c-0.959,0.156-6.383,1.031-6.647,1.074
		c-1.973,0.315-4.656-1.023-7.449-0.572c-1.977,0.319-15.354,2.44-16.342,2.602c-1.82,0.293-4.591,2.551-7.074,2.949
		c-1.975,0.318-3.951,0.639-5.924,0.957c-1.977,0.318-4.27-1.336-4.586-3.313c-0.16-0.987-0.797-4.936-0.797-4.936
		C14.75,93.292,16.219,96.094,16.377,97.075z"/>
</g>
<g id="breadboard_1_">
	<rect id="connector0pin_1_" x="-20.974" y="24.521" fill="none" width="4.302" height="1.442"/>
	<rect id="connector1pin_1_" x="-6.58" y="24.521" fill="none" width="4.311" height="1.442"/>
	
		<line id="connector0leg" fill="none" stroke="#8C8C8C" stroke-width="2.988" stroke-linecap="round" x1="-18.826" y1="32.095" x2="-18.826" y2="81.327"/>
	
		<line id="connector1leg" fill="none" stroke="#8C8C8C" stroke-width="2.988" stroke-linecap="round" x1="-4.422" y1="32.095" x2="-4.422" y2="81.327"/>
	<rect x="-20.974" y="12.439" fill="#8C8C8C" width="4.298" height="19.654"/>
	<path fill="#8C8C8C" d="M-2.275,32.094c0-2.349-2.131-4.205-4.176-5.98c-0.832-0.734-2.398-2.004-2.398-2.852V12.318h-4.32V23.88
		c0,2.115,1.895,3.757,3.891,5.496c0.889,0.752,2.695,2.5,2.695,3.54"/>
	<g id="g12">
		<path id="color_path14" opacity="0.3" fill="#E60000" enable-background="new    " d="M0.465-0.317v-11.824
			c0-7.824-6.336-14.178-14.17-14.178c-7.824,0-14.175,6.34-14.175,14.178v27.292c2.947,3.305,8.193,5.506,14.175,5.506
			c9.236,0,16.736-5.234,16.736-11.715V5.896C3.031,3.611,2.082,1.488,0.465-0.317z"/>
		<path id="path16" opacity="0.5" fill="#E6E6E6" enable-background="new    " d="M0.465-0.317v-11.824
			c0-7.824-6.336-14.178-14.17-14.178c-7.824,0-14.175,6.34-14.175,14.178v27.292c2.947,3.305,8.193,5.506,14.175,5.506
			c9.236,0,16.736-5.234,16.736-11.715V5.896C3.031,3.611,2.082,1.488,0.465-0.317z"/>
		<path id="path18" opacity="0.9" fill="#D1D1D1" enable-background="new    " d="M0.465-0.317v6.209
			c0,5.479-6.332,9.931-14.17,9.931c-7.824,0-14.175-4.439-14.175-9.931V12.1v3.047c2.947,3.305,8.193,5.506,14.175,5.506
			c9.236,0,16.736-5.236,16.736-11.717V5.892C3.031,3.611,2.082,1.488,0.465-0.317z"/>
		<path id="color_path20" opacity="0.7" fill="#E60000" enable-background="new    " d="M0.465-0.317v6.209
			c0,5.479-6.332,9.931-14.17,9.931c-7.824,0-14.175-4.439-14.175-9.931V12.1v3.047c2.947,3.305,8.193,5.506,14.175,5.506
			c9.236,0,16.736-5.236,16.736-11.717V5.892C3.031,3.611,2.082,1.488,0.465-0.317z"/>
		<path id="color_path22" opacity="0.25" fill="#E60000" enable-background="new    " d="M0.465-0.317v6.209
			c0,5.479-6.332,9.931-14.17,9.931c-7.824,0-14.175-4.439-14.175-9.931V12.1c2.947,3.299,8.193,5.506,14.175,5.506
			c9.236,0,16.736-5.234,16.736-11.716C3.031,3.611,2.082,1.488,0.465-0.317z"/>
		
			<ellipse id="ellipse24" opacity="0.25" fill="#E6E6E6" enable-background="new    " cx="-13.705" cy="5.894" rx="14.174" ry="9.921"/>
		
			<ellipse id="color_ellipse26" opacity="0.25" fill="#E60000" enable-background="new    " cx="-13.705" cy="5.894" rx="14.174" ry="9.921"/>
		<polygon id="polygon28" fill="#666666" points="-23.472,-7.022 -23.472,5.896 -21.49,5.896 -21.49,-0.127 -15.849,-0.127 
			-7.855,-8.707 -21.068,-8.707 		"/>
		<polygon id="polygon30" fill="#666666" points="-6.326,-9.27 -5.453,-8.248 -13.058,-0.127 -5.761,-0.127 -5.761,5.896 
			-3.933,5.896 -3.933,-9.27 		"/>
		<path id="color_path32" opacity="0.65" fill="#E60000" enable-background="new    " d="M0.465-0.317v-11.824
			c0-7.824-6.336-14.178-14.17-14.178c-7.824,0-14.175,6.34-14.175,14.178v27.292c2.947,3.305,8.193,5.506,14.175,5.506
			c9.236,0,16.736-5.234,16.736-11.715V5.896C3.031,3.611,2.082,1.488,0.465-0.317z"/>
		<path id="path34" opacity="0.5" fill="#FFFFFF" enable-background="new    " d="M-7.107-18.811l2.875-0.545
			c-1.686-2.265-4.168-3.914-7.086-4.478l0.51,2.162C-9.281-21.129-7.994-20.11-7.107-18.811z"/>
		<path id="path36" opacity="0.5" fill="#FFFFFF" enable-background="new    " d="M-26.345,13.534v3.039
			c1.299,1.061,2.867,1.957,4.617,2.635v-3.051C-23.486,15.486-25.042,14.594-26.345,13.534z"/>
		<path id="path38" opacity="0.5" fill="#FFFFFF" enable-background="new    " d="M-5.734,14.099
			c-0.512,0.244-1.061,0.457-1.613,0.659c-0.117,0.041-0.236,0.08-0.355,0.113c-1.131,0.359-2.32,0.64-3.59,0.789
			c-0.15,0.021-0.303,0.043-0.451,0.043c-0.641,0.06-1.287,0.115-1.943,0.115c-0.297,0-0.613-0.027-0.941-0.043
			c-2.4-0.119-4.662-0.629-6.595-1.479V-2.481v-9.65c0-2.94,1.693-5.459,4.146-6.697l-0.045-0.108l-2.496-3.021
			c-3.338,2.006-5.578,5.644-5.578,9.824v23.806c-0.098-0.102-0.617-0.618-0.961-1.059l-0.615,1.375
			c2.803,2.963,7.619,4.924,13.085,4.924c3.361,0,6.475-0.748,9.025-2.006l-1.053-0.814C-5.736,14.101-5.736,14.101-5.734,14.099z"
			/>
	</g>
</g>
</svg>
