<?xml version="1.0" encoding="utf-8"?>
<!-- Generator: Adobe Illustrator 16.0.0, SVG Export Plug-In . SVG Version: 6.00 Build 0)  -->
<!DOCTYPE svg PUBLIC "-//W3C//DTD SVG 1.1//EN" "http://www.w3.org/Graphics/SVG/1.1/DTD/svg11.dtd">
<svg version="1.1" id="Layer_1" xmlns:svg="http://www.w3.org/2000/svg"
	 xmlns="http://www.w3.org/2000/svg" xmlns:xlink="http://www.w3.org/1999/xlink" x="0px" y="0px" width="54.982px"
	 height="64.029px" viewBox="27.104 -26.319 54.982 64.029" enable-background="new 27.104 -26.319 54.982 64.029"
	 xml:space="preserve">
<g id="breadboard">
	
		<rect id="connector0pin" x="27.323" y="26.376" transform="matrix(0.9873 0.1592 -0.1592 0.9873 4.7942 -4.1931)" fill="#868584" width="2.5" height="2.91"/>
	
		<rect id="connector1pin" x="67.224" y="32.812" transform="matrix(0.9872 0.1598 -0.1598 0.9872 6.3545 -10.5001)" fill="#868584" width="2.5" height="2.909"/>
	
		<rect x="27.061" y="29.626" transform="matrix(0.9872 0.1593 -0.1593 0.9872 5.5791 -7.3865)" fill="#868584" width="43.597" height="2.956"/>
	<path id="Body_1_" fill="#D9B578" d="M43.228,25.504c-0.458-0.305-1.277-0.625-1.82-0.712l-2.961-0.478
		c-0.987-0.159-2.134,0.668-2.293,1.656l-0.956,5.923c-0.16,0.987,0.668,2.134,1.656,2.293l2.961,0.478
		c0.543,0.087,1.421,0.039,1.952-0.105l0.11-0.03c0.532-0.146,1.408-0.192,1.951-0.104l8.051,1.298
		c0.542,0.087,1.361,0.408,1.82,0.713l0.095,0.063c0.458,0.305,1.276,0.626,1.82,0.713l2.962,0.478
		c0.987,0.159,2.134-0.669,2.293-1.655l0.956-5.924c0.159-0.988-0.669-2.134-1.656-2.293l-2.962-0.478
		c-0.545-0.088-1.423-0.042-1.953,0.104l-0.11,0.03c-0.529,0.145-1.409,0.191-1.951,0.104l-8.051-1.298
		c-0.542-0.088-1.361-0.409-1.818-0.713L43.228,25.504z"/>
	<path fill="#893E19" d="M41.587,24.826c0.337,0.054,0.786,0.25,0.786,0.25l-1.552,9.62c0,0-0.499,0.033-0.718-0.002
		c-0.218-0.035-2.264-0.35-2.264-0.35l1.593-9.872C39.434,24.473,41.251,24.772,41.587,24.826z"/>
	<path d="M45.154,26.28c0.412,0.066,2.038,0.33,2.038,0.33l-1.314,8.145c0,0-1.75-0.282-2.06-0.332
		c-0.309-0.05-0.92-0.038-0.92-0.038l1.35-8.366C44.249,26.02,44.743,26.214,45.154,26.28z"/>
	
		<rect x="48.491" y="27.114" transform="matrix(0.9873 0.1592 -0.1592 0.9873 5.6098 -7.5589)" fill="#C3111D" width="3" height="8.252"/>
	
		<rect x="57.066" y="27.477" transform="matrix(0.9873 0.1589 -0.1589 0.9873 5.8929 -8.7467)" opacity="0.5" fill="#F5E731" enable-background="new    " width="1.152" height="10"/>
	<path id="Reflex_1_" opacity="0.4" fill="#FFFFFF" enable-background="new    " d="M36.249,28.517c0,0,0.318-1.975,0.398-2.468
		s0.732-1.401,1.72-1.242c0.987,0.16,1.975,0.318,2.962,0.478c0.987,0.159,2.802,1.465,3.295,1.545
		c0.494,0.08,7.899,1.274,8.886,1.434c0.988,0.159,2.627-0.589,3.614-0.43c0.042,0.007,0.31,0.05,0.667,0.107
		c0.771,0.125,1.967,0.318,2.295,0.37c0.493,0.08,1.401,0.732,1.321,1.226c-0.238,1.481,0.176-0.478-1.895-0.812
		c-1.481-0.239-1.481-0.239-2.469-0.398c-0.987-0.16-2.626,0.589-3.613,0.43c-0.987-0.16-7.898-1.275-8.886-1.434
		c-0.987-0.159-2.309-1.386-3.296-1.544c-0.987-0.159-1.975-0.319-2.961-0.478c-0.494-0.08-1.066,0.334-1.146,0.828
		C37.061,26.622,36.822,28.103,36.249,28.517z"/>
	<path id="Shaddow_1_" opacity="0.4" enable-background="new    " d="M61.264,33.566c0,0-0.318,1.974-0.398,2.468
		c-0.158,0.988-1.305,1.815-2.293,1.656c-0.986-0.159-1.975-0.319-2.962-0.478c-1.241-0.2-2.627-1.328-3.537-1.475
		c-0.494-0.08-7.183-1.141-8.171-1.301c-1.396-0.225-2.738,0.445-3.725,0.286c-0.132-0.021-2.844-0.459-3.324-0.537
		c-0.667-0.108-1.85-1.089-1.656-2.293c0.014-0.088,0.063-0.396,0.079-0.494c0.239-1.481,0.161,1.546,2.229,1.88
		c1.48,0.238,1.48,0.238,2.468,0.397c0.987,0.16,2.627-0.589,3.614-0.43c0.988,0.16,7.899,1.275,8.886,1.434
		c0.987,0.159,2.308,1.385,3.296,1.544c0.986,0.159,0.986,0.159,1.974,0.318c0.493,0.08,1.974,0.32,2.214-1.162
		C60.037,34.887,60.771,33.487,61.264,33.566z"/>
</g>
<g id="breadboard_1_">
	<rect id="connector0pin_1_" x="76.482" y="-0.899" fill="none" width="2.152" height="0.722"/>
	<rect id="connector1pin_1_" x="69.281" y="-0.899" fill="none" width="2.155" height="0.722"/>
	
		<line id="connector0leg" fill="none" stroke="#8C8C8C" stroke-width="2.988" stroke-linecap="round" x1="77.559" y1="27.505" x2="77.559" y2="2.888"/>
	
		<line id="connector1leg" fill="none" stroke="#8C8C8C" stroke-width="2.988" stroke-linecap="round" x1="70.357" y1="27.505" x2="70.357" y2="2.888"/>
	<rect x="76.484" y="-6.94" fill="#8C8C8C" width="2.15" height="9.827"/>
	<path fill="#8C8C8C" d="M71.438,3.299c0-0.52,0.904-1.394,1.348-1.77c0.998-0.87,1.945-1.69,1.945-2.748v-5.781h-2.16v5.471
		c0,0.424-0.783,1.059-1.199,1.426c-1.023,0.888-2.088,1.817-2.088,2.99"/>
	<g id="g12">
		<path id="color_path14" opacity="0.3" fill="#E60000" enable-background="new    " d="M66.631-10.211v1.523
			c0,3.24,3.75,5.858,8.368,5.858c2.991,0,5.614-1.101,7.088-2.753V-19.23c0-3.919-3.176-7.089-7.088-7.089
			c-3.917,0-7.085,3.177-7.085,7.089v5.912C67.105-12.415,66.631-11.354,66.631-10.211z"/>
		<path id="path16" opacity="0.5" fill="#E6E6E6" enable-background="new    " d="M66.631-10.211v1.523
			c0,3.24,3.75,5.858,8.368,5.858c2.991,0,5.614-1.101,7.088-2.753V-19.23c0-3.919-3.176-7.089-7.088-7.089
			c-3.917,0-7.085,3.177-7.085,7.089v5.912C67.105-12.415,66.631-11.354,66.631-10.211z"/>
		<path id="path18" opacity="0.9" fill="#D1D1D1" enable-background="new    " d="M66.631-10.213v1.522
			c0,3.241,3.75,5.859,8.368,5.859c2.991,0,5.614-1.101,7.088-2.753v-1.524v-3.104c0,2.746-3.176,4.966-7.088,4.966
			c-3.919,0-7.085-2.226-7.085-4.966v-3.105C67.105-12.415,66.631-11.354,66.631-10.213z"/>
		<path id="color_path20" opacity="0.7" fill="#E60000" enable-background="new    " d="M66.631-10.213v1.522
			c0,3.241,3.75,5.859,8.368,5.859c2.991,0,5.614-1.101,7.088-2.753v-1.524v-3.104c0,2.746-3.176,4.966-7.088,4.966
			c-3.919,0-7.085-2.226-7.085-4.966v-3.105C67.105-12.415,66.631-11.354,66.631-10.213z"/>
		<path id="color_path22" opacity="0.25" fill="#E60000" enable-background="new    " d="M66.631-10.214
			c0,3.241,3.75,5.858,8.368,5.858c2.991,0,5.614-1.103,7.088-2.753v-3.104c0,2.746-3.176,4.966-7.088,4.966
			c-3.919,0-7.085-2.226-7.085-4.966v-3.105C67.105-12.415,66.631-11.354,66.631-10.214z"/>
		
			<ellipse id="ellipse24" opacity="0.25" fill="#E6E6E6" enable-background="new    " cx="74.999" cy="-10.212" rx="7.087" ry="4.961"/>
		
			<ellipse id="color_ellipse26" opacity="0.25" fill="#E60000" enable-background="new    " cx="74.999" cy="-10.212" rx="7.087" ry="4.961"/>
		<polygon id="polygon28" fill="#666666" points="78.68,-17.513 72.074,-17.513 76.071,-13.223 78.891,-13.223 78.891,-10.211 
			79.883,-10.211 79.883,-16.67 		"/>
		<polygon id="polygon30" fill="#666666" points="70.113,-17.794 70.113,-10.211 71.027,-10.211 71.027,-13.223 74.676,-13.223 
			70.873,-17.283 71.309,-17.794 		"/>
		<path id="color_path32" opacity="0.65" fill="#E60000" enable-background="new    " d="M66.631-10.211v1.523
			c0,3.24,3.75,5.858,8.368,5.858c2.991,0,5.614-1.101,7.088-2.753V-19.23c0-3.919-3.176-7.089-7.088-7.089
			c-3.917,0-7.085,3.177-7.085,7.089v5.912C67.105-12.415,66.631-11.354,66.631-10.211z"/>
		<path id="path34" opacity="0.5" fill="#FFFFFF" enable-background="new    " d="M73.551-23.994l0.254-1.081
			c-1.459,0.281-2.7,1.106-3.543,2.238l1.438,0.272C72.143-23.214,72.787-23.724,73.551-23.994z"/>
		<path id="path36" opacity="0.5" fill="#FFFFFF" enable-background="new    " d="M79.01-5.08v1.525
			c0.875-0.339,1.66-0.787,2.309-1.317v-1.52C80.668-5.863,79.889-5.416,79.01-5.08z"/>
		<path id="path38" opacity="0.5" fill="#FFFFFF" enable-background="new    " d="M71.004-6.114l-0.527,0.408
			c1.276,0.629,2.832,1.003,4.513,1.003c2.733,0,5.142-0.981,6.543-2.462l-0.308-0.688c-0.172,0.22-0.431,0.479-0.48,0.529v-11.903
			c0-2.091-1.12-3.909-2.789-4.912l-1.248,1.511l-0.023,0.054c1.227,0.62,2.074,1.878,2.074,3.349v4.825v8.39
			c-0.967,0.425-2.098,0.68-3.298,0.739c-0.164,0.008-0.323,0.022-0.471,0.022c-0.328,0-0.651-0.029-0.972-0.058
			c-0.074,0-0.15-0.011-0.225-0.021c-0.635-0.076-1.23-0.215-1.795-0.395C71.938-5.74,71.879-5.759,71.82-5.78
			c-0.276-0.101-0.551-0.208-0.807-0.33C71.014-6.109,71.014-6.109,71.004-6.114z"/>
	</g>
</g>
</svg>
