<?xml version="1.0" encoding="utf-8"?>
<!-- Generator: Adobe Illustrator 16.0.0, SVG Export Plug-In . SVG Version: 6.00 Build 0)  -->
<!DOCTYPE svg PUBLIC "-//W3C//DTD SVG 1.1//EN" "http://www.w3.org/Graphics/SVG/1.1/DTD/svg11.dtd">
<svg version="1.1" id="Layer_1" xmlns="http://www.w3.org/2000/svg" xmlns:xlink="http://www.w3.org/1999/xlink" x="0px" y="0px"
	 width="241.758px" height="111.441px" viewBox="-61.563 -27.861 241.758 111.441"
	 enable-background="new -61.563 -27.861 241.758 111.441" xml:space="preserve">
<g id="breadboard">
	<rect id="connector0pin" x="-21.422" y="-2.759" fill="#8C8C8C" width="2" height="2"/>
	<rect id="connector1pin" x="-21.622" y="58.653" fill="#8C8C8C" width="2" height="2"/>
	<g>
		<rect x="154.246" y="22.581" fill="#878787" width="25.949" height="9.125"/>
		<rect x="154.246" y="22.581" fill="#2D2D2D" width="0.902" height="9.125"/>
		<rect x="154.246" y="30.655" opacity="0.35" enable-background="new    " width="25.949" height="1.043"/>
		<path opacity="0.35" fill="#FFFFFF" enable-background="new    " d="M179.601,25.094c0,0.51-0.549,0.922-1.234,0.922h-24.875
			c-0.68,0-1.234-0.375-1.234-0.885v-0.738c0-0.512,0.555-0.959,1.234-0.959h24.875c0.686,0,1.234,0.414,1.234,0.922V25.094z"/>
	</g>
	<g>
		<path fill="#6D6D6D" stroke="#6D6D6D" d="M153.306-12.931c0-3.121-2.549-5.668-5.668-5.668h-0.061
			c-3.123,0-5.672-1.859-5.672-4.123s-2.547-4.123-5.668-4.123H-3.051v109.4h139.289c3.121,0,5.668-1.859,5.668-4.123
			s2.549-4.123,5.672-4.123h0.061c3.119,0,5.668-2.549,5.668-5.672V-12.931L153.306-12.931z"/>
	</g>
	<path opacity="0.35" enable-background="new    " d="M148.492,67.768h-0.057c-3.104,0-6.205,1.213-6.205,2.691
		c0,1.477-1.963,2.693-5.063,2.693H8.375v8.904h127.664c3.094,0,5.625-1.852,5.625-4.109s2.539-4.109,5.631-4.109h0.063
		c3.098,0,5.627-2.543,5.627-5.648v-4.121C152.992,66.104,151.589,67.768,148.492,67.768z"/>
	<rect x="-12.254" y="24.819" fill="#878787" width="1.88" height="6.082"/>
	<rect x="-4.78" y="22.278" fill="#E5E500" width="20.483" height="11.166"/>
	<g>
		<rect x="-10.37" y="9.872" fill="#E5E500" width="5.59" height="35.975"/>
		<polygon fill="#F3FF00" points="10.251,22.278 10.251,-27.861 -4.78,-27.861 -4.78,24.139 15.703,24.139 15.703,31.577 
			-4.78,31.577 -4.78,83.581 10.251,83.581 10.251,33.444 15.703,33.444 15.703,22.278 		"/>
	</g>
	<path opacity="0.5" fill="#686868" enable-background="new    " d="M143.38,28.268c0,26.541-1.516,48.041-1.516,48.041v-96.076
		C141.865-19.767,143.38,1.745,143.38,28.268z"/>
	<path opacity="0.16" fill="#FFFFFF" enable-background="new    " d="M139.57,7.817c0,2.834-2.848,5.129-6.361,5.129H22.173
		c-3.514,0-6.361-2.1-6.361-4.936v-25.582c0-2.836,2.848-5.336,6.361-5.336h111.036c3.514,0,6.361,2.299,6.361,5.135V7.817z"/>
	<g opacity="0.16">
		<path fill="#FFFFFF" d="M151.123,8.495c0,1.561-1.279,2.834-2.834,2.834h-0.703c-1.555,0-2.836-1.275-2.836-2.834V-12.49
			c0-1.561,1.281-2.834,2.836-2.834h0.703c1.555,0,2.834,1.275,2.834,2.834V8.495z"/>
	</g>
	<g>
		<path d="M124.031,21.46c-2.066,0-3.752-1.682-3.752-3.75V0.866c0-2.07,1.686-3.754,3.752-3.754c2.068,0,3.752,1.684,3.752,3.754
			V17.71C127.783,19.776,126.099,21.46,124.031,21.46L124.031,21.46z"/>
		<path fill="#6B6B6B" d="M124.031-1.888c1.52,0,2.752,1.236,2.752,2.754V17.71c0,1.52-1.232,2.75-2.752,2.75
			c-1.518,0-2.752-1.23-2.752-2.75V0.866C121.279-0.654,122.513-1.888,124.031-1.888 M124.031-3.888
			c-2.625,0-4.752,2.127-4.752,4.754V17.71c0,2.623,2.123,4.75,4.752,4.75c2.625,0,4.752-2.125,4.752-4.75V0.866
			C128.783-1.761,126.656-3.888,124.031-3.888L124.031-3.888z"/>
	</g>
	<g>
		<path d="M124.031,58.606c-2.066,0-3.752-1.684-3.752-3.752V38.012c0-2.07,1.686-3.754,3.752-3.754
			c2.068,0,3.752,1.684,3.752,3.754v16.842C127.783,56.923,126.099,58.606,124.031,58.606L124.031,58.606z"/>
		<path fill="#6B6B6B" d="M124.031,35.259c1.52,0,2.752,1.236,2.752,2.754v16.842c0,1.518-1.232,2.752-2.752,2.752
			c-1.518,0-2.752-1.234-2.752-2.752V38.012C121.279,36.495,122.513,35.259,124.031,35.259 M124.031,33.259
			c-2.625,0-4.752,2.129-4.752,4.754v16.842c0,2.625,2.123,4.752,4.752,4.752c2.625,0,4.752-2.123,4.752-4.752V38.012
			C128.783,35.389,126.656,33.259,124.031,33.259L124.031,33.259z"/>
	</g>
	<g>
		<path d="M124.031-15.689c-2.066,0-3.752-1.686-3.752-3.75v-7.422h7.504v7.422C127.783-17.37,126.099-15.689,124.031-15.689
			L124.031-15.689z"/>
		<path fill="#6B6B6B" d="M126.783-25.861v6.422c0,1.516-1.232,2.75-2.752,2.75c-1.518,0-2.752-1.234-2.752-2.75v-6.422H126.783
			 M128.783-27.861h-9.504v8.422c0,2.625,2.123,4.75,4.752,4.75c2.625,0,4.752-2.125,4.752-4.75V-27.861L128.783-27.861z"/>
	</g>
	<g>
		<path d="M120.279,82.581v-7.422c0-2.07,1.686-3.754,3.752-3.754c2.068,0,3.752,1.684,3.752,3.754v7.422H120.279z"/>
		<path fill="#6B6B6B" d="M124.031,72.405c1.52,0,2.752,1.234,2.752,2.754v6.422h-5.504v-6.422
			C121.279,73.639,122.513,72.405,124.031,72.405 M124.031,70.405c-2.625,0-4.752,2.123-4.752,4.754v8.422h9.504v-8.422
			C128.783,72.534,126.656,70.405,124.031,70.405L124.031,70.405z"/>
	</g>
	<g id="wires">
		<path fill="#ED8F66" d="M-20.296-6.984l-1,1.096v6l1.118,1.096H-4.78v-8.193L-20.296-6.984L-20.296-6.984z M-17.178-0.189
			c-1.492,0-2.7-1.207-2.7-2.699s1.208-2.701,2.7-2.701c1.491,0,2.699,1.209,2.699,2.701S-15.687-0.189-17.178-0.189z"/>
		<path fill="#ED8F66" d="M-20.296,54.555l-1,1.098v6l1.118,1.096H-4.78v-8.193H-20.296z M-17.178,61.352
			c-1.492,0-2.7-1.207-2.7-2.699s1.208-2.701,2.7-2.701c1.491,0,2.699,1.209,2.699,2.701S-15.687,61.352-17.178,61.352z"/>
		
			<line id="connector0leg" fill="none" stroke="#32BF4F" stroke-width="3" stroke-linecap="round" x1="-60.063" y1="23.286" x2="-56.063" y2="21.286"/>
		
			<line id="connector1leg" fill="none" stroke="#FFD500" stroke-width="3" stroke-linecap="round" x1="-60.063" y1="38.253" x2="-56.063" y2="38.253"/>
		<path fill="none" stroke="#32BF4F" stroke-width="3" d="M-56.063,21.286c11-6.693,14.188-24.045,34.642-24.045"/>
		<path fill="none" stroke="#FFD500" stroke-width="3" d="M-56.063,38.253c15.023,0.68,23.113,20.4,34.441,20.4"/>
	</g>
</g>
</svg>
