<?xml version="1.0" encoding="utf-8"?>
<!-- Generator: Adobe Illustrator 16.0.0, SVG Export Plug-In . SVG Version: 6.00 Build 0)  -->
<!DOCTYPE svg PUBLIC "-//W3C//DTD SVG 1.1//EN" "http://www.w3.org/Graphics/SVG/1.1/DTD/svg11.dtd">
<svg version="1.1" id="Layer_1" xmlns="http://www.w3.org/2000/svg" xmlns:xlink="http://www.w3.org/1999/xlink" x="0px" y="0px"
	 width="64.8px" height="28.8px" viewBox="0 0 64.8 28.8" enable-background="new 0 0 64.8 28.8" xml:space="preserve">
<desc>Fritzing breadboard generated by brd2svg</desc>
<g id="breadboard">
	<g id="icon">
		<path fill="#EA2730" d="M0,28.8h64.8V0H0V28.8 M52.919,14.4c0-2.584,2.096-4.68,4.681-4.68s4.68,2.095,4.68,4.68
			c0,2.585-2.095,4.68-4.68,4.68S52.919,16.985,52.919,14.4L52.919,14.4z M2.16,3.6c0-0.795,0.644-1.44,1.439-1.44
			c0.795,0,1.44,0.644,1.44,1.439c0,0,0,0,0,0.001c0,0.795-0.645,1.44-1.44,1.44S2.16,4.395,2.16,3.6z M2.16,10.8
			c0-0.795,0.644-1.44,1.439-1.44c0.795,0,1.44,0.645,1.44,1.439c0,0,0,0.001,0,0.001c0,0.795-0.645,1.44-1.44,1.44
			S2.16,11.595,2.16,10.8z M2.16,18c0-0.795,0.644-1.439,1.439-1.439C4.395,16.559,5.04,17.204,5.04,18l0,0
			c0,0.796-0.645,1.44-1.44,1.44S2.16,18.795,2.16,18z M2.16,25.201c0-0.796,0.644-1.441,1.439-1.441s1.44,0.645,1.44,1.439
			c0,0,0,0.001,0,0.002c0,0.795-0.645,1.439-1.44,1.439S2.16,25.996,2.16,25.201L2.16,25.201z"/>
		<g>
			<title>layer 21</title>
			<path fill="none" stroke="#FFFFFF" stroke-width="0.72" d="M49.32,13.32c1.193,0,2.16-0.967,2.16-2.16S50.513,9,49.32,9
				s-2.16,0.967-2.16,2.16l0,0"/>
			<line fill="none" stroke="#FFFFFF" stroke-width="0.72" stroke-linecap="round" x1="47.16" y1="11.16" x2="48.096" y2="10.512"/>
			<line fill="none" stroke="#FFFFFF" stroke-width="0.72" stroke-linecap="round" x1="48.096" y1="10.512" x2="46.8" y2="9.936"/>
			<line fill="none" stroke="#FFFFFF" stroke-width="0.72" stroke-linecap="round" x1="46.8" y1="9.936" x2="47.16" y2="11.16"/>
			<line fill="none" stroke="#FFFFFF" stroke-width="0.36" stroke-linecap="round" x1="47.52" y1="10.8" x2="47.16" y2="10.8"/>
			
				<line fill="none" stroke="#FFFFFF" stroke-width="0.72" stroke-linecap="round" x1="47.448" y1="10.512" x2="47.232" y2="10.224"/>
			<path fill="none" stroke="#FFFFFF" stroke-width="0.72" d="M48.923,16.927c-0.871-0.815-2.237-0.77-3.053,0.102
				c-0.814,0.871-0.77,2.237,0.102,3.053c0.871,0.814,2.238,0.77,3.053-0.102"/>
			
				<line fill="none" stroke="#FFFFFF" stroke-width="0.72" stroke-linecap="round" x1="49.025" y1="19.98" x2="47.899" y2="19.814"/>
			
				<line fill="none" stroke="#FFFFFF" stroke-width="0.72" stroke-linecap="round" x1="47.899" y1="19.814" x2="48.452" y2="21.12"/>
			<line fill="none" stroke="#FFFFFF" stroke-width="0.72" stroke-linecap="round" x1="48.452" y1="21.12" x2="49.025" y2="19.98"/>
			<line fill="none" stroke="#FFFFFF" stroke-width="0.72" stroke-linecap="round" x1="43.201" y1="18.36" x2="51.839" y2="18.36"/>
			<line fill="none" stroke="#FFFFFF" stroke-width="0.72" stroke-linecap="round" x1="43.201" y1="18.36" x2="43.201" y2="9.72"/>
			<line fill="none" stroke="#FFFFFF" stroke-width="0.72" stroke-linecap="round" x1="51.839" y1="18.36" x2="50.759" y2="19.44"/>
			<line fill="none" stroke="#FFFFFF" stroke-width="0.72" stroke-linecap="round" x1="50.759" y1="17.28" x2="51.839" y2="18.36"/>
			<line fill="none" stroke="#FFFFFF" stroke-width="0.72" stroke-linecap="round" x1="42.121" y1="10.8" x2="43.201" y2="9.72"/>
			<line fill="none" stroke="#FFFFFF" stroke-width="0.72" stroke-linecap="round" x1="44.28" y1="10.8" x2="42.121" y2="10.8"/>
			<line fill="none" stroke="#FFFFFF" stroke-width="0.72" stroke-linecap="round" x1="43.201" y1="9.72" x2="44.28" y2="10.8"/>
			<path fill="none" stroke="#FFFFFF" stroke-width="0.72" d="M41.623,12.276c-0.814,0.871-0.77,2.238,0.102,3.054
				c0.871,0.814,2.238,0.77,3.053-0.102c0.815-0.871,0.77-2.238-0.102-3.053"/>
			
				<line fill="none" stroke="#FFFFFF" stroke-width="0.72" stroke-linecap="round" x1="44.675" y1="12.175" x2="44.509" y2="13.301"/>
			
				<line fill="none" stroke="#FFFFFF" stroke-width="0.72" stroke-linecap="round" x1="44.509" y1="13.301" x2="45.816" y2="12.749"/>
			
				<line fill="none" stroke="#FFFFFF" stroke-width="0.72" stroke-linecap="round" x1="45.816" y1="12.749" x2="44.675" y2="12.175"/>
			<circle fill="none" stroke="#FFFFFF" stroke-width="0.504" cx="49.32" cy="11.16" r="0.18"/>
			<g>
				<title>text:GND</title>
				<g transform="matrix(1, 0, 0, 1, 9.87264, 3.6)">
					<g transform="rotate(-90)">
						<text transform="matrix(1 0 0 1 -2.8312 -0.7501)" fill="#FFFFFF" font-family="'OCRA'" font-size="2.6726">GND</text>
					</g>
				</g>
			</g>
			<g>
				<title>text:VDD</title>
				<g transform="matrix(1, 0, 0, 1, 9.87264, 10.8)">
					<g transform="rotate(-90)">
						<text transform="matrix(1 0 0 1 -2.9944 -0.7501)" fill="#FFFFFF" font-family="'OCRA'" font-size="2.6726">VDD</text>
					</g>
				</g>
			</g>
			<g>
				<title>text:SCL</title>
				<g transform="matrix(1, 0, 0, 1, 7.2, 25.2)">
					<g transform="rotate(270)">
						<text transform="matrix(1 0 0 1 -2.6003 1.9225)" fill="#FFFFFF" font-family="'OCRA'" font-size="2.6726">SCL</text>
					</g>
				</g>
			</g>
			<g>
				<title>text:SDA</title>
				<g transform="matrix(1, 0, 0, 1, 7.2, 18)">
					<g transform="rotate(270)">
						<text transform="matrix(1 0 0 1 -2.5493 1.9225)" fill="#FFFFFF" font-family="'OCRA'" font-size="2.6726">SDA</text>
					</g>
				</g>
			</g>
			<g>
				<title>text:9DOF Stick</title>
				<text transform="matrix(1 0 0 1 33.48 25.1997)" fill="#FFFFFF" font-family="'OCRA'" font-size="4.176">9DOF Stick</text>
			</g>
			<g>
				<title>text:X</title>
				<text transform="matrix(1 0 0 1 43.7046 9.3599)" fill="#FFFFFF" font-family="'OCRA'" font-size="3.3408">X</text>
			</g>
			<g>
				<title>text:Y</title>
				<text transform="matrix(1 0 0 1 52.7759 22.3198)" fill="#FFFFFF" font-family="'OCRA'" font-size="3.3408">Y</text>
			</g>
			<g>
				<title>text:Z</title>
				<text transform="matrix(1 0 0 1 52.0562 8.7837)" fill="#FFFFFF" font-family="'OCRA'" font-size="3.3408">Z</text>
			</g>
			<g>
				<title>element:C1</title>
				<g>
					<title>package:0603-CAP</title>
					<line fill="none" stroke="#FFFFFF" stroke-width="1.08" stroke-linecap="round" x1="14.4" y1="17.359" x2="14.4" y2="17.201"/>
				</g>
			</g>
			<g>
				<title>element:C2</title>
				<g>
					<title>package:0603-CAP</title>
					<line fill="none" stroke="#FFFFFF" stroke-width="1.08" stroke-linecap="round" x1="14.4" y1="11.599" x2="14.4" y2="11.441"/>
				</g>
			</g>
			<g>
				<title>element:C3</title>
				<g>
					<title>package:0603-CAP</title>
					<line fill="none" stroke="#FFFFFF" stroke-width="1.08" stroke-linecap="round" x1="14.4" y1="23.119" x2="14.4" y2="22.96"/>
				</g>
			</g>
			<g>
				<title>element:C4</title>
				<g>
					<title>package:0603-CAP</title>
					<line fill="none" stroke="#FFFFFF" stroke-width="1.08" stroke-linecap="round" x1="14.4" y1="5.839" x2="14.4" y2="5.681"/>
				</g>
			</g>
			<g>
				<title>element:C5</title>
				<g>
					<title>package:0603-CAP</title>
					<line fill="none" stroke="#FFFFFF" stroke-width="1.08" stroke-linecap="round" x1="27" y1="5.681" x2="27" y2="5.839"/>
				</g>
			</g>
			<g>
				<title>element:FD3</title>
				<g>
					<title>package:MICRO-FIDUCIAL</title>
				</g>
			</g>
			<g>
				<title>element:FD4</title>
				<g>
					<title>package:MICRO-FIDUCIAL</title>
				</g>
			</g>
			<g>
				<title>element:H1</title>
				<g>
					<title>package:STAND-OFF</title>
				</g>
			</g>
			<g>
				<title>element:J2</title>
				<g>
					<title>package:1X04_NO_SILK_ALL_ROUND</title>
				</g>
			</g>
			<g>
				<title>element:JP1</title>
				<g>
					<title>package:PAD-JUMPER-3-3OF3_NC_BY_TRACE_YES_SILK_FULL_BOX</title>
				</g>
			</g>
			<g>
				<title>element:JP2</title>
				<g>
					<title>package:PAD-JUMPER-3-2OF3_NC_BY_TRACE_YES_SILK_FULL_BOX</title>
				</g>
			</g>
			<g>
				<title>element:JP3</title>
				<g>
					<title>package:PAD-JUMPER-3-2OF3_NC_BY_TRACE_YES_SILK_FULL_BOX</title>
				</g>
			</g>
			<g>
				<title>element:LOGO1</title>
				<g>
					<title>package:SFE_LOGO_FLAME_.1</title>
					<g>
						<title>polygon</title>
						<path fill="none" stroke="#FFFFFF" stroke-width="0.216" stroke-linecap="round" d="M49.819,2.662v0.255 M49.819,2.917
							l-0.028,0.085 M49.791,3.002l-0.028,0.057 M49.762,3.059l-0.085,0.085 M49.677,3.144l-0.085,0.028 M49.592,3.172h-0.085
							 M49.507,3.172l-0.227-0.057 M49.281,3.115l-0.113-0.057 M49.167,3.059l-0.086-0.057 M49.082,3.002l-0.113-0.085
							 M48.968,2.917l-0.17-0.17 M48.798,2.747l-0.113-0.17 M48.685,2.577l-0.028-0.113 M48.657,2.463v-0.17 M48.657,2.293
							l0.028-0.085 M48.685,2.208l0.028-0.057 M48.713,2.151l0.057-0.085 M48.77,2.066l0.113-0.085 M48.883,1.981l0.114-0.057
							 M48.998,1.925l0.141-0.028 M49.138,1.896l0.113-0.028 M49.251,1.868h0.17 M49.421,1.868l0.058,0.028 M49.479,1.896h0.028
							 M49.507,1.896l-0.028-0.028 M49.479,1.868l-0.114-0.085 M49.365,1.783l-0.396-0.199 M48.968,1.584l-0.255-0.057
							 M48.713,1.528h-0.284 M48.429,1.528l-0.311,0.057 M48.119,1.584l-0.313,0.17 M47.806,1.754l-0.255,0.199 M47.551,1.953
							L47.41,2.18 M47.41,2.18l-0.086,0.255 M47.324,2.435v0.227 M47.324,2.662l0.058,0.255 M47.381,2.917l0.142,0.255
							 M47.523,3.172l0.198,0.227 M47.721,3.399l0.227,0.255 M47.948,3.654l0.198,0.198 M48.146,3.852l0.086,0.227 M48.232,4.079
							v0.198 M48.232,4.277l-0.057,0.17 M48.175,4.448l-0.113,0.142 M48.062,4.589l-0.171,0.113 M47.891,4.703l-0.227,0.057
							 M47.665,4.759h-0.227 M47.438,4.759l-0.142-0.028 M47.296,4.731l-0.143-0.057 M47.154,4.674l-0.17-0.17 M46.984,4.504
							l-0.057-0.085 M46.927,4.419L46.9,4.334 M46.9,4.334V4.221 M46.9,4.221l0.027-0.085 M46.927,4.136l0.17-0.17 M47.097,3.966
							l0.086-0.028 M47.183,3.938l0.113-0.057 M47.296,3.88l0.027-0.028 M47.324,3.852L47.21,3.795 M47.21,3.795h-0.34
							 M46.871,3.795l-0.17,0.028 M46.701,3.824l-0.142,0.028 M46.559,3.852l-0.142,0.057 M46.417,3.909l-0.113,0.085 M46.304,3.994
							l-0.143,0.113 M46.162,4.107l-0.17,0.284 M45.992,4.391l-0.057,0.198 M45.935,4.589l-0.027,0.227 M45.908,4.816V8.7
							 M45.908,8.7l0.141-0.142 M46.048,8.558l0.086-0.142 M46.134,8.416l0.141-0.142 M46.275,8.274l0.143-0.17 M46.417,8.104
							l0.34-0.34 M46.757,7.764l0.34-0.397 M47.097,7.367l0.284-0.283 M47.381,7.084l0.283-0.17 M47.665,6.914l0.17-0.028
							 M47.834,6.885h0.538 M48.373,6.885l0.341-0.057 M48.713,6.829l0.312-0.085 M49.025,6.744l0.283-0.113 M49.308,6.63
							l0.284-0.17 M49.592,6.46l0.227-0.198 M49.819,6.262l0.228-0.227 M50.046,6.035l0.197-0.255 M50.244,5.78l0.284-0.51
							 M50.528,5.27l0.142-0.539 M50.669,4.731l0.028-0.482 M50.698,4.249l-0.085-0.454 M50.613,3.795L50.47,3.371 M50.47,3.371
							l-0.197-0.312 M50.273,3.059l-0.227-0.255 M50.046,2.803l-0.228-0.142 M45.908,8.64h0.059 M45.908,8.424h0.221 M45.908,8.208
							h0.423 M45.908,7.992h0.622 M45.908,7.776h0.838 M45.908,7.56h1.025 M45.908,7.344h1.213 M45.908,7.128h1.43 M45.908,6.912
							h1.768 M45.908,6.696h3.236 M45.908,6.48h3.651 M45.908,6.264h3.908 M45.908,6.048h4.125 M45.908,5.832h4.296 M45.908,5.616
							h4.428 M45.908,5.4h4.547 M45.908,5.184h4.643 M45.908,4.968h4.699 M45.916,4.752h1.485 M47.694,4.752h2.97 M45.951,4.536
							h1.065 M48.104,4.536h2.577 M46.035,4.32H46.9 M48.217,4.32h2.476 M46.167,4.104h0.793 M48.232,4.104h2.438 M46.47,3.888
							h0.811 M48.16,3.888h2.471 M47.966,3.672h2.605 M47.772,3.456H50.5 M47.583,3.24h2.806 M47.441,3.024h1.674 M49.779,3.024
							h0.463 M47.357,2.808h1.502 M49.819,2.808h0.231 M47.324,2.592h1.371 M47.344,2.376h1.313 M47.421,2.16h1.287 M47.563,1.944
							h1.396 M47.855,1.728h1.4"/>
					</g>
				</g>
			</g>
			<g>
				<title>element:LOGO3</title>
				<g>
					<title>package:OSHW-LOGO-MINI</title>
				</g>
			</g>
			<g>
				<title>element:R1</title>
				<g>
					<title>package:0603-RES</title>
					<rect x="38.339" y="18.72" fill="#FFFFFF" width="1.08" height="2.16"/>
				</g>
			</g>
			<g>
				<title>element:R2</title>
				<g>
					<title>package:0603-RES</title>
					<rect x="34.74" y="18.72" fill="#FFFFFF" width="1.08" height="2.16"/>
				</g>
			</g>
			<g>
				<title>element:U1</title>
				<g>
					<title>package:LGA24-8X4</title>
					
						<line fill="none" stroke="#FFFFFF" stroke-width="0.288" stroke-linecap="round" x1="22.104" y1="19.644" x2="22.104" y2="9.156"/>
					
						<line fill="none" stroke="#FFFFFF" stroke-width="0.288" stroke-linecap="round" x1="22.104" y1="9.156" x2="31.175" y2="9.156"/>
					
						<line fill="none" stroke="#FFFFFF" stroke-width="0.288" stroke-linecap="round" x1="31.175" y1="9.156" x2="31.175" y2="19.644"/>
					
						<line fill="none" stroke="#FFFFFF" stroke-width="0.288" stroke-linecap="round" x1="31.175" y1="19.644" x2="22.104" y2="19.644"/>
					<circle fill="none" cx="21.538" cy="20.211" r="0.567"/>
				</g>
			</g>
		</g>
		<rect x="38.339" y="16.56" fill="#FFFFFF" fill-opacity="0.15" width="1.08" height="2.16"/>
		<rect x="34.74" y="16.56" fill="#FFFFFF" fill-opacity="0.15" width="1.08" height="2.16"/>
		<circle id="connector12pin" fill="none" stroke="#9A916C" stroke-width="1.224" cx="3.6" cy="3.6" r="2.052"/>
		<circle id="connector13pin" fill="none" stroke="#9A916C" stroke-width="1.224" cx="3.6" cy="10.8" r="2.052"/>
		<circle id="connector14pin" fill="none" stroke="#9A916C" stroke-width="1.224" cx="3.6" cy="18" r="2.052"/>
		<circle id="connector15pin" fill="none" stroke="#9A916C" stroke-width="1.224" cx="3.6" cy="25.2" r="2.052"/>
	</g>
	<g id="_x30_603-cap" transform="matrix(1, 0, 0, 1, 11.14, 15.7265)">
		<g transform="matrix(-1, 0, 0, -1, 6.52, 3.107)">
			<g>
				<g>
					<rect x="-0.018" fill="#534741" width="6.559" height="2.938"/>
					<rect x="-0.018" opacity="0.2" fill="#FFFFFF" enable-background="new    " width="6.559" height="0.051"/>
					<rect x="-0.018" y="2.225" fill="#3E3531" width="6.559" height="0.875"/>
					<rect x="-0.018" y="3.072" opacity="0.2" enable-background="new    " width="6.559" height="0.035"/>
				</g>
				<g>
					<path fill="#DCDCDC" d="M5.588,0L5.588,0L5.588,0H5.512l0,0C5.447,0.275,5.401,0.873,5.401,1.178c0,0.32,0.04,0.76,0.111,1.047
						l0,0l0,0h1.007V0H5.588z"/>
					<path fill="#DCDCDC" d="M1.007,0.113V0H0v2.227h1.007C1.08,1.938,1.166,1.503,1.166,1.18C1.166,0.8,1.105,0.443,1.007,0.113z"
						/>
					<path fill="#D1C690" d="M1.007,3.107H0V2.225h1.007C1.071,2.568,1.007,3.107,1.007,3.107z"/>
					<path fill="#CCCCCC" d="M1.007,3.107H0V2.225h1.007C1.057,2.491,1.007,3.107,1.007,3.107z"/>
					<rect x="0" y="3.057" opacity="0.15" enable-background="new    " width="1.007" height="0.051"/>
					<rect x="0" opacity="0.5" fill="#FFFFFF" enable-background="new    " width="1.007" height="0.051"/>
					<path fill="#D1C690" d="M6.519,3.107H5.512c0,0-0.068-0.703,0-0.883h1.007V3.107z"/>
					<path fill="#CCCCCC" d="M6.519,3.107H5.512c0,0-0.066-0.633,0-0.883h1.007V3.107z"/>
					<rect x="5.513" y="3.057" opacity="0.15" enable-background="new    " width="1.007" height="0.051"/>
					<rect x="5.513" opacity="0.5" fill="#FFFFFF" enable-background="new    " width="1.007" height="0.051"/>
					<line fill="none" x1="0.61" y1="3.107" x2="0.61" y2="3.107"/>
				</g>
			</g>
		</g>
	</g>
	<g id="_x30_603-cap_1_" transform="matrix(1, 0, 0, 1, 11.14, 9.96653)">
		<g transform="matrix(-1, 0, 0, -1, 6.52, 3.107)">
			<g>
				<g>
					<rect x="-0.018" y="0" fill="#534741" width="6.559" height="2.938"/>
					<rect x="-0.018" y="0" opacity="0.2" fill="#FFFFFF" enable-background="new    " width="6.559" height="0.051"/>
					<rect x="-0.018" y="2.225" fill="#3E3531" width="6.559" height="0.875"/>
					<rect x="-0.018" y="3.072" opacity="0.2" enable-background="new    " width="6.559" height="0.035"/>
				</g>
				<g>
					<path fill="#DCDCDC" d="M5.588,0L5.588,0L5.588,0H5.512l0,0C5.447,0.275,5.401,0.873,5.401,1.178c0,0.32,0.04,0.76,0.111,1.047
						l0,0l0,0h1.007V0H5.588z"/>
					<path fill="#DCDCDC" d="M1.007,0.113V0H0v2.227h1.007c0.073-0.29,0.159-0.724,0.159-1.048C1.166,0.8,1.105,0.443,1.007,0.113z"
						/>
					<path fill="#D1C690" d="M1.007,3.108H0V2.225h1.007C1.071,2.569,1.007,3.108,1.007,3.108z"/>
					<path fill="#CCCCCC" d="M1.007,3.108H0V2.225h1.007C1.057,2.491,1.007,3.108,1.007,3.108z"/>
					<rect x="0" y="3.056" opacity="0.15" enable-background="new    " width="1.007" height="0.051"/>
					<rect x="0" y="0" opacity="0.5" fill="#FFFFFF" enable-background="new    " width="1.007" height="0.051"/>
					<path fill="#D1C690" d="M6.519,3.108H5.512c0,0-0.068-0.704,0-0.883h1.007V3.108z"/>
					<path fill="#CCCCCC" d="M6.519,3.108H5.512c0,0-0.066-0.634,0-0.883h1.007V3.108z"/>
					<rect x="5.513" y="3.056" opacity="0.15" enable-background="new    " width="1.007" height="0.051"/>
					<rect x="5.513" y="0" opacity="0.5" fill="#FFFFFF" enable-background="new    " width="1.007" height="0.051"/>
					<line fill="none" x1="0.61" y1="3.107" x2="0.61" y2="3.107"/>
				</g>
			</g>
		</g>
	</g>
	<g id="_x30_603-cap_2_" transform="matrix(1, 0, 0, 1, 11.14, 21.4865)">
		<g transform="matrix(-1, 0, 0, -1, 6.52, 3.107)">
			<g>
				<g>
					<rect x="-0.018" y="0" fill="#534741" width="6.559" height="2.938"/>
					<rect x="-0.018" y="0" opacity="0.2" fill="#FFFFFF" enable-background="new    " width="6.559" height="0.051"/>
					<rect x="-0.018" y="2.225" fill="#3E3531" width="6.559" height="0.875"/>
					<rect x="-0.018" y="3.073" opacity="0.2" enable-background="new    " width="6.559" height="0.035"/>
				</g>
				<g>
					<path fill="#DCDCDC" d="M5.588,0L5.588,0L5.588,0H5.512l0,0C5.447,0.276,5.401,0.873,5.401,1.178c0,0.32,0.04,0.76,0.111,1.047
						l0,0l0,0h1.007V0H5.588z"/>
					<path fill="#DCDCDC" d="M1.007,0.114V0H0v2.227h1.007c0.073-0.29,0.159-0.724,0.159-1.048C1.166,0.8,1.105,0.444,1.007,0.114z"
						/>
					<path fill="#D1C690" d="M1.007,3.108H0V2.225h1.007C1.071,2.569,1.007,3.108,1.007,3.108z"/>
					<path fill="#CCCCCC" d="M1.007,3.108H0V2.225h1.007C1.057,2.49,1.007,3.108,1.007,3.108z"/>
					<rect x="0" y="3.056" opacity="0.15" enable-background="new    " width="1.007" height="0.052"/>
					<rect x="0" y="0" opacity="0.5" fill="#FFFFFF" enable-background="new    " width="1.007" height="0.051"/>
					<path fill="#D1C690" d="M6.519,3.108H5.512c0,0-0.068-0.703,0-0.883h1.007V3.108z"/>
					<path fill="#CCCCCC" d="M6.519,3.108H5.512c0,0-0.066-0.634,0-0.883h1.007V3.108z"/>
					<rect x="5.513" y="3.056" opacity="0.15" enable-background="new    " width="1.007" height="0.052"/>
					<rect x="5.513" y="0" opacity="0.5" fill="#FFFFFF" enable-background="new    " width="1.007" height="0.051"/>
					<line fill="none" x1="0.61" y1="3.108" x2="0.61" y2="3.108"/>
				</g>
			</g>
		</g>
	</g>
	<g id="_x30_603-cap_3_" transform="matrix(1, 0, 0, 1, 11.14, 4.2065)">
		<g transform="matrix(-1, 0, 0, -1, 6.52, 3.107)">
			<g>
				<g>
					<rect x="-0.018" fill="#534741" width="6.559" height="2.938"/>
					<rect x="-0.018" opacity="0.2" fill="#FFFFFF" enable-background="new    " width="6.559" height="0.051"/>
					<rect x="-0.018" y="2.225" fill="#3E3531" width="6.559" height="0.875"/>
					<rect x="-0.018" y="3.072" opacity="0.2" enable-background="new    " width="6.559" height="0.035"/>
				</g>
				<g>
					<path fill="#DCDCDC" d="M5.588,0L5.588,0L5.588,0H5.512l0,0C5.447,0.275,5.401,0.873,5.401,1.178c0,0.32,0.04,0.76,0.111,1.047
						l0,0l0,0h1.007V0H5.588z"/>
					<path fill="#DCDCDC" d="M1.007,0.113V0H0v2.227h1.007c0.073-0.29,0.159-0.724,0.159-1.048C1.166,0.8,1.105,0.443,1.007,0.113z"
						/>
					<path fill="#D1C690" d="M1.007,3.108H0V2.225h1.007C1.071,2.569,1.007,3.108,1.007,3.108z"/>
					<path fill="#CCCCCC" d="M1.007,3.108H0V2.225h1.007C1.057,2.491,1.007,3.108,1.007,3.108z"/>
					<rect x="0" y="3.056" opacity="0.15" enable-background="new    " width="1.007" height="0.051"/>
					<rect x="0" opacity="0.5" fill="#FFFFFF" enable-background="new    " width="1.007" height="0.051"/>
					<path fill="#D1C690" d="M6.519,3.108H5.512c0,0-0.068-0.704,0-0.883h1.007V3.108z"/>
					<path fill="#CCCCCC" d="M6.519,3.108H5.512c0,0-0.066-0.634,0-0.883h1.007V3.108z"/>
					<rect x="5.513" y="3.056" opacity="0.15" enable-background="new    " width="1.007" height="0.051"/>
					<rect x="5.513" opacity="0.5" fill="#FFFFFF" enable-background="new    " width="1.007" height="0.051"/>
					<line fill="none" x1="0.61" y1="3.107" x2="0.61" y2="3.107"/>
				</g>
			</g>
		</g>
	</g>
	<g id="_x30_603-cap_4_" transform="matrix(1, 0, 0, 1, 23.74, 4.2065)">
		<g>
			<g>
				<rect x="-0.018" y="0" fill="#534741" width="6.559" height="2.938"/>
				<rect x="-0.018" y="0" opacity="0.2" fill="#FFFFFF" enable-background="new    " width="6.559" height="0.051"/>
				<rect x="-0.018" y="2.225" fill="#3E3531" width="6.559" height="0.875"/>
				<rect x="-0.018" y="3.072" opacity="0.2" enable-background="new    " width="6.559" height="0.035"/>
			</g>
			<g>
				<path fill="#DCDCDC" d="M5.588,0L5.588,0L5.588,0H5.512l0,0C5.447,0.275,5.401,0.873,5.401,1.178c0,0.32,0.04,0.76,0.111,1.047
					l0,0l0,0h1.007V0H5.588z"/>
				<path fill="#DCDCDC" d="M1.007,0.113V0H0v2.227h1.007c0.073-0.29,0.159-0.724,0.159-1.048C1.166,0.8,1.105,0.443,1.007,0.113z"
					/>
				<path fill="#D1C690" d="M1.007,3.108H0V2.225h1.007C1.071,2.569,1.007,3.108,1.007,3.108z"/>
				<path fill="#CCCCCC" d="M1.007,3.108H0V2.225h1.007C1.057,2.491,1.007,3.108,1.007,3.108z"/>
				<rect x="0" y="3.056" opacity="0.15" enable-background="new    " width="1.007" height="0.051"/>
				<rect x="0" y="0" opacity="0.5" fill="#FFFFFF" enable-background="new    " width="1.007" height="0.051"/>
				<path fill="#D1C690" d="M6.519,3.108H5.512c0,0-0.068-0.704,0-0.883h1.007V3.108z"/>
				<path fill="#CCCCCC" d="M6.519,3.108H5.512c0,0-0.066-0.634,0-0.883h1.007V3.108z"/>
				<rect x="5.513" y="3.056" opacity="0.15" enable-background="new    " width="1.007" height="0.051"/>
				<rect x="5.513" y="0" opacity="0.5" fill="#FFFFFF" enable-background="new    " width="1.007" height="0.051"/>
				<line fill="none" x1="0.61" y1="3.107" x2="0.61" y2="3.107"/>
			</g>
		</g>
	</g>
	<g id="_x30_603-res" transform="matrix(1, 0, 0, 1, 34.911, 16.223)">
		<g transform="matrix(0, 1, -1, 0, 5.386, -2.552)">
			<g>
				<g>
					
						<rect x="2.624" y="-2.643" transform="matrix(2.578893e-006 1 -1 2.578893e-006 5.3047 -2.6238)" fill="#333333" width="2.68" height="7.967"/>
					
						<rect x="3.942" y="-3.96" transform="matrix(2.578893e-006 1 -1 2.578893e-006 3.9873 -3.9412)" opacity="0.2" fill="#FFFFFF" enable-background="new    " width="0.045" height="7.967"/>
					
						<rect x="3.565" y="-1.554" transform="matrix(2.578893e-006 1 -1 2.578893e-006 6.3935 -1.5349)" fill="#1A1A1A" width="0.799" height="7.967"/>
					
						<rect x="3.948" y="-1.165" transform="matrix(2.578893e-006 1 -1 2.578893e-006 6.7822 -1.1462)" opacity="0.2" enable-background="new    " width="0.033" height="7.967"/>
				</g>
				<g>
					<path fill="#DCDCDC" d="M6.789,0.001L6.789,0.001L6.789,0.001H6.698l0,0c-0.08,0.25-0.136,0.795-0.136,1.074
						c0,0.291,0.048,0.693,0.136,0.955l0,0l0,0H7.92V0.001H6.789z"/>
					<path fill="#DCDCDC" d="M1.226,0.104V0.001H0.004V2.03h1.223C1.315,1.767,1.42,1.372,1.42,1.076
						C1.42,0.73,1.345,0.405,1.226,0.104z"/>
					<path fill="#999999" d="M7.927,2.135H6.703L6.698,2.03H7.92L7.927,2.135z"/>
					<path fill="#999999" d="M0.01,2.137h1.223L1.226,2.03H0.004L0.01,2.137z"/>
					
						<rect x="0.592" y="2.2" transform="matrix(2.578893e-006 1 -1 2.578893e-006 3.4268 2.1955)" opacity="0.15" enable-background="new    " width="0.047" height="1.223"/>
					
						<rect x="0.593" y="-0.588" transform="matrix(2.578893e-006 1 -1 2.578893e-006 0.6387 -0.5925)" opacity="0.5" fill="#FFFFFF" enable-background="new    " width="0.045" height="1.223"/>
					
						<rect x="7.286" y="2.199" transform="matrix(2.578893e-006 1 -1 2.578893e-006 10.1211 -4.4988)" opacity="0.15" enable-background="new    " width="0.047" height="1.225"/>
					
						<rect x="7.287" y="-0.589" transform="matrix(2.578893e-006 1 -1 2.578893e-006 7.333 -7.2869)" opacity="0.5" fill="#FFFFFF" enable-background="new    " width="0.045" height="1.225"/>
					<line fill="none" x1="0.743" y1="2.835" x2="0.743" y2="2.835"/>
				</g>
			</g>
			
				<rect x="7.541" y="2.423" transform="matrix(2.578893e-006 1 -1 2.578893e-006 10.3686 -5.4055)" fill="#999999" width="0.692" height="0.117"/>
			
				<rect x="-0.283" y="2.422" transform="matrix(2.578893e-006 1 -1 2.578893e-006 2.5452 2.418)" fill="#999999" width="0.692" height="0.119"/>
		</g>
	</g>
	<g id="_x30_603-res_1_" transform="matrix(1, 0, 0, 1, 31.311, 16.223)">
		<g transform="matrix(0, 1, -1, 0, 5.386, -2.552)">
			<g>
				<g>
					
						<rect x="2.624" y="-2.643" transform="matrix(2.578893e-006 1 -1 2.578893e-006 5.3048 -2.6237)" fill="#333333" width="2.681" height="7.967"/>
					
						<rect x="3.941" y="-3.96" transform="matrix(2.578893e-006 1 -1 2.578893e-006 3.9874 -3.9411)" opacity="0.2" fill="#FFFFFF" enable-background="new    " width="0.046" height="7.967"/>
					
						<rect x="3.565" y="-1.554" transform="matrix(2.578893e-006 1 -1 2.578893e-006 6.3931 -1.5353)" fill="#1A1A1A" width="0.799" height="7.967"/>
					
						<rect x="3.948" y="-1.165" transform="matrix(2.578893e-006 1 -1 2.578893e-006 6.7823 -1.1462)" opacity="0.2" enable-background="new    " width="0.032" height="7.967"/>
				</g>
				<g>
					<path fill="#DCDCDC" d="M6.789,0L6.789,0L6.789,0H6.698l0,0c-0.08,0.251-0.136,0.796-0.136,1.074
						c0,0.291,0.048,0.693,0.136,0.955l0,0l0,0H7.92V0H6.789z"/>
					<path fill="#DCDCDC" d="M1.226,0.104V0H0.004V2.03h1.223C1.315,1.767,1.42,1.371,1.42,1.076
						C1.42,0.731,1.345,0.405,1.226,0.104z"/>
					<path fill="#999999" d="M7.927,2.136H6.703L6.698,2.03H7.92L7.927,2.136z"/>
					<path fill="#999999" d="M0.01,2.138h1.223L1.226,2.03H0.004L0.01,2.138z"/>
					
						<rect x="0.592" y="2.199" transform="matrix(2.578893e-006 1 -1 2.578893e-006 3.4264 2.1952)" opacity="0.15" enable-background="new    " width="0.047" height="1.223"/>
					
						<rect x="0.593" y="-0.588" transform="matrix(2.578893e-006 1 -1 2.578893e-006 0.6388 -0.5924)" opacity="0.5" fill="#FFFFFF" enable-background="new    " width="0.046" height="1.223"/>
					
						<rect x="7.286" y="2.198" transform="matrix(2.578893e-006 1 -1 2.578893e-006 10.1207 -4.4992)" opacity="0.15" enable-background="new    " width="0.047" height="1.225"/>
					
						<rect x="7.287" y="-0.589" transform="matrix(2.578893e-006 1 -1 2.578893e-006 7.3331 -7.2868)" opacity="0.5" fill="#FFFFFF" enable-background="new    " width="0.046" height="1.225"/>
					<line fill="none" x1="0.743" y1="2.834" x2="0.743" y2="2.834"/>
				</g>
			</g>
			
				<rect x="7.541" y="2.424" transform="matrix(2.578893e-006 1 -1 2.578893e-006 10.3692 -5.4049)" fill="#999999" width="0.692" height="0.117"/>
			
				<rect x="-0.283" y="2.423" transform="matrix(2.578893e-006 1 -1 2.578893e-006 2.5457 2.4185)" fill="#999999" width="0.692" height="0.119"/>
		</g>
	</g>
</g>
<rect x="22.104" y="9.156" fill="#3E3531" width="9.071" height="10.488"/>
</svg>
