<?xml version="1.0" encoding="utf-8"?>
<!-- Generator: Adobe Illustrator 25.0.1, SVG Export Plug-In . SVG Version: 6.00 Build 0)  -->
<svg version="1.1" id="Layer_1" xmlns="http://www.w3.org/2000/svg" xmlns:xlink="http://www.w3.org/1999/xlink" x="0px" y="0px"
	 viewBox="0 0 50 50" style="enable-background:new 0 0 50 50;" xml:space="preserve">
<style type="text/css">
	.st0{fill:#FFFFFF;}
	.st1{fill:none;stroke:#707070;stroke-width:2;stroke-linecap:round;stroke-linejoin:round;}
	.st2{fill:#707070;}
</style>
<circle class="st0" cx="25" cy="25" r="25"/>
<g>
	<circle class="st1" cx="23" cy="23" r="12"/>
	<path class="st1" d="M32,32l7,7"/>
</g>
<path class="st2" d="M27.8,21.55h-3.42v-3.42c0-0.78-0.63-1.42-1.42-1.42s-1.42,0.63-1.42,1.42v3.42h-3.42
	c-0.78,0-1.42,0.63-1.42,1.42c0,0.78,0.63,1.42,1.42,1.42h3.42v3.42c0,0.78,0.63,1.42,1.42,1.42c0.78,0,1.42-0.63,1.42-1.42v-3.42
	h3.42c0.78,0,1.42-0.63,1.42-1.42S28.58,21.55,27.8,21.55z"/>
</svg>
